ISO-10303-21;
HEADER;
FILE_DESCRIPTION(('CATIA V5 STEP Exchange','CAx-IF Rec.Pracs.--- Model Styling and Organization---1.4--- 2014-01-23'),'2;1');

FILE_NAME('C:\\Users\\SA516207\\WORK\\01_ASSY\\3_Catia\\ECHELLE\\ECHELLE.stp','2026-09-18T13:55:17+00:00',('none'),('none'),'CATIA Version 5-6 Release 2017 SP2 HF26','CATIA V5 STEP AP203 WITH EXTENSIONS','none');

FILE_SCHEMA(('CONFIG_CONTROL_DESIGN','SHAPE_APPEARANCE_LAYER_MIM'));

ENDSEC;
DATA;
#46=(LENGTH_UNIT()NAMED_UNIT(*)SI_UNIT(.MILLI.,.METRE.));
#47=(NAMED_UNIT(*)PLANE_ANGLE_UNIT()SI_UNIT($,.RADIAN.));
#48=(NAMED_UNIT(*)SI_UNIT($,.STERADIAN.)SOLID_ANGLE_UNIT());
#127570=UNCERTAINTY_MEASURE_WITH_UNIT(LENGTH_MEASURE(0.005),#46,'distance_accuracy_value','CONFUSED CURVE UNCERTAINTY');
#127571=(GEOMETRIC_REPRESENTATION_CONTEXT(3)GLOBAL_UNCERTAINTY_ASSIGNED_CONTEXT((#127570))GLOBAL_UNIT_ASSIGNED_CONTEXT((#46,#47,#48))REPRESENTATION_CONTEXT(' ',' '));
#128723=MANIFOLD_SOLID_BREP('PartBody',#128725);
#128725=CLOSED_SHELL('Closed Shell',(#128765,#128796,#128827,#128858,#128889,#128932,#128963,#128994,#129025,#129056,#129087,#129128,#129152,#129192,#129209,#129316,#129399,#129497,#129570,#129658,#129725,#129795,#129847,#129867,#129887,#129907));
#128726=CARTESIAN_POINT('Axis2P3D Location',(9402.444336,-2751.64468104,478.299535961));
#128727=DIRECTION('Axis2P3D Direction',(1,0,0));
#128728=DIRECTION('Axis2P3D XDirection',(0,-0.0538505351938,0.99854900724));
#128729=AXIS2_PLACEMENT_3D('Cylinder Axis2P3D',#128726,#128727,#128728);
#128730=CYLINDRICAL_SURFACE('generated cylinder',#128729,5.);
#128731=CARTESIAN_POINT('Line Origine',(9403.839336,-2752.13381105,473.323518294));
#128732=DIRECTION('Vector Direction',(1,0,0));
#128733=VECTOR('Line Direction',#128732,1.);
#128734=LINE('Line',#128731,#128733);
#128735=CARTESIAN_POINT('Vertex',(9402.444336,-2752.13381105,473.323518294));
#128736=VERTEX_POINT('',#128735);
#128737=CARTESIAN_POINT('Vertex',(9405.234336,-2752.13381105,473.323518294));
#128738=VERTEX_POINT('',#128737);
#128739=EDGE_CURVE('',#128736,#128738,#128734,.T.);
#128740=CARTESIAN_POINT('Axis2P3D Location',(9405.234336,-2751.64468104,478.299535961));
#128741=DIRECTION('Axis2P3D Direction',(1,0,0));
#128742=AXIS2_PLACEMENT_3D('Circle Axis2P3D',#128740,#128741,$);
#128743=CIRCLE('generated circle',#128742,5.);
#128744=CARTESIAN_POINT('Vertex',(9405.234336,-2750.62324305,473.404981392));
#128745=VERTEX_POINT('',#128744);
#128746=EDGE_CURVE('',#128738,#128745,#128743,.T.);
#128747=CARTESIAN_POINT('Line Origine',(9403.839336,-2750.62324305,473.404981392));
#128748=DIRECTION('Vector Direction',(1,0,0));
#128749=VECTOR('Line Direction',#128748,1.);
#128750=LINE('Line',#128747,#128749);
#128751=CARTESIAN_POINT('Vertex',(9402.444336,-2750.62324305,473.404981392));
#128752=VERTEX_POINT('',#128751);
#128753=EDGE_CURVE('',#128752,#128745,#128750,.T.);
#128754=CARTESIAN_POINT('Axis2P3D Location',(9402.444336,-2751.64468104,478.299535961));
#128755=DIRECTION('Axis2P3D Direction',(1,0,0));
#128756=AXIS2_PLACEMENT_3D('Circle Axis2P3D',#128754,#128755,$);
#128757=CIRCLE('generated circle',#128756,5.);
#128758=EDGE_CURVE('',#128736,#128752,#128757,.T.);
#128759=EDGE_LOOP('',(#128760,#128761,#128762,#128763));
#128760=ORIENTED_EDGE('',*,*,#128739,.T.);
#128761=ORIENTED_EDGE('',*,*,#128746,.T.);
#128762=ORIENTED_EDGE('',*,*,#128753,.F.);
#128763=ORIENTED_EDGE('',*,*,#128758,.F.);
#128764=FACE_OUTER_BOUND('',#128759,.T.);
#128765=ADVANCED_FACE('PartBody',(#128764),#128730,.F.);
#128766=CARTESIAN_POINT('Axis2P3D Location',(9402.444336,-2720.55053903,479.680813407));
#128767=DIRECTION('Axis2P3D Direction',(0,-0.204287597512,0.978910913977));
#128768=DIRECTION('Axis2P3D XDirection',(1,0,0));
#128769=AXIS2_PLACEMENT_3D('Plane Axis2P3D',#128766,#128767,#128768);
#128770=PLANE('',#128769);
#128771=CARTESIAN_POINT('Line Origine',(9405.234336,-2720.55053903,479.680813407));
#128772=DIRECTION('Vector Direction',(0,0.978910913977,0.204287597512));
#128773=VECTOR('Line Direction',#128772,1.);
#128774=LINE('Line',#128771,#128773);
#128775=CARTESIAN_POINT('Vertex',(9405.234336,-2690.47783502,485.956645422));
#128776=VERTEX_POINT('',#128775);
#128777=EDGE_CURVE('',#128745,#128776,#128774,.T.);
#128778=CARTESIAN_POINT('Line Origine',(9403.839336,-2690.47783502,485.956645422));
#128779=DIRECTION('Vector Direction',(1,0,0));
#128780=VECTOR('Line Direction',#128779,1.);
#128781=LINE('Line',#128778,#128780);
#128782=CARTESIAN_POINT('Vertex',(9402.444336,-2690.47783502,485.956645422));
#128783=VERTEX_POINT('',#128782);
#128784=EDGE_CURVE('',#128783,#128776,#128781,.T.);
#128785=CARTESIAN_POINT('Line Origine',(9402.444336,-2720.55053903,479.680813407));
#128786=DIRECTION('Vector Direction',(0,0.978910913977,0.204287597512));
#128787=VECTOR('Line Direction',#128786,1.);
#128788=LINE('Line',#128785,#128787);
#128789=EDGE_CURVE('',#128752,#128783,#128788,.T.);
#128790=EDGE_LOOP('',(#128791,#128792,#128793,#128794));
#128791=ORIENTED_EDGE('',*,*,#128753,.T.);
#128792=ORIENTED_EDGE('',*,*,#128777,.T.);
#128793=ORIENTED_EDGE('',*,*,#128784,.F.);
#128794=ORIENTED_EDGE('',*,*,#128789,.F.);
#128795=FACE_OUTER_BOUND('',#128790,.T.);
#128796=ADVANCED_FACE('PartBody',(#128795),#128770,.T.);
#128797=CARTESIAN_POINT('Axis2P3D Location',(9402.444336,-2687.82209625,473.23080354));
#128798=DIRECTION('Axis2P3D Direction',(1,0,0));
#128799=DIRECTION('Axis2P3D XDirection',(0,0.0724032614861,-0.997375439705));
#128800=AXIS2_PLACEMENT_3D('Cylinder Axis2P3D',#128797,#128798,#128799);
#128801=CYLINDRICAL_SURFACE('generated cylinder',#128800,13.);
#128802=CARTESIAN_POINT('Axis2P3D Location',(9405.234336,-2687.82209625,473.23080354));
#128803=DIRECTION('Axis2P3D Direction',(1,0,0));
#128804=AXIS2_PLACEMENT_3D('Circle Axis2P3D',#128802,#128803,$);
#128805=CIRCLE('generated circle',#128804,13.);
#128806=CARTESIAN_POINT('Vertex',(9405.234336,-2687.0321499,486.206780758));
#128807=VERTEX_POINT('',#128806);
#128808=EDGE_CURVE('',#128807,#128776,#128805,.T.);
#128809=CARTESIAN_POINT('Line Origine',(9403.839336,-2687.0321499,486.206780758));
#128810=DIRECTION('Vector Direction',(1,0,0));
#128811=VECTOR('Line Direction',#128810,1.);
#128812=LINE('Line',#128809,#128811);
#128813=CARTESIAN_POINT('Vertex',(9402.444336,-2687.0321499,486.206780758));
#128814=VERTEX_POINT('',#128813);
#128815=EDGE_CURVE('',#128814,#128807,#128812,.T.);
#128816=CARTESIAN_POINT('Axis2P3D Location',(9402.444336,-2687.82209625,473.23080354));
#128817=DIRECTION('Axis2P3D Direction',(1,0,0));
#128818=AXIS2_PLACEMENT_3D('Circle Axis2P3D',#128816,#128817,$);
#128819=CIRCLE('generated circle',#128818,13.);
#128820=EDGE_CURVE('',#128814,#128783,#128819,.T.);
#128821=EDGE_LOOP('',(#128822,#128823,#128824,#128825));
#128822=ORIENTED_EDGE('',*,*,#128784,.T.);
#128823=ORIENTED_EDGE('',*,*,#128808,.F.);
#128824=ORIENTED_EDGE('',*,*,#128815,.F.);
#128825=ORIENTED_EDGE('',*,*,#128820,.T.);
#128826=FACE_OUTER_BOUND('',#128821,.T.);
#128827=ADVANCED_FACE('PartBody',(#128826),#128801,.T.);
#128828=CARTESIAN_POINT('Axis2P3D Location',(9402.444336,-2672.70423382,485.33453161));
#128829=DIRECTION('Axis2P3D Direction',(0,-0.0607651041568,-0.99815209368));
#128830=DIRECTION('Axis2P3D XDirection',(1,0,0));
#128831=AXIS2_PLACEMENT_3D('Plane Axis2P3D',#128828,#128829,#128830);
#128832=PLANE('',#128831);
#128833=CARTESIAN_POINT('Line Origine',(9405.234336,-2672.70423382,485.33453161));
#128834=DIRECTION('Vector Direction',(0,-0.99815209368,0.0607651041568));
#128835=VECTOR('Line Direction',#128834,1.);
#128836=LINE('Line',#128833,#128835);
#128837=CARTESIAN_POINT('Vertex',(9405.234336,-2658.37631774,484.462282463));
#128838=VERTEX_POINT('',#128837);
#128839=EDGE_CURVE('',#128838,#128807,#128836,.T.);
#128840=CARTESIAN_POINT('Line Origine',(9403.839336,-2658.37631774,484.462282463));
#128841=DIRECTION('Vector Direction',(1,0,0));
#128842=VECTOR('Line Direction',#128841,1.);
#128843=LINE('Line',#128840,#128842);
#128844=CARTESIAN_POINT('Vertex',(9402.444336,-2658.37631774,484.462282463));
#128845=VERTEX_POINT('',#128844);
#128846=EDGE_CURVE('',#128845,#128838,#128843,.T.);
#128847=CARTESIAN_POINT('Line Origine',(9402.444336,-2672.70423382,485.33453161));
#128848=DIRECTION('Vector Direction',(0,-0.99815209368,0.0607651041568));
#128849=VECTOR('Line Direction',#128848,1.);
#128850=LINE('Line',#128847,#128849);
#128851=EDGE_CURVE('',#128845,#128814,#128850,.T.);
#128852=EDGE_LOOP('',(#128853,#128854,#128855,#128856));
#128853=ORIENTED_EDGE('',*,*,#128815,.T.);
#128854=ORIENTED_EDGE('',*,*,#128839,.F.);
#128855=ORIENTED_EDGE('',*,*,#128846,.F.);
#128856=ORIENTED_EDGE('',*,*,#128851,.T.);
#128857=FACE_OUTER_BOUND('',#128852,.T.);
#128858=ADVANCED_FACE('PartBody',(#128857),#128832,.F.);
#128859=CARTESIAN_POINT('Axis2P3D Location',(9402.444336,-2659.16626409,471.486305245));
#128860=DIRECTION('Axis2P3D Direction',(1,0,0));
#128861=DIRECTION('Axis2P3D XDirection',(-0,-0.761340617606,-0.648352114196));
#128862=AXIS2_PLACEMENT_3D('Cylinder Axis2P3D',#128859,#128860,#128861);
#128863=CYLINDRICAL_SURFACE('generated cylinder',#128862,13.);
#128864=CARTESIAN_POINT('Axis2P3D Location',(9405.234336,-2659.16626409,471.486305245));
#128865=DIRECTION('Axis2P3D Direction',(1,0,0));
#128866=AXIS2_PLACEMENT_3D('Circle Axis2P3D',#128864,#128865,$);
#128867=CIRCLE('generated circle',#128866,13.);
#128868=CARTESIAN_POINT('Vertex',(9405.234336,-2646.23012149,470.199365216));
#128869=VERTEX_POINT('',#128868);
#128870=EDGE_CURVE('',#128869,#128838,#128867,.T.);
#128871=CARTESIAN_POINT('Line Origine',(9403.839336,-2646.23012149,470.199365216));
#128872=DIRECTION('Vector Direction',(1,0,0));
#128873=VECTOR('Line Direction',#128872,1.);
#128874=LINE('Line',#128871,#128873);
#128875=CARTESIAN_POINT('Vertex',(9402.444336,-2646.23012149,470.199365216));
#128876=VERTEX_POINT('',#128875);
#128877=EDGE_CURVE('',#128876,#128869,#128874,.T.);
#128878=CARTESIAN_POINT('Axis2P3D Location',(9402.444336,-2659.16626409,471.486305245));
#128879=DIRECTION('Axis2P3D Direction',(1,0,0));
#128880=AXIS2_PLACEMENT_3D('Circle Axis2P3D',#128878,#128879,$);
#128881=CIRCLE('generated circle',#128880,13.);
#128882=EDGE_CURVE('',#128876,#128845,#128881,.T.);
#128883=EDGE_LOOP('',(#128884,#128885,#128886,#128887));
#128884=ORIENTED_EDGE('',*,*,#128846,.T.);
#128885=ORIENTED_EDGE('',*,*,#128870,.F.);
#128886=ORIENTED_EDGE('',*,*,#128877,.F.);
#128887=ORIENTED_EDGE('',*,*,#128882,.T.);
#128888=FACE_OUTER_BOUND('',#128883,.T.);
#128889=ADVANCED_FACE('PartBody',(#128888),#128863,.T.);
#128890=B_SPLINE_CURVE_WITH_KNOTS('',5,(#128891,#128892,#128893,#128894,#128895,#128896,#128897,#128898,#128899),.UNSPECIFIED.,.F.,.U.,(6,3,6),(8.06124444657,199.839020817,214.366332886),.UNSPECIFIED.);
#128891=CARTESIAN_POINT('Control Point',(9402.444336,-2646.23012149,470.199365216));
#128892=CARTESIAN_POINT('Control Point',(9402.444336,-2648.42781734,448.108431522));
#128893=CARTESIAN_POINT('Control Point',(9402.444336,-2650.3860713,425.992836201));
#128894=CARTESIAN_POINT('Control Point',(9402.444336,-2652.10498205,403.850674054));
#128895=CARTESIAN_POINT('Control Point',(9402.444336,-2653.69589883,380.025268184));
#128896=CARTESIAN_POINT('Control Point',(9402.444336,-2655.00802191,356.174692732));
#128897=CARTESIAN_POINT('Control Point',(9402.444336,-2655.09903509,354.49509945));
#128898=CARTESIAN_POINT('Control Point',(9402.444336,-2655.18866674,352.815406207));
#128899=CARTESIAN_POINT('Control Point',(9402.444336,-2655.27691799,351.135639864));
#128900=DIRECTION('Vector Direction',(1,0,0));
#128901=VECTOR('Extrusion Surface Vector',#128900,1.);
#128902=SURFACE_OF_LINEAR_EXTRUSION('generated tabulated cylinder',#128890,#128901);
#128903=B_SPLINE_CURVE_WITH_KNOTS('',4,(#128904,#128905,#128906,#128907,#128908),.UNSPECIFIED.,.F.,.U.,(5,5),(0.,238.370518646),.UNSPECIFIED.);
#128904=CARTESIAN_POINT('Control Point',(9405.234336,-2646.23012149,470.199365216));
#128905=CARTESIAN_POINT('Control Point',(9405.234336,-2649.18534777,440.493840709));
#128906=CARTESIAN_POINT('Control Point',(9405.234336,-2651.6789961,410.734139694));
#128907=CARTESIAN_POINT('Control Point',(9405.234336,-2653.71041963,380.952230525));
#128908=CARTESIAN_POINT('Control Point',(9405.234336,-2655.27691799,351.135639864));
#128909=CARTESIAN_POINT('Vertex',(9405.234336,-2655.27691799,351.135639864));
#128910=VERTEX_POINT('',#128909);
#128911=EDGE_CURVE('',#128869,#128910,#128903,.T.);
#128912=CARTESIAN_POINT('Line Origine',(9403.839336,-2655.27691799,351.135639864));
#128913=DIRECTION('Vector Direction',(1,0,0));
#128914=VECTOR('Line Direction',#128913,1.);
#128915=LINE('Line',#128912,#128914);
#128916=CARTESIAN_POINT('Vertex',(9402.444336,-2655.27691799,351.135639864));
#128917=VERTEX_POINT('',#128916);
#128918=EDGE_CURVE('',#128917,#128910,#128915,.T.);
#128919=B_SPLINE_CURVE_WITH_KNOTS('',4,(#128920,#128921,#128922,#128923,#128924),.UNSPECIFIED.,.F.,.U.,(5,5),(0.,238.370518646),.UNSPECIFIED.);
#128920=CARTESIAN_POINT('Control Point',(9402.444336,-2646.23012149,470.199365216));
#128921=CARTESIAN_POINT('Control Point',(9402.444336,-2649.18534777,440.493840709));
#128922=CARTESIAN_POINT('Control Point',(9402.444336,-2651.6789961,410.734139694));
#128923=CARTESIAN_POINT('Control Point',(9402.444336,-2653.71041963,380.952230525));
#128924=CARTESIAN_POINT('Control Point',(9402.444336,-2655.27691799,351.135639864));
#128925=EDGE_CURVE('',#128876,#128917,#128919,.T.);
#128926=EDGE_LOOP('',(#128927,#128928,#128929,#128930));
#128927=ORIENTED_EDGE('',*,*,#128877,.T.);
#128928=ORIENTED_EDGE('',*,*,#128911,.T.);
#128929=ORIENTED_EDGE('',*,*,#128918,.F.);
#128930=ORIENTED_EDGE('',*,*,#128925,.F.);
#128931=FACE_OUTER_BOUND('',#128926,.T.);
#128932=ADVANCED_FACE('PartBody',(#128931),#128902,.F.);
#128933=CARTESIAN_POINT('Axis2P3D Location',(9402.444336,-2668.2590136,351.817690727));
#128934=DIRECTION('Axis2P3D Direction',(1,0,0));
#128935=DIRECTION('Axis2P3D XDirection',(0,-0.665939218486,0.746006003516));
#128936=AXIS2_PLACEMENT_3D('Cylinder Axis2P3D',#128933,#128934,#128935);
#128937=CYLINDRICAL_SURFACE('generated cylinder',#128936,13.);
#128938=CARTESIAN_POINT('Axis2P3D Location',(9405.234336,-2668.2590136,351.817690727));
#128939=DIRECTION('Axis2P3D Direction',(1,0,0));
#128940=AXIS2_PLACEMENT_3D('Circle Axis2P3D',#128938,#128939,$);
#128941=CIRCLE('generated circle',#128940,13.);
#128942=CARTESIAN_POINT('Vertex',(9405.234336,-2669.04895996,338.841713509));
#128943=VERTEX_POINT('',#128942);
#128944=EDGE_CURVE('',#128943,#128910,#128941,.T.);
#128945=CARTESIAN_POINT('Line Origine',(9403.839336,-2669.04895996,338.841713509));
#128946=DIRECTION('Vector Direction',(1,0,0));
#128947=VECTOR('Line Direction',#128946,1.);
#128948=LINE('Line',#128945,#128947);
#128949=CARTESIAN_POINT('Vertex',(9402.444336,-2669.04895996,338.841713509));
#128950=VERTEX_POINT('',#128949);
#128951=EDGE_CURVE('',#128950,#128943,#128948,.T.);
#128952=CARTESIAN_POINT('Axis2P3D Location',(9402.444336,-2668.2590136,351.817690727));
#128953=DIRECTION('Axis2P3D Direction',(1,0,0));
#128954=AXIS2_PLACEMENT_3D('Circle Axis2P3D',#128952,#128953,$);
#128955=CIRCLE('generated circle',#128954,13.);
#128956=EDGE_CURVE('',#128950,#128917,#128955,.T.);
#128957=EDGE_LOOP('',(#128958,#128959,#128960,#128961));
#128958=ORIENTED_EDGE('',*,*,#128918,.T.);
#128959=ORIENTED_EDGE('',*,*,#128944,.F.);
#128960=ORIENTED_EDGE('',*,*,#128951,.F.);
#128961=ORIENTED_EDGE('',*,*,#128956,.T.);
#128962=FACE_OUTER_BOUND('',#128957,.T.);
#128963=ADVANCED_FACE('PartBody',(#128962),#128937,.T.);
#128964=CARTESIAN_POINT('Axis2P3D Location',(9402.444336,-2683.3668563,339.713352679));
#128965=DIRECTION('Axis2P3D Direction',(0,-0.0607651041568,-0.99815209368));
#128966=DIRECTION('Axis2P3D XDirection',(1,0,0));
#128967=AXIS2_PLACEMENT_3D('Plane Axis2P3D',#128964,#128965,#128966);
#128968=PLANE('',#128967);
#128969=CARTESIAN_POINT('Line Origine',(9405.234336,-2683.3668563,339.713352679));
#128970=DIRECTION('Vector Direction',(0,-0.99815209368,0.0607651041568));
#128971=VECTOR('Line Direction',#128970,1.);
#128972=LINE('Line',#128969,#128971);
#128973=CARTESIAN_POINT('Vertex',(9405.234336,-2697.68475265,340.58499185));
#128974=VERTEX_POINT('',#128973);
#128975=EDGE_CURVE('',#128943,#128974,#128972,.T.);
#128976=CARTESIAN_POINT('Line Origine',(9403.839336,-2697.68475265,340.58499185));
#128977=DIRECTION('Vector Direction',(1,0,0));
#128978=VECTOR('Line Direction',#128977,1.);
#128979=LINE('Line',#128976,#128978);
#128980=CARTESIAN_POINT('Vertex',(9402.444336,-2697.68475265,340.58499185));
#128981=VERTEX_POINT('',#128980);
#128982=EDGE_CURVE('',#128981,#128974,#128979,.T.);
#128983=CARTESIAN_POINT('Line Origine',(9402.444336,-2683.3668563,339.713352679));
#128984=DIRECTION('Vector Direction',(0,-0.99815209368,0.0607651041568));
#128985=VECTOR('Line Direction',#128984,1.);
#128986=LINE('Line',#128983,#128985);
#128987=EDGE_CURVE('',#128950,#128981,#128986,.T.);
#128988=EDGE_LOOP('',(#128989,#128990,#128991,#128992));
#128989=ORIENTED_EDGE('',*,*,#128951,.T.);
#128990=ORIENTED_EDGE('',*,*,#128975,.T.);
#128991=ORIENTED_EDGE('',*,*,#128982,.F.);
#128992=ORIENTED_EDGE('',*,*,#128987,.F.);
#128993=FACE_OUTER_BOUND('',#128988,.T.);
#128994=ADVANCED_FACE('PartBody',(#128993),#128968,.T.);
#128995=CARTESIAN_POINT('Axis2P3D Location',(9402.444336,-2696.89480629,353.560969067));
#128996=DIRECTION('Axis2P3D Direction',(1,0,0));
#128997=DIRECTION('Axis2P3D XDirection',(0,0.186043997309,0.982541414428));
#128998=AXIS2_PLACEMENT_3D('Cylinder Axis2P3D',#128995,#128996,#128997);
#128999=CYLINDRICAL_SURFACE('generated cylinder',#128998,13.);
#129000=CARTESIAN_POINT('Axis2P3D Location',(9405.234336,-2696.89480629,353.560969067));
#129001=DIRECTION('Axis2P3D Direction',(1,0,0));
#129002=AXIS2_PLACEMENT_3D('Circle Axis2P3D',#129000,#129001,$);
#129003=CIRCLE('generated circle',#129002,13.);
#129004=CARTESIAN_POINT('Vertex',(9405.234336,-2700.90345548,341.194452511));
#129005=VERTEX_POINT('',#129004);
#129006=EDGE_CURVE('',#129005,#128974,#129003,.T.);
#129007=CARTESIAN_POINT('Line Origine',(9403.839336,-2700.90345548,341.194452511));
#129008=DIRECTION('Vector Direction',(1,0,0));
#129009=VECTOR('Line Direction',#129008,1.);
#129010=LINE('Line',#129007,#129009);
#129011=CARTESIAN_POINT('Vertex',(9402.444336,-2700.90345548,341.194452511));
#129012=VERTEX_POINT('',#129011);
#129013=EDGE_CURVE('',#129012,#129005,#129010,.T.);
#129014=CARTESIAN_POINT('Axis2P3D Location',(9402.444336,-2696.89480629,353.560969067));
#129015=DIRECTION('Axis2P3D Direction',(1,0,0));
#129016=AXIS2_PLACEMENT_3D('Circle Axis2P3D',#129014,#129015,$);
#129017=CIRCLE('generated circle',#129016,13.);
#129018=EDGE_CURVE('',#129012,#128981,#129017,.T.);
#129019=EDGE_LOOP('',(#129020,#129021,#129022,#129023));
#129020=ORIENTED_EDGE('',*,*,#128982,.T.);
#129021=ORIENTED_EDGE('',*,*,#129006,.F.);
#129022=ORIENTED_EDGE('',*,*,#129013,.F.);
#129023=ORIENTED_EDGE('',*,*,#129018,.T.);
#129024=FACE_OUTER_BOUND('',#129019,.T.);
#129025=ADVANCED_FACE('PartBody',(#129024),#128999,.T.);
#129026=CARTESIAN_POINT('Axis2P3D Location',(9402.444336,-2730.45682112,350.774278358));
#129027=DIRECTION('Axis2P3D Direction',(0,0.308357629256,0.951270504367));
#129028=DIRECTION('Axis2P3D XDirection',(1,0,0));
#129029=AXIS2_PLACEMENT_3D('Plane Axis2P3D',#129026,#129027,#129028);
#129030=PLANE('',#129029);
#129031=CARTESIAN_POINT('Line Origine',(9405.234336,-2730.45682112,350.774278358));
#129032=DIRECTION('Vector Direction',(0,0.951270504367,-0.308357629256));
#129033=VECTOR('Line Direction',#129032,1.);
#129034=LINE('Line',#129031,#129033);
#129035=CARTESIAN_POINT('Vertex',(9405.234336,-2760.01018676,360.354104206));
#129036=VERTEX_POINT('',#129035);
#129037=EDGE_CURVE('',#129036,#129005,#129034,.T.);
#129038=CARTESIAN_POINT('Line Origine',(9403.839336,-2760.01018676,360.354104206));
#129039=DIRECTION('Vector Direction',(1,0,0));
#129040=VECTOR('Line Direction',#129039,1.);
#129041=LINE('Line',#129038,#129040);
#129042=CARTESIAN_POINT('Vertex',(9402.444336,-2760.01018676,360.354104206));
#129043=VERTEX_POINT('',#129042);
#129044=EDGE_CURVE('',#129043,#129036,#129041,.T.);
#129045=CARTESIAN_POINT('Line Origine',(9402.444336,-2730.45682112,350.774278358));
#129046=DIRECTION('Vector Direction',(0,0.951270504367,-0.308357629256));
#129047=VECTOR('Line Direction',#129046,1.);
#129048=LINE('Line',#129045,#129047);
#129049=EDGE_CURVE('',#129043,#129012,#129048,.T.);
#129050=EDGE_LOOP('',(#129051,#129052,#129053,#129054));
#129051=ORIENTED_EDGE('',*,*,#129013,.T.);
#129052=ORIENTED_EDGE('',*,*,#129037,.F.);
#129053=ORIENTED_EDGE('',*,*,#129044,.F.);
#129054=ORIENTED_EDGE('',*,*,#129049,.T.);
#129055=FACE_OUTER_BOUND('',#129050,.T.);
#129056=ADVANCED_FACE('PartBody',(#129055),#129030,.F.);
#129057=CARTESIAN_POINT('Axis2P3D Location',(9402.444336,-2761.55197491,355.597751684));
#129058=DIRECTION('Axis2P3D Direction',(1,0,0));
#129059=DIRECTION('Axis2P3D XDirection',(-0,-0.187145458044,-0.982332213426));
#129060=AXIS2_PLACEMENT_3D('Cylinder Axis2P3D',#129057,#129058,#129059);
#129061=CYLINDRICAL_SURFACE('generated cylinder',#129060,5.);
#129062=CARTESIAN_POINT('Axis2P3D Location',(9405.234336,-2761.55197491,355.597751684));
#129063=DIRECTION('Axis2P3D Direction',(1,0,0));
#129064=AXIS2_PLACEMENT_3D('Circle Axis2P3D',#129062,#129063,$);
#129065=CIRCLE('generated circle',#129064,5.);
#129066=CARTESIAN_POINT('Vertex',(9405.234336,-2761.23695936,360.587818338));
#129067=VERTEX_POINT('',#129066);
#129068=EDGE_CURVE('',#129036,#129067,#129065,.T.);
#129069=CARTESIAN_POINT('Line Origine',(9403.839336,-2761.23695936,360.587818338));
#129070=DIRECTION('Vector Direction',(1,0,0));
#129071=VECTOR('Line Direction',#129070,1.);
#129072=LINE('Line',#129069,#129071);
#129073=CARTESIAN_POINT('Vertex',(9402.444336,-2761.23695936,360.587818338));
#129074=VERTEX_POINT('',#129073);
#129075=EDGE_CURVE('',#129074,#129067,#129072,.T.);
#129076=CARTESIAN_POINT('Axis2P3D Location',(9402.444336,-2761.55197491,355.597751684));
#129077=DIRECTION('Axis2P3D Direction',(1,0,0));
#129078=AXIS2_PLACEMENT_3D('Circle Axis2P3D',#129076,#129077,$);
#129079=CIRCLE('generated circle',#129078,5.);
#129080=EDGE_CURVE('',#129043,#129074,#129079,.T.);
#129081=EDGE_LOOP('',(#129082,#129083,#129084,#129085));
#129082=ORIENTED_EDGE('',*,*,#129044,.T.);
#129083=ORIENTED_EDGE('',*,*,#129068,.T.);
#129084=ORIENTED_EDGE('',*,*,#129075,.F.);
#129085=ORIENTED_EDGE('',*,*,#129080,.F.);
#129086=FACE_OUTER_BOUND('',#129081,.T.);
#129087=ADVANCED_FACE('PartBody',(#129086),#129061,.F.);
#129088=CARTESIAN_POINT('Axis2P3D Location',(9405.234336,-0.0927,0.007469));
#129089=DIRECTION('Axis2P3D Direction',(1,0,0));
#129090=DIRECTION('Axis2P3D XDirection',(0,1,0));
#129091=AXIS2_PLACEMENT_3D('Plane Axis2P3D',#129088,#129089,#129090);
#129092=PLANE('',#129091);
#129093=B_SPLINE_CURVE_WITH_KNOTS('',1,(#129094,#129095),.UNSPECIFIED.,.F.,.U.,(2,2),(-1.00172584672,1.00172584672),.UNSPECIFIED.);
#129094=CARTESIAN_POINT('Control Point',(9405.234336,-2754.12765326,473.519507965));
#129095=CARTESIAN_POINT('Control Point',(9405.234336,-2752.13381105,473.323518294));
#129096=CARTESIAN_POINT('Vertex',(9405.234336,-2754.12765326,473.519507965));
#129097=VERTEX_POINT('',#129096);
#129098=EDGE_CURVE('',#129097,#128738,#129093,.T.);
#129099=B_SPLINE_CURVE_WITH_KNOTS('',4,(#129100,#129101,#129102,#129103,#129104),.UNSPECIFIED.,.F.,.U.,(5,5),(71.8729541794,230.40751909),.UNSPECIFIED.);
#129100=CARTESIAN_POINT('Control Point',(9405.234336,-2763.21864187,360.712919031));
#129101=CARTESIAN_POINT('Control Point',(9405.234336,-2761.43577536,389.003488043));
#129102=CARTESIAN_POINT('Control Point',(9405.234336,-2759.32534233,417.231699499));
#129103=CARTESIAN_POINT('Control Point',(9405.234336,-2756.88855005,445.407488748));
#129104=CARTESIAN_POINT('Control Point',(9405.234336,-2754.12765326,473.519507965));
#129105=CARTESIAN_POINT('Vertex',(9405.2344022,-2763.21872968,360.712922648));
#129106=VERTEX_POINT('',#129105);
#129107=EDGE_CURVE('',#129106,#129097,#129099,.T.);
#129108=B_SPLINE_CURVE_WITH_KNOTS('',1,(#129109,#129110),.UNSPECIFIED.,.F.,.U.,(2,2),(-0.9928136454,0.9928136454),.UNSPECIFIED.);
#129109=CARTESIAN_POINT('Control Point',(9405.234336,-2763.21864187,360.712919031));
#129110=CARTESIAN_POINT('Control Point',(9405.234336,-2761.23695936,360.587818338));
#129111=EDGE_CURVE('',#129106,#129067,#129108,.T.);
#129112=EDGE_LOOP('',(#129113,#129114,#129115,#129116,#129117,#129118,#129119,#129120,#129121,#129122,#129123,#129124,#129125,#129126));
#129113=ORIENTED_EDGE('',*,*,#128746,.F.);
#129114=ORIENTED_EDGE('',*,*,#129098,.F.);
#129115=ORIENTED_EDGE('',*,*,#129107,.F.);
#129116=ORIENTED_EDGE('',*,*,#129111,.T.);
#129117=ORIENTED_EDGE('',*,*,#129068,.F.);
#129118=ORIENTED_EDGE('',*,*,#129037,.T.);
#129119=ORIENTED_EDGE('',*,*,#129006,.T.);
#129120=ORIENTED_EDGE('',*,*,#128975,.F.);
#129121=ORIENTED_EDGE('',*,*,#128944,.T.);
#129122=ORIENTED_EDGE('',*,*,#128911,.F.);
#129123=ORIENTED_EDGE('',*,*,#128870,.T.);
#129124=ORIENTED_EDGE('',*,*,#128839,.T.);
#129125=ORIENTED_EDGE('',*,*,#128808,.T.);
#129126=ORIENTED_EDGE('',*,*,#128777,.F.);
#129127=FACE_OUTER_BOUND('',#129112,.T.);
#129128=ADVANCED_FACE('PartBody',(#129127),#129092,.T.);
#129129=CARTESIAN_POINT('Axis2P3D Location',(9402.444336,-2753.13073215,473.421513129));
#129130=DIRECTION('Axis2P3D Direction',(0,0.0978260029773,0.995203533525));
#129131=DIRECTION('Axis2P3D XDirection',(1,0,0));
#129132=AXIS2_PLACEMENT_3D('Plane Axis2P3D',#129129,#129130,#129131);
#129133=PLANE('',#129132);
#129134=CARTESIAN_POINT('Line Origine',(9402.444336,-2753.13073215,473.421513129));
#129135=DIRECTION('Vector Direction',(0,0.995203533525,-0.0978260029773));
#129136=VECTOR('Line Direction',#129135,1.);
#129137=LINE('Line',#129134,#129136);
#129138=CARTESIAN_POINT('Vertex',(9402.4443908,-2754.12772458,473.519514704));
#129139=VERTEX_POINT('',#129138);
#129140=EDGE_CURVE('',#129139,#128736,#129137,.T.);
#129141=CARTESIAN_POINT('Line Origine',(9403.839336,-2754.12765326,473.519507965));
#129142=DIRECTION('Vector Direction',(1,0,0));
#129143=VECTOR('Line Direction',#129142,1.);
#129144=LINE('Line',#129141,#129143);
#129145=EDGE_CURVE('',#129139,#129097,#129144,.T.);
#129146=EDGE_LOOP('',(#129147,#129148,#129149,#129150));
#129147=ORIENTED_EDGE('',*,*,#129140,.F.);
#129148=ORIENTED_EDGE('',*,*,#129145,.T.);
#129149=ORIENTED_EDGE('',*,*,#129098,.T.);
#129150=ORIENTED_EDGE('',*,*,#128739,.F.);
#129151=FACE_OUTER_BOUND('',#129146,.T.);
#129152=ADVANCED_FACE('PartBody',(#129151),#129133,.T.);
#129153=CARTESIAN_POINT('Axis2P3D Location',(9402.444336,-0.0927,0.007469));
#129154=DIRECTION('Axis2P3D Direction',(1,0,0));
#129155=DIRECTION('Axis2P3D XDirection',(0,1,0));
#129156=AXIS2_PLACEMENT_3D('Plane Axis2P3D',#129153,#129154,#129155);
#129157=PLANE('',#129156);
#129158=CARTESIAN_POINT('Line Origine',(9402.444336,-2762.22780061,360.650368684));
#129159=DIRECTION('Vector Direction',(0,0.998013330689,-0.0630031091824));
#129160=VECTOR('Line Direction',#129159,1.);
#129161=LINE('Line',#129158,#129160);
#129162=CARTESIAN_POINT('Vertex',(9402.44439045,-2763.21871406,360.712923406));
#129163=VERTEX_POINT('',#129162);
#129164=EDGE_CURVE('',#129163,#129074,#129161,.T.);
#129165=B_SPLINE_CURVE_WITH_KNOTS('',5,(#129166,#129167,#129168,#129169,#129170,#129171,#129172,#129173,#129174),.UNSPECIFIED.,.F.,.U.,(6,3,6),(71.8729541794,217.929860867,230.40751909),.UNSPECIFIED.);
#129166=CARTESIAN_POINT('Control Point',(9402.444336,-2763.21864187,360.712919031));
#129167=CARTESIAN_POINT('Control Point',(9402.444336,-2761.90460683,381.564058973));
#129168=CARTESIAN_POINT('Control Point',(9402.444336,-2760.42370706,402.38408207));
#129169=CARTESIAN_POINT('Control Point',(9402.444336,-2758.77649896,423.17358795));
#129170=CARTESIAN_POINT('Control Point',(9402.444336,-2756.80833801,445.710051295));
#129171=CARTESIAN_POINT('Control Point',(9402.444336,-2754.64555772,468.208587052));
#129172=CARTESIAN_POINT('Control Point',(9402.444336,-2754.474128,469.979127999));
#129173=CARTESIAN_POINT('Control Point',(9402.444336,-2754.30149308,471.749435083));
#129174=CARTESIAN_POINT('Control Point',(9402.444336,-2754.12765326,473.519507965));
#129175=EDGE_CURVE('',#129163,#129139,#129165,.T.);
#129176=EDGE_LOOP('',(#129177,#129178,#129179,#129180,#129181,#129182,#129183,#129184,#129185,#129186,#129187,#129188,#129189,#129190));
#129177=ORIENTED_EDGE('',*,*,#128789,.T.);
#129178=ORIENTED_EDGE('',*,*,#128820,.F.);
#129179=ORIENTED_EDGE('',*,*,#128851,.F.);
#129180=ORIENTED_EDGE('',*,*,#128882,.F.);
#129181=ORIENTED_EDGE('',*,*,#128925,.T.);
#129182=ORIENTED_EDGE('',*,*,#128956,.F.);
#129183=ORIENTED_EDGE('',*,*,#128987,.T.);
#129184=ORIENTED_EDGE('',*,*,#129018,.F.);
#129185=ORIENTED_EDGE('',*,*,#129049,.F.);
#129186=ORIENTED_EDGE('',*,*,#129080,.T.);
#129187=ORIENTED_EDGE('',*,*,#129164,.F.);
#129188=ORIENTED_EDGE('',*,*,#129175,.T.);
#129189=ORIENTED_EDGE('',*,*,#129140,.T.);
#129190=ORIENTED_EDGE('',*,*,#128758,.T.);
#129191=FACE_OUTER_BOUND('',#129176,.T.);
#129192=ADVANCED_FACE('PartBody',(#129191),#129157,.F.);
#129193=CARTESIAN_POINT('Axis2P3D Location',(9402.444336,-2762.22780061,360.650368684));
#129194=DIRECTION('Axis2P3D Direction',(0,0.0630031091824,0.998013330689));
#129195=DIRECTION('Axis2P3D XDirection',(1,0,0));
#129196=AXIS2_PLACEMENT_3D('Plane Axis2P3D',#129193,#129194,#129195);
#129197=PLANE('',#129196);
#129198=CARTESIAN_POINT('Line Origine',(9403.83933592,-2763.21864187,360.712919031));
#129199=DIRECTION('Vector Direction',(1,0,0));
#129200=VECTOR('Line Direction',#129199,1.);
#129201=LINE('Line',#129198,#129200);
#129202=EDGE_CURVE('',#129163,#129106,#129201,.T.);
#129203=EDGE_LOOP('',(#129204,#129205,#129206,#129207));
#129204=ORIENTED_EDGE('',*,*,#129075,.T.);
#129205=ORIENTED_EDGE('',*,*,#129111,.F.);
#129206=ORIENTED_EDGE('',*,*,#129202,.F.);
#129207=ORIENTED_EDGE('',*,*,#129164,.T.);
#129208=FACE_OUTER_BOUND('',#129203,.T.);
#129209=ADVANCED_FACE('PartBody',(#129208),#129197,.F.);
#129210=B_SPLINE_SURFACE_WITH_KNOTS('',5,5,((#129211,#129212,#129213,#129214,#129215,#129216),(#129217,#129218,#129219,#129220,#129221,#129222),(#129223,#129224,#129225,#129226,#129227,#129228),(#129229,#129230,#129231,#129232,#129233,#129234),(#129235,#129236,#129237,#129238,#129239,#129240),(#129241,#129242,#129243,#129244,#129245,#129246),(#129247,#129248,#129249,#129250,#129251,#129252),(#129253,#129254,#129255,#129256,#129257,#129258),(#129259,#129260,#129261,#129262,#129263,#129264),(#129265,#129266,#129267,#129268,#129269,#129270),(#129271,#129272,#129273,#129274,#129275,#129276),(#129277,#129278,#129279,#129280,#129281,#129282)),.UNSPECIFIED.,.F.,.F.,.U.,(6,3,3,6),(6,6),(0.,2.05605556723,6.16816670169,10.1763970538),(-2.7900169239,1.72409651635E-005),.UNSPECIFIED.);
#129211=CARTESIAN_POINT('Control Point',(9407.85802459,-2766.19514822,360.802630498));
#129212=CARTESIAN_POINT('Control Point',(9407.78813202,-2766.74769496,360.837307079));
#129213=CARTESIAN_POINT('Control Point',(9407.7180607,-2767.30018047,360.872236683));
#129214=CARTESIAN_POINT('Control Point',(9407.64809575,-2767.85269636,360.906974783));
#129215=CARTESIAN_POINT('Control Point',(9407.57817193,-2768.40525904,360.941859585));
#129216=CARTESIAN_POINT('Control Point',(9407.50805293,-2768.9576701,360.976656645));
#129217=CARTESIAN_POINT('Control Point',(9407.68451574,-2766.17333718,360.804615807));
#129218=CARTESIAN_POINT('Control Point',(9407.58244984,-2766.72186471,360.839680084));
#129219=CARTESIAN_POINT('Control Point',(9407.48030839,-2767.27040583,360.875080878));
#129220=CARTESIAN_POINT('Control Point',(9407.37754713,-2767.81844029,360.910158571));
#129221=CARTESIAN_POINT('Control Point',(9407.27615215,-2768.36755113,360.945356628));
#129222=CARTESIAN_POINT('Control Point',(9407.17330994,-2768.91553205,360.980504549));
#129223=CARTESIAN_POINT('Control Point',(9407.51159991,-2766.13781859,360.806415661));
#129224=CARTESIAN_POINT('Control Point',(9407.37896975,-2766.68098193,360.845457779));
#129225=CARTESIAN_POINT('Control Point',(9407.24404073,-2767.2225536,360.878044531));
#129226=CARTESIAN_POINT('Control Point',(9407.1087332,-2767.76350852,360.914320989));
#129227=CARTESIAN_POINT('Control Point',(9406.97716793,-2768.30808787,360.94816204));
#129228=CARTESIAN_POINT('Control Point',(9406.83968274,-2768.84714264,360.982688202));
#129229=CARTESIAN_POINT('Control Point',(9407.34279244,-2766.09099479,360.807797508));
#129230=CARTESIAN_POINT('Control Point',(9407.17727475,-2766.62408808,360.846235085));
#129231=CARTESIAN_POINT('Control Point',(9407.011487,-2767.15739354,360.880105249));
#129232=CARTESIAN_POINT('Control Point',(9406.84593537,-2767.69073959,360.915003269));
#129233=CARTESIAN_POINT('Control Point',(9406.67987029,-2768.22381897,360.949125006));
#129234=CARTESIAN_POINT('Control Point',(9406.51411942,-2768.75699139,360.98331859));
#129235=CARTESIAN_POINT('Control Point',(9406.84643029,-2765.91183504,360.810844145));
#129236=CARTESIAN_POINT('Control Point',(9406.58874571,-2766.41192395,360.848903868));
#129237=CARTESIAN_POINT('Control Point',(9406.33064401,-2766.91187945,360.882324466));
#129238=CARTESIAN_POINT('Control Point',(9406.07275432,-2767.41211078,360.915350015));
#129239=CARTESIAN_POINT('Control Point',(9405.81472063,-2767.91230186,360.947647847));
#129240=CARTESIAN_POINT('Control Point',(9405.55624624,-2768.41193311,360.980177589));
#129241=CARTESIAN_POINT('Control Point',(9406.39774559,-2765.62857231,360.80943073));
#129242=CARTESIAN_POINT('Control Point',(9406.05536025,-2766.07492432,360.842981957));
#129243=CARTESIAN_POINT('Control Point',(9405.71403436,-2766.52262873,360.874034306));
#129244=CARTESIAN_POINT('Control Point',(9405.37244847,-2766.97013754,360.903631205));
#129245=CARTESIAN_POINT('Control Point',(9405.03022226,-2767.41702398,360.93317967));
#129246=CARTESIAN_POINT('Control Point',(9404.69028787,-2767.8662856,360.962557987));
#129247=CARTESIAN_POINT('Control Point',(9406.1277253,-2765.39621227,360.805938105));
#129248=CARTESIAN_POINT('Control Point',(9405.73629481,-2765.80087752,360.836397416));
#129249=CARTESIAN_POINT('Control Point',(9405.34442593,-2766.20517435,360.864057202));
#129250=CARTESIAN_POINT('Control Point',(9404.95281551,-2766.609897,360.891225881));
#129251=CARTESIAN_POINT('Control Point',(9404.56108038,-2767.01432471,360.917803407));
#129252=CARTESIAN_POINT('Control Point',(9404.1690215,-2767.41867804,360.944450175));
#129253=CARTESIAN_POINT('Control Point',(9405.67051771,-2764.86851729,360.793273108));
#129254=CARTESIAN_POINT('Control Point',(9405.19342732,-2765.17473205,360.814416801));
#129255=CARTESIAN_POINT('Control Point',(9404.71679363,-2765.48151653,360.836125038));
#129256=CARTESIAN_POINT('Control Point',(9404.23961552,-2765.78766884,360.856541582));
#129257=CARTESIAN_POINT('Control Point',(9403.76307979,-2766.09463642,360.877029207));
#129258=CARTESIAN_POINT('Control Point',(9403.28609308,-2766.40110699,360.897414959));
#129259=CARTESIAN_POINT('Control Point',(9405.37979514,-2764.23205556,360.768363783));
#129260=CARTESIAN_POINT('Control Point',(9404.84975776,-2764.42167018,360.781081643));
#129261=CARTESIAN_POINT('Control Point',(9404.31853755,-2764.60969377,360.793316876));
#129262=CARTESIAN_POINT('Control Point',(9403.7879282,-2764.79850758,360.806094799));
#129263=CARTESIAN_POINT('Control Point',(9403.25710463,-2764.987033,360.81850471));
#129264=CARTESIAN_POINT('Control Point',(9402.72527539,-2765.17427651,360.830878654));
#129265=CARTESIAN_POINT('Control Point',(9405.28368286,-2763.90155277,360.753034206));
#129266=CARTESIAN_POINT('Control Point',(9404.73339213,-2764.02691503,360.758454198));
#129267=CARTESIAN_POINT('Control Point',(9404.18498981,-2764.15433525,360.768873733));
#129268=CARTESIAN_POINT('Control Point',(9403.63493628,-2764.27964077,360.776878206));
#129269=CARTESIAN_POINT('Control Point',(9403.08727846,-2764.40835379,360.785572586));
#129270=CARTESIAN_POINT('Control Point',(9402.53897071,-2764.53567185,360.794222947));
#129271=CARTESIAN_POINT('Control Point',(9405.23388035,-2763.55888592,360.734429248));
#129272=CARTESIAN_POINT('Control Point',(9404.67560887,-2763.62194388,360.738328064));
#129273=CARTESIAN_POINT('Control Point',(9404.11677329,-2763.6842426,360.742270651));
#129274=CARTESIAN_POINT('Control Point',(9403.56111532,-2763.75077907,360.746412094));
#129275=CARTESIAN_POINT('Control Point',(9402.99955687,-2763.80944629,360.750216572));
#129276=CARTESIAN_POINT('Control Point',(9402.4438129,-2763.87586249,360.754404076));
#129277=CARTESIAN_POINT('Control Point',(9405.23441929,-2763.21872968,360.712922649));
#129278=CARTESIAN_POINT('Control Point',(9404.67629745,-2763.21857821,360.712886048));
#129279=CARTESIAN_POINT('Control Point',(9404.11833678,-2763.21864551,360.712813677));
#129280=CARTESIAN_POINT('Control Point',(9403.56037892,-2763.21870512,360.712905608));
#129281=CARTESIAN_POINT('Control Point',(9403.00227463,-2763.21857344,360.712909489));
#129282=CARTESIAN_POINT('Control Point',(9402.44437321,-2763.21871406,360.712923406));
#129283=B_SPLINE_CURVE_WITH_KNOTS('',4,(#129284,#129285,#129286,#129287,#129288),.UNSPECIFIED.,.F.,.U.,(5,5),(0.,11.7091134435),.UNSPECIFIED.);
#129284=CARTESIAN_POINT('Control Point',(9407.85802455,-2766.19514822,360.802630499));
#129285=CARTESIAN_POINT('Control Point',(9406.78461161,-2766.0602184,360.81491288));
#129286=CARTESIAN_POINT('Control Point',(9405.7635859,-2765.39443936,360.817742465));
#129287=CARTESIAN_POINT('Control Point',(9405.23269604,-2764.29829145,360.781178637));
#129288=CARTESIAN_POINT('Control Point',(9405.2344022,-2763.21872968,360.712922648));
#129289=CARTESIAN_POINT('Vertex',(9407.85805966,-2766.19523356,360.802649829));
#129290=VERTEX_POINT('',#129289);
#129291=EDGE_CURVE('',#129290,#129106,#129283,.T.);
#129292=B_SPLINE_CURVE_WITH_KNOTS('',5,(#129293,#129294,#129295,#129296,#129297,#129298),.UNSPECIFIED.,.F.,.U.,(6,6),(-2.78993562045,1.72409651635E-005),.UNSPECIFIED.);
#129293=CARTESIAN_POINT('Control Point',(9407.8580144,-2766.19522873,360.802635551));
#129294=CARTESIAN_POINT('Control Point',(9407.78812385,-2766.74775936,360.837311151));
#129295=CARTESIAN_POINT('Control Point',(9407.71805458,-2767.30022877,360.87223972));
#129296=CARTESIAN_POINT('Control Point',(9407.64809168,-2767.85272856,360.906976817));
#129297=CARTESIAN_POINT('Control Point',(9407.57816989,-2768.40527514,360.941860599));
#129298=CARTESIAN_POINT('Control Point',(9407.50805293,-2768.9576701,360.976656645));
#129299=CARTESIAN_POINT('Vertex',(9407.50813089,-2768.95772715,360.976658457));
#129300=VERTEX_POINT('',#129299);
#129301=EDGE_CURVE('',#129290,#129300,#129292,.T.);
#129302=B_SPLINE_CURVE_WITH_KNOTS('',5,(#129303,#129304,#129305,#129306,#129307,#129308),.UNSPECIFIED.,.F.,.U.,(6,6),(0.,11.7092726251),.UNSPECIFIED.);
#129303=CARTESIAN_POINT('Control Point',(9407.50805726,-2768.95763596,360.976654495));
#129304=CARTESIAN_POINT('Control Point',(9405.85133579,-2768.74908787,360.995698856));
#129305=CARTESIAN_POINT('Control Point',(9404.2579635,-2767.93241736,360.975141136));
#129306=CARTESIAN_POINT('Control Point',(9403.05197455,-2766.56591584,360.912386102));
#129307=CARTESIAN_POINT('Control Point',(9402.44296859,-2764.88720857,360.818242489));
#129308=CARTESIAN_POINT('Control Point',(9402.44439045,-2763.21871406,360.712923406));
#129309=EDGE_CURVE('',#129300,#129163,#129302,.T.);
#129310=EDGE_LOOP('',(#129311,#129312,#129313,#129314));
#129311=ORIENTED_EDGE('',*,*,#129202,.T.);
#129312=ORIENTED_EDGE('',*,*,#129291,.F.);
#129313=ORIENTED_EDGE('',*,*,#129301,.T.);
#129314=ORIENTED_EDGE('',*,*,#129309,.T.);
#129315=FACE_OUTER_BOUND('',#129310,.T.);
#129316=ADVANCED_FACE('PartBody',(#129315),#129210,.F.);
#129317=B_SPLINE_SURFACE_WITH_KNOTS('',5,5,((#129318,#129319,#129320,#129321,#129322,#129323,#129324,#129325,#129326),(#129327,#129328,#129329,#129330,#129331,#129332,#129333,#129334,#129335),(#129336,#129337,#129338,#129339,#129340,#129341,#129342,#129343,#129344),(#129345,#129346,#129347,#129348,#129349,#129350,#129351,#129352,#129353),(#129354,#129355,#129356,#129357,#129358,#129359,#129360,#129361,#129362),(#129363,#129364,#129365,#129366,#129367,#129368,#129369,#129370,#129371)),.UNSPECIFIED.,.F.,.F.,.U.,(6,6),(6,3,6),(71.7365418195,230.407665669),(0.,2.895,5.79),.UNSPECIFIED.);
#129318=CARTESIAN_POINT('Control Point',(9407.8580677,-2766.19520004,360.80264779));
#129319=CARTESIAN_POINT('Control Point',(9407.42797827,-2766.14093522,360.799229768));
#129320=CARTESIAN_POINT('Control Point',(9407.0077044,-2766.00914895,360.790928841));
#129321=CARTESIAN_POINT('Control Point',(9406.61598877,-2765.80212087,360.777888597));
#129322=CARTESIAN_POINT('Control Point',(9405.92518263,-2765.25635787,360.743512185));
#129323=CARTESIAN_POINT('Control Point',(9405.46929906,-2764.50391122,360.696117224));
#129324=CARTESIAN_POINT('Control Point',(9405.31262881,-2764.09009144,360.670051626));
#129325=CARTESIAN_POINT('Control Point',(9405.234336,-2763.657432,360.642799359));
#129326=CARTESIAN_POINT('Control Point',(9405.234336,-2763.22477674,360.615547355));
#129327=CARTESIAN_POINT('Control Point',(9407.85664569,-2764.76686475,383.4755298));
#129328=CARTESIAN_POINT('Control Point',(9407.42672444,-2764.71243675,383.471719705));
#129329=CARTESIAN_POINT('Control Point',(9407.00664937,-2764.58057744,383.46248696));
#129330=CARTESIAN_POINT('Control Point',(9406.61514346,-2764.37357224,383.447991556));
#129331=CARTESIAN_POINT('Control Point',(9405.92473518,-2763.82803176,383.409789301));
#129332=CARTESIAN_POINT('Control Point',(9405.46914363,-2763.07609152,383.3571322));
#129333=CARTESIAN_POINT('Control Point',(9405.31257706,-2762.66257878,383.328174402));
#129334=CARTESIAN_POINT('Control Point',(9405.234336,-2762.2302534,383.297899087));
#129335=CARTESIAN_POINT('Control Point',(9405.234336,-2761.79793218,383.267624063));
#129336=CARTESIAN_POINT('Control Point',(9407.85529901,-2763.14142313,406.111657921));
#129337=CARTESIAN_POINT('Control Point',(9407.42553714,-2763.08684555,406.107453576));
#129338=CARTESIAN_POINT('Control Point',(9407.0056504,-2762.95492852,406.097288297));
#129339=CARTESIAN_POINT('Control Point',(9406.61434311,-2762.74796267,406.081338551));
#129340=CARTESIAN_POINT('Control Point',(9405.92431156,-2762.20267927,406.0393149));
#129341=CARTESIAN_POINT('Control Point',(9405.46899648,-2761.45128208,405.981404611));
#129342=CARTESIAN_POINT('Control Point',(9405.31252806,-2761.03809494,405.949559939));
#129343=CARTESIAN_POINT('Control Point',(9405.234336,-2760.60612232,405.916267327));
#129344=CARTESIAN_POINT('Control Point',(9405.234336,-2760.17415384,405.882975035));
#129345=CARTESIAN_POINT('Control Point',(9407.85402328,-2761.31947578,428.713197523));
#129346=CARTESIAN_POINT('Control Point',(9407.42441249,-2761.26476164,428.708597064));
#129347=CARTESIAN_POINT('Control Point',(9407.00470421,-2761.13280175,428.697498742));
#129348=CARTESIAN_POINT('Control Point',(9406.61358507,-2760.92589148,428.680095565));
#129349=CARTESIAN_POINT('Control Point',(9405.92391037,-2760.38089949,428.634254939));
#129350=CARTESIAN_POINT('Control Point',(9405.46885713,-2759.63008229,428.571100032));
#129351=CARTESIAN_POINT('Control Point',(9405.31248166,-2759.21723959,428.536373554));
#129352=CARTESIAN_POINT('Control Point',(9405.234336,-2758.78563873,428.500069106));
#129353=CARTESIAN_POINT('Control Point',(9405.234336,-2758.35404202,428.463765006));
#129354=CARTESIAN_POINT('Control Point',(9407.85282051,-2759.30169134,451.280766565));
#129355=CARTESIAN_POINT('Control Point',(9407.42335225,-2759.24685389,451.275768718));
#129356=CARTESIAN_POINT('Control Point',(9407.00381226,-2759.11486614,451.263737669));
#129357=CARTESIAN_POINT('Control Point',(9406.61287052,-2758.90802766,451.244883005));
#129358=CARTESIAN_POINT('Control Point',(9405.92353222,-2758.36336119,451.195232234));
#129359=CARTESIAN_POINT('Control Point',(9405.46872578,-2757.61316035,451.126844228));
#129360=CARTESIAN_POINT('Control Point',(9405.31243792,-2757.20068056,451.089242578));
#129361=CARTESIAN_POINT('Control Point',(9405.234336,-2756.76947009,451.049933367));
#129362=CARTESIAN_POINT('Control Point',(9405.234336,-2756.33826375,451.010624532));
#129363=CARTESIAN_POINT('Control Point',(9407.85169157,-2757.08889336,473.810437981));
#129364=CARTESIAN_POINT('Control Point',(9407.42235715,-2757.03394596,473.805041566));
#129365=CARTESIAN_POINT('Control Point',(9407.00297515,-2756.90194543,473.79207772));
#129366=CARTESIAN_POINT('Control Point',(9406.61219992,-2756.69519504,473.771772649));
#129367=CARTESIAN_POINT('Control Point',(9405.92317737,-2756.15088828,473.718315978));
#129368=CARTESIAN_POINT('Control Point',(9405.46860253,-2755.40134022,473.644702444));
#129369=CARTESIAN_POINT('Control Point',(9405.31239688,-2754.98924183,473.604230032));
#129370=CARTESIAN_POINT('Control Point',(9405.234336,-2754.55844038,473.56192078));
#129371=CARTESIAN_POINT('Control Point',(9405.234336,-2754.12764305,473.519611933));
#129372=B_SPLINE_CURVE_WITH_KNOTS('',5,(#129373,#129374,#129375,#129376,#129377,#129378),.UNSPECIFIED.,.F.,.U.,(6,6),(0.,11.7033004764),.UNSPECIFIED.);
#129373=CARTESIAN_POINT('Control Point',(9407.85169892,-2757.10328673,473.663857187));
#129374=CARTESIAN_POINT('Control Point',(9406.99281281,-2756.99091979,473.677984066));
#129375=CARTESIAN_POINT('Control Point',(9406.17387224,-2756.56878852,473.682853752));
#129376=CARTESIAN_POINT('Control Point',(9405.54625389,-2755.85459768,473.659943363));
#129377=CARTESIAN_POINT('Control Point',(9405.234336,-2754.98962347,473.604288478));
#129378=CARTESIAN_POINT('Control Point',(9405.234336,-2754.12765326,473.519507965));
#129379=CARTESIAN_POINT('Vertex',(9407.85169891,-2757.10328681,473.663857209));
#129380=VERTEX_POINT('',#129379);
#129381=EDGE_CURVE('',#129380,#129097,#129372,.T.);
#129382=B_SPLINE_CURVE_WITH_KNOTS('',5,(#129383,#129384,#129385,#129386,#129387,#129388,#129389,#129390,#129391),.UNSPECIFIED.,.F.,.U.,(6,3,6),(71.7365418196,217.929860867,230.20119983),.UNSPECIFIED.);
#129383=CARTESIAN_POINT('Control Point',(9407.8580677,-2766.19520004,360.80264779));
#129384=CARTESIAN_POINT('Control Point',(9407.85675752,-2764.87918821,381.692547559));
#129385=CARTESIAN_POINT('Control Point',(9407.85551128,-2763.39585176,402.551246755));
#129386=CARTESIAN_POINT('Control Point',(9407.85432575,-2761.74574941,423.379343212));
#129387=CARTESIAN_POINT('Control Point',(9407.85310722,-2759.77666044,445.926591664));
#129388=CARTESIAN_POINT('Control Point',(9407.85196226,-2757.61295311,468.435919115));
#129389=CARTESIAN_POINT('Control Point',(9407.85187404,-2757.44423093,470.178791594));
#129390=CARTESIAN_POINT('Control Point',(9407.85178626,-2757.27434204,471.921437719));
#129391=CARTESIAN_POINT('Control Point',(9407.85169892,-2757.10328673,473.663857187));
#129392=EDGE_CURVE('',#129290,#129380,#129382,.T.);
#129393=EDGE_LOOP('',(#129394,#129395,#129396,#129397));
#129394=ORIENTED_EDGE('',*,*,#129381,.F.);
#129395=ORIENTED_EDGE('',*,*,#129392,.F.);
#129396=ORIENTED_EDGE('',*,*,#129291,.T.);
#129397=ORIENTED_EDGE('',*,*,#129107,.T.);
#129398=FACE_OUTER_BOUND('',#129393,.T.);
#129399=ADVANCED_FACE('PartBody',(#129398),#129317,.F.);
#129400=B_SPLINE_SURFACE_WITH_KNOTS('',5,5,((#129401,#129402,#129403,#129404,#129405,#129406),(#129407,#129408,#129409,#129410,#129411,#129412),(#129413,#129414,#129415,#129416,#129417,#129418),(#129419,#129420,#129421,#129422,#129423,#129424),(#129425,#129426,#129427,#129428,#129429,#129430),(#129431,#129432,#129433,#129434,#129435,#129436),(#129437,#129438,#129439,#129440,#129441,#129442),(#129443,#129444,#129445,#129446,#129447,#129448),(#129449,#129450,#129451,#129452,#129453,#129454),(#129455,#129456,#129457,#129458,#129459,#129460),(#129461,#129462,#129463,#129464,#129465,#129466),(#129467,#129468,#129469,#129470,#129471,#129472)),.UNSPECIFIED.,.F.,.F.,.U.,(6,3,3,6),(6,6),(0.,2.05237495543,6.1571248663,10.1684252331),(-2.79,3.39336433734E-009),.UNSPECIFIED.);
#129401=CARTESIAN_POINT('Control Point',(9407.85165876,-2757.10324659,473.663836911));
#129402=CARTESIAN_POINT('Control Point',(9407.78056553,-2757.65413918,473.717789069));
#129403=CARTESIAN_POINT('Control Point',(9407.70933184,-2758.20484909,473.771974077));
#129404=CARTESIAN_POINT('Control Point',(9407.63816657,-2758.75566414,473.825983903));
#129405=CARTESIAN_POINT('Control Point',(9407.56707107,-2759.30651585,473.880136059));
#129406=CARTESIAN_POINT('Control Point',(9407.49577839,-2759.85720073,473.934196651));
#129407=CARTESIAN_POINT('Control Point',(9407.67852923,-2757.0808776,473.666713017));
#129408=CARTESIAN_POINT('Control Point',(9407.57539098,-2757.62765055,473.721212974));
#129409=CARTESIAN_POINT('Control Point',(9407.47226488,-2758.17435089,473.776048784));
#129410=CARTESIAN_POINT('Control Point',(9407.36838033,-2758.72051,473.830544129));
#129411=CARTESIAN_POINT('Control Point',(9407.26594307,-2759.26790386,473.885187858));
#129412=CARTESIAN_POINT('Control Point',(9407.16204458,-2759.81401157,473.939753037));
#129413=CARTESIAN_POINT('Control Point',(9407.50612301,-2757.04484798,473.669233451));
#129414=CARTESIAN_POINT('Control Point',(9407.3725902,-2757.58578304,473.729709417));
#129415=CARTESIAN_POINT('Control Point',(9407.23671545,-2758.12580798,473.780349387));
#129416=CARTESIAN_POINT('Control Point',(9407.10044923,-2758.66472245,473.836563743));
#129417=CARTESIAN_POINT('Control Point',(9406.96784877,-2759.20756617,473.889182572));
#129418=CARTESIAN_POINT('Control Point',(9406.82944721,-2759.74477592,473.942732794));
#129419=CARTESIAN_POINT('Control Point',(9407.33772763,-2756.99760455,473.671152872));
#129420=CARTESIAN_POINT('Control Point',(9407.17158947,-2757.5285711,473.730502591));
#129421=CARTESIAN_POINT('Control Point',(9407.00485715,-2758.060039,473.783211472));
#129422=CARTESIAN_POINT('Control Point',(9406.83845618,-2758.59147034,473.837317862));
#129423=CARTESIAN_POINT('Control Point',(9406.67166289,-2759.12283703,473.890220197));
#129424=CARTESIAN_POINT('Control Point',(9406.50494137,-2759.6540987,473.943345708));
#129425=CARTESIAN_POINT('Control Point',(9406.84283687,-2756.81731623,473.675036728));
#129426=CARTESIAN_POINT('Control Point',(9406.5847514,-2757.31506703,473.734065265));
#129427=CARTESIAN_POINT('Control Point',(9406.32620565,-2757.81331908,473.785610504));
#129428=CARTESIAN_POINT('Control Point',(9406.06779518,-2758.31170748,473.836811224));
#129429=CARTESIAN_POINT('Control Point',(9405.8088995,-2758.80977386,473.887059537));
#129430=CARTESIAN_POINT('Control Point',(9405.55013712,-2759.30782884,473.937367385));
#129431=CARTESIAN_POINT('Control Point',(9406.3957007,-2756.5337501,473.671984313));
#129432=CARTESIAN_POINT('Control Point',(9406.05327222,-2756.9784206,473.7236764));
#129433=CARTESIAN_POINT('Control Point',(9405.71163097,-2757.42423117,473.771886632));
#129434=CARTESIAN_POINT('Control Point',(9405.36978398,-2757.87012226,473.817776396));
#129435=CARTESIAN_POINT('Control Point',(9405.02750299,-2758.31562733,473.863529143));
#129436=CARTESIAN_POINT('Control Point',(9404.687122,-2758.76306376,473.909169093));
#129437=CARTESIAN_POINT('Control Point',(9406.12658749,-2756.30152017,473.665980375));
#129438=CARTESIAN_POINT('Control Point',(9405.73499369,-2756.70444642,473.712967564));
#129439=CARTESIAN_POINT('Control Point',(9405.34316421,-2757.10742754,473.755908382));
#129440=CARTESIAN_POINT('Control Point',(9404.95144494,-2757.51072302,473.79801775));
#129441=CARTESIAN_POINT('Control Point',(9404.55940943,-2757.91353165,473.839248376));
#129442=CARTESIAN_POINT('Control Point',(9404.16738557,-2758.31663987,473.880562508));
#129443=CARTESIAN_POINT('Control Point',(9405.67026549,-2755.77426652,473.645315583));
#129444=CARTESIAN_POINT('Control Point',(9405.19332994,-2756.07969678,473.678335501));
#129445=CARTESIAN_POINT('Control Point',(9404.71651969,-2756.3851065,473.711689783));
#129446=CARTESIAN_POINT('Control Point',(9404.23932272,-2756.69022431,473.743348416));
#129447=CARTESIAN_POINT('Control Point',(9403.76302538,-2756.9964346,473.775171463));
#129448=CARTESIAN_POINT('Control Point',(9403.28583816,-2757.30166655,473.806734991));
#129449=CARTESIAN_POINT('Control Point',(9405.37985682,-2755.1391678,473.605975196));
#129450=CARTESIAN_POINT('Control Point',(9404.84957424,-2755.32792998,473.625301452));
#129451=CARTESIAN_POINT('Control Point',(9404.31861536,-2755.51574191,473.644711576));
#129452=CARTESIAN_POINT('Control Point',(9403.78805402,-2755.70403099,473.664530255));
#129453=CARTESIAN_POINT('Control Point',(9403.25709374,-2755.89181657,473.683704163));
#129454=CARTESIAN_POINT('Control Point',(9402.72543015,-2756.07873092,473.702993482));
#129455=CARTESIAN_POINT('Control Point',(9405.2837044,-2754.80906848,473.581922702));
#129456=CARTESIAN_POINT('Control Point',(9404.7335171,-2754.934454,473.590716217));
#129457=CARTESIAN_POINT('Control Point',(9404.18499648,-2755.06121084,473.606547276));
#129458=CARTESIAN_POINT('Control Point',(9403.63491245,-2755.18612151,473.618971234));
#129459=CARTESIAN_POINT('Control Point',(9403.08747568,-2755.3147196,473.632679277));
#129460=CARTESIAN_POINT('Control Point',(9402.53906563,-2755.44146515,473.645871231));
#129461=CARTESIAN_POINT('Control Point',(9405.23385466,-2754.46703616,473.552890214));
#129462=CARTESIAN_POINT('Control Point',(9404.67560031,-2754.52995477,473.558994462));
#129463=CARTESIAN_POINT('Control Point',(9404.1167191,-2754.59204488,473.565072375));
#129464=CARTESIAN_POINT('Control Point',(9403.56113705,-2754.65845614,473.571625386));
#129465=CARTESIAN_POINT('Control Point',(9402.99954546,-2754.71698675,473.577416423));
#129466=CARTESIAN_POINT('Control Point',(9402.44381476,-2754.7832018,473.583941899));
#129467=CARTESIAN_POINT('Control Point',(9405.23440381,-2754.12774175,473.519514635));
#129468=CARTESIAN_POINT('Control Point',(9404.67628501,-2754.12758923,473.519467628));
#129469=CARTESIAN_POINT('Control Point',(9404.11833078,-2754.12765725,473.519401242));
#129470=CARTESIAN_POINT('Control Point',(9403.56038692,-2754.12772206,473.519494167));
#129471=CARTESIAN_POINT('Control Point',(9403.00227917,-2754.1275789,473.51949456));
#129472=CARTESIAN_POINT('Control Point',(9402.4443908,-2754.12772458,473.519514704));
#129473=B_SPLINE_CURVE_WITH_KNOTS('',5,(#129474,#129475,#129476,#129477,#129478,#129479),.UNSPECIFIED.,.F.,.U.,(6,6),(0.,11.7035609039),.UNSPECIFIED.);
#129474=CARTESIAN_POINT('Control Point',(9407.49577839,-2759.85720073,473.934196651));
#129475=CARTESIAN_POINT('Control Point',(9405.84249242,-2759.64324568,473.961722463));
#129476=CARTESIAN_POINT('Control Point',(9404.2534895,-2758.82572995,473.928063844));
#129477=CARTESIAN_POINT('Control Point',(9403.05061458,-2757.46245009,473.82947184));
#129478=CARTESIAN_POINT('Control Point',(9402.44293041,-2755.7894894,473.682850427));
#129479=CARTESIAN_POINT('Control Point',(9402.4443908,-2754.12772458,473.519514704));
#129480=CARTESIAN_POINT('Vertex',(9407.49584642,-2759.85726277,473.934200281));
#129481=VERTEX_POINT('',#129480);
#129482=EDGE_CURVE('',#129481,#129139,#129473,.T.);
#129483=B_SPLINE_CURVE_WITH_KNOTS('',5,(#129484,#129485,#129486,#129487,#129488,#129489),.UNSPECIFIED.,.F.,.U.,(6,6),(-2.78996345832,3.39336433734E-009),.UNSPECIFIED.);
#129484=CARTESIAN_POINT('Control Point',(9407.8516541,-2757.10328267,473.663840444));
#129485=CARTESIAN_POINT('Control Point',(9407.78056179,-2757.65416804,473.717791907));
#129486=CARTESIAN_POINT('Control Point',(9407.70932904,-2758.20487073,473.771976199));
#129487=CARTESIAN_POINT('Control Point',(9407.63816471,-2758.75567857,473.825985322));
#129488=CARTESIAN_POINT('Control Point',(9407.56707014,-2759.30652307,473.880136767));
#129489=CARTESIAN_POINT('Control Point',(9407.49577839,-2759.85720073,473.934196651));
#129490=EDGE_CURVE('',#129380,#129481,#129483,.T.);
#129491=EDGE_LOOP('',(#129492,#129493,#129494,#129495));
#129492=ORIENTED_EDGE('',*,*,#129482,.F.);
#129493=ORIENTED_EDGE('',*,*,#129490,.F.);
#129494=ORIENTED_EDGE('',*,*,#129381,.T.);
#129495=ORIENTED_EDGE('',*,*,#129145,.F.);
#129496=FACE_OUTER_BOUND('',#129491,.T.);
#129497=ADVANCED_FACE('PartBody',(#129496),#129400,.T.);
#129498=B_SPLINE_SURFACE_WITH_KNOTS('',5,5,((#129499,#129500,#129501,#129502,#129503,#129504,#129505,#129506,#129507),(#129508,#129509,#129510,#129511,#129512,#129513,#129514,#129515,#129516),(#129517,#129518,#129519,#129520,#129521,#129522,#129523,#129524,#129525),(#129526,#129527,#129528,#129529,#129530,#129531,#129532,#129533,#129534),(#129535,#129536,#129537,#129538,#129539,#129540,#129541,#129542,#129543),(#129544,#129545,#129546,#129547,#129548,#129549,#129550,#129551,#129552)),.UNSPECIFIED.,.F.,.F.,.U.,(6,6),(6,3,6),(71.7365489711,230.408137054),(0.,2.895,5.79),.UNSPECIFIED.);
#129499=CARTESIAN_POINT('Control Point',(9407.50813819,-2768.95769339,360.97665631));
#129500=CARTESIAN_POINT('Control Point',(9406.67806559,-2768.85296228,360.970059528));
#129501=CARTESIAN_POINT('Control Point',(9405.866937,-2768.59861478,360.954038737));
#129502=CARTESIAN_POINT('Control Point',(9405.11092585,-2768.1990506,360.928871067));
#129503=CARTESIAN_POINT('Control Point',(9403.77767,-2767.145728,360.86252459));
#129504=CARTESIAN_POINT('Control Point',(9402.8978147,-2765.69350596,360.771052313));
#129505=CARTESIAN_POINT('Control Point',(9402.59544113,-2764.8948338,360.720745707));
#129506=CARTESIAN_POINT('Control Point',(9402.444336,-2764.05980108,360.66814883));
#129507=CARTESIAN_POINT('Control Point',(9402.444336,-2763.22477642,360.61555246));
#129508=CARTESIAN_POINT('Control Point',(9407.5053937,-2767.52796751,383.668953636));
#129509=CARTESIAN_POINT('Control Point',(9406.67564568,-2767.42292146,383.661600151));
#129510=CARTESIAN_POINT('Control Point',(9405.8649008,-2767.168433,383.643780947));
#129511=CARTESIAN_POINT('Control Point',(9405.1092944,-2766.76891295,383.615804809));
#129512=CARTESIAN_POINT('Control Point',(9403.77680641,-2765.71601983,383.542074432));
#129513=CARTESIAN_POINT('Control Point',(9402.89751472,-2764.26477517,383.440446195));
#129514=CARTESIAN_POINT('Control Point',(9402.59534124,-2763.46669558,383.384557629));
#129515=CARTESIAN_POINT('Control Point',(9402.444336,-2762.6323076,383.326126251));
#129516=CARTESIAN_POINT('Control Point',(9402.444336,-2761.79792765,383.267695436));
#129517=CARTESIAN_POINT('Control Point',(9407.50279459,-2765.90097365,406.324470674));
#129518=CARTESIAN_POINT('Control Point',(9406.67335419,-2765.79563892,406.316356284));
#129519=CARTESIAN_POINT('Control Point',(9405.86297279,-2765.54103905,406.296737284));
#129520=CARTESIAN_POINT('Control Point',(9405.10774971,-2765.14159496,406.265954257));
#129521=CARTESIAN_POINT('Control Point',(9403.77598882,-2764.08919801,406.184848567));
#129522=CARTESIAN_POINT('Control Point',(9402.89723072,-2762.63900143,406.073081646));
#129523=CARTESIAN_POINT('Control Point',(9402.59524667,-2761.84155026,406.011621397));
#129524=CARTESIAN_POINT('Control Point',(9402.444336,-2761.0078431,405.94736662));
#129525=CARTESIAN_POINT('Control Point',(9402.444336,-2760.17414395,405.883112461));
#129526=CARTESIAN_POINT('Control Point',(9407.50033243,-2764.07731274,428.945373437));
#129527=CARTESIAN_POINT('Control Point',(9406.67118361,-2763.97171444,428.936494544));
#129528=CARTESIAN_POINT('Control Point',(9405.86114663,-2763.71703187,428.915074768));
#129529=CARTESIAN_POINT('Control Point',(9405.10628669,-2763.31769504,428.881486611));
#129530=CARTESIAN_POINT('Control Point',(9403.77521452,-2762.26586051,428.793014136));
#129531=CARTESIAN_POINT('Control Point',(9402.89696177,-2760.81678332,428.671125074));
#129532=CARTESIAN_POINT('Control Point',(9402.59515712,-2760.01999691,428.604102922));
#129533=CARTESIAN_POINT('Control Point',(9402.444336,-2759.18700727,428.534035284));
#129534=CARTESIAN_POINT('Control Point',(9402.444336,-2758.35402561,428.463968319));
#129535=CARTESIAN_POINT('Control Point',(9407.49801108,-2762.05765489,451.532268079));
#129536=CARTESIAN_POINT('Control Point',(9406.66913734,-2761.95181861,451.522622224));
#129537=CARTESIAN_POINT('Control Point',(9405.85942515,-2761.69708226,451.499402278));
#129538=CARTESIAN_POINT('Control Point',(9405.1049076,-2761.29788399,451.463012743));
#129539=CARTESIAN_POINT('Control Point',(9403.7744847,-2760.24667771,451.367186669));
#129540=CARTESIAN_POINT('Control Point',(9402.89670828,-2758.7987901,451.235197696));
#129541=CARTESIAN_POINT('Control Point',(9402.59507271,-2758.00270412,451.162626445));
#129542=CARTESIAN_POINT('Control Point',(9402.444336,-2757.17046792,451.086759599));
#129543=CARTESIAN_POINT('Control Point',(9402.444336,-2756.3382397,451.010893479));
#129544=CARTESIAN_POINT('Control Point',(9407.49583222,-2759.84282326,474.081241151));
#129545=CARTESIAN_POINT('Control Point',(9406.6672168,-2759.73677478,474.070826059));
#129546=CARTESIAN_POINT('Control Point',(9405.85780953,-2759.48201375,474.045805809));
#129547=CARTESIAN_POINT('Control Point',(9405.10361335,-2759.08298549,474.00661698));
#129548=CARTESIAN_POINT('Control Point',(9403.77379983,-2758.03247347,473.903445496));
#129549=CARTESIAN_POINT('Control Point',(9402.89647041,-2756.58584572,473.761371225));
#129550=CARTESIAN_POINT('Control Point',(9402.59499351,-2755.79049585,473.683259387));
#129551=CARTESIAN_POINT('Control Point',(9402.444336,-2754.95904905,473.601602446));
#129552=CARTESIAN_POINT('Control Point',(9402.444336,-2754.12761021,473.519946285));
#129553=B_SPLINE_CURVE_WITH_KNOTS('',5,(#129554,#129555,#129556,#129557,#129558,#129559,#129560,#129561,#129562),.UNSPECIFIED.,.F.,.U.,(6,3,6),(71.7365489885,217.929860867,230.20119983),.UNSPECIFIED.);
#129554=CARTESIAN_POINT('Control Point',(9407.50813819,-2768.95769338,360.976656322));
#129555=CARTESIAN_POINT('Control Point',(9407.50560953,-2767.64040424,381.884382402));
#129556=CARTESIAN_POINT('Control Point',(9407.50320429,-2766.15565425,402.760885684));
#129557=CARTESIAN_POINT('Control Point',(9407.50091623,-2764.50400233,423.606766203));
#129558=CARTESIAN_POINT('Control Point',(9407.49856445,-2762.53308758,446.173255422));
#129559=CARTESIAN_POINT('Control Point',(9407.49635469,-2760.36739582,468.701798667));
#129560=CARTESIAN_POINT('Control Point',(9407.49618442,-2760.19851901,470.446159129));
#129561=CARTESIAN_POINT('Control Point',(9407.496015,-2760.02847455,472.190293094));
#129562=CARTESIAN_POINT('Control Point',(9407.49584643,-2759.8572627,473.934200259));
#129563=EDGE_CURVE('',#129300,#129481,#129553,.T.);
#129564=EDGE_LOOP('',(#129565,#129566,#129567,#129568));
#129565=ORIENTED_EDGE('',*,*,#129175,.F.);
#129566=ORIENTED_EDGE('',*,*,#129309,.F.);
#129567=ORIENTED_EDGE('',*,*,#129563,.T.);
#129568=ORIENTED_EDGE('',*,*,#129482,.T.);
#129569=FACE_OUTER_BOUND('',#129564,.T.);
#129570=ADVANCED_FACE('PartBody',(#129569),#129498,.T.);
#129571=B_SPLINE_SURFACE_WITH_KNOTS('',5,4,((#129572,#129573,#129574,#129575,#129576),(#129577,#129578,#129579,#129580,#129581),(#129582,#129583,#129584,#129585,#129586),(#129587,#129588,#129589,#129590,#129591),(#129592,#129593,#129594,#129595,#129596),(#129597,#129598,#129599,#129600,#129601)),.UNSPECIFIED.,.F.,.F.,.U.,(6,6),(5,5),(-702.737760786,-591.155831474),(-1147.46087491,-1121.63013784),.UNSPECIFIED.);
#129572=CARTESIAN_POINT('Control Point',(9433.14980662,-2772.17182177,361.317101938));
#129573=CARTESIAN_POINT('Control Point',(9426.74584711,-2771.38360233,361.050135612));
#129574=CARTESIAN_POINT('Control Point',(9420.34219451,-2770.59342326,360.78257226));
#129575=CARTESIAN_POINT('Control Point',(9413.93884849,-2769.8012869,360.514412628));
#129576=CARTESIAN_POINT('Control Point',(9407.53580875,-2769.00719536,360.2456574));
#129577=CARTESIAN_POINT('Control Point',(9432.28417183,-2770.63688076,384.141138419));
#129578=CARTESIAN_POINT('Control Point',(9425.88048596,-2769.8469349,383.873665458));
#129579=CARTESIAN_POINT('Control Point',(9419.47710727,-2769.05502725,383.605595027));
#129580=CARTESIAN_POINT('Control Point',(9413.07403539,-2768.2611603,383.336927897));
#129581=CARTESIAN_POINT('Control Point',(9406.67127001,-2767.46533633,383.067664774));
#129582=CARTESIAN_POINT('Control Point',(9431.44924067,-2768.90590145,406.905542016));
#129583=CARTESIAN_POINT('Control Point',(9425.04580959,-2768.11434451,406.637598055));
#129584=CARTESIAN_POINT('Control Point',(9418.64268585,-2767.32082434,406.369056313));
#129585=CARTESIAN_POINT('Control Point',(9412.23986906,-2766.52534297,406.099917768));
#129586=CARTESIAN_POINT('Control Point',(9405.83735887,-2765.727905,405.830183073));
#129587=CARTESIAN_POINT('Control Point',(9430.64471788,-2766.98074813,429.610865778));
#129588=CARTESIAN_POINT('Control Point',(9424.24152287,-2766.1876961,429.342486857));
#129589=CARTESIAN_POINT('Control Point',(9417.83863518,-2765.39268049,429.073510135));
#129590=CARTESIAN_POINT('Control Point',(9411.43605463,-2764.59570459,428.80393648));
#129591=CARTESIAN_POINT('Control Point',(9405.03378082,-2763.79676981,428.53376644));
#129592=CARTESIAN_POINT('Control Point',(9429.87035991,-2764.86296354,452.257567213));
#129593=CARTESIAN_POINT('Control Point',(9423.46738223,-2764.06853489,451.988789628));
#129594=CARTESIAN_POINT('Control Point',(9417.06471205,-2763.2721425,451.719414169));
#129595=CARTESIAN_POINT('Control Point',(9410.66234903,-2762.47378875,451.449441542));
#129596=CARTESIAN_POINT('Control Point',(9404.26029286,-2761.67347581,451.178872394));
#129597=CARTESIAN_POINT('Control Point',(9429.12596168,-2762.55385092,474.846033501));
#129598=CARTESIAN_POINT('Control Point',(9422.72318284,-2761.75816335,474.576893329));
#129599=CARTESIAN_POINT('Control Point',(9416.3207116,-2760.9605115,474.307155106));
#129600=CARTESIAN_POINT('Control Point',(9409.91854764,-2760.16089767,474.036819516));
#129601=CARTESIAN_POINT('Control Point',(9403.51669068,-2759.35932397,473.765887184));
#129602=B_SPLINE_CURVE_WITH_KNOTS('',3,(#129603,#129604,#129605,#129606),.UNSPECIFIED.,.F.,.U.,(4,4),(0.,21.4163677303),.UNSPECIFIED.);
#129603=CARTESIAN_POINT('Control Point',(9407.50813089,-2768.95772715,360.976658457));
#129604=CARTESIAN_POINT('Control Point',(9410.40045833,-2769.32617865,360.94366633));
#129605=CARTESIAN_POINT('Control Point',(9413.29282657,-2769.69414047,360.910719581));
#129606=CARTESIAN_POINT('Control Point',(9416.18513824,-2770.06160011,360.877818708));
#129607=CARTESIAN_POINT('Vertex',(9416.18513824,-2770.06160011,360.877818708));
#129608=VERTEX_POINT('',#129607);
#129609=EDGE_CURVE('',#129300,#129608,#129602,.T.);
#129610=B_SPLINE_CURVE_WITH_KNOTS('',5,(#129611,#129612,#129613,#129614,#129615,#129616),.UNSPECIFIED.,.F.,.U.,(6,6),(0.,28.9198625474),.UNSPECIFIED.);
#129611=CARTESIAN_POINT('Control Point',(9416.18513824,-2770.06160011,360.877818708));
#129612=CARTESIAN_POINT('Control Point',(9420.24338528,-2770.57718838,360.831655008));
#129613=CARTESIAN_POINT('Control Point',(9424.33206418,-2770.99486981,362.39149511));
#129614=CARTESIAN_POINT('Control Point',(9427.65317644,-2771.21478206,365.57411005));
#129615=CARTESIAN_POINT('Control Point',(9429.33400048,-2771.1540248,369.779039244));
#129616=CARTESIAN_POINT('Control Point',(9429.33327108,-2770.87584781,373.960445544));
#129617=CARTESIAN_POINT('Vertex',(9429.33327108,-2770.87584781,373.960445544));
#129618=VERTEX_POINT('',#129617);
#129619=EDGE_CURVE('',#129608,#129618,#129610,.T.);
#129620=B_SPLINE_CURVE_WITH_KNOTS('',3,(#129621,#129622,#129623,#129624),.UNSPECIFIED.,.F.,.U.,(4,4),(0.,171.73580905),.UNSPECIFIED.);
#129621=CARTESIAN_POINT('Control Point',(9429.33327108,-2770.87584781,373.960445544));
#129622=CARTESIAN_POINT('Control Point',(9429.32819385,-2768.93951379,403.066373705));
#129623=CARTESIAN_POINT('Control Point',(9429.32352525,-2766.61463022,432.076885491));
#129624=CARTESIAN_POINT('Control Point',(9429.31924395,-2763.90572186,460.996575184));
#129625=CARTESIAN_POINT('Vertex',(9429.31924395,-2763.90572186,460.996575184));
#129626=VERTEX_POINT('',#129625);
#129627=EDGE_CURVE('',#129618,#129626,#129620,.T.);
#129628=B_SPLINE_CURVE_WITH_KNOTS('',5,(#129629,#129630,#129631,#129632,#129633,#129634,#129635,#129636,#129637,#129638,#129639,#129640),.UNSPECIFIED.,.F.,.U.,(6,3,3,6),(0.,7.38234078113,14.7884762078,28.0327874971),.UNSPECIFIED.);
#129629=CARTESIAN_POINT('Control Point',(9429.31924395,-2763.90572186,460.996575184));
#129630=CARTESIAN_POINT('Control Point',(9429.31908718,-2763.80652978,462.055527291));
#129631=CARTESIAN_POINT('Control Point',(9429.21108814,-2763.69316889,463.113587214));
#129632=CARTESIAN_POINT('Control Point',(9428.99479589,-2763.56678633,464.157753607));
#129633=CARTESIAN_POINT('Control Point',(9428.35028931,-2763.2917431,466.185222308));
#129634=CARTESIAN_POINT('Control Point',(9427.31125982,-2762.98202493,468.0289523));
#129635=CARTESIAN_POINT('Control Point',(9426.69818491,-2762.8202715,468.893615318));
#129636=CARTESIAN_POINT('Control Point',(9424.75827223,-2762.35830998,471.101835015));
#129637=CARTESIAN_POINT('Control Point',(9422.25935506,-2761.88295606,472.68532065));
#129638=CARTESIAN_POINT('Control Point',(9420.50012209,-2761.58829604,473.383755609));
#129639=CARTESIAN_POINT('Control Point',(9418.65041049,-2761.31424456,473.750267849));
#129640=CARTESIAN_POINT('Control Point',(9416.79290813,-2761.07191137,473.780860917));
#129641=CARTESIAN_POINT('Vertex',(9416.79290813,-2761.07191137,473.780860917));
#129642=VERTEX_POINT('',#129641);
#129643=EDGE_CURVE('',#129626,#129642,#129628,.T.);
#129644=B_SPLINE_CURVE_WITH_KNOTS('',3,(#129645,#129646,#129647,#129648),.UNSPECIFIED.,.F.,.U.,(4,4),(0.,20.9441931594),.UNSPECIFIED.);
#129645=CARTESIAN_POINT('Control Point',(9407.49584642,-2759.85726277,473.934200281));
#129646=CARTESIAN_POINT('Control Point',(9410.5952487,-2760.2627744,473.883008822));
#129647=CARTESIAN_POINT('Control Point',(9413.69429945,-2760.66766114,473.83189501));
#129648=CARTESIAN_POINT('Control Point',(9416.79290813,-2761.07191137,473.780860917));
#129649=EDGE_CURVE('',#129481,#129642,#129644,.T.);
#129650=EDGE_LOOP('',(#129651,#129652,#129653,#129654,#129655,#129656));
#129651=ORIENTED_EDGE('',*,*,#129563,.F.);
#129652=ORIENTED_EDGE('',*,*,#129609,.T.);
#129653=ORIENTED_EDGE('',*,*,#129619,.T.);
#129654=ORIENTED_EDGE('',*,*,#129627,.T.);
#129655=ORIENTED_EDGE('',*,*,#129643,.T.);
#129656=ORIENTED_EDGE('',*,*,#129649,.F.);
#129657=FACE_OUTER_BOUND('',#129650,.T.);
#129658=ADVANCED_FACE('PartBody',(#129657),#129571,.T.);
#129659=B_SPLINE_SURFACE_WITH_KNOTS('',5,1,((#129660,#129661),(#129662,#129663),(#129664,#129665),(#129666,#129667),(#129668,#129669),(#129670,#129671),(#129672,#129673),(#129674,#129675),(#129676,#129677),(#129678,#129679),(#129680,#129681),(#129682,#129683),(#129684,#129685),(#129686,#129687),(#129688,#129689)),.UNSPECIFIED.,.F.,.F.,.U.,(6,3,3,3,6),(2,2),(0.,5.93825487025,9.89774961522,13.8594093937,19.8136367477),(-2.79,1.9701243652E-014),.UNSPECIFIED.);
#129660=CARTESIAN_POINT('Control Point',(9429.67219923,-2761.15019494,460.738517132));
#129661=CARTESIAN_POINT('Control Point',(9429.31924395,-2763.90572186,460.996575184));
#129662=CARTESIAN_POINT('Control Point',(9429.67207864,-2761.03746039,461.942124253));
#129663=CARTESIAN_POINT('Control Point',(9429.31906561,-2763.7928835,462.201211804));
#129664=CARTESIAN_POINT('Control Point',(9429.53241645,-2760.90639333,463.144569878));
#129665=CARTESIAN_POINT('Control Point',(9429.17933129,-2763.66170965,463.404693943));
#129666=CARTESIAN_POINT('Control Point',(9429.25256059,-2760.75852762,464.328369813));
#129667=CARTESIAN_POINT('Control Point',(9428.8993897,-2763.51373563,464.589522426));
#129668=CARTESIAN_POINT('Control Point',(9428.55796669,-2760.48932778,466.222958937));
#129669=CARTESIAN_POINT('Control Point',(9428.20463301,-2763.24435708,466.485771606));
#129670=CARTESIAN_POINT('Control Point',(9427.52246765,-2760.19299919,467.929408603));
#129671=CARTESIAN_POINT('Control Point',(9427.16894477,-2762.94785876,468.193739522));
#129672=CARTESIAN_POINT('Control Point',(9427.05426724,-2760.07050211,468.578944904));
#129673=CARTESIAN_POINT('Control Point',(9426.70066465,-2762.82529554,468.843857874));
#129674=CARTESIAN_POINT('Control Point',(9426.02953372,-2759.82224353,469.790384871));
#129675=CARTESIAN_POINT('Control Point',(9425.67576666,-2762.57691044,470.056391896));
#129676=CARTESIAN_POINT('Control Point',(9424.82531527,-2759.56678659,470.831182603));
#129677=CARTESIAN_POINT('Control Point',(9424.47137314,-2762.32133827,471.098147693));
#129678=CARTESIAN_POINT('Control Point',(9424.18746638,-2759.43931952,471.300074893));
#129679=CARTESIAN_POINT('Control Point',(9423.83343542,-2762.19381739,471.567476937));
#129680=CARTESIAN_POINT('Control Point',(9422.50587068,-2759.12149187,472.345759368));
#129681=CARTESIAN_POINT('Control Point',(9422.15161453,-2761.87586465,472.614150374));
#129682=CARTESIAN_POINT('Control Point',(9420.65809349,-2758.81534744,473.046208009));
#129683=CARTESIAN_POINT('Control Point',(9420.30361103,-2761.56962246,473.315301916));
#129684=CARTESIAN_POINT('Control Point',(9419.50632462,-2758.6386498,473.336765917));
#129685=CARTESIAN_POINT('Control Point',(9419.15170793,-2761.39287689,473.606173034));
#129686=CARTESIAN_POINT('Control Point',(9418.32862962,-2758.47179263,473.491804346));
#129687=CARTESIAN_POINT('Control Point',(9417.97388232,-2761.22598344,473.761410269));
#129688=CARTESIAN_POINT('Control Point',(9417.14778003,-2758.31774474,473.511171942));
#129689=CARTESIAN_POINT('Control Point',(9416.79290813,-2761.07191137,473.780860917));
#129690=B_SPLINE_CURVE_WITH_KNOTS('',1,(#129691,#129692),.UNSPECIFIED.,.F.,.U.,(2,2),(-2.79,-6.49706454259E-014),.UNSPECIFIED.);
#129691=CARTESIAN_POINT('Control Point',(9429.67219923,-2761.15019494,460.738517132));
#129692=CARTESIAN_POINT('Control Point',(9429.31924395,-2763.90572186,460.996575184));
#129693=CARTESIAN_POINT('Vertex',(9429.67219923,-2761.15019494,460.738517132));
#129694=VERTEX_POINT('',#129693);
#129695=EDGE_CURVE('',#129694,#129626,#129690,.T.);
#129696=B_SPLINE_CURVE_WITH_KNOTS('',5,(#129697,#129698,#129699,#129700,#129701,#129702,#129703,#129704,#129705,#129706,#129707,#129708,#129709,#129710,#129711),.UNSPECIFIED.,.F.,.U.,(6,3,3,3,6),(0.,7.38277599639,14.7899312087,19.7622249097,28.0327732037),.UNSPECIFIED.);
#129697=CARTESIAN_POINT('Control Point',(9429.67219923,-2761.15019494,460.738517132));
#129698=CARTESIAN_POINT('Control Point',(9429.67209322,-2761.05108827,461.79662662));
#129699=CARTESIAN_POINT('Control Point',(9429.56414334,-2760.93781343,462.853838453));
#129700=CARTESIAN_POINT('Control Point',(9429.34806009,-2760.81157205,463.896787494));
#129701=CARTESIAN_POINT('Control Point',(9428.70329178,-2760.53657537,465.923421307));
#129702=CARTESIAN_POINT('Control Point',(9427.66461074,-2760.22711519,467.764909905));
#129703=CARTESIAN_POINT('Control Point',(9427.05106059,-2760.06530547,468.629526526));
#129704=CARTESIAN_POINT('Control Point',(9425.8887026,-2759.78860915,469.951583969));
#129705=CARTESIAN_POINT('Control Point',(9424.52468386,-2759.50691527,471.050034963));
#129706=CARTESIAN_POINT('Control Point',(9423.94938136,-2759.39406901,471.450761534));
#129707=CARTESIAN_POINT('Control Point',(9422.34686621,-2759.09474311,472.410214104));
#129708=CARTESIAN_POINT('Control Point',(9420.59843042,-2758.80621513,473.061044451));
#129709=CARTESIAN_POINT('Control Point',(9419.4643655,-2758.63270919,473.342246468));
#129710=CARTESIAN_POINT('Control Point',(9418.30759437,-2758.46904848,473.492149354));
#129711=CARTESIAN_POINT('Control Point',(9417.14778003,-2758.31774474,473.511171942));
#129712=CARTESIAN_POINT('Vertex',(9417.14778003,-2758.31774474,473.511171942));
#129713=VERTEX_POINT('',#129712);
#129714=EDGE_CURVE('',#129694,#129713,#129696,.T.);
#129715=B_SPLINE_CURVE_WITH_KNOTS('',1,(#129716,#129717),.UNSPECIFIED.,.F.,.U.,(2,2),(-2.79,1.9701243652E-014),.UNSPECIFIED.);
#129716=CARTESIAN_POINT('Control Point',(9417.14778003,-2758.31774474,473.511171942));
#129717=CARTESIAN_POINT('Control Point',(9416.79290813,-2761.07191137,473.780860917));
#129718=EDGE_CURVE('',#129713,#129642,#129715,.T.);
#129719=EDGE_LOOP('',(#129720,#129721,#129722,#129723));
#129720=ORIENTED_EDGE('',*,*,#129643,.F.);
#129721=ORIENTED_EDGE('',*,*,#129695,.F.);
#129722=ORIENTED_EDGE('',*,*,#129714,.T.);
#129723=ORIENTED_EDGE('',*,*,#129718,.T.);
#129724=FACE_OUTER_BOUND('',#129719,.T.);
#129725=ADVANCED_FACE('PartBody',(#129724),#129659,.T.);
#129726=B_SPLINE_SURFACE_WITH_KNOTS('',5,4,((#129727,#129728,#129729,#129730,#129731),(#129732,#129733,#129734,#129735,#129736),(#129737,#129738,#129739,#129740,#129741),(#129742,#129743,#129744,#129745,#129746),(#129747,#129748,#129749,#129750,#129751),(#129752,#129753,#129754,#129755,#129756)),.UNSPECIFIED.,.F.,.F.,.U.,(6,6),(5,5),(-702.737982598,-591.155831474),(-1147.46090621,-1121.63013786),.UNSPECIFIED.);
#129727=CARTESIAN_POINT('Control Point',(9433.49711147,-2769.4089252,361.14423806));
#129728=CARTESIAN_POINT('Control Point',(9427.09379904,-2768.62079874,360.877085585));
#129729=CARTESIAN_POINT('Control Point',(9420.69079302,-2767.83071284,360.609335794));
#129730=CARTESIAN_POINT('Control Point',(9414.28809312,-2767.03866982,360.340989455));
#129731=CARTESIAN_POINT('Control Point',(9407.88569905,-2766.24467181,360.072047271));
#129732=CARTESIAN_POINT('Control Point',(9432.6328915,-2767.87538368,383.948748953));
#129733=CARTESIAN_POINT('Control Point',(9426.22985396,-2767.08553198,383.681100733));
#129734=CARTESIAN_POINT('Control Point',(9419.82712304,-2766.29371865,383.41285487));
#129735=CARTESIAN_POINT('Control Point',(9413.42469843,-2765.49994619,383.144012142));
#129736=CARTESIAN_POINT('Control Point',(9407.02257983,-2764.70421688,382.874573261));
#129737=CARTESIAN_POINT('Control Point',(9431.79930413,-2766.14596533,406.693693444));
#129738=CARTESIAN_POINT('Control Point',(9425.39652225,-2765.35450273,406.425585444));
#129739=CARTESIAN_POINT('Control Point',(9418.99404707,-2764.56107745,406.156879475));
#129740=CARTESIAN_POINT('Control Point',(9412.59187832,-2763.76569263,405.887576598));
#129741=CARTESIAN_POINT('Control Point',(9406.19001576,-2762.96834949,405.617677538));
#129742=CARTESIAN_POINT('Control Point',(9430.99605301,-2764.22253186,429.379616154));
#129743=CARTESIAN_POINT('Control Point',(9424.59350778,-2763.42957553,429.11108452));
#129744=CARTESIAN_POINT('Control Point',(9418.19126938,-2762.63465614,428.841955018));
#129745=CARTESIAN_POINT('Control Point',(9411.78933751,-2761.83777588,428.572228475));
#129746=CARTESIAN_POINT('Control Point',(9405.38771194,-2761.03893727,428.301905471));
#129747=CARTESIAN_POINT('Control Point',(9430.22289397,-2762.10662583,452.006967402));
#129748=CARTESIAN_POINT('Control Point',(9423.82056666,-2761.31229329,451.738048609));
#129749=CARTESIAN_POINT('Control Point',(9417.41854633,-2760.51599716,451.468531872));
#129750=CARTESIAN_POINT('Control Point',(9411.01683266,-2759.71773982,451.198417888));
#129751=CARTESIAN_POINT('Control Point',(9404.61542537,-2758.91752347,450.927707296));
#129752=CARTESIAN_POINT('Control Point',(9429.47962181,-2759.79954955,474.576128918));
#129753=CARTESIAN_POINT('Control Point',(9423.07749395,-2759.00395827,474.306859119));
#129754=CARTESIAN_POINT('Control Point',(9416.67567318,-2758.20640287,474.036991194));
#129755=CARTESIAN_POINT('Control Point',(9410.27415922,-2757.40688565,473.766525815));
#129756=CARTESIAN_POINT('Control Point',(9403.87295178,-2756.60540873,473.495463601));
#129757=B_SPLINE_CURVE_WITH_KNOTS('',3,(#129758,#129759,#129760,#129761),.UNSPECIFIED.,.F.,.U.,(4,4),(0.,20.9441931579),.UNSPECIFIED.);
#129758=CARTESIAN_POINT('Control Point',(9407.85169891,-2757.10328681,473.663857209));
#129759=CARTESIAN_POINT('Control Point',(9410.95077439,-2757.50873479,473.612883901));
#129760=CARTESIAN_POINT('Control Point',(9414.04949827,-2757.91355798,473.561988123));
#129761=CARTESIAN_POINT('Control Point',(9417.14778003,-2758.31774474,473.511171942));
#129762=EDGE_CURVE('',#129380,#129713,#129757,.T.);
#129763=B_SPLINE_CURVE_WITH_KNOTS('',3,(#129764,#129765,#129766,#129767),.UNSPECIFIED.,.F.,.U.,(4,4),(0.,171.73580905),.UNSPECIFIED.);
#129764=CARTESIAN_POINT('Control Point',(9429.68166264,-2768.11378684,373.776754312));
#129765=CARTESIAN_POINT('Control Point',(9429.67824084,-2766.17931585,402.857808664));
#129766=CARTESIAN_POINT('Control Point',(9429.67509436,-2763.85661114,431.843542589));
#129767=CARTESIAN_POINT('Control Point',(9429.67219923,-2761.15019494,460.738517132));
#129768=CARTESIAN_POINT('Vertex',(9429.68166264,-2768.11378684,373.776754312));
#129769=VERTEX_POINT('',#129768);
#129770=EDGE_CURVE('',#129769,#129694,#129763,.T.);
#129771=B_SPLINE_CURVE_WITH_KNOTS('',5,(#129772,#129773,#129774,#129775,#129776,#129777),.UNSPECIFIED.,.F.,.U.,(6,6),(0.,28.918871863),.UNSPECIFIED.);
#129772=CARTESIAN_POINT('Control Point',(9416.5341527,-2767.29895018,360.704457021));
#129773=CARTESIAN_POINT('Control Point',(9420.59183373,-2767.81444786,360.658597447));
#129774=CARTESIAN_POINT('Control Point',(9424.67955131,-2768.23212347,362.216614596));
#129775=CARTESIAN_POINT('Control Point',(9428.00210454,-2768.45226686,365.398391235));
#129776=CARTESIAN_POINT('Control Point',(9429.68215421,-2768.39168665,369.599064542));
#129777=CARTESIAN_POINT('Control Point',(9429.68166264,-2768.11378684,373.776754312));
#129778=CARTESIAN_POINT('Vertex',(9416.5341527,-2767.29895018,360.704457021));
#129779=VERTEX_POINT('',#129778);
#129780=EDGE_CURVE('',#129779,#129769,#129771,.T.);
#129781=B_SPLINE_CURVE_WITH_KNOTS('',3,(#129782,#129783,#129784,#129785),.UNSPECIFIED.,.F.,.U.,(4,4),(0.,21.4163670855),.UNSPECIFIED.);
#129782=CARTESIAN_POINT('Control Point',(9407.85805966,-2766.19523356,360.802649829));
#129783=CARTESIAN_POINT('Control Point',(9410.75008253,-2766.56363289,360.769873465));
#129784=CARTESIAN_POINT('Control Point',(9413.64214576,-2766.93154256,360.73714237));
#129785=CARTESIAN_POINT('Control Point',(9416.5341527,-2767.29895018,360.704457021));
#129786=EDGE_CURVE('',#129290,#129779,#129781,.T.);
#129787=EDGE_LOOP('',(#129788,#129789,#129790,#129791,#129792,#129793));
#129788=ORIENTED_EDGE('',*,*,#129762,.T.);
#129789=ORIENTED_EDGE('',*,*,#129714,.F.);
#129790=ORIENTED_EDGE('',*,*,#129770,.F.);
#129791=ORIENTED_EDGE('',*,*,#129780,.F.);
#129792=ORIENTED_EDGE('',*,*,#129786,.F.);
#129793=ORIENTED_EDGE('',*,*,#129392,.T.);
#129794=FACE_OUTER_BOUND('',#129787,.T.);
#129795=ADVANCED_FACE('PartBody',(#129794),#129726,.F.);
#129796=B_SPLINE_SURFACE_WITH_KNOTS('',5,1,((#129797,#129798),(#129799,#129800),(#129801,#129802),(#129803,#129804),(#129805,#129806),(#129807,#129808),(#129809,#129810),(#129811,#129812),(#129813,#129814),(#129815,#129816),(#129817,#129818),(#129819,#129820),(#129821,#129822),(#129823,#129824),(#129825,#129826),(#129827,#129828),(#129829,#129830),(#129831,#129832)),.UNSPECIFIED.,.F.,.F.,.U.,(6,3,3,3,3,6),(2,2),(0.,6.12710975205,10.2123101718,14.3020459437,18.3911221761,20.4350490368),(-2.79,9.77819078316E-014),.UNSPECIFIED.);
#129797=CARTESIAN_POINT('Control Point',(9416.5341527,-2767.29895018,360.704457021));
#129798=CARTESIAN_POINT('Control Point',(9416.18513824,-2770.06160011,360.877818708));
#129799=CARTESIAN_POINT('Control Point',(9417.74996691,-2767.45341017,360.690715989));
#129800=CARTESIAN_POINT('Control Point',(9417.40108039,-2770.21608196,360.863987025));
#129801=CARTESIAN_POINT('Control Point',(9418.96755578,-2767.59898101,360.821048475));
#129802=CARTESIAN_POINT('Control Point',(9418.61878901,-2770.36166587,360.994351871));
#129803=CARTESIAN_POINT('Control Point',(9420.17068628,-2767.73363023,361.095552396));
#129804=CARTESIAN_POINT('Control Point',(9419.82202935,-2770.49631914,361.269012367));
#129805=CARTESIAN_POINT('Control Point',(9422.10641237,-2767.93425441,361.790035481));
#129806=CARTESIAN_POINT('Control Point',(9421.75791749,-2770.69693438,361.963963659));
#129807=CARTESIAN_POINT('Control Point',(9423.86703837,-2768.08965696,362.845442571));
#129808=CARTESIAN_POINT('Control Point',(9423.5186664,-2770.85230266,363.020159191));
#129809=CARTESIAN_POINT('Control Point',(9424.54049475,-2768.14419456,363.325531107));
#129810=CARTESIAN_POINT('Control Point',(9424.19216539,-2770.90682241,363.500614683));
#129811=CARTESIAN_POINT('Control Point',(9425.80224992,-2768.23615789,364.383034547));
#129812=CARTESIAN_POINT('Control Point',(9425.45399131,-2770.99874244,364.558940887));
#129813=CARTESIAN_POINT('Control Point',(9426.8947202,-2768.29364996,365.638749203));
#129814=CARTESIAN_POINT('Control Point',(9426.54650336,-2771.05617568,365.815658976));
#129815=CARTESIAN_POINT('Control Point',(9427.38832493,-2768.31301273,366.307162624));
#129816=CARTESIAN_POINT('Control Point',(9427.04012118,-2771.07550549,366.48461225));
#129817=CARTESIAN_POINT('Control Point',(9428.26848201,-2768.33309251,367.718556518));
#129818=CARTESIAN_POINT('Control Point',(9427.92028906,-2771.09551257,367.897156624));
#129819=CARTESIAN_POINT('Control Point',(9428.91868746,-2768.31503326,369.25900437));
#129820=CARTESIAN_POINT('Control Point',(9428.57047411,-2771.07736791,369.438880293));
#129821=CARTESIAN_POINT('Control Point',(9429.18206639,-2768.29642506,370.053389294));
#129822=CARTESIAN_POINT('Control Point',(9428.83383507,-2771.05871423,370.233927788));
#129823=CARTESIAN_POINT('Control Point',(9429.48159735,-2768.25382557,371.279552099));
#129824=CARTESIAN_POINT('Control Point',(9429.13332723,-2771.01604237,371.461120189));
#129825=CARTESIAN_POINT('Control Point',(9429.63155087,-2768.19058838,372.523835271));
#129826=CARTESIAN_POINT('Control Point',(9429.28322543,-2770.95272858,372.70645805));
#129827=CARTESIAN_POINT('Control Point',(9429.66503375,-2768.16716733,372.941543491));
#129828=CARTESIAN_POINT('Control Point',(9429.316688,-2770.92928147,373.12452141));
#129829=CARTESIAN_POINT('Control Point',(9429.68171178,-2768.14156396,373.35917864));
#129830=CARTESIAN_POINT('Control Point',(9429.33334398,-2770.90365169,373.542512708));
#129831=CARTESIAN_POINT('Control Point',(9429.68166264,-2768.11378684,373.776754312));
#129832=CARTESIAN_POINT('Control Point',(9429.33327108,-2770.87584781,373.960445544));
#129833=B_SPLINE_CURVE_WITH_KNOTS('',1,(#129834,#129835),.UNSPECIFIED.,.F.,.U.,(2,2),(-2.79,-3.77365733187E-014),.UNSPECIFIED.);
#129834=CARTESIAN_POINT('Control Point',(9416.5341527,-2767.29895018,360.704457021));
#129835=CARTESIAN_POINT('Control Point',(9416.18513824,-2770.06160011,360.877818708));
#129836=EDGE_CURVE('',#129779,#129608,#129833,.T.);
#129837=B_SPLINE_CURVE_WITH_KNOTS('',1,(#129838,#129839),.UNSPECIFIED.,.F.,.U.,(2,2),(-2.79,9.77819078316E-014),.UNSPECIFIED.);
#129838=CARTESIAN_POINT('Control Point',(9429.68166264,-2768.11378684,373.776754312));
#129839=CARTESIAN_POINT('Control Point',(9429.33327108,-2770.87584781,373.960445544));
#129840=EDGE_CURVE('',#129769,#129618,#129837,.T.);
#129841=EDGE_LOOP('',(#129842,#129843,#129844,#129845));
#129842=ORIENTED_EDGE('',*,*,#129619,.F.);
#129843=ORIENTED_EDGE('',*,*,#129836,.F.);
#129844=ORIENTED_EDGE('',*,*,#129780,.T.);
#129845=ORIENTED_EDGE('',*,*,#129840,.T.);
#129846=FACE_OUTER_BOUND('',#129841,.T.);
#129847=ADVANCED_FACE('PartBody',(#129846),#129796,.T.);
#129848=B_SPLINE_SURFACE_WITH_KNOTS('',5,1,((#129849,#129850),(#129851,#129852),(#129853,#129854),(#129855,#129856),(#129857,#129858),(#129859,#129860)),.UNSPECIFIED.,.F.,.F.,.U.,(6,6),(2,2),(0.,148.956926211),(-2.79,9.77819078316E-014),.UNSPECIFIED.);
#129849=CARTESIAN_POINT('Control Point',(9429.68166264,-2768.11378684,373.776754312));
#129850=CARTESIAN_POINT('Control Point',(9429.33327108,-2770.87584781,373.960445544));
#129851=CARTESIAN_POINT('Control Point',(9429.67961006,-2766.95338481,391.221169205));
#129852=CARTESIAN_POINT('Control Point',(9429.33022548,-2769.71432823,391.419781114));
#129853=CARTESIAN_POINT('Control Point',(9429.6776469,-2765.6763748,408.639087687));
#129854=CARTESIAN_POINT('Control Point',(9429.32730911,-2768.43610573,408.852593037));
#129855=CARTESIAN_POINT('Control Point',(9429.67575541,-2764.2832976,426.030586197));
#129856=CARTESIAN_POINT('Control Point',(9429.32450462,-2767.04172156,426.258961239));
#129857=CARTESIAN_POINT('Control Point',(9429.67393675,-2762.77445985,443.397099707));
#129858=CARTESIAN_POINT('Control Point',(9429.32181339,-2765.53148244,443.640324878));
#129859=CARTESIAN_POINT('Control Point',(9429.67219923,-2761.15019494,460.738517132));
#129860=CARTESIAN_POINT('Control Point',(9429.31924395,-2763.90572186,460.996575184));
#129861=EDGE_LOOP('',(#129862,#129863,#129864,#129865));
#129862=ORIENTED_EDGE('',*,*,#129627,.F.);
#129863=ORIENTED_EDGE('',*,*,#129840,.F.);
#129864=ORIENTED_EDGE('',*,*,#129770,.T.);
#129865=ORIENTED_EDGE('',*,*,#129695,.T.);
#129866=FACE_OUTER_BOUND('',#129861,.T.);
#129867=ADVANCED_FACE('PartBody',(#129866),#129848,.T.);
#129868=B_SPLINE_SURFACE_WITH_KNOTS('',5,1,((#129869,#129870),(#129871,#129872),(#129873,#129874),(#129875,#129876),(#129877,#129878),(#129879,#129880)),.UNSPECIFIED.,.F.,.F.,.U.,(6,6),(2,2),(0.,18.7287939783),(-2.79,1.9701243652E-014),.UNSPECIFIED.);
#129869=CARTESIAN_POINT('Control Point',(9407.85169891,-2757.10328681,473.663857209));
#129870=CARTESIAN_POINT('Control Point',(9407.49584642,-2759.85726277,473.934200281));
#129871=CARTESIAN_POINT('Control Point',(9409.71121525,-2757.34656489,473.633272056));
#129872=CARTESIAN_POINT('Control Point',(9409.35555885,-2760.10057904,473.903484232));
#129873=CARTESIAN_POINT('Control Point',(9411.57059554,-2757.58965153,473.602710665));
#129874=CARTESIAN_POINT('Control Point',(9411.21513524,-2760.34370384,473.872791982));
#129875=CARTESIAN_POINT('Control Point',(9413.42982296,-2757.83254454,473.572173371));
#129876=CARTESIAN_POINT('Control Point',(9413.07455879,-2760.58663499,473.842123868));
#129877=CARTESIAN_POINT('Control Point',(9415.28888652,-2758.07524254,473.541660411));
#129878=CARTESIAN_POINT('Control Point',(9414.93381848,-2760.82937109,473.811480128));
#129879=CARTESIAN_POINT('Control Point',(9417.14778003,-2758.31774474,473.511171942));
#129880=CARTESIAN_POINT('Control Point',(9416.79290813,-2761.07191137,473.780860917));
#129881=EDGE_LOOP('',(#129882,#129883,#129884,#129885));
#129882=ORIENTED_EDGE('',*,*,#129649,.T.);
#129883=ORIENTED_EDGE('',*,*,#129718,.F.);
#129884=ORIENTED_EDGE('',*,*,#129762,.F.);
#129885=ORIENTED_EDGE('',*,*,#129490,.T.);
#129886=FACE_OUTER_BOUND('',#129881,.T.);
#129887=ADVANCED_FACE('PartBody',(#129886),#129868,.F.);
#129888=B_SPLINE_SURFACE_WITH_KNOTS('',5,1,((#129889,#129890),(#129891,#129892),(#129893,#129894),(#129895,#129896),(#129897,#129898),(#129899,#129900)),.UNSPECIFIED.,.F.,.F.,.U.,(6,6),(2,2),(0.,19.5496229913),(-2.79,1.72409652437E-005),.UNSPECIFIED.);
#129889=CARTESIAN_POINT('Control Point',(9407.85806182,-2766.19521649,360.802648754));
#129890=CARTESIAN_POINT('Control Point',(9407.50813131,-2768.9577272,360.976658452));
#129891=CARTESIAN_POINT('Control Point',(9409.59328331,-2766.41626055,360.782983059));
#129892=CARTESIAN_POINT('Control Point',(9409.24353553,-2769.17880256,360.956863298));
#129893=CARTESIAN_POINT('Control Point',(9411.32851365,-2766.63715729,360.763330974));
#129894=CARTESIAN_POINT('Control Point',(9410.97894863,-2769.39973059,360.937081789));
#129895=CARTESIAN_POINT('Control Point',(9413.06374339,-2766.85790551,360.743692558));
#129896=CARTESIAN_POINT('Control Point',(9412.71436115,-2769.62051006,360.917313984));
#129897=CARTESIAN_POINT('Control Point',(9414.79896103,-2767.07850372,360.724067879));
#129898=CARTESIAN_POINT('Control Point',(9414.44976159,-2769.84113951,360.897559952));
#129899=CARTESIAN_POINT('Control Point',(9416.5341527,-2767.29895018,360.704457021));
#129900=CARTESIAN_POINT('Control Point',(9416.18513609,-2770.06161718,360.877819779));
#129901=EDGE_LOOP('',(#129902,#129903,#129904,#129905));
#129902=ORIENTED_EDGE('',*,*,#129609,.F.);
#129903=ORIENTED_EDGE('',*,*,#129301,.F.);
#129904=ORIENTED_EDGE('',*,*,#129786,.T.);
#129905=ORIENTED_EDGE('',*,*,#129836,.T.);
#129906=FACE_OUTER_BOUND('',#129901,.T.);
#129907=ADVANCED_FACE('PartBody',(#129906),#129888,.T.);
#129908=ADVANCED_BREP_SHAPE_REPRESENTATION('NONE',(#128723),#127571);

#129909=APPLICATION_CONTEXT('automotive_design');
#129910=APPLICATION_PROTOCOL_DEFINITION('international standard','automotive_design',2010,#129909);
#129911=PRODUCT_CONTEXT('',#129909,'mechanical');
#129912=PRODUCT_DEFINITION_CONTEXT('part definition',#129909,'design');
#129913=PRODUCT('part_015_V5311446920200','part_015_V5311446920200','',(#129911));
#129914=PRODUCT_DEFINITION_FORMATION('','',#129913);
#129915=PRODUCT_DEFINITION('design','',#129914,#129912);
#129916=PRODUCT_DEFINITION_SHAPE('','',#129915);
#129917=SHAPE_DEFINITION_REPRESENTATION(#129916,#129908);
ENDSEC;
END-ISO-10303-21;
