ISO-10303-21;
HEADER;
FILE_DESCRIPTION(('CATIA V5 STEP Exchange','CAx-IF Rec.Pracs.--- Model Styling and Organization---1.4--- 2014-01-23'),'2;1');

FILE_NAME('C:\\Users\\SA516207\\WORK\\01_ASSY\\3_Catia\\ECHELLE\\ECHELLE.stp','2026-09-22T12:18:05+00:00',('none'),('none'),'CATIA Version 5-6 Release 2017 SP2 HF26','CATIA V5 STEP AP203 WITH EXTENSIONS','none');

FILE_SCHEMA(('CONFIG_CONTROL_DESIGN','SHAPE_APPEARANCE_LAYER_MIM'));

ENDSEC;
DATA;
#46=(LENGTH_UNIT()NAMED_UNIT(*)SI_UNIT(.MILLI.,.METRE.));
#47=(NAMED_UNIT(*)PLANE_ANGLE_UNIT()SI_UNIT($,.RADIAN.));
#48=(NAMED_UNIT(*)SI_UNIT($,.STERADIAN.)SOLID_ANGLE_UNIT());
#164008=UNCERTAINTY_MEASURE_WITH_UNIT(LENGTH_MEASURE(0.005),#46,'distance_accuracy_value','CONFUSED CURVE UNCERTAINTY');
#164009=(GEOMETRIC_REPRESENTATION_CONTEXT(3)GLOBAL_UNCERTAINTY_ASSIGNED_CONTEXT((#164008))GLOBAL_UNIT_ASSIGNED_CONTEXT((#46,#47,#48))REPRESENTATION_CONTEXT(' ',' '));
#164263=MANIFOLD_SOLID_BREP('PartBody',#164265);
#164265=CLOSED_SHELL('Closed Shell',(#164305,#164336,#164367,#164403,#164427,#164453,#164470,#164501,#164532,#164563,#164594,#164625,#164656,#164687,#164718,#164749,#164780,#164811,#164842,#164884,#164901,#164925,#164942,#164976,#164993,#165005));
#164266=CARTESIAN_POINT('Axis2P3D Location',(9399,-2519.60426826,1239.93368452));
#164267=DIRECTION('Axis2P3D Direction',(0,0.951464412998259,-0.3077587867110838));
#164268=DIRECTION('Axis2P3D XDirection',(1,0,0));
#164269=AXIS2_PLACEMENT_3D('Plane Axis2P3D',#164266,#164267,#164268);
#164270=PLANE('',#164269);
#164271=CARTESIAN_POINT('Line Origine',(9397.646000000001,-2520.99711048,1235.62758553));
#164272=DIRECTION('Vector Direction',(-1,0,0));
#164273=VECTOR('Line Direction',#164272,1.);
#164274=LINE('Line',#164271,#164273);
#164275=CARTESIAN_POINT('Vertex',(9396.291999999999,-2520.99711048,1235.62758553));
#164276=VERTEX_POINT('',#164275);
#164277=CARTESIAN_POINT('Vertex',(9399,-2520.99711048,1235.62758553));
#164278=VERTEX_POINT('',#164277);
#164279=EDGE_CURVE('',#164276,#164278,#164274,.F.);
#164280=CARTESIAN_POINT('Line Origine',(9399,-2519.60426826,1239.93368452));
#164281=DIRECTION('Vector Direction',(0,0.3077587867110838,0.951464412998259));
#164282=VECTOR('Line Direction',#164281,1.);
#164283=LINE('Line',#164280,#164282);
#164284=CARTESIAN_POINT('Vertex',(9399,-2518.21142604,1244.23978352));
#164285=VERTEX_POINT('',#164284);
#164286=EDGE_CURVE('',#164278,#164285,#164283,.T.);
#164287=CARTESIAN_POINT('Line Origine',(9397.646000000001,-2518.21142604,1244.23978352));
#164288=DIRECTION('Vector Direction',(-1,0,0));
#164289=VECTOR('Line Direction',#164288,1.);
#164290=LINE('Line',#164287,#164289);
#164291=CARTESIAN_POINT('Vertex',(9396.291999999999,-2518.21142604,1244.23978352));
#164292=VERTEX_POINT('',#164291);
#164293=EDGE_CURVE('',#164285,#164292,#164290,.T.);
#164294=CARTESIAN_POINT('Line Origine',(9396.291999999999,-2519.60426826,1239.93368452));
#164295=DIRECTION('Vector Direction',(0,0.3077587867110838,0.951464412998259));
#164296=VECTOR('Line Direction',#164295,1.);
#164297=LINE('Line',#164294,#164296);
#164298=EDGE_CURVE('',#164276,#164292,#164297,.T.);
#164299=EDGE_LOOP('',(#164300,#164301,#164302,#164303));
#164300=ORIENTED_EDGE('',*,*,#164279,.T.);
#164301=ORIENTED_EDGE('',*,*,#164286,.T.);
#164302=ORIENTED_EDGE('',*,*,#164293,.T.);
#164303=ORIENTED_EDGE('',*,*,#164298,.F.);
#164304=FACE_OUTER_BOUND('',#164299,.T.);
#164305=ADVANCED_FACE('PartBody',(#164304),#164270,.F.);
#164306=CARTESIAN_POINT('Axis2P3D Location',(9399,-2506.79385309,1240.54667808));
#164307=DIRECTION('Axis2P3D Direction',(-1,0,0));
#164308=DIRECTION('Axis2P3D XDirection',(0,0.455168613435875,-0.8904052635417554));
#164309=AXIS2_PLACEMENT_3D('Cylinder Axis2P3D',#164306,#164307,#164308);
#164310=CYLINDRICAL_SURFACE('generated cylinder',#164309,12.);
#164311=CARTESIAN_POINT('Axis2P3D Location',(9396.291999999999,-2506.79385309,1240.54667808));
#164312=DIRECTION('Axis2P3D Direction',(-1,0,0));
#164313=AXIS2_PLACEMENT_3D('Circle Axis2P3D',#164311,#164312,$);
#164314=CIRCLE('generated circle',#164313,12.);
#164315=CARTESIAN_POINT('Vertex',(9396.291999999999,-2503.10074765,1251.96425104));
#164316=VERTEX_POINT('',#164315);
#164317=EDGE_CURVE('',#164316,#164292,#164314,.F.);
#164318=CARTESIAN_POINT('Axis2P3D Location',(9399,-2506.79385309,1240.54667808));
#164319=DIRECTION('Axis2P3D Direction',(-1,0,0));
#164320=AXIS2_PLACEMENT_3D('Circle Axis2P3D',#164318,#164319,$);
#164321=CIRCLE('generated circle',#164320,12.);
#164322=CARTESIAN_POINT('Vertex',(9399,-2503.10074765,1251.96425104));
#164323=VERTEX_POINT('',#164322);
#164324=EDGE_CURVE('',#164323,#164285,#164321,.F.);
#164325=CARTESIAN_POINT('Line Origine',(9397.646000000001,-2503.10074765,1251.96425104));
#164326=DIRECTION('Vector Direction',(-1,0,0));
#164327=VECTOR('Line Direction',#164326,1.);
#164328=LINE('Line',#164325,#164327);
#164329=EDGE_CURVE('',#164323,#164316,#164328,.T.);
#164330=EDGE_LOOP('',(#164331,#164332,#164333,#164334));
#164331=ORIENTED_EDGE('',*,*,#164317,.T.);
#164332=ORIENTED_EDGE('',*,*,#164293,.F.);
#164333=ORIENTED_EDGE('',*,*,#164324,.F.);
#164334=ORIENTED_EDGE('',*,*,#164329,.T.);
#164335=FACE_OUTER_BOUND('',#164330,.T.);
#164336=ADVANCED_FACE('PartBody',(#164335),#164310,.T.);
#164337=CARTESIAN_POINT('Axis2P3D Location',(9399,-2489.68509942,1247.62485215));
#164338=DIRECTION('Axis2P3D Direction',(0,0.3077587867110838,0.951464412998259));
#164339=DIRECTION('Axis2P3D XDirection',(1,0,0));
#164340=AXIS2_PLACEMENT_3D('Plane Axis2P3D',#164337,#164338,#164339);
#164341=PLANE('',#164340);
#164342=CARTESIAN_POINT('Line Origine',(9396.291999999999,-2489.68509942,1247.62485215));
#164343=DIRECTION('Vector Direction',(0,-0.951464412998259,0.3077587867110838));
#164344=VECTOR('Line Direction',#164343,1.);
#164345=LINE('Line',#164342,#164344);
#164346=CARTESIAN_POINT('Vertex',(9396.291999999999,-2476.2694512,1243.28545325));
#164347=VERTEX_POINT('',#164346);
#164348=EDGE_CURVE('',#164347,#164316,#164345,.T.);
#164349=CARTESIAN_POINT('Line Origine',(9399,-2489.68509942,1247.62485215));
#164350=DIRECTION('Vector Direction',(0,-0.951464412998259,0.3077587867110838));
#164351=VECTOR('Line Direction',#164350,1.);
#164352=LINE('Line',#164349,#164351);
#164353=CARTESIAN_POINT('Vertex',(9399,-2476.2694512,1243.28545325));
#164354=VERTEX_POINT('',#164353);
#164355=EDGE_CURVE('',#164354,#164323,#164352,.T.);
#164356=CARTESIAN_POINT('Line Origine',(9397.646000000001,-2476.2694512,1243.28545325));
#164357=DIRECTION('Vector Direction',(-1,0,0));
#164358=VECTOR('Line Direction',#164357,1.);
#164359=LINE('Line',#164356,#164358);
#164360=EDGE_CURVE('',#164354,#164347,#164359,.T.);
#164361=EDGE_LOOP('',(#164362,#164363,#164364,#164365));
#164362=ORIENTED_EDGE('',*,*,#164348,.T.);
#164363=ORIENTED_EDGE('',*,*,#164329,.F.);
#164364=ORIENTED_EDGE('',*,*,#164355,.F.);
#164365=ORIENTED_EDGE('',*,*,#164360,.T.);
#164366=FACE_OUTER_BOUND('',#164361,.T.);
#164367=ADVANCED_FACE('PartBody',(#164366),#164341,.T.);
#164368=CARTESIAN_POINT('Axis2P3D Location',(9396.291999999999,-2494.77055589,1231.90269874));
#164369=DIRECTION('Axis2P3D Direction',(-1,0,0));
#164370=DIRECTION('Axis2P3D XDirection',(0,0.9514644129986465,-0.3077587867098857));
#164371=AXIS2_PLACEMENT_3D('Plane Axis2P3D',#164368,#164369,#164370);
#164372=PLANE('',#164371);
#164373=B_SPLINE_CURVE_WITH_KNOTS('',5,(#164374,#164375,#164376,#164377,#164378,#164379),.UNSPECIFIED.,.F.,.U.,(6,6),(56.5486677646,75.3982236861),.UNSPECIFIED.);
#164374=CARTESIAN_POINT('Control Point',(9396.291999999999,-2476.2694512,1243.28545325));
#164375=CARTESIAN_POINT('Control Point',(9396.291999999999,-2472.68251487,1242.12522996));
#164376=CARTESIAN_POINT('Control Point',(9396.291999999999,-2469.54653928,1239.55939139));
#164377=CARTESIAN_POINT('Control Point',(9396.291999999999,-2467.62798739,1235.80630154));
#164378=CARTESIAN_POINT('Control Point',(9396.291999999999,-2467.38476039,1231.76171119));
#164379=CARTESIAN_POINT('Control Point',(9396.291999999999,-2468.54498368,1228.17477486));
#164380=CARTESIAN_POINT('Vertex',(9396.291999999999,-2468.54498368,1228.17477486));
#164381=VERTEX_POINT('',#164380);
#164382=EDGE_CURVE('',#164381,#164347,#164373,.F.);
#164383=CARTESIAN_POINT('Line Origine',(9396.291999999999,-2468.09127318,1229.57746234));
#164384=DIRECTION('Vector Direction',(0,-0.3077587867098857,-0.9514644129986465));
#164385=VECTOR('Line Direction',#164384,1.);
#164386=LINE('Line',#164383,#164385);
#164387=CARTESIAN_POINT('Vertex',(9396.291999999999,-2471.33066812,1219.56257686));
#164388=VERTEX_POINT('',#164387);
#164389=EDGE_CURVE('',#164388,#164381,#164386,.F.);
#164390=CARTESIAN_POINT('Line Origine',(9396.291999999999,-2496.1638893,1227.59508119));
#164391=DIRECTION('Vector Direction',(0,0.9514644129986465,-0.3077587867098857));
#164392=VECTOR('Line Direction',#164391,1.);
#164393=LINE('Line',#164390,#164392);
#164394=EDGE_CURVE('',#164276,#164388,#164393,.T.);
#164395=EDGE_LOOP('',(#164396,#164397,#164398,#164399,#164400,#164401));
#164396=ORIENTED_EDGE('',*,*,#164298,.T.);
#164397=ORIENTED_EDGE('',*,*,#164317,.F.);
#164398=ORIENTED_EDGE('',*,*,#164348,.F.);
#164399=ORIENTED_EDGE('',*,*,#164382,.F.);
#164400=ORIENTED_EDGE('',*,*,#164389,.F.);
#164401=ORIENTED_EDGE('',*,*,#164394,.F.);
#164402=FACE_OUTER_BOUND('',#164395,.T.);
#164403=ADVANCED_FACE('PartBody',(#164402),#164372,.T.);
#164404=CARTESIAN_POINT('Axis2P3D Location',(9399,-2479.96255664,1231.8678803));
#164405=DIRECTION('Axis2P3D Direction',(-1,0,0));
#164406=DIRECTION('Axis2P3D XDirection',(-0,-0.8904052635417554,-0.455168613435875));
#164407=AXIS2_PLACEMENT_3D('Cylinder Axis2P3D',#164404,#164405,#164406);
#164408=CYLINDRICAL_SURFACE('generated cylinder',#164407,12.);
#164409=CARTESIAN_POINT('Axis2P3D Location',(9399,-2479.96255664,1231.8678803));
#164410=DIRECTION('Axis2P3D Direction',(-1,0,0));
#164411=AXIS2_PLACEMENT_3D('Circle Axis2P3D',#164409,#164410,$);
#164412=CIRCLE('generated circle',#164411,12.);
#164413=CARTESIAN_POINT('Vertex',(9399,-2468.54498368,1228.17477486));
#164414=VERTEX_POINT('',#164413);
#164415=EDGE_CURVE('',#164414,#164354,#164412,.F.);
#164416=CARTESIAN_POINT('Line Origine',(9397.646000000001,-2468.54498368,1228.17477486));
#164417=DIRECTION('Vector Direction',(-1,0,0));
#164418=VECTOR('Line Direction',#164417,1.);
#164419=LINE('Line',#164416,#164418);
#164420=EDGE_CURVE('',#164414,#164381,#164419,.T.);
#164421=EDGE_LOOP('',(#164422,#164423,#164424,#164425));
#164422=ORIENTED_EDGE('',*,*,#164382,.T.);
#164423=ORIENTED_EDGE('',*,*,#164360,.F.);
#164424=ORIENTED_EDGE('',*,*,#164415,.F.);
#164425=ORIENTED_EDGE('',*,*,#164420,.T.);
#164426=FACE_OUTER_BOUND('',#164421,.T.);
#164427=ADVANCED_FACE('PartBody',(#164426),#164408,.T.);
#164428=CARTESIAN_POINT('Axis2P3D Location',(9399,-2494.77055589,1231.90269874));
#164429=DIRECTION('Axis2P3D Direction',(-1,0,0));
#164430=DIRECTION('Axis2P3D XDirection',(0,0.9514644129986465,-0.3077587867098857));
#164431=AXIS2_PLACEMENT_3D('Plane Axis2P3D',#164428,#164429,#164430);
#164432=PLANE('',#164431);
#164433=CARTESIAN_POINT('Line Origine',(9399,-2496.1638893,1227.59508119));
#164434=DIRECTION('Vector Direction',(0,0.951464412998259,-0.3077587867110838));
#164435=VECTOR('Line Direction',#164434,1.);
#164436=LINE('Line',#164433,#164435);
#164437=CARTESIAN_POINT('Vertex',(9399,-2471.33066812,1219.56257686));
#164438=VERTEX_POINT('',#164437);
#164439=EDGE_CURVE('',#164278,#164438,#164436,.T.);
#164440=CARTESIAN_POINT('Line Origine',(9399,-2469.9378259,1223.86867586));
#164441=DIRECTION('Vector Direction',(0,0.3077587867098857,0.9514644129986465));
#164442=VECTOR('Line Direction',#164441,1.);
#164443=LINE('Line',#164440,#164442);
#164444=EDGE_CURVE('',#164438,#164414,#164443,.T.);
#164445=EDGE_LOOP('',(#164446,#164447,#164448,#164449,#164450,#164451));
#164446=ORIENTED_EDGE('',*,*,#164439,.T.);
#164447=ORIENTED_EDGE('',*,*,#164444,.T.);
#164448=ORIENTED_EDGE('',*,*,#164415,.T.);
#164449=ORIENTED_EDGE('',*,*,#164355,.T.);
#164450=ORIENTED_EDGE('',*,*,#164324,.T.);
#164451=ORIENTED_EDGE('',*,*,#164286,.F.);
#164452=FACE_OUTER_BOUND('',#164445,.T.);
#164453=ADVANCED_FACE('PartBody',(#164452),#164432,.F.);
#164454=CARTESIAN_POINT('Axis2P3D Location',(9399,-2469.9378259,1223.86867586));
#164455=DIRECTION('Axis2P3D Direction',(0,-0.951464412998259,0.3077587867110838));
#164456=DIRECTION('Axis2P3D XDirection',(1,0,0));
#164457=AXIS2_PLACEMENT_3D('Plane Axis2P3D',#164454,#164455,#164456);
#164458=PLANE('',#164457);
#164459=CARTESIAN_POINT('Line Origine',(9397.646000000001,-2471.33066812,1219.56257686));
#164460=DIRECTION('Vector Direction',(-1,0,0));
#164461=VECTOR('Line Direction',#164460,1.);
#164462=LINE('Line',#164459,#164461);
#164463=EDGE_CURVE('',#164438,#164388,#164462,.T.);
#164464=EDGE_LOOP('',(#164465,#164466,#164467,#164468));
#164465=ORIENTED_EDGE('',*,*,#164389,.T.);
#164466=ORIENTED_EDGE('',*,*,#164420,.F.);
#164467=ORIENTED_EDGE('',*,*,#164444,.F.);
#164468=ORIENTED_EDGE('',*,*,#164463,.T.);
#164469=FACE_OUTER_BOUND('',#164464,.T.);
#164470=ADVANCED_FACE('PartBody',(#164469),#164458,.F.);
#164471=CARTESIAN_POINT('Axis2P3D Location',(9385.39963745,-2472.85999481,1214.83452363));
#164472=DIRECTION('Axis2P3D Direction',(2.067790383360563e-14,-0.951464412998259,0.3077587867110838));
#164473=DIRECTION('Axis2P3D XDirection',(0.9984029450783029,-0.01738649009410527,-0.05375192295331631));
#164474=AXIS2_PLACEMENT_3D('Plane Axis2P3D',#164471,#164472,#164473);
#164475=PLANE('',#164474);
#164476=CARTESIAN_POINT('Axis2P3D Location',(9391.291999999999,-2471.33066812,1219.56257686));
#164477=DIRECTION('Axis2P3D Direction',(2.067790383360563e-14,-0.951464412998259,0.3077587867110838));
#164478=AXIS2_PLACEMENT_3D('Circle Axis2P3D',#164476,#164477,$);
#164479=CIRCLE('generated circle',#164478,5.);
#164480=CARTESIAN_POINT('Vertex',(9391.00953057,-2472.86700451,1214.8128525));
#164481=VERTEX_POINT('',#164480);
#164482=EDGE_CURVE('',#164481,#164388,#164479,.T.);
#164483=CARTESIAN_POINT('Axis2P3D Location',(9391.291999999999,-2471.33066812,1219.56257686));
#164484=DIRECTION('Axis2P3D Direction',(2.067790383360563e-14,-0.951464412998259,0.3077587867110838));
#164485=AXIS2_PLACEMENT_3D('Circle Axis2P3D',#164483,#164484,$);
#164486=CIRCLE('generated circle',#164485,7.708);
#164487=CARTESIAN_POINT('Vertex',(9390.856545119999,-2473.6990843,1212.24040179));
#164488=VERTEX_POINT('',#164487);
#164489=EDGE_CURVE('',#164488,#164438,#164486,.T.);
#164490=CARTESIAN_POINT('Line Origine',(9390.933037840001,-2473.28304441,1213.52662714));
#164491=DIRECTION('Vector Direction',(-0.05649388691698247,-0.3072672790259047,-0.9499448720747053));
#164492=VECTOR('Line Direction',#164491,1.);
#164493=LINE('Line',#164490,#164492);
#164494=EDGE_CURVE('',#164481,#164488,#164493,.T.);
#164495=EDGE_LOOP('',(#164496,#164497,#164498,#164499));
#164496=ORIENTED_EDGE('',*,*,#164482,.T.);
#164497=ORIENTED_EDGE('',*,*,#164463,.F.);
#164498=ORIENTED_EDGE('',*,*,#164489,.F.);
#164499=ORIENTED_EDGE('',*,*,#164494,.F.);
#164500=FACE_OUTER_BOUND('',#164495,.T.);
#164501=ADVANCED_FACE('PartBody',(#164500),#164475,.F.);
#164502=CARTESIAN_POINT('Axis2P3D Location',(9390.43545931,-2473.69175139,1212.26307217));
#164503=DIRECTION('Axis2P3D Direction',(6.130512764101669e-15,0.951464412998259,-0.3077587867110838));
#164504=DIRECTION('Axis2P3D XDirection',(1,-5.83296472848e-15,1.88671917019e-15));
#164505=AXIS2_PLACEMENT_3D('Plane Axis2P3D',#164502,#164503,#164504);
#164506=PLANE('',#164505);
#164507=CARTESIAN_POINT('Line Origine',(9390.43545931,-2473.69175139,1212.26307217));
#164508=DIRECTION('Vector Direction',(-0.9984029450783044,0.0173864900940053,0.05375192295331639));
#164509=VECTOR('Line Direction',#164508,1.);
#164510=LINE('Line',#164507,#164509);
#164511=CARTESIAN_POINT('Vertex',(9390.014373489999,-2473.68441847,1212.28574254));
#164512=VERTEX_POINT('',#164511);
#164513=EDGE_CURVE('',#164488,#164512,#164510,.T.);
#164514=CARTESIAN_POINT('Line Origine',(9390.09086622,-2473.26837858,1213.5719679));
#164515=DIRECTION('Vector Direction',(0.05649388691628471,0.3072672790259168,0.9499448720747429));
#164516=VECTOR('Line Direction',#164515,1.);
#164517=LINE('Line',#164514,#164516);
#164518=CARTESIAN_POINT('Vertex',(9390.16735894,-2472.85233868,1214.85819326));
#164519=VERTEX_POINT('',#164518);
#164520=EDGE_CURVE('',#164512,#164519,#164517,.T.);
#164521=CARTESIAN_POINT('Line Origine',(9390.588444749999,-2472.8596716,1214.83552288));
#164522=DIRECTION('Vector Direction',(-0.9984029450783722,0.01738649009350648,0.05375192295222004));
#164523=VECTOR('Line Direction',#164522,1.);
#164524=LINE('Line',#164521,#164523);
#164525=EDGE_CURVE('',#164481,#164519,#164524,.T.);
#164526=EDGE_LOOP('',(#164527,#164528,#164529,#164530));
#164527=ORIENTED_EDGE('',*,*,#164494,.T.);
#164528=ORIENTED_EDGE('',*,*,#164513,.T.);
#164529=ORIENTED_EDGE('',*,*,#164520,.T.);
#164530=ORIENTED_EDGE('',*,*,#164525,.F.);
#164531=FACE_OUTER_BOUND('',#164526,.T.);
#164532=ADVANCED_FACE('PartBody',(#164531),#164506,.T.);
#164533=CARTESIAN_POINT('Axis2P3D Location',(9390.014373489999,-2484.15052702,1215.6710892));
#164534=DIRECTION('Axis2P3D Direction',(0.05649388691678311,0.3072672790259082,0.9499448720747161));
#164535=DIRECTION('Axis2P3D XDirection',(0.1623378158159869,-0.9416297835009241,0.2949233533989762));
#164536=AXIS2_PLACEMENT_3D('Cylinder Axis2P3D',#164533,#164534,#164535);
#164537=CYLINDRICAL_SURFACE('generated cylinder',#164536,11.);
#164538=CARTESIAN_POINT('Axis2P3D Location',(9390.16735894,-2483.31844723,1218.24353991));
#164539=DIRECTION('Axis2P3D Direction',(0.05649388691678311,0.3072672790259082,0.9499448720747161));
#164540=AXIS2_PLACEMENT_3D('Circle Axis2P3D',#164538,#164539,$);
#164541=CIRCLE('generated circle',#164540,11.);
#164542=CARTESIAN_POINT('Vertex',(9386.643453889999,-2473.34437713,1215.22691614));
#164543=VERTEX_POINT('',#164542);
#164544=EDGE_CURVE('',#164543,#164519,#164541,.F.);
#164545=CARTESIAN_POINT('Axis2P3D Location',(9390.014373489999,-2484.15052702,1215.6710892));
#164546=DIRECTION('Axis2P3D Direction',(0.05649388691678311,0.3072672790259082,0.9499448720747161));
#164547=AXIS2_PLACEMENT_3D('Circle Axis2P3D',#164545,#164546,$);
#164548=CIRCLE('generated circle',#164547,11.);
#164549=CARTESIAN_POINT('Vertex',(9386.490468440001,-2474.17645693,1212.65446542));
#164550=VERTEX_POINT('',#164549);
#164551=EDGE_CURVE('',#164550,#164512,#164548,.F.);
#164552=CARTESIAN_POINT('Line Origine',(9386.566961160001,-2473.76041703,1213.94069078));
#164553=DIRECTION('Vector Direction',(0.05649388691678311,0.3072672790259082,0.9499448720747161));
#164554=VECTOR('Line Direction',#164553,1.);
#164555=LINE('Line',#164552,#164554);
#164556=EDGE_CURVE('',#164550,#164543,#164555,.T.);
#164557=EDGE_LOOP('',(#164558,#164559,#164560,#164561));
#164558=ORIENTED_EDGE('',*,*,#164544,.T.);
#164559=ORIENTED_EDGE('',*,*,#164520,.F.);
#164560=ORIENTED_EDGE('',*,*,#164551,.F.);
#164561=ORIENTED_EDGE('',*,*,#164556,.T.);
#164562=FACE_OUTER_BOUND('',#164557,.T.);
#164563=ADVANCED_FACE('PartBody',(#164562),#164537,.T.);
#164564=CARTESIAN_POINT('Axis2P3D Location',(9376.06334533,-2477.36130878,1214.30473958));
#164565=DIRECTION('Axis2P3D Direction',(-0.3203550050269659,0.9067336446129035,-0.2742385247939709));
#164566=DIRECTION('Axis2P3D XDirection',(0.94729756188521,0.306637188742068,-0.09274138087552056));
#164567=AXIS2_PLACEMENT_3D('Plane Axis2P3D',#164564,#164565,#164566);
#164568=PLANE('',#164567);
#164569=CARTESIAN_POINT('Line Origine',(9376.21633078,-2476.52922898,1216.8771903));
#164570=DIRECTION('Vector Direction',(0.9456115013551756,0.2888267940610536,-0.1496595186990278));
#164571=VECTOR('Line Direction',#164570,1.);
#164572=LINE('Line',#164569,#164571);
#164573=CARTESIAN_POINT('Vertex',(9365.78920766,-2479.71408083,1218.52746446));
#164574=VERTEX_POINT('',#164573);
#164575=EDGE_CURVE('',#164574,#164543,#164572,.T.);
#164576=CARTESIAN_POINT('Line Origine',(9376.06334533,-2477.36130878,1214.30473958));
#164577=DIRECTION('Vector Direction',(0.9456115013551756,0.2888267940610536,-0.1496595186990278));
#164578=VECTOR('Line Direction',#164577,1.);
#164579=LINE('Line',#164576,#164578);
#164580=CARTESIAN_POINT('Vertex',(9365.63622222,-2480.54616063,1215.95501374));
#164581=VERTEX_POINT('',#164580);
#164582=EDGE_CURVE('',#164581,#164550,#164579,.T.);
#164583=CARTESIAN_POINT('Line Origine',(9365.71271494,-2480.13012073,1217.2412391));
#164584=DIRECTION('Vector Direction',(0.05649388691628471,0.3072672790259168,0.9499448720747429));
#164585=VECTOR('Line Direction',#164584,1.);
#164586=LINE('Line',#164583,#164585);
#164587=EDGE_CURVE('',#164581,#164574,#164586,.T.);
#164588=EDGE_LOOP('',(#164589,#164590,#164591,#164592));
#164589=ORIENTED_EDGE('',*,*,#164575,.T.);
#164590=ORIENTED_EDGE('',*,*,#164556,.F.);
#164591=ORIENTED_EDGE('',*,*,#164582,.F.);
#164592=ORIENTED_EDGE('',*,*,#164587,.T.);
#164593=FACE_OUTER_BOUND('',#164588,.T.);
#164594=ADVANCED_FACE('PartBody',(#164593),#164568,.T.);
#164595=CARTESIAN_POINT('Axis2P3D Location',(9375.24687237,-2507.74816996,1224.18216949));
#164596=DIRECTION('Axis2P3D Direction',(0.05649388691678311,0.3072672790259082,0.9499448720747161));
#164597=DIRECTION('Axis2P3D XDirection',(0.5919561370190388,-0.776497923633051,0.2159604279470142));
#164598=AXIS2_PLACEMENT_3D('Cylinder Axis2P3D',#164595,#164596,#164597);
#164599=CYLINDRICAL_SURFACE('generated cylinder',#164598,30.);
#164600=CARTESIAN_POINT('Axis2P3D Location',(9375.399857820001,-2506.91609017,1226.7546202));
#164601=DIRECTION('Axis2P3D Direction',(0.05649388691678311,0.3072672790259082,0.9499448720747161));
#164602=AXIS2_PLACEMENT_3D('Circle Axis2P3D',#164600,#164601,$);
#164603=CIRCLE('generated circle',#164602,30.);
#164604=CARTESIAN_POINT('Vertex',(9351.164673310001,-2489.72085672,1222.63396758));
#164605=VERTEX_POINT('',#164604);
#164606=EDGE_CURVE('',#164605,#164574,#164603,.F.);
#164607=CARTESIAN_POINT('Axis2P3D Location',(9375.24687237,-2507.74816996,1224.18216949));
#164608=DIRECTION('Axis2P3D Direction',(0.05649388691678311,0.3072672790259082,0.9499448720747161));
#164609=AXIS2_PLACEMENT_3D('Circle Axis2P3D',#164607,#164608,$);
#164610=CIRCLE('generated circle',#164609,30.);
#164611=CARTESIAN_POINT('Vertex',(9351.01168786,-2490.55293651,1220.06151687));
#164612=VERTEX_POINT('',#164611);
#164613=EDGE_CURVE('',#164612,#164581,#164610,.F.);
#164614=CARTESIAN_POINT('Line Origine',(9351.08818058,-2490.13689661,1221.34774223));
#164615=DIRECTION('Vector Direction',(0.05649388691678311,0.3072672790259082,0.9499448720747161));
#164616=VECTOR('Line Direction',#164615,1.);
#164617=LINE('Line',#164614,#164616);
#164618=EDGE_CURVE('',#164612,#164605,#164617,.T.);
#164619=EDGE_LOOP('',(#164620,#164621,#164622,#164623));
#164620=ORIENTED_EDGE('',*,*,#164606,.T.);
#164621=ORIENTED_EDGE('',*,*,#164587,.F.);
#164622=ORIENTED_EDGE('',*,*,#164613,.F.);
#164623=ORIENTED_EDGE('',*,*,#164618,.T.);
#164624=FACE_OUTER_BOUND('',#164619,.T.);
#164625=ADVANCED_FACE('PartBody',(#164624),#164599,.T.);
#164626=CARTESIAN_POINT('Axis2P3D Location',(9339.916446040001,-2504.91902775,1225.36818598));
#164627=DIRECTION('Axis2P3D Direction',(-0.8078394837493136,0.5731744485792225,-0.1373550872430533));
#164628=DIRECTION('Axis2P3D XDirection',(0.5894025521626687,0.7855971253255585,-0.1882598953158942));
#164629=AXIS2_PLACEMENT_3D('Plane Axis2P3D',#164626,#164627,#164628);
#164630=PLANE('',#164629);
#164631=CARTESIAN_POINT('Line Origine',(9340.06943148,-2504.08694796,1227.94063669));
#164632=DIRECTION('Vector Direction',(0.5866888521498624,0.759643252280822,-0.2806034925429342));
#164633=VECTOR('Line Direction',#164632,1.);
#164634=LINE('Line',#164631,#164633);
#164635=CARTESIAN_POINT('Vertex',(9328.974189660001,-2518.4530392,1233.24730579));
#164636=VERTEX_POINT('',#164635);
#164637=EDGE_CURVE('',#164636,#164605,#164634,.T.);
#164638=CARTESIAN_POINT('Line Origine',(9339.916446040001,-2504.91902775,1225.36818598));
#164639=DIRECTION('Vector Direction',(0.5866888521498624,0.759643252280822,-0.2806034925429342));
#164640=VECTOR('Line Direction',#164639,1.);
#164641=LINE('Line',#164638,#164640);
#164642=CARTESIAN_POINT('Vertex',(9328.821204219999,-2519.28511899,1230.67485508));
#164643=VERTEX_POINT('',#164642);
#164644=EDGE_CURVE('',#164643,#164612,#164641,.T.);
#164645=CARTESIAN_POINT('Line Origine',(9328.897696939999,-2518.8690791,1231.96108044));
#164646=DIRECTION('Vector Direction',(0.05649388691698247,0.3072672790259047,0.9499448720747053));
#164647=VECTOR('Line Direction',#164646,1.);
#164648=LINE('Line',#164645,#164647);
#164649=EDGE_CURVE('',#164643,#164636,#164648,.T.);
#164650=EDGE_LOOP('',(#164651,#164652,#164653,#164654));
#164651=ORIENTED_EDGE('',*,*,#164637,.T.);
#164652=ORIENTED_EDGE('',*,*,#164618,.F.);
#164653=ORIENTED_EDGE('',*,*,#164644,.F.);
#164654=ORIENTED_EDGE('',*,*,#164649,.T.);
#164655=FACE_OUTER_BOUND('',#164650,.T.);
#164656=ADVANCED_FACE('PartBody',(#164655),#164630,.T.);
#164657=CARTESIAN_POINT('Axis2P3D Location',(9338.515278020001,-2526.16321238,1232.32311613));
#164658=DIRECTION('Axis2P3D Direction',(0.05649388691678311,0.3072672790259082,0.9499448720747161));
#164659=DIRECTION('Axis2P3D XDirection',(0.9507339819250769,-0.3070427142350248,0.04277460985300346));
#164660=AXIS2_PLACEMENT_3D('Cylinder Axis2P3D',#164657,#164658,#164659);
#164661=CYLINDRICAL_SURFACE('generated cylinder',#164660,12.);
#164662=CARTESIAN_POINT('Axis2P3D Location',(9338.668263469999,-2525.33113258,1234.89556684));
#164663=DIRECTION('Axis2P3D Direction',(0.05649388691678311,0.3072672790259082,0.9499448720747161));
#164664=AXIS2_PLACEMENT_3D('Circle Axis2P3D',#164662,#164663,$);
#164665=CIRCLE('generated circle',#164664,12.);
#164666=CARTESIAN_POINT('Vertex',(9326.68777477,-2525.20935363,1235.56866451));
#164667=VERTEX_POINT('',#164666);
#164668=EDGE_CURVE('',#164667,#164636,#164665,.F.);
#164669=CARTESIAN_POINT('Axis2P3D Location',(9338.515278020001,-2526.16321238,1232.32311613));
#164670=DIRECTION('Axis2P3D Direction',(0.05649388691678311,0.3072672790259082,0.9499448720747161));
#164671=AXIS2_PLACEMENT_3D('Circle Axis2P3D',#164669,#164670,$);
#164672=CIRCLE('generated circle',#164671,12.);
#164673=CARTESIAN_POINT('Vertex',(9326.53478933,-2526.04143342,1232.9962138));
#164674=VERTEX_POINT('',#164673);
#164675=EDGE_CURVE('',#164674,#164643,#164672,.F.);
#164676=CARTESIAN_POINT('Line Origine',(9326.61128205,-2525.62539352,1234.28243916));
#164677=DIRECTION('Vector Direction',(0.05649388691678311,0.3072672790259082,0.9499448720747161));
#164678=VECTOR('Line Direction',#164677,1.);
#164679=LINE('Line',#164676,#164678);
#164680=EDGE_CURVE('',#164674,#164667,#164679,.T.);
#164681=EDGE_LOOP('',(#164682,#164683,#164684,#164685));
#164682=ORIENTED_EDGE('',*,*,#164668,.T.);
#164683=ORIENTED_EDGE('',*,*,#164649,.F.);
#164684=ORIENTED_EDGE('',*,*,#164675,.F.);
#164685=ORIENTED_EDGE('',*,*,#164680,.T.);
#164686=FACE_OUTER_BOUND('',#164681,.T.);
#164687=ADVANCED_FACE('PartBody',(#164686),#164661,.T.);
#164688=CARTESIAN_POINT('Axis2P3D Location',(9326.630846919999,-2538.07670045,1236.88340473));
#164689=DIRECTION('Axis2P3D Direction',(-0.9983740580358477,0.01014824636459845,0.05609147294159145));
#164690=DIRECTION('Axis2P3D XDirection',(0.05700210733860785,0.1777433568340245,0.9824245817671352));
#164691=AXIS2_PLACEMENT_3D('Plane Axis2P3D',#164688,#164689,#164690);
#164692=PLANE('',#164691);
#164693=CARTESIAN_POINT('Line Origine',(9326.78383237,-2537.24462066,1239.45585544));
#164694=DIRECTION('Vector Direction',(-0.007594799672690136,0.9515691421730169,-0.3073409941450054));
#164695=VECTOR('Line Direction',#164694,1.);
#164696=LINE('Line',#164693,#164695);
#164697=CARTESIAN_POINT('Vertex',(9326.879889960001,-2549.27988769,1243.34304637));
#164698=VERTEX_POINT('',#164697);
#164699=EDGE_CURVE('',#164698,#164667,#164696,.T.);
#164700=CARTESIAN_POINT('Line Origine',(9326.630846919999,-2538.07670045,1236.88340473));
#164701=DIRECTION('Vector Direction',(-0.007594799672690136,0.9515691421730169,-0.3073409941450054));
#164702=VECTOR('Line Direction',#164701,1.);
#164703=LINE('Line',#164700,#164702);
#164704=CARTESIAN_POINT('Vertex',(9326.72690451,-2550.11196748,1240.77059565));
#164705=VERTEX_POINT('',#164704);
#164706=EDGE_CURVE('',#164705,#164674,#164703,.T.);
#164707=CARTESIAN_POINT('Line Origine',(9326.803397240001,-2549.69592759,1242.05682101));
#164708=DIRECTION('Vector Direction',(0.05649388691698247,0.3072672790259047,0.9499448720747053));
#164709=VECTOR('Line Direction',#164708,1.);
#164710=LINE('Line',#164707,#164709);
#164711=EDGE_CURVE('',#164705,#164698,#164710,.T.);
#164712=EDGE_LOOP('',(#164713,#164714,#164715,#164716));
#164713=ORIENTED_EDGE('',*,*,#164699,.T.);
#164714=ORIENTED_EDGE('',*,*,#164680,.F.);
#164715=ORIENTED_EDGE('',*,*,#164706,.F.);
#164716=ORIENTED_EDGE('',*,*,#164711,.T.);
#164717=FACE_OUTER_BOUND('',#164712,.T.);
#164718=ADVANCED_FACE('PartBody',(#164717),#164692,.T.);
#164719=CARTESIAN_POINT('Axis2P3D Location',(9338.707393209999,-2550.23374644,1240.09749798));
#164720=DIRECTION('Axis2P3D Direction',(0.05649388691678311,0.3072672790259082,0.9499448720747161));
#164721=DIRECTION('Axis2P3D XDirection',(0.7673472506301109,0.595346102961086,-0.2382041448830345));
#164722=AXIS2_PLACEMENT_3D('Cylinder Axis2P3D',#164719,#164720,#164721);
#164723=CYLINDRICAL_SURFACE('generated cylinder',#164722,12.);
#164724=CARTESIAN_POINT('Axis2P3D Location',(9338.86037866,-2549.40166665,1242.66994869));
#164725=DIRECTION('Axis2P3D Direction',(0.05649388691678311,0.3072672790259082,0.9499448720747161));
#164726=AXIS2_PLACEMENT_3D('Circle Axis2P3D',#164724,#164725,$);
#164727=CIRCLE('generated circle',#164726,12.);
#164728=CARTESIAN_POINT('Vertex',(9336.59732304,-2560.5742946,1246.41841021));
#164729=VERTEX_POINT('',#164728);
#164730=EDGE_CURVE('',#164729,#164698,#164727,.F.);
#164731=CARTESIAN_POINT('Axis2P3D Location',(9338.707393209999,-2550.23374644,1240.09749798));
#164732=DIRECTION('Axis2P3D Direction',(0.05649388691678311,0.3072672790259082,0.9499448720747161));
#164733=AXIS2_PLACEMENT_3D('Circle Axis2P3D',#164731,#164732,$);
#164734=CIRCLE('generated circle',#164733,12.);
#164735=CARTESIAN_POINT('Vertex',(9336.444337589999,-2561.4063744,1243.8459595));
#164736=VERTEX_POINT('',#164735);
#164737=EDGE_CURVE('',#164736,#164705,#164734,.F.);
#164738=CARTESIAN_POINT('Line Origine',(9336.52083032,-2560.9903345,1245.13218485));
#164739=DIRECTION('Vector Direction',(0.05649388691678311,0.3072672790259082,0.9499448720747161));
#164740=VECTOR('Line Direction',#164739,1.);
#164741=LINE('Line',#164738,#164740);
#164742=EDGE_CURVE('',#164736,#164729,#164741,.T.);
#164743=EDGE_LOOP('',(#164744,#164745,#164746,#164747));
#164744=ORIENTED_EDGE('',*,*,#164730,.T.);
#164745=ORIENTED_EDGE('',*,*,#164711,.F.);
#164746=ORIENTED_EDGE('',*,*,#164737,.F.);
#164747=ORIENTED_EDGE('',*,*,#164742,.T.);
#164748=FACE_OUTER_BOUND('',#164743,.T.);
#164749=ADVANCED_FACE('PartBody',(#164748),#164723,.T.);
#164750=CARTESIAN_POINT('Axis2P3D Location',(9349.927795039999,-2564.11282014,1243.9195104));
#164751=DIRECTION('Axis2P3D Direction',(-0.1885879680249911,-0.9310523298779562,0.3123717934529853));
#164752=DIRECTION('Axis2P3D XDirection',(0.9820563009909933,-0.1787934834689988,0.05998593129149958));
#164753=AXIS2_PLACEMENT_3D('Plane Axis2P3D',#164750,#164751,#164752);
#164754=PLANE('',#164753);
#164755=CARTESIAN_POINT('Line Origine',(9350.080780480001,-2563.28074035,1246.49196111));
#164756=DIRECTION('Vector Direction',(-0.980430017419476,0.1967952699358948,-0.005348146754197142));
#164757=VECTOR('Line Direction',#164756,1.);
#164758=LINE('Line',#164755,#164757);
#164759=CARTESIAN_POINT('Vertex',(9363.564237930001,-2565.98718609,1246.56551201));
#164760=VERTEX_POINT('',#164759);
#164761=EDGE_CURVE('',#164760,#164729,#164758,.T.);
#164762=CARTESIAN_POINT('Line Origine',(9349.927795039999,-2564.11282014,1243.9195104));
#164763=DIRECTION('Vector Direction',(-0.980430017419476,0.1967952699358948,-0.005348146754207142));
#164764=VECTOR('Line Direction',#164763,1.);
#164765=LINE('Line',#164762,#164764);
#164766=CARTESIAN_POINT('Vertex',(9363.41125248,-2566.81926588,1243.9930613));
#164767=VERTEX_POINT('',#164766);
#164768=EDGE_CURVE('',#164767,#164736,#164765,.T.);
#164769=CARTESIAN_POINT('Line Origine',(9363.4877452,-2566.40322599,1245.27928665));
#164770=DIRECTION('Vector Direction',(0.05649388691638438,0.3072672790259151,0.9499448720747374));
#164771=VECTOR('Line Direction',#164770,1.);
#164772=LINE('Line',#164769,#164771);
#164773=EDGE_CURVE('',#164767,#164760,#164772,.T.);
#164774=EDGE_LOOP('',(#164775,#164776,#164777,#164778));
#164775=ORIENTED_EDGE('',*,*,#164761,.T.);
#164776=ORIENTED_EDGE('',*,*,#164742,.F.);
#164777=ORIENTED_EDGE('',*,*,#164768,.F.);
#164778=ORIENTED_EDGE('',*,*,#164773,.T.);
#164779=FACE_OUTER_BOUND('',#164774,.T.);
#164780=ADVANCED_FACE('PartBody',(#164779),#164754,.T.);
#164781=CARTESIAN_POINT('Axis2P3D Location',(9365.6743081,-2555.64663792,1240.24459977));
#164782=DIRECTION('Axis2P3D Direction',(0.05649388691678311,0.3072672790259082,0.9499448720747161));
#164783=DIRECTION('Axis2P3D XDirection',(-0.6358150902809463,0.744653693786937,-0.2030518340239828));
#164784=AXIS2_PLACEMENT_3D('Cylinder Axis2P3D',#164781,#164782,#164783);
#164785=CYLINDRICAL_SURFACE('generated cylinder',#164784,12.);
#164786=CARTESIAN_POINT('Axis2P3D Location',(9365.82729354,-2554.81455813,1242.81705049));
#164787=DIRECTION('Axis2P3D Direction',(0.05649388691678311,0.3072672790259082,0.9499448720747161));
#164788=AXIS2_PLACEMENT_3D('Circle Axis2P3D',#164786,#164787,$);
#164789=CIRCLE('generated circle',#164788,12.);
#164790=CARTESIAN_POINT('Vertex',(9377.80812888,-2555.02319601,1242.17202741));
#164791=VERTEX_POINT('',#164790);
#164792=EDGE_CURVE('',#164791,#164760,#164789,.F.);
#164793=CARTESIAN_POINT('Axis2P3D Location',(9365.6743081,-2555.64663792,1240.24459977));
#164794=DIRECTION('Axis2P3D Direction',(0.05649388691678311,0.3072672790259082,0.9499448720747161));
#164795=AXIS2_PLACEMENT_3D('Circle Axis2P3D',#164793,#164794,$);
#164796=CIRCLE('generated circle',#164795,12.);
#164797=CARTESIAN_POINT('Vertex',(9377.655143440001,-2555.85527581,1239.5995767));
#164798=VERTEX_POINT('',#164797);
#164799=EDGE_CURVE('',#164798,#164767,#164796,.F.);
#164800=CARTESIAN_POINT('Line Origine',(9377.731636160001,-2555.43923591,1240.88580206));
#164801=DIRECTION('Vector Direction',(0.05649388691678311,0.3072672790259082,0.9499448720747161));
#164802=VECTOR('Line Direction',#164801,1.);
#164803=LINE('Line',#164800,#164802);
#164804=EDGE_CURVE('',#164798,#164791,#164803,.T.);
#164805=EDGE_LOOP('',(#164806,#164807,#164808,#164809));
#164806=ORIENTED_EDGE('',*,*,#164792,.T.);
#164807=ORIENTED_EDGE('',*,*,#164773,.F.);
#164808=ORIENTED_EDGE('',*,*,#164799,.F.);
#164809=ORIENTED_EDGE('',*,*,#164804,.T.);
#164810=FACE_OUTER_BOUND('',#164805,.T.);
#164811=ADVANCED_FACE('PartBody',(#164810),#164785,.T.);
#164812=CARTESIAN_POINT('Axis2P3D Location',(9377.655143440001,-2543.7770445,1235.69277602));
#164813=DIRECTION('Axis2P3D Direction',(0.9984029450783011,-0.01738649009420524,-0.05375192295331621));
#164814=DIRECTION('Axis2P3D XDirection',(0.05649388691680205,0.3072672790280112,0.9499448720740347));
#164815=AXIS2_PLACEMENT_3D('Plane Axis2P3D',#164812,#164813,#164814);
#164816=PLANE('',#164815);
#164817=CARTESIAN_POINT('Line Origine',(9377.80812888,-2542.94496471,1238.26522674));
#164818=DIRECTION('Vector Direction',(-1.43291152562039e-13,-0.951464412998259,0.3077587867110838));
#164819=VECTOR('Line Direction',#164818,1.);
#164820=LINE('Line',#164817,#164819);
#164821=CARTESIAN_POINT('Vertex',(9377.80812888,-2530.8667334,1234.35842606));
#164822=VERTEX_POINT('',#164821);
#164823=EDGE_CURVE('',#164822,#164791,#164820,.T.);
#164824=CARTESIAN_POINT('Line Origine',(9377.655143440001,-2543.7770445,1235.69277602));
#164825=DIRECTION('Vector Direction',(-1.43291152561039e-13,-0.951464412998259,0.3077587867110838));
#164826=VECTOR('Line Direction',#164825,1.);
#164827=LINE('Line',#164824,#164826);
#164828=CARTESIAN_POINT('Vertex',(9377.655143440001,-2531.69881319,1231.78597534));
#164829=VERTEX_POINT('',#164828);
#164830=EDGE_CURVE('',#164829,#164798,#164827,.T.);
#164831=CARTESIAN_POINT('Line Origine',(9377.731636160001,-2531.28277329,1233.0722007));
#164832=DIRECTION('Vector Direction',(0.05649388691700141,0.3072672790280077,0.9499448720740239));
#164833=VECTOR('Line Direction',#164832,1.);
#164834=LINE('Line',#164831,#164833);
#164835=EDGE_CURVE('',#164829,#164822,#164834,.T.);
#164836=EDGE_LOOP('',(#164837,#164838,#164839,#164840));
#164837=ORIENTED_EDGE('',*,*,#164823,.T.);
#164838=ORIENTED_EDGE('',*,*,#164804,.F.);
#164839=ORIENTED_EDGE('',*,*,#164830,.F.);
#164840=ORIENTED_EDGE('',*,*,#164835,.T.);
#164841=FACE_OUTER_BOUND('',#164836,.T.);
#164842=ADVANCED_FACE('PartBody',(#164841),#164816,.T.);
#164843=CARTESIAN_POINT('Axis2P3D Location',(9366.81566203,-2517.18459331,1230.58655794));
#164844=DIRECTION('Axis2P3D Direction',(0.05649388691678311,0.3072672790259082,0.9499448720747161));
#164845=DIRECTION('Axis2P3D XDirection',(0.5312782988221123,0.7963186663181683,-0.2891711446080611));
#164846=AXIS2_PLACEMENT_3D('Plane Axis2P3D',#164843,#164844,#164845);
#164847=PLANE('',#164846);
#164848=B_SPLINE_CURVE_WITH_KNOTS('',5,(#164849,#164850,#164851,#164852,#164853,#164854),.UNSPECIFIED.,.F.,.U.,(6,6),(5.05000927237,19.1871762134),.UNSPECIFIED.);
#164849=CARTESIAN_POINT('Control Point',(9386.793755389999,-2522.46003209,1231.10482967));
#164850=CARTESIAN_POINT('Control Point',(9383.970837569999,-2522.41087295,1231.25680965));
#164851=CARTESIAN_POINT('Control Point',(9381.14528594,-2523.41506753,1231.74966197));
#164852=CARTESIAN_POINT('Control Point',(9378.91349576,-2525.50306812,1232.55776861));
#164853=CARTESIAN_POINT('Control Point',(9377.80812888,-2528.17653115,1233.48825859));
#164854=CARTESIAN_POINT('Control Point',(9377.80812888,-2530.8667334,1234.35842606));
#164855=CARTESIAN_POINT('Vertex',(9386.793755389999,-2522.46003209,1231.10482967));
#164856=VERTEX_POINT('',#164855);
#164857=EDGE_CURVE('',#164856,#164822,#164848,.T.);
#164858=B_SPLINE_CURVE_WITH_KNOTS('',1,(#164859,#164860),.UNSPECIFIED.,.F.,.U.,(2,2),(-2.11125938538,2.11125938538),.UNSPECIFIED.);
#164859=CARTESIAN_POINT('Control Point',(9391.00953057,-2522.53344687,1230.87786117));
#164860=CARTESIAN_POINT('Control Point',(9386.793755389999,-2522.46003209,1231.10482967));
#164861=CARTESIAN_POINT('Vertex',(9391.00953057,-2522.53344687,1230.87786117));
#164862=VERTEX_POINT('',#164861);
#164863=EDGE_CURVE('',#164862,#164856,#164858,.T.);
#164864=B_SPLINE_CURVE_WITH_KNOTS('',1,(#164865,#164866),.UNSPECIFIED.,.F.,.U.,(2,2),(-18.2465738937,33.9534261063),.UNSPECIFIED.);
#164865=CARTESIAN_POINT('Control Point',(9391.00953057,-2522.53344687,1230.87786117));
#164866=CARTESIAN_POINT('Control Point',(9391.00953057,-2472.86700451,1214.8128525));
#164867=EDGE_CURVE('',#164862,#164481,#164864,.T.);
#164868=EDGE_LOOP('',(#164869,#164870,#164871,#164872,#164873,#164874,#164875,#164876,#164877,#164878,#164879,#164880,#164881,#164882));
#164869=ORIENTED_EDGE('',*,*,#164525,.T.);
#164870=ORIENTED_EDGE('',*,*,#164544,.F.);
#164871=ORIENTED_EDGE('',*,*,#164575,.F.);
#164872=ORIENTED_EDGE('',*,*,#164606,.F.);
#164873=ORIENTED_EDGE('',*,*,#164637,.F.);
#164874=ORIENTED_EDGE('',*,*,#164668,.F.);
#164875=ORIENTED_EDGE('',*,*,#164699,.F.);
#164876=ORIENTED_EDGE('',*,*,#164730,.F.);
#164877=ORIENTED_EDGE('',*,*,#164761,.F.);
#164878=ORIENTED_EDGE('',*,*,#164792,.F.);
#164879=ORIENTED_EDGE('',*,*,#164823,.F.);
#164880=ORIENTED_EDGE('',*,*,#164857,.F.);
#164881=ORIENTED_EDGE('',*,*,#164863,.F.);
#164882=ORIENTED_EDGE('',*,*,#164867,.T.);
#164883=FACE_OUTER_BOUND('',#164868,.T.);
#164884=ADVANCED_FACE('PartBody',(#164883),#164847,.T.);
#164885=CARTESIAN_POINT('Axis2P3D Location',(9391.291999999999,-2503.63614476,1230.01204208));
#164886=DIRECTION('Axis2P3D Direction',(-1.033895191680281e-15,0.951464412998259,-0.3077587867110838));
#164887=DIRECTION('Axis2P3D XDirection',(-0.6868428179297034,0.2236809288849034,0.6915300322557013));
#164888=AXIS2_PLACEMENT_3D('Cylinder Axis2P3D',#164885,#164886,#164887);
#164889=CYLINDRICAL_SURFACE('generated cylinder',#164888,5.);
#164890=CARTESIAN_POINT('Axis2P3D Location',(9391.291999999999,-2520.99711048,1235.62758553));
#164891=DIRECTION('Axis2P3D Direction',(-1.033895191680281e-15,0.951464412998259,-0.3077587867110838));
#164892=AXIS2_PLACEMENT_3D('Circle Axis2P3D',#164890,#164891,$);
#164893=CIRCLE('generated circle',#164892,5.);
#164894=EDGE_CURVE('',#164862,#164276,#164893,.F.);
#164895=EDGE_LOOP('',(#164896,#164897,#164898,#164899));
#164896=ORIENTED_EDGE('',*,*,#164482,.F.);
#164897=ORIENTED_EDGE('',*,*,#164867,.F.);
#164898=ORIENTED_EDGE('',*,*,#164894,.T.);
#164899=ORIENTED_EDGE('',*,*,#164394,.T.);
#164900=FACE_OUTER_BOUND('',#164895,.T.);
#164901=ADVANCED_FACE('PartBody',(#164900),#164889,.F.);
#164902=CARTESIAN_POINT('Axis2P3D Location',(9385.39963745,-2522.52643717,1230.89953229));
#164903=DIRECTION('Axis2P3D Direction',(2.067790383360563e-14,-0.951464412998259,0.3077587867110838));
#164904=DIRECTION('Axis2P3D XDirection',(0.9984029450783029,-0.01738649009410527,-0.05375192295331631));
#164905=AXIS2_PLACEMENT_3D('Plane Axis2P3D',#164902,#164903,#164904);
#164906=PLANE('',#164905);
#164907=CARTESIAN_POINT('Line Origine',(9390.933037840001,-2522.94948677,1229.59163581));
#164908=DIRECTION('Vector Direction',(-0.05649388691698247,-0.3072672790259047,-0.9499448720747053));
#164909=VECTOR('Line Direction',#164908,1.);
#164910=LINE('Line',#164907,#164909);
#164911=CARTESIAN_POINT('Vertex',(9390.856545119999,-2523.36552666,1228.30541045));
#164912=VERTEX_POINT('',#164911);
#164913=EDGE_CURVE('',#164912,#164862,#164910,.F.);
#164914=CARTESIAN_POINT('Axis2P3D Location',(9391.291999999999,-2520.99711048,1235.62758553));
#164915=DIRECTION('Axis2P3D Direction',(2.067790383360563e-14,-0.951464412998259,0.3077587867110838));
#164916=AXIS2_PLACEMENT_3D('Circle Axis2P3D',#164914,#164915,$);
#164917=CIRCLE('generated circle',#164916,7.708);
#164918=EDGE_CURVE('',#164912,#164278,#164917,.T.);
#164919=EDGE_LOOP('',(#164920,#164921,#164922,#164923));
#164920=ORIENTED_EDGE('',*,*,#164913,.F.);
#164921=ORIENTED_EDGE('',*,*,#164918,.T.);
#164922=ORIENTED_EDGE('',*,*,#164279,.F.);
#164923=ORIENTED_EDGE('',*,*,#164894,.F.);
#164924=FACE_OUTER_BOUND('',#164919,.T.);
#164925=ADVANCED_FACE('PartBody',(#164924),#164906,.T.);
#164926=CARTESIAN_POINT('Axis2P3D Location',(9391.291999999999,-2503.63614476,1230.01204208));
#164927=DIRECTION('Axis2P3D Direction',(-1.033895191680281e-15,0.951464412998259,-0.3077587867110838));
#164928=DIRECTION('Axis2P3D XDirection',(1,1.07899800206e-15,-2.77555756156e-17));
#164929=AXIS2_PLACEMENT_3D('Cylinder Axis2P3D',#164926,#164927,#164928);
#164930=CYLINDRICAL_SURFACE('generated cylinder',#164929,7.708);
#164931=CARTESIAN_POINT('Line Origine',(9390.856545119999,-2506.00456094,1222.68986701));
#164932=DIRECTION('Vector Direction',(0,0.951464412998259,-0.3077587867110838));
#164933=VECTOR('Line Direction',#164932,1.);
#164934=LINE('Line',#164931,#164933);
#164935=EDGE_CURVE('',#164912,#164488,#164934,.T.);
#164936=EDGE_LOOP('',(#164937,#164938,#164939,#164940));
#164937=ORIENTED_EDGE('',*,*,#164439,.F.);
#164938=ORIENTED_EDGE('',*,*,#164918,.F.);
#164939=ORIENTED_EDGE('',*,*,#164935,.T.);
#164940=ORIENTED_EDGE('',*,*,#164489,.T.);
#164941=FACE_OUTER_BOUND('',#164936,.T.);
#164942=ADVANCED_FACE('PartBody',(#164941),#164930,.T.);
#164943=CARTESIAN_POINT('Axis2P3D Location',(9366.662676579999,-2518.0166731,1228.01410723));
#164944=DIRECTION('Axis2P3D Direction',(0.05649388691678311,0.3072672790259082,0.9499448720747161));
#164945=DIRECTION('Axis2P3D XDirection',(0.5312782988221123,0.7963186663181683,-0.2891711446080611));
#164946=AXIS2_PLACEMENT_3D('Plane Axis2P3D',#164943,#164944,#164945);
#164947=PLANE('',#164946);
#164948=CARTESIAN_POINT('Line Origine',(9388.748657530001,-2523.32881927,1228.41889471));
#164949=DIRECTION('Vector Direction',(-0.9984029450783044,0.0173864900940053,0.05375192295331639));
#164950=VECTOR('Line Direction',#164949,1.);
#164951=LINE('Line',#164948,#164950);
#164952=CARTESIAN_POINT('Vertex',(9386.640769940001,-2523.29211188,1228.53237896));
#164953=VERTEX_POINT('',#164952);
#164954=EDGE_CURVE('',#164912,#164953,#164951,.T.);
#164955=CARTESIAN_POINT('Axis2P3D Location',(9386.640769940001,-2531.8552916,1231.30220804));
#164956=DIRECTION('Axis2P3D Direction',(0.05649388691678311,0.3072672790259082,0.9499448720747161));
#164957=AXIS2_PLACEMENT_3D('Circle Axis2P3D',#164955,#164956,$);
#164958=CIRCLE('generated circle',#164957,9.);
#164959=EDGE_CURVE('',#164953,#164829,#164958,.T.);
#164960=EDGE_LOOP('',(#164961,#164962,#164963,#164964,#164965,#164966,#164967,#164968,#164969,#164970,#164971,#164972,#164973,#164974));
#164961=ORIENTED_EDGE('',*,*,#164935,.F.);
#164962=ORIENTED_EDGE('',*,*,#164954,.T.);
#164963=ORIENTED_EDGE('',*,*,#164959,.T.);
#164964=ORIENTED_EDGE('',*,*,#164830,.T.);
#164965=ORIENTED_EDGE('',*,*,#164799,.T.);
#164966=ORIENTED_EDGE('',*,*,#164768,.T.);
#164967=ORIENTED_EDGE('',*,*,#164737,.T.);
#164968=ORIENTED_EDGE('',*,*,#164706,.T.);
#164969=ORIENTED_EDGE('',*,*,#164675,.T.);
#164970=ORIENTED_EDGE('',*,*,#164644,.T.);
#164971=ORIENTED_EDGE('',*,*,#164613,.T.);
#164972=ORIENTED_EDGE('',*,*,#164582,.T.);
#164973=ORIENTED_EDGE('',*,*,#164551,.T.);
#164974=ORIENTED_EDGE('',*,*,#164513,.F.);
#164975=FACE_OUTER_BOUND('',#164960,.T.);
#164976=ADVANCED_FACE('PartBody',(#164975),#164947,.F.);
#164977=CARTESIAN_POINT('Axis2P3D Location',(9386.640769940001,-2531.8552916,1231.30220804));
#164978=DIRECTION('Axis2P3D Direction',(0.05649388691678311,0.3072672790259082,0.9499448720747161));
#164979=DIRECTION('Axis2P3D XDirection',(0.7059774928240077,-0.6850810435330075,0.1796099758300019));
#164980=AXIS2_PLACEMENT_3D('Cylinder Axis2P3D',#164977,#164978,#164979);
#164981=CYLINDRICAL_SURFACE('generated cylinder',#164980,9.);
#164982=CARTESIAN_POINT('Line Origine',(9386.717262669999,-2522.87607199,1229.81860431));
#164983=DIRECTION('Vector Direction',(0.05649388691678311,0.3072672790259082,0.9499448720747161));
#164984=VECTOR('Line Direction',#164983,1.);
#164985=LINE('Line',#164982,#164984);
#164986=EDGE_CURVE('',#164953,#164856,#164985,.T.);
#164987=EDGE_LOOP('',(#164988,#164989,#164990,#164991));
#164988=ORIENTED_EDGE('',*,*,#164857,.T.);
#164989=ORIENTED_EDGE('',*,*,#164835,.F.);
#164990=ORIENTED_EDGE('',*,*,#164959,.F.);
#164991=ORIENTED_EDGE('',*,*,#164986,.T.);
#164992=FACE_OUTER_BOUND('',#164987,.T.);
#164993=ADVANCED_FACE('PartBody',(#164992),#164981,.F.);
#164994=CARTESIAN_POINT('Axis2P3D Location',(9388.748657530001,-2523.32881927,1228.41889471));
#164995=DIRECTION('Axis2P3D Direction',(7.495740139702041e-14,-0.951464412998259,0.3077587867110838));
#164996=DIRECTION('Axis2P3D XDirection',(1,7.131929992000001e-14,-2.30687989089e-14));
#164997=AXIS2_PLACEMENT_3D('Plane Axis2P3D',#164994,#164995,#164996);
#164998=PLANE('',#164997);
#164999=EDGE_LOOP('',(#165000,#165001,#165002,#165003));
#165000=ORIENTED_EDGE('',*,*,#164863,.T.);
#165001=ORIENTED_EDGE('',*,*,#164986,.F.);
#165002=ORIENTED_EDGE('',*,*,#164954,.F.);
#165003=ORIENTED_EDGE('',*,*,#164913,.T.);
#165004=FACE_OUTER_BOUND('',#164999,.T.);
#165005=ADVANCED_FACE('PartBody',(#165004),#164998,.T.);
#165006=ADVANCED_BREP_SHAPE_REPRESENTATION('NONE',(#164263),#164009);

#165007=APPLICATION_CONTEXT('automotive_design');
#165008=APPLICATION_PROTOCOL_DEFINITION('international standard','automotive_design',2010,#165007);
#165009=PRODUCT_CONTEXT('',#165007,'mechanical');
#165010=PRODUCT_DEFINITION_CONTEXT('part definition',#165007,'design');
#165011=PRODUCT('part_039_V5311445220000','part_039_V5311445220000','',(#165009));
#165012=PRODUCT_DEFINITION_FORMATION('','',#165011);
#165013=PRODUCT_DEFINITION('design','',#165012,#165010);
#165014=PRODUCT_DEFINITION_SHAPE('','',#165013);
#165015=SHAPE_DEFINITION_REPRESENTATION(#165014,#165006);
ENDSEC;
END-ISO-10303-21;
