ISO-10303-21;
HEADER;
FILE_DESCRIPTION(('CATIA V5 STEP Exchange','CAx-IF Rec.Pracs.--- Model Styling and Organization---1.4--- 2014-01-23'),'2;1');

FILE_NAME('C:\\Users\\SA516207\\WORK\\01_ASSY\\3_Catia\\ECHELLE\\ECHELLE.stp','2026-09-22T12:18:05+00:00',('none'),('none'),'CATIA Version 5-6 Release 2017 SP2 HF26','CATIA V5 STEP AP203 WITH EXTENSIONS','none');

FILE_SCHEMA(('CONFIG_CONTROL_DESIGN','SHAPE_APPEARANCE_LAYER_MIM'));

ENDSEC;
DATA;
#46=(LENGTH_UNIT()NAMED_UNIT(*)SI_UNIT(.MILLI.,.METRE.));
#47=(NAMED_UNIT(*)PLANE_ANGLE_UNIT()SI_UNIT($,.RADIAN.));
#48=(NAMED_UNIT(*)SI_UNIT($,.STERADIAN.)SOLID_ANGLE_UNIT());
#162982=UNCERTAINTY_MEASURE_WITH_UNIT(LENGTH_MEASURE(0.005),#46,'distance_accuracy_value','CONFUSED CURVE UNCERTAINTY');
#162983=(GEOMETRIC_REPRESENTATION_CONTEXT(3)GLOBAL_UNCERTAINTY_ASSIGNED_CONTEXT((#162982))GLOBAL_UNIT_ASSIGNED_CONTEXT((#46,#47,#48))REPRESENTATION_CONTEXT(' ',' '));
#163237=MANIFOLD_SOLID_BREP('PartBody',#163239);
#163239=CLOSED_SHELL('Closed Shell',(#163279,#163310,#163341,#163377,#163401,#163427,#163444,#163475,#163506,#163537,#163568,#163599,#163630,#163661,#163692,#163723,#163754,#163785,#163816,#163858,#163875,#163899,#163916,#163950,#163967,#163979));
#163240=CARTESIAN_POINT('Axis2P3D Location',(9399.000099634979,-2386.803567767138,1545.339719878764));
#163241=DIRECTION('Axis2P3D Direction',(1.320376280279138e-05,-0.9409455142365769,0.3385580290935733));
#163242=DIRECTION('Axis2P3D XDirection',(0.9999999992395,-1.049758402008058e-20,-3.899999899013048e-05));
#163243=AXIS2_PLACEMENT_3D('Plane Axis2P3D',#163240,#163241,#163242);
#163244=PLANE('',#163243);
#163245=CARTESIAN_POINT('Line Origine',(9397.461934830961,-2388.32402751322,1541.114005697337));
#163246=DIRECTION('Vector Direction',(-0.9999999992395,1.049758402008058e-20,3.899999899013048e-05));
#163247=VECTOR('Line Direction',#163246,1.);
#163248=LINE('Line',#163245,#163247);
#163249=CARTESIAN_POINT('Vertex',(9395.923934832132,-2388.32402751322,1541.114065679336));
#163250=VERTEX_POINT('',#163249);
#163251=CARTESIAN_POINT('Vertex',(9398.999934829792,-2388.32402751322,1541.113945715339));
#163252=VERTEX_POINT('',#163251);
#163253=EDGE_CURVE('',#163250,#163252,#163248,.F.);
#163254=CARTESIAN_POINT('Line Origine',(9399.000099634979,-2386.803567767138,1545.339719878764));
#163255=DIRECTION('Vector Direction',(3.669687410499431e-05,0.3385580293510466,0.9409455135209878));
#163256=VECTOR('Line Direction',#163255,1.);
#163257=LINE('Line',#163254,#163256);
#163258=CARTESIAN_POINT('Vertex',(9399.000264440168,-2385.283108031056,1549.565494042191));
#163259=VERTEX_POINT('',#163258);
#163260=EDGE_CURVE('',#163252,#163259,#163257,.T.);
#163261=CARTESIAN_POINT('Line Origine',(9397.462264441338,-2385.283108031056,1549.565554024189));
#163262=DIRECTION('Vector Direction',(-0.9999999992395,1.049758402008058e-20,3.899999899013048e-05));
#163263=VECTOR('Line Direction',#163262,1.);
#163264=LINE('Line',#163261,#163263);
#163265=CARTESIAN_POINT('Vertex',(9395.924264442509,-2385.283108031056,1549.565614006188));
#163266=VERTEX_POINT('',#163265);
#163267=EDGE_CURVE('',#163259,#163266,#163264,.T.);
#163268=CARTESIAN_POINT('Line Origine',(9395.924099637319,-2386.803567767138,1545.339839842761));
#163269=DIRECTION('Vector Direction',(3.669687410499431e-05,0.3385580293510466,0.9409455135209878));
#163270=VECTOR('Line Direction',#163269,1.);
#163271=LINE('Line',#163268,#163270);
#163272=EDGE_CURVE('',#163250,#163266,#163271,.T.);
#163273=EDGE_LOOP('',(#163274,#163275,#163276,#163277));
#163274=ORIENTED_EDGE('',*,*,#163253,.T.);
#163275=ORIENTED_EDGE('',*,*,#163260,.T.);
#163276=ORIENTED_EDGE('',*,*,#163267,.T.);
#163277=ORIENTED_EDGE('',*,*,#163272,.F.);
#163278=FACE_OUTER_BOUND('',#163273,.T.);
#163279=ADVANCED_FACE('PartBody',(#163278),#163244,.T.);
#163280=CARTESIAN_POINT('Axis2P3D Location',(9399.000105995014,-2373.991761858298,1545.502797693053));
#163281=DIRECTION('Axis2P3D Direction',(-0.9999999992395,1.049758402008058e-20,3.899999899013048e-05));
#163282=DIRECTION('Axis2P3D XDirection',(-3.528507874301776e-05,0.4259522754647508,-0.9047456315348332));
#163283=AXIS2_PLACEMENT_3D('Cylinder Axis2P3D',#163280,#163281,#163282);
#163284=CYLINDRICAL_SURFACE('generated cylinder',#163283,12.);
#163285=CARTESIAN_POINT('Axis2P3D Location',(9395.924105997354,-2373.991761858298,1545.50291765705));
#163286=DIRECTION('Axis2P3D Direction',(-0.9999999992395,1.049758402008058e-20,3.899999899013048e-05));
#163287=AXIS2_PLACEMENT_3D('Circle Axis2P3D',#163285,#163286,$);
#163288=CIRCLE('generated circle',#163287,12.);
#163289=CARTESIAN_POINT('Vertex',(9395.924546359844,-2369.929065506069,1556.794263821222));
#163290=VERTEX_POINT('',#163289);
#163291=EDGE_CURVE('',#163290,#163266,#163288,.F.);
#163292=CARTESIAN_POINT('Axis2P3D Location',(9399.000105995014,-2373.991761858298,1545.502797693053));
#163293=DIRECTION('Axis2P3D Direction',(-0.9999999992395,1.049758402008058e-20,3.899999899013048e-05));
#163294=AXIS2_PLACEMENT_3D('Circle Axis2P3D',#163292,#163293,$);
#163295=CIRCLE('generated circle',#163294,12.);
#163296=CARTESIAN_POINT('Vertex',(9399.000546357503,-2369.929065506069,1556.794143857225));
#163297=VERTEX_POINT('',#163296);
#163298=EDGE_CURVE('',#163297,#163259,#163295,.F.);
#163299=CARTESIAN_POINT('Line Origine',(9397.462546358673,-2369.929065506069,1556.794203839223));
#163300=DIRECTION('Vector Direction',(-0.9999999992395,1.049758402008058e-20,3.899999899013048e-05));
#163301=VECTOR('Line Direction',#163300,1.);
#163302=LINE('Line',#163299,#163301);
#163303=EDGE_CURVE('',#163297,#163290,#163302,.T.);
#163304=EDGE_LOOP('',(#163305,#163306,#163307,#163308));
#163305=ORIENTED_EDGE('',*,*,#163291,.T.);
#163306=ORIENTED_EDGE('',*,*,#163267,.F.);
#163307=ORIENTED_EDGE('',*,*,#163298,.F.);
#163308=ORIENTED_EDGE('',*,*,#163303,.T.);
#163309=FACE_OUTER_BOUND('',#163304,.T.);
#163310=ADVANCED_FACE('PartBody',(#163309),#163284,.T.);
#163311=CARTESIAN_POINT('Axis2P3D Location',(9399.000400679946,-2359.547582064781,1553.058821766226));
#163312=DIRECTION('Axis2P3D Direction',(-3.669687410499431e-05,-0.3385580293510466,-0.9409455135209878));
#163313=DIRECTION('Axis2P3D XDirection',(0.9999999992395,-1.049758402008058e-20,-3.899999899013048e-05));
#163314=AXIS2_PLACEMENT_3D('Plane Axis2P3D',#163311,#163312,#163313);
#163315=PLANE('',#163314);
#163316=CARTESIAN_POINT('Line Origine',(9395.924400682286,-2359.547582064781,1553.058941730223));
#163317=DIRECTION('Vector Direction',(1.320376280279138e-05,-0.9409455142365769,0.3385580290935733));
#163318=VECTOR('Line Direction',#163317,1.);
#163319=LINE('Line',#163316,#163318);
#163320=CARTESIAN_POINT('Vertex',(9395.924255004727,-2349.166098633494,1549.323619629226));
#163321=VERTEX_POINT('',#163320);
#163322=EDGE_CURVE('',#163321,#163290,#163319,.T.);
#163323=CARTESIAN_POINT('Line Origine',(9399.000400679946,-2359.547582064781,1553.058821766226));
#163324=DIRECTION('Vector Direction',(1.320376280279138e-05,-0.9409455142365769,0.3385580290935733));
#163325=VECTOR('Line Direction',#163324,1.);
#163326=LINE('Line',#163323,#163325);
#163327=CARTESIAN_POINT('Vertex',(9399.000255002387,-2349.166098633494,1549.323499665229));
#163328=VERTEX_POINT('',#163327);
#163329=EDGE_CURVE('',#163328,#163297,#163326,.T.);
#163330=CARTESIAN_POINT('Line Origine',(9397.462255003556,-2349.166098633494,1549.323559647228));
#163331=DIRECTION('Vector Direction',(-0.9999999992395,1.049758402008058e-20,3.899999899013048e-05));
#163332=VECTOR('Line Direction',#163331,1.);
#163333=LINE('Line',#163330,#163332);
#163334=EDGE_CURVE('',#163328,#163321,#163333,.T.);
#163335=EDGE_LOOP('',(#163336,#163337,#163338,#163339));
#163336=ORIENTED_EDGE('',*,*,#163322,.T.);
#163337=ORIENTED_EDGE('',*,*,#163303,.F.);
#163338=ORIENTED_EDGE('',*,*,#163329,.F.);
#163339=ORIENTED_EDGE('',*,*,#163334,.T.);
#163340=FACE_OUTER_BOUND('',#163335,.T.);
#163341=ADVANCED_FACE('PartBody',(#163340),#163315,.F.);
#163342=CARTESIAN_POINT('Axis2P3D Location',(9395.923789795661,-2365.183500038595,1537.395181679498));
#163343=DIRECTION('Axis2P3D Direction',(-0.9999999992395,1.049758402008058e-20,3.899999899013048e-05));
#163344=DIRECTION('Axis2P3D XDirection',(-1.320376280279138e-05,0.9409455142365769,-0.3385580290935733));
#163345=AXIS2_PLACEMENT_3D('Plane Axis2P3D',#163342,#163343,#163344);
#163346=PLANE('',#163345);
#163347=B_SPLINE_CURVE_WITH_KNOTS('',5,(#163348,#163349,#163350,#163351,#163352,#163353),.UNSPECIFIED.,.F.,.U.,(6,6),(56.5486677646,75.3982236862),.UNSPECIFIED.);
#163348=CARTESIAN_POINT('Control Point',(9395.924255004727,-2349.166098633494,1549.323619629226));
#163349=CARTESIAN_POINT('Control Point',(9395.924205227715,-2345.618817615347,1548.047285933056));
#163350=CARTESIAN_POINT('Control Point',(9395.924101233066,-2342.567999569266,1545.380756404511));
#163351=CARTESIAN_POINT('Control Point',(9395.923952505203,-2340.772595572014,1541.567221388492));
#163352=CARTESIAN_POINT('Control Point',(9395.923794541042,-2340.661115105822,1537.516858131364));
#163353=CARTESIAN_POINT('Control Point',(9395.923656197085,-2341.937448812963,1533.969577115917));
#163354=CARTESIAN_POINT('Vertex',(9395.923656197085,-2341.937448812963,1533.969577115917));
#163355=VERTEX_POINT('',#163354);
#163356=EDGE_CURVE('',#163355,#163321,#163347,.F.);
#163357=CARTESIAN_POINT('Line Origine',(9395.923711573141,-2341.426560372932,1535.389476029576));
#163358=DIRECTION('Vector Direction',(-3.669687410499431e-05,-0.3385580293510466,-0.9409455135209878));
#163359=VECTOR('Line Direction',#163358,1.);
#163360=LINE('Line',#163357,#163359);
#163361=CARTESIAN_POINT('Vertex',(9395.923326586708,-2344.978368295127,1525.518028789065));
#163362=VERTEX_POINT('',#163361);
#163363=EDGE_CURVE('',#163362,#163355,#163360,.F.);
#163364=CARTESIAN_POINT('Line Origine',(9395.92363070942,-2366.651197899173,1533.3160472392));
#163365=DIRECTION('Vector Direction',(-1.320376280279138e-05,0.9409455142365769,-0.3385580290935733));
#163366=VECTOR('Line Direction',#163365,1.);
#163367=LINE('Line',#163364,#163366);
#163368=EDGE_CURVE('',#163250,#163362,#163367,.T.);
#163369=EDGE_LOOP('',(#163370,#163371,#163372,#163373,#163374,#163375));
#163370=ORIENTED_EDGE('',*,*,#163272,.T.);
#163371=ORIENTED_EDGE('',*,*,#163291,.F.);
#163372=ORIENTED_EDGE('',*,*,#163322,.F.);
#163373=ORIENTED_EDGE('',*,*,#163356,.F.);
#163374=ORIENTED_EDGE('',*,*,#163363,.F.);
#163375=ORIENTED_EDGE('',*,*,#163368,.F.);
#163376=FACE_OUTER_BOUND('',#163369,.T.);
#163377=ADVANCED_FACE('PartBody',(#163376),#163346,.T.);
#163378=CARTESIAN_POINT('Axis2P3D Location',(9398.999814639898,-2353.228794985722,1538.032153501058));
#163379=DIRECTION('Axis2P3D Direction',(-0.9999999992395,1.049758402008058e-20,3.899999899013048e-05));
#163380=DIRECTION('Axis2P3D XDirection',(-1.661213831296908e-05,-0.9047456322228924,-0.4259522751408142));
#163381=AXIS2_PLACEMENT_3D('Cylinder Axis2P3D',#163378,#163379,#163380);
#163382=CYLINDRICAL_SURFACE('generated cylinder',#163381,12.);
#163383=CARTESIAN_POINT('Axis2P3D Location',(9398.999814639898,-2353.228794985722,1538.032153501058));
#163384=DIRECTION('Axis2P3D Direction',(-0.9999999992395,1.049758402008058e-20,3.899999899013048e-05));
#163385=AXIS2_PLACEMENT_3D('Circle Axis2P3D',#163383,#163384,$);
#163386=CIRCLE('generated circle',#163385,12.);
#163387=CARTESIAN_POINT('Vertex',(9398.999656194745,-2341.937448812963,1533.96945715192));
#163388=VERTEX_POINT('',#163387);
#163389=EDGE_CURVE('',#163388,#163328,#163386,.F.);
#163390=CARTESIAN_POINT('Line Origine',(9397.461656195914,-2341.937448812963,1533.969517133919));
#163391=DIRECTION('Vector Direction',(-0.9999999992395,1.049758402008058e-20,3.899999899013048e-05));
#163392=VECTOR('Line Direction',#163391,1.);
#163393=LINE('Line',#163390,#163392);
#163394=EDGE_CURVE('',#163388,#163355,#163393,.T.);
#163395=EDGE_LOOP('',(#163396,#163397,#163398,#163399));
#163396=ORIENTED_EDGE('',*,*,#163356,.T.);
#163397=ORIENTED_EDGE('',*,*,#163334,.F.);
#163398=ORIENTED_EDGE('',*,*,#163389,.F.);
#163399=ORIENTED_EDGE('',*,*,#163394,.T.);
#163400=FACE_OUTER_BOUND('',#163395,.T.);
#163401=ADVANCED_FACE('PartBody',(#163400),#163382,.T.);
#163402=CARTESIAN_POINT('Axis2P3D Location',(9398.999789793321,-2365.183500038595,1537.395061715501));
#163403=DIRECTION('Axis2P3D Direction',(-0.9999999992395,1.049758402008058e-20,3.899999899013048e-05));
#163404=DIRECTION('Axis2P3D XDirection',(-1.320376280279138e-05,0.9409455142365769,-0.3385580290935733));
#163405=AXIS2_PLACEMENT_3D('Plane Axis2P3D',#163402,#163403,#163404);
#163406=PLANE('',#163405);
#163407=CARTESIAN_POINT('Line Origine',(9398.99963070708,-2366.651197899173,1533.315927275203));
#163408=DIRECTION('Vector Direction',(-1.320376280279138e-05,0.9409455142365769,-0.3385580290935733));
#163409=VECTOR('Line Direction',#163408,1.);
#163410=LINE('Line',#163407,#163409);
#163411=CARTESIAN_POINT('Vertex',(9398.999326584368,-2344.978368295127,1525.517908825068));
#163412=VERTEX_POINT('',#163411);
#163413=EDGE_CURVE('',#163252,#163412,#163410,.T.);
#163414=CARTESIAN_POINT('Line Origine',(9398.999491389557,-2343.457908549045,1529.743682988493));
#163415=DIRECTION('Vector Direction',(3.669687410499431e-05,0.3385580293510466,0.9409455135209878));
#163416=VECTOR('Line Direction',#163415,1.);
#163417=LINE('Line',#163414,#163416);
#163418=EDGE_CURVE('',#163412,#163388,#163417,.T.);
#163419=EDGE_LOOP('',(#163420,#163421,#163422,#163423,#163424,#163425));
#163420=ORIENTED_EDGE('',*,*,#163413,.T.);
#163421=ORIENTED_EDGE('',*,*,#163418,.T.);
#163422=ORIENTED_EDGE('',*,*,#163389,.T.);
#163423=ORIENTED_EDGE('',*,*,#163329,.T.);
#163424=ORIENTED_EDGE('',*,*,#163298,.T.);
#163425=ORIENTED_EDGE('',*,*,#163260,.F.);
#163426=FACE_OUTER_BOUND('',#163419,.T.);
#163427=ADVANCED_FACE('PartBody',(#163426),#163406,.F.);
#163428=CARTESIAN_POINT('Axis2P3D Location',(9398.999491389557,-2343.457908549045,1529.743682988493));
#163429=DIRECTION('Axis2P3D Direction',(-1.320376280279138e-05,0.9409455142365769,-0.3385580290935733));
#163430=DIRECTION('Axis2P3D XDirection',(0.9999999992395,-1.049758402008058e-20,-3.899999899013048e-05));
#163431=AXIS2_PLACEMENT_3D('Plane Axis2P3D',#163428,#163429,#163430);
#163432=PLANE('',#163431);
#163433=CARTESIAN_POINT('Line Origine',(9397.461326585537,-2344.978368295127,1525.517968807067));
#163434=DIRECTION('Vector Direction',(-0.9999999992395,1.049758402008058e-20,3.899999899013048e-05));
#163435=VECTOR('Line Direction',#163434,1.);
#163436=LINE('Line',#163433,#163435);
#163437=EDGE_CURVE('',#163412,#163362,#163436,.T.);
#163438=EDGE_LOOP('',(#163439,#163440,#163441,#163442));
#163439=ORIENTED_EDGE('',*,*,#163363,.T.);
#163440=ORIENTED_EDGE('',*,*,#163394,.F.);
#163441=ORIENTED_EDGE('',*,*,#163418,.F.);
#163442=ORIENTED_EDGE('',*,*,#163437,.T.);
#163443=FACE_OUTER_BOUND('',#163438,.T.);
#163444=ADVANCED_FACE('PartBody',(#163443),#163432,.T.);
#163445=CARTESIAN_POINT('Axis2P3D Location',(9384.705891035641,-2346.723424701444,1520.668476450247));
#163446=DIRECTION('Axis2P3D Direction',(1.32037628020281e-05,-0.9409455142365769,0.3385580290935733));
#163447=DIRECTION('Axis2P3D XDirection',(0.9980682373193811,-0.02102127462888702,-0.05846280584406204));
#163448=AXIS2_PLACEMENT_3D('Plane Axis2P3D',#163445,#163446,#163447);
#163449=PLANE('',#163448);
#163450=CARTESIAN_POINT('Axis2P3D Location',(9390.92332659051,-2344.978368295127,1525.51822378906));
#163451=DIRECTION('Axis2P3D Direction',(1.32037628020281e-05,-0.9409455142365769,0.3385580290935733));
#163452=AXIS2_PLACEMENT_3D('Circle Axis2P3D',#163450,#163451,$);
#163453=CIRCLE('generated circle',#163452,5.);
#163454=CARTESIAN_POINT('Vertex',(9390.612690410406,-2346.667892228833,1520.822586026779));
#163455=VERTEX_POINT('',#163454);
#163456=EDGE_CURVE('',#163455,#163362,#163453,.T.);
#163457=CARTESIAN_POINT('Axis2P3D Location',(9390.92332659051,-2344.978368295127,1525.51822378906));
#163458=DIRECTION('Axis2P3D Direction',(1.32037628020281e-05,-0.9409455142365769,0.3385580290935733));
#163459=AXIS2_PLACEMENT_3D('Circle Axis2P3D',#163457,#163458,$);
#163460=CIRCLE('generated circle',#163459,8.076);
#163461=CARTESIAN_POINT('Vertex',(9390.421587028764,-2347.707287362139,1517.93382966689));
#163462=VERTEX_POINT('',#163461);
#163463=EDGE_CURVE('',#163462,#163412,#163460,.T.);
#163464=CARTESIAN_POINT('Line Origine',(9390.517138719584,-2347.187589790486,1519.378207846834));
#163465=DIRECTION('Vector Direction',(-0.06212723621626393,-0.3379047872563222,-0.9391275532479005));
#163466=VECTOR('Line Direction',#163465,1.);
#163467=LINE('Line',#163464,#163466);
#163468=EDGE_CURVE('',#163455,#163462,#163467,.T.);
#163469=EDGE_LOOP('',(#163470,#163471,#163472,#163473));
#163470=ORIENTED_EDGE('',*,*,#163456,.T.);
#163471=ORIENTED_EDGE('',*,*,#163437,.F.);
#163472=ORIENTED_EDGE('',*,*,#163463,.F.);
#163473=ORIENTED_EDGE('',*,*,#163468,.F.);
#163474=FACE_OUTER_BOUND('',#163469,.T.);
#163475=ADVANCED_FACE('PartBody',(#163474),#163449,.F.);
#163476=CARTESIAN_POINT('Axis2P3D Location',(9388.925842664599,-2347.675784044614,1518.021444337219));
#163477=DIRECTION('Axis2P3D Direction',(-1.320376281946901e-05,0.9409455142365769,-0.3385580290935733));
#163478=DIRECTION('Axis2P3D XDirection',(0.9999999992395,1.569273204859521e-14,-3.899999899577683e-05));
#163479=AXIS2_PLACEMENT_3D('Plane Axis2P3D',#163476,#163477,#163478);
#163480=PLANE('',#163479);
#163481=CARTESIAN_POINT('Line Origine',(9388.925842664599,-2347.675784044614,1518.021444337219));
#163482=DIRECTION('Vector Direction',(-0.9980682373193849,0.02102127462898708,0.05846280584396223));
#163483=VECTOR('Line Direction',#163482,1.);
#163484=LINE('Line',#163481,#163483);
#163485=CARTESIAN_POINT('Vertex',(9387.430098290433,-2347.644280737091,1518.109058997551));
#163486=VERTEX_POINT('',#163485);
#163487=EDGE_CURVE('',#163462,#163486,#163484,.T.);
#163488=CARTESIAN_POINT('Line Origine',(9387.525649981255,-2347.124583175438,1519.553437177497));
#163489=DIRECTION('Vector Direction',(0.06212723621566625,0.3379047872563348,0.9391275532479356));
#163490=VECTOR('Line Direction',#163489,1.);
#163491=LINE('Line',#163488,#163490);
#163492=CARTESIAN_POINT('Vertex',(9387.621201672075,-2346.604885613787,1520.997815347443));
#163493=VERTEX_POINT('',#163492);
#163494=EDGE_CURVE('',#163486,#163493,#163491,.T.);
#163495=CARTESIAN_POINT('Line Origine',(9389.116946046241,-2346.63638892131,1520.910200687111));
#163496=DIRECTION('Vector Direction',(-0.9980682373193753,0.02102127462888692,0.0584628058441617));
#163497=VECTOR('Line Direction',#163496,1.);
#163498=LINE('Line',#163495,#163497);
#163499=EDGE_CURVE('',#163455,#163493,#163498,.T.);
#163500=EDGE_LOOP('',(#163501,#163502,#163503,#163504));
#163501=ORIENTED_EDGE('',*,*,#163468,.T.);
#163502=ORIENTED_EDGE('',*,*,#163487,.T.);
#163503=ORIENTED_EDGE('',*,*,#163494,.T.);
#163504=ORIENTED_EDGE('',*,*,#163499,.F.);
#163505=FACE_OUTER_BOUND('',#163500,.T.);
#163506=ADVANCED_FACE('PartBody',(#163505),#163480,.T.);
#163507=CARTESIAN_POINT('Axis2P3D Location',(9387.43023032806,-2357.053735882724,1521.494639285167));
#163508=DIRECTION('Axis2P3D Direction',(0.0621272362159651,0.3379047872563284,0.9391275532479181));
#163509=DIRECTION('Axis2P3D XDirection',(0.1017511243391249,-0.9381869977086038,0.330835103981183));
#163510=AXIS2_PLACEMENT_3D('Cylinder Axis2P3D',#163507,#163508,#163509);
#163511=CYLINDRICAL_SURFACE('generated cylinder',#163510,10.);
#163512=CARTESIAN_POINT('Axis2P3D Location',(9387.621333709702,-2356.014340749418,1524.383395645056));
#163513=DIRECTION('Axis2P3D Direction',(0.0621272362159651,0.3379047872563284,0.9391275532479181));
#163514=AXIS2_PLACEMENT_3D('Circle Axis2P3D',#163512,#163513,$);
#163515=CIRCLE('generated circle',#163514,10.);
#163516=CARTESIAN_POINT('Vertex',(9385.597043548585,-2346.757794929606,1521.186739784871));
#163517=VERTEX_POINT('',#163516);
#163518=EDGE_CURVE('',#163517,#163493,#163515,.F.);
#163519=CARTESIAN_POINT('Axis2P3D Location',(9387.43023032806,-2357.053735882724,1521.494639285167));
#163520=DIRECTION('Axis2P3D Direction',(0.0621272362159651,0.3379047872563284,0.9391275532479181));
#163521=AXIS2_PLACEMENT_3D('Circle Axis2P3D',#163519,#163520,$);
#163522=CIRCLE('generated circle',#163521,10.);
#163523=CARTESIAN_POINT('Vertex',(9385.405940166947,-2347.797190052911,1518.29798342498));
#163524=VERTEX_POINT('',#163523);
#163525=EDGE_CURVE('',#163524,#163486,#163522,.F.);
#163526=CARTESIAN_POINT('Line Origine',(9385.501491857767,-2347.277492491259,1519.742361604925));
#163527=DIRECTION('Vector Direction',(0.06212723621606471,0.3379047872563263,0.9391275532479122));
#163528=VECTOR('Line Direction',#163527,1.);
#163529=LINE('Line',#163526,#163528);
#163530=EDGE_CURVE('',#163524,#163517,#163529,.T.);
#163531=EDGE_LOOP('',(#163532,#163533,#163534,#163535));
#163532=ORIENTED_EDGE('',*,*,#163518,.T.);
#163533=ORIENTED_EDGE('',*,*,#163494,.F.);
#163534=ORIENTED_EDGE('',*,*,#163525,.F.);
#163535=ORIENTED_EDGE('',*,*,#163530,.T.);
#163536=FACE_OUTER_BOUND('',#163531,.T.);
#163537=ADVANCED_FACE('PartBody',(#163536),#163511,.T.);
#163538=CARTESIAN_POINT('Axis2P3D Location',(9373.551859897882,-2349.862132528099,1519.825161696834));
#163539=DIRECTION('Axis2P3D Direction',(0.202429016205402,-0.9256545827589178,0.3196655859105371));
#163540=DIRECTION('Axis2P3D XDirection',(0.9792969376235645,0.1913283968487726,-0.06611317962696286));
#163541=AXIS2_PLACEMENT_3D('Plane Axis2P3D',#163538,#163539,#163540);
#163542=PLANE('',#163541);
#163543=CARTESIAN_POINT('Line Origine',(9373.742963279523,-2348.822737404793,1522.713918056725));
#163544=DIRECTION('Vector Direction',(0.9773242552592543,0.1702467273298807,-0.125910094573109));
#163545=VECTOR('Line Direction',#163544,1.);
#163546=LINE('Line',#163543,#163545);
#163547=CARTESIAN_POINT('Vertex',(9361.888883010459,-2350.88767988998,1524.241096328582));
#163548=VERTEX_POINT('',#163547);
#163549=EDGE_CURVE('',#163548,#163517,#163546,.T.);
#163550=CARTESIAN_POINT('Line Origine',(9373.551859897882,-2349.862132528099,1519.825161696834));
#163551=DIRECTION('Vector Direction',(0.9773242552592543,0.1702467273298807,-0.125910094573109));
#163552=VECTOR('Line Direction',#163551,1.);
#163553=LINE('Line',#163550,#163552);
#163554=CARTESIAN_POINT('Vertex',(9361.697779628817,-2351.927075013286,1521.35233996869));
#163555=VERTEX_POINT('',#163554);
#163556=EDGE_CURVE('',#163555,#163524,#163553,.T.);
#163557=CARTESIAN_POINT('Line Origine',(9361.793331319639,-2351.407377451633,1522.796718148636));
#163558=DIRECTION('Vector Direction',(0.06212723621566625,0.3379047872563348,0.9391275532479356));
#163559=VECTOR('Line Direction',#163558,1.);
#163560=LINE('Line',#163557,#163559);
#163561=EDGE_CURVE('',#163555,#163548,#163560,.T.);
#163562=EDGE_LOOP('',(#163563,#163564,#163565,#163566));
#163563=ORIENTED_EDGE('',*,*,#163549,.T.);
#163564=ORIENTED_EDGE('',*,*,#163530,.F.);
#163565=ORIENTED_EDGE('',*,*,#163556,.F.);
#163566=ORIENTED_EDGE('',*,*,#163561,.T.);
#163567=FACE_OUTER_BOUND('',#163562,.T.);
#163568=ADVANCED_FACE('PartBody',(#163567),#163542,.F.);
#163569=CARTESIAN_POINT('Axis2P3D Location',(9365.746359951048,-2370.44016667291,1527.745651689065));
#163570=DIRECTION('Axis2P3D Direction',(0.0621272362159651,0.3379047872563284,0.9391275532479181));
#163571=DIRECTION('Axis2P3D XDirection',(0.5206166849084779,-0.8137629115661092,0.2583567130042408));
#163572=AXIS2_PLACEMENT_3D('Cylinder Axis2P3D',#163569,#163570,#163571);
#163573=CYLINDRICAL_SURFACE('generated cylinder',#163572,20.);
#163574=CARTESIAN_POINT('Axis2P3D Location',(9365.93746333269,-2369.400771539605,1530.634408048953));
#163575=DIRECTION('Axis2P3D Direction',(0.0621272362159651,0.3379047872563284,0.9391275532479181));
#163576=AXIS2_PLACEMENT_3D('Circle Axis2P3D',#163574,#163575,$);
#163577=CIRCLE('generated circle',#163576,20.);
#163578=CARTESIAN_POINT('Vertex',(9350.385053666359,-2357.276046277722,1527.300702764608));
#163579=VERTEX_POINT('',#163578);
#163580=EDGE_CURVE('',#163579,#163548,#163577,.F.);
#163581=CARTESIAN_POINT('Axis2P3D Location',(9365.746359951048,-2370.44016667291,1527.745651689065));
#163582=DIRECTION('Axis2P3D Direction',(0.0621272362159651,0.3379047872563284,0.9391275532479181));
#163583=AXIS2_PLACEMENT_3D('Circle Axis2P3D',#163581,#163582,$);
#163584=CIRCLE('generated circle',#163583,20.);
#163585=CARTESIAN_POINT('Vertex',(9350.193950294719,-2358.315441401026,1524.411946414716));
#163586=VERTEX_POINT('',#163585);
#163587=EDGE_CURVE('',#163586,#163555,#163584,.F.);
#163588=CARTESIAN_POINT('Line Origine',(9350.289501975538,-2357.795743839376,1525.856324584662));
#163589=DIRECTION('Vector Direction',(0.06212723621606471,0.3379047872563263,0.9391275532479122));
#163590=VECTOR('Line Direction',#163589,1.);
#163591=LINE('Line',#163588,#163590);
#163592=EDGE_CURVE('',#163586,#163579,#163591,.T.);
#163593=EDGE_LOOP('',(#163594,#163595,#163596,#163597));
#163594=ORIENTED_EDGE('',*,*,#163580,.T.);
#163595=ORIENTED_EDGE('',*,*,#163561,.F.);
#163596=ORIENTED_EDGE('',*,*,#163587,.F.);
#163597=ORIENTED_EDGE('',*,*,#163592,.T.);
#163598=FACE_OUTER_BOUND('',#163593,.T.);
#163599=ADVANCED_FACE('PartBody',(#163598),#163573,.T.);
#163600=CARTESIAN_POINT('Axis2P3D Location',(9339.764127494671,-2370.316800109383,1529.420097447299));
#163601=DIRECTION('Axis2P3D Direction',(0.7776204830424912,-0.6062362634341174,0.1666852640463524));
#163602=DIRECTION('Axis2P3D XDirection',(0.6287339524305385,0.7497793990740508,-0.206214620687353));
#163603=AXIS2_PLACEMENT_3D('Plane Axis2P3D',#163600,#163601,#163602);
#163604=PLANE('',#163603);
#163605=CARTESIAN_POINT('Line Origine',(9339.955230876312,-2369.27740498608,1532.30885379719));
#163606=DIRECTION('Vector Direction',(0.6256569274556882,0.719929126821592,-0.3004254674301228));
#163607=VECTOR('Line Direction',#163606,1.);
#163608=LINE('Line',#163605,#163607);
#163609=CARTESIAN_POINT('Vertex',(9329.525408076264,-2381.278763694436,1537.317004829772));
#163610=VERTEX_POINT('',#163609);
#163611=EDGE_CURVE('',#163610,#163579,#163608,.T.);
#163612=CARTESIAN_POINT('Line Origine',(9339.764127494671,-2370.316800109383,1529.420097447299));
#163613=DIRECTION('Vector Direction',(0.6256569274556882,0.719929126821592,-0.3004254674301228));
#163614=VECTOR('Line Direction',#163613,1.);
#163615=LINE('Line',#163612,#163614);
#163616=CARTESIAN_POINT('Vertex',(9329.334304704626,-2382.31815882774,1534.428248479883));
#163617=VERTEX_POINT('',#163616);
#163618=EDGE_CURVE('',#163617,#163586,#163615,.T.);
#163619=CARTESIAN_POINT('Line Origine',(9329.429856395445,-2381.798461266087,1535.872626659829));
#163620=DIRECTION('Vector Direction',(0.06212723621626393,0.3379047872563222,0.9391275532479005));
#163621=VECTOR('Line Direction',#163620,1.);
#163622=LINE('Line',#163619,#163621);
#163623=EDGE_CURVE('',#163617,#163610,#163622,.T.);
#163624=EDGE_LOOP('',(#163625,#163626,#163627,#163628));
#163625=ORIENTED_EDGE('',*,*,#163611,.T.);
#163626=ORIENTED_EDGE('',*,*,#163592,.F.);
#163627=ORIENTED_EDGE('',*,*,#163618,.F.);
#163628=ORIENTED_EDGE('',*,*,#163623,.T.);
#163629=FACE_OUTER_BOUND('',#163624,.T.);
#163630=ADVANCED_FACE('PartBody',(#163629),#163604,.F.);
#163631=CARTESIAN_POINT('Axis2P3D Location',(9338.665750500422,-2389.592993984871,1536.428471644491));
#163632=DIRECTION('Axis2P3D Direction',(0.0621272362159651,0.3379047872563284,0.9391275532479181));
#163633=DIRECTION('Axis2P3D XDirection',(0.941346581328943,-0.3325282929927795,0.05737201564892067));
#163634=AXIS2_PLACEMENT_3D('Cylinder Axis2P3D',#163631,#163632,#163633);
#163635=CYLINDRICAL_SURFACE('generated cylinder',#163634,12.);
#163636=CARTESIAN_POINT('Axis2P3D Location',(9338.856853872063,-2388.553598861565,1539.317228004382));
#163637=DIRECTION('Axis2P3D Direction',(0.0621272362159651,0.3379047872563284,0.9391275532479181));
#163638=AXIS2_PLACEMENT_3D('Circle Axis2P3D',#163636,#163637,$);
#163639=CIRCLE('generated circle',#163638,12.);
#163640=CARTESIAN_POINT('Vertex',(9326.880035033546,-2388.301343567826,1540.018781672687));
#163641=VERTEX_POINT('',#163640);
#163642=EDGE_CURVE('',#163641,#163610,#163639,.F.);
#163643=CARTESIAN_POINT('Axis2P3D Location',(9338.665750500422,-2389.592993984871,1536.428471644491));
#163644=DIRECTION('Axis2P3D Direction',(0.0621272362159651,0.3379047872563284,0.9391275532479181));
#163645=AXIS2_PLACEMENT_3D('Circle Axis2P3D',#163643,#163644,$);
#163646=CIRCLE('generated circle',#163645,12.);
#163647=CARTESIAN_POINT('Vertex',(9326.688931651905,-2389.340738691132,1537.130025312795));
#163648=VERTEX_POINT('',#163647);
#163649=EDGE_CURVE('',#163648,#163617,#163646,.F.);
#163650=CARTESIAN_POINT('Line Origine',(9326.784483342728,-2388.821041129478,1538.574403492741));
#163651=DIRECTION('Vector Direction',(0.06212723621606471,0.3379047872563263,0.9391275532479122));
#163652=VECTOR('Line Direction',#163651,1.);
#163653=LINE('Line',#163650,#163652);
#163654=EDGE_CURVE('',#163648,#163641,#163653,.T.);
#163655=EDGE_LOOP('',(#163656,#163657,#163658,#163659));
#163656=ORIENTED_EDGE('',*,*,#163642,.T.);
#163657=ORIENTED_EDGE('',*,*,#163623,.F.);
#163658=ORIENTED_EDGE('',*,*,#163649,.F.);
#163659=ORIENTED_EDGE('',*,*,#163654,.T.);
#163660=FACE_OUTER_BOUND('',#163655,.T.);
#163661=ADVANCED_FACE('PartBody',(#163660),#163635,.T.);
#163662=CARTESIAN_POINT('Axis2P3D Location',(9326.689138813108,-2404.10375781326,1542.44185111983));
#163663=DIRECTION('Axis2P3D Direction',(-0.9980682373193871,0.02102127462888713,0.05846280584396239));
#163664=DIRECTION('Axis2P3D XDirection',(0.0621272362159651,0.3379047872563284,0.9391275532479181));
#163665=AXIS2_PLACEMENT_3D('Plane Axis2P3D',#163662,#163663,#163664);
#163666=PLANE('',#163665);
#163667=CARTESIAN_POINT('Line Origine',(9326.880242194748,-2403.064362689956,1545.330607469721));
#163668=DIRECTION('Vector Direction',(-1.320376280279138e-05,0.9409455142365769,-0.3385580290935733));
#163669=VECTOR('Line Direction',#163668,1.);
#163670=LINE('Line',#163667,#163669);
#163671=CARTESIAN_POINT('Vertex',(9326.880449355947,-2417.827381812087,1550.642433266756));
#163672=VERTEX_POINT('',#163671);
#163673=EDGE_CURVE('',#163672,#163641,#163670,.T.);
#163674=CARTESIAN_POINT('Line Origine',(9326.689138813108,-2404.10375781326,1542.44185111983));
#163675=DIRECTION('Vector Direction',(-1.320376280279138e-05,0.9409455142365769,-0.3385580290935733));
#163676=VECTOR('Line Direction',#163675,1.);
#163677=LINE('Line',#163674,#163676);
#163678=CARTESIAN_POINT('Vertex',(9326.689345974308,-2418.86677693539,1547.753676916865));
#163679=VERTEX_POINT('',#163678);
#163680=EDGE_CURVE('',#163679,#163648,#163677,.T.);
#163681=CARTESIAN_POINT('Line Origine',(9326.784897665129,-2418.347079373737,1549.19805509681));
#163682=DIRECTION('Vector Direction',(0.06212723621566625,0.3379047872563348,0.9391275532479356));
#163683=VECTOR('Line Direction',#163682,1.);
#163684=LINE('Line',#163681,#163683);
#163685=EDGE_CURVE('',#163679,#163672,#163684,.T.);
#163686=EDGE_LOOP('',(#163687,#163688,#163689,#163690));
#163687=ORIENTED_EDGE('',*,*,#163673,.T.);
#163688=ORIENTED_EDGE('',*,*,#163654,.F.);
#163689=ORIENTED_EDGE('',*,*,#163680,.F.);
#163690=ORIENTED_EDGE('',*,*,#163685,.T.);
#163691=FACE_OUTER_BOUND('',#163686,.T.);
#163692=ADVANCED_FACE('PartBody',(#163691),#163666,.T.);
#163693=CARTESIAN_POINT('Axis2P3D Location',(9338.666164822826,-2419.119032239129,1547.052123248562));
#163694=DIRECTION('Axis2P3D Direction',(0.0621272362159651,0.3379047872563284,0.9391275532479181));
#163695=DIRECTION('Axis2P3D XDirection',(0.7512696766800517,0.6036260058930921,-0.2668885870744628));
#163696=AXIS2_PLACEMENT_3D('Cylinder Axis2P3D',#163693,#163694,#163695);
#163697=CYLINDRICAL_SURFACE('generated cylinder',#163696,12.);
#163698=CARTESIAN_POINT('Axis2P3D Location',(9338.857268204465,-2418.079637105825,1549.940879598451));
#163699=DIRECTION('Axis2P3D Direction',(0.0621272362159651,0.3379047872563284,0.9391275532479181));
#163700=AXIS2_PLACEMENT_3D('Circle Axis2P3D',#163698,#163699,$);
#163701=CIRCLE('generated circle',#163700,12.);
#163702=CARTESIAN_POINT('Vertex',(9337.261965151036,-2429.236745866841,1554.060822852034));
#163703=VERTEX_POINT('',#163702);
#163704=EDGE_CURVE('',#163703,#163672,#163701,.F.);
#163705=CARTESIAN_POINT('Axis2P3D Location',(9338.666164822826,-2419.119032239129,1547.052123248562));
#163706=DIRECTION('Axis2P3D Direction',(0.0621272362159651,0.3379047872563284,0.9391275532479181));
#163707=AXIS2_PLACEMENT_3D('Circle Axis2P3D',#163705,#163706,$);
#163708=CIRCLE('generated circle',#163707,12.);
#163709=CARTESIAN_POINT('Vertex',(9337.070861769394,-2430.276140990145,1551.172066502143));
#163710=VERTEX_POINT('',#163709);
#163711=EDGE_CURVE('',#163710,#163679,#163708,.F.);
#163712=CARTESIAN_POINT('Line Origine',(9337.166413460216,-2429.756443428493,1552.616444682089));
#163713=DIRECTION('Vector Direction',(0.06212723621606471,0.3379047872563263,0.9391275532479122));
#163714=VECTOR('Line Direction',#163713,1.);
#163715=LINE('Line',#163712,#163714);
#163716=EDGE_CURVE('',#163710,#163703,#163715,.T.);
#163717=EDGE_LOOP('',(#163718,#163719,#163720,#163721));
#163718=ORIENTED_EDGE('',*,*,#163704,.T.);
#163719=ORIENTED_EDGE('',*,*,#163685,.F.);
#163720=ORIENTED_EDGE('',*,*,#163711,.F.);
#163721=ORIENTED_EDGE('',*,*,#163716,.T.);
#163722=FACE_OUTER_BOUND('',#163717,.T.);
#163723=ADVANCED_FACE('PartBody',(#163722),#163697,.T.);
#163724=CARTESIAN_POINT('Axis2P3D Location',(9350.644613937257,-2432.282059598769,1550.995849534713));
#163725=DIRECTION('Axis2P3D Direction',(-0.1329419207478844,-0.9297590628427355,0.3433286046481733));
#163726=DIRECTION('Axis2P3D XDirection',(0.9911238289786831,-0.1247236976565503,0.0460168976954313));
#163727=AXIS2_PLACEMENT_3D('Plane Axis2P3D',#163724,#163725,#163726);
#163728=PLANE('',#163727);
#163729=CARTESIAN_POINT('Line Origine',(9350.835717318896,-2431.242664475463,1553.884605894604));
#163730=DIRECTION('Vector Direction',(-0.9891747329102887,0.1461794780762957,0.01284164947353083));
#163731=VECTOR('Line Direction',#163730,1.);
#163732=LINE('Line',#163729,#163731);
#163733=CARTESIAN_POINT('Vertex',(9364.409469476759,-2433.248583084087,1553.708388927174));
#163734=VERTEX_POINT('',#163733);
#163735=EDGE_CURVE('',#163734,#163703,#163732,.T.);
#163736=CARTESIAN_POINT('Line Origine',(9350.644613937257,-2432.282059598769,1550.995849534713));
#163737=DIRECTION('Vector Direction',(-0.9891747329102887,0.1461794780762957,0.01284164947353083));
#163738=VECTOR('Line Direction',#163737,1.);
#163739=LINE('Line',#163736,#163738);
#163740=CARTESIAN_POINT('Vertex',(9364.218366095118,-2434.287978217391,1550.819632577285));
#163741=VERTEX_POINT('',#163740);
#163742=EDGE_CURVE('',#163741,#163710,#163739,.T.);
#163743=CARTESIAN_POINT('Line Origine',(9364.313917785939,-2433.768280645738,1552.264010757229));
#163744=DIRECTION('Vector Direction',(0.06212723621566625,0.3379047872563348,0.9391275532479356));
#163745=VECTOR('Line Direction',#163744,1.);
#163746=LINE('Line',#163743,#163745);
#163747=EDGE_CURVE('',#163741,#163734,#163746,.T.);
#163748=EDGE_LOOP('',(#163749,#163750,#163751,#163752));
#163749=ORIENTED_EDGE('',*,*,#163735,.T.);
#163750=ORIENTED_EDGE('',*,*,#163716,.F.);
#163751=ORIENTED_EDGE('',*,*,#163742,.F.);
#163752=ORIENTED_EDGE('',*,*,#163747,.T.);
#163753=FACE_OUTER_BOUND('',#163748,.T.);
#163754=ADVANCED_FACE('PartBody',(#163753),#163728,.T.);
#163755=CARTESIAN_POINT('Axis2P3D Location',(9365.813669148549,-2423.130869456375,1546.699689323702));
#163756=DIRECTION('Axis2P3D Direction',(0.0621272362159651,0.3379047872563284,0.9391275532479181));
#163757=DIRECTION('Axis2P3D XDirection',(-0.6570647452276654,0.72211910358237,-0.2163560048168243));
#163758=AXIS2_PLACEMENT_3D('Cylinder Axis2P3D',#163755,#163756,#163757);
#163759=CYLINDRICAL_SURFACE('generated cylinder',#163758,12.);
#163760=CARTESIAN_POINT('Axis2P3D Location',(9366.004772530187,-2422.091474333071,1549.588445673593));
#163761=DIRECTION('Axis2P3D Direction',(0.0621272362159651,0.3379047872563284,0.9391275532479181));
#163762=AXIS2_PLACEMENT_3D('Circle Axis2P3D',#163760,#163761,$);
#163763=CIRCLE('generated circle',#163762,12.);
#163764=CARTESIAN_POINT('Vertex',(9377.981591378702,-2422.34372962681,1548.886892005288));
#163765=VERTEX_POINT('',#163764);
#163766=EDGE_CURVE('',#163765,#163734,#163763,.F.);
#163767=CARTESIAN_POINT('Axis2P3D Location',(9365.813669148549,-2423.130869456375,1546.699689323702));
#163768=DIRECTION('Axis2P3D Direction',(0.0621272362159651,0.3379047872563284,0.9391275532479181));
#163769=AXIS2_PLACEMENT_3D('Circle Axis2P3D',#163767,#163768,$);
#163770=CIRCLE('generated circle',#163769,12.);
#163771=CARTESIAN_POINT('Vertex',(9377.790487997061,-2423.383124750116,1545.998135645397));
#163772=VERTEX_POINT('',#163771);
#163773=EDGE_CURVE('',#163772,#163741,#163770,.F.);
#163774=CARTESIAN_POINT('Line Origine',(9377.886039687884,-2422.863427188463,1547.442513825343));
#163775=DIRECTION('Vector Direction',(0.06212723621606471,0.3379047872563263,0.9391275532479122));
#163776=VECTOR('Line Direction',#163775,1.);
#163777=LINE('Line',#163774,#163776);
#163778=EDGE_CURVE('',#163772,#163765,#163777,.T.);
#163779=EDGE_LOOP('',(#163780,#163781,#163782,#163783));
#163780=ORIENTED_EDGE('',*,*,#163766,.T.);
#163781=ORIENTED_EDGE('',*,*,#163747,.F.);
#163782=ORIENTED_EDGE('',*,*,#163773,.F.);
#163783=ORIENTED_EDGE('',*,*,#163778,.T.);
#163784=FACE_OUTER_BOUND('',#163779,.T.);
#163785=ADVANCED_FACE('PartBody',(#163784),#163759,.T.);
#163786=CARTESIAN_POINT('Axis2P3D Location',(9377.790318711608,-2411.31926140118,1541.657482831738));
#163787=DIRECTION('Axis2P3D Direction',(0.9980682373193838,-0.0210212746284871,-0.05846280584416227));
#163788=DIRECTION('Axis2P3D XDirection',(0.06212723621597436,0.3379047872503788,0.9391275532500581));
#163789=AXIS2_PLACEMENT_3D('Plane Axis2P3D',#163786,#163787,#163788);
#163790=PLANE('',#163789);
#163791=CARTESIAN_POINT('Line Origine',(9377.981422093248,-2410.279866267876,1544.546239181628));
#163792=DIRECTION('Vector Direction',(1.320376315748081e-05,-0.9409455142365769,0.3385580290935733));
#163793=VECTOR('Line Direction',#163792,1.);
#163794=LINE('Line',#163791,#163793);
#163795=CARTESIAN_POINT('Vertex',(9377.981252807791,-2398.216002908941,1540.205586357967));
#163796=VERTEX_POINT('',#163795);
#163797=EDGE_CURVE('',#163796,#163765,#163794,.T.);
#163798=CARTESIAN_POINT('Line Origine',(9377.790318711608,-2411.31926140118,1541.657482831738));
#163799=DIRECTION('Vector Direction',(1.320376322841869e-05,-0.9409455142365769,0.3385580290935733));
#163800=VECTOR('Line Direction',#163799,1.);
#163801=LINE('Line',#163798,#163800);
#163802=CARTESIAN_POINT('Vertex',(9377.790149426151,-2399.255398042245,1537.316830008077));
#163803=VERTEX_POINT('',#163802);
#163804=EDGE_CURVE('',#163803,#163772,#163801,.T.);
#163805=CARTESIAN_POINT('Line Origine',(9377.885701116973,-2398.735700470595,1538.761208178021));
#163806=DIRECTION('Vector Direction',(0.06212723621626393,0.3379047872563222,0.9391275532479005));
#163807=VECTOR('Line Direction',#163806,1.);
#163808=LINE('Line',#163805,#163807);
#163809=EDGE_CURVE('',#163803,#163796,#163808,.T.);
#163810=EDGE_LOOP('',(#163811,#163812,#163813,#163814));
#163811=ORIENTED_EDGE('',*,*,#163797,.T.);
#163812=ORIENTED_EDGE('',*,*,#163778,.F.);
#163813=ORIENTED_EDGE('',*,*,#163804,.F.);
#163814=ORIENTED_EDGE('',*,*,#163809,.T.);
#163815=FACE_OUTER_BOUND('',#163810,.T.);
#163816=ADVANCED_FACE('PartBody',(#163815),#163790,.T.);
#163817=CARTESIAN_POINT('Axis2P3D Location',(9366.269989055736,-2385.747187369969,1536.493966991361));
#163818=DIRECTION('Axis2P3D Direction',(0.0621272362159651,0.3379047872563284,0.9391275532479181));
#163819=DIRECTION('Axis2P3D XDirection',(0.5320529205572463,0.7848863602281809,-0.3176052443746217));
#163820=AXIS2_PLACEMENT_3D('Plane Axis2P3D',#163817,#163818,#163819);
#163821=PLANE('',#163820);
#163822=B_SPLINE_CURVE_WITH_KNOTS('',5,(#163823,#163824,#163825,#163826,#163827,#163828),.UNSPECIFIED.,.F.,.U.,(6,6),(5.06027900698,19.1974459465),.UNSPECIFIED.);
#163823=CARTESIAN_POINT('Control Point',(9386.963748110315,-2389.936684762177,1536.632398842387));
#163824=CARTESIAN_POINT('Control Point',(9384.141776644856,-2389.877248501045,1536.797698531425));
#163825=CARTESIAN_POINT('Control Point',(9381.317186893759,-2390.859510546331,1537.337981907769));
#163826=CARTESIAN_POINT('Control Point',(9379.086174413958,-2392.915872548193,1538.225466463507));
#163827=CARTESIAN_POINT('Control Point',(9377.981215475031,-2395.555542152832,1539.248336080841));
#163828=CARTESIAN_POINT('Control Point',(9377.981252807791,-2398.216002918942,1540.205586357969));
#163829=CARTESIAN_POINT('Vertex',(9386.963748110315,-2389.936684762177,1536.632398842387));
#163830=VERTEX_POINT('',#163829);
#163831=EDGE_CURVE('',#163830,#163796,#163822,.T.);
#163832=B_SPLINE_CURVE_WITH_KNOTS('',1,(#163833,#163834),.UNSPECIFIED.,.F.,.U.,(2,2),(-1.82830712978,1.82830712978),.UNSPECIFIED.);
#163833=CARTESIAN_POINT('Control Point',(9390.61329865583,-2390.013551446926,1536.41862291705));
#163834=CARTESIAN_POINT('Control Point',(9386.963748110315,-2389.936684752177,1536.632398842385));
#163835=CARTESIAN_POINT('Vertex',(9390.61329865583,-2390.013551446926,1536.41862291705));
#163836=VERTEX_POINT('',#163835);
#163837=EDGE_CURVE('',#163836,#163830,#163832,.T.);
#163838=B_SPLINE_CURVE_WITH_KNOTS('',1,(#163839,#163840),.UNSPECIFIED.,.F.,.U.,(2,2),(-14.8539276547,31.212139467),.UNSPECIFIED.);
#163839=CARTESIAN_POINT('Control Point',(9390.61329865583,-2390.013551446926,1536.41862291705));
#163840=CARTESIAN_POINT('Control Point',(9390.612690410406,-2346.667892228833,1520.822586026779));
#163841=EDGE_CURVE('',#163836,#163455,#163838,.T.);
#163842=EDGE_LOOP('',(#163843,#163844,#163845,#163846,#163847,#163848,#163849,#163850,#163851,#163852,#163853,#163854,#163855,#163856));
#163843=ORIENTED_EDGE('',*,*,#163499,.T.);
#163844=ORIENTED_EDGE('',*,*,#163518,.F.);
#163845=ORIENTED_EDGE('',*,*,#163549,.F.);
#163846=ORIENTED_EDGE('',*,*,#163580,.F.);
#163847=ORIENTED_EDGE('',*,*,#163611,.F.);
#163848=ORIENTED_EDGE('',*,*,#163642,.F.);
#163849=ORIENTED_EDGE('',*,*,#163673,.F.);
#163850=ORIENTED_EDGE('',*,*,#163704,.F.);
#163851=ORIENTED_EDGE('',*,*,#163735,.F.);
#163852=ORIENTED_EDGE('',*,*,#163766,.F.);
#163853=ORIENTED_EDGE('',*,*,#163797,.F.);
#163854=ORIENTED_EDGE('',*,*,#163831,.F.);
#163855=ORIENTED_EDGE('',*,*,#163837,.F.);
#163856=ORIENTED_EDGE('',*,*,#163841,.T.);
#163857=FACE_OUTER_BOUND('',#163842,.T.);
#163858=ADVANCED_FACE('PartBody',(#163857),#163821,.T.);
#163859=CARTESIAN_POINT('Axis2P3D Location',(9390.923738708196,-2374.34729091747,1536.085344207646));
#163860=DIRECTION('Axis2P3D Direction',(-1.320376280203504e-05,0.9409455142365769,-0.3385580290935733));
#163861=DIRECTION('Axis2P3D XDirection',(-0.6847759260049454,0.2467169031002894,0.6857205705596645));
#163862=AXIS2_PLACEMENT_3D('Cylinder Axis2P3D',#163859,#163860,#163861);
#163863=CYLINDRICAL_SURFACE('generated cylinder',#163862,5.);
#163864=CARTESIAN_POINT('Axis2P3D Location',(9390.923934835933,-2388.32402751322,1541.114260679331));
#163865=DIRECTION('Axis2P3D Direction',(-1.320376280203504e-05,0.9409455142365769,-0.3385580290935733));
#163866=AXIS2_PLACEMENT_3D('Circle Axis2P3D',#163864,#163865,$);
#163867=CIRCLE('generated circle',#163866,5.);
#163868=EDGE_CURVE('',#163836,#163250,#163867,.F.);
#163869=EDGE_LOOP('',(#163870,#163871,#163872,#163873));
#163870=ORIENTED_EDGE('',*,*,#163456,.F.);
#163871=ORIENTED_EDGE('',*,*,#163841,.F.);
#163872=ORIENTED_EDGE('',*,*,#163868,.T.);
#163873=ORIENTED_EDGE('',*,*,#163368,.T.);
#163874=FACE_OUTER_BOUND('',#163869,.T.);
#163875=ADVANCED_FACE('PartBody',(#163874),#163863,.F.);
#163876=CARTESIAN_POINT('Axis2P3D Location',(9384.706499281065,-2390.069083919538,1536.264513340518));
#163877=DIRECTION('Axis2P3D Direction',(1.32037628020281e-05,-0.9409455142365769,0.3385580290935733));
#163878=DIRECTION('Axis2P3D XDirection',(0.9980682373193811,-0.02102127462888702,-0.05846280584406204));
#163879=AXIS2_PLACEMENT_3D('Plane Axis2P3D',#163876,#163877,#163878);
#163880=PLANE('',#163879);
#163881=CARTESIAN_POINT('Line Origine',(9390.517746965006,-2390.533249008579,1534.974244737104));
#163882=DIRECTION('Vector Direction',(-0.06212723621626393,-0.3379047872563222,-0.9391275532479005));
#163883=VECTOR('Line Direction',#163882,1.);
#163884=LINE('Line',#163881,#163883);
#163885=CARTESIAN_POINT('Vertex',(9390.422195274188,-2391.052946570232,1533.529866557159));
#163886=VERTEX_POINT('',#163885);
#163887=EDGE_CURVE('',#163886,#163836,#163884,.F.);
#163888=CARTESIAN_POINT('Axis2P3D Location',(9390.923934835933,-2388.32402751322,1541.114260679331));
#163889=DIRECTION('Axis2P3D Direction',(1.32037628020281e-05,-0.9409455142365769,0.3385580290935733));
#163890=AXIS2_PLACEMENT_3D('Circle Axis2P3D',#163888,#163889,$);
#163891=CIRCLE('generated circle',#163890,8.076);
#163892=EDGE_CURVE('',#163886,#163252,#163891,.T.);
#163893=EDGE_LOOP('',(#163894,#163895,#163896,#163897));
#163894=ORIENTED_EDGE('',*,*,#163887,.F.);
#163895=ORIENTED_EDGE('',*,*,#163892,.T.);
#163896=ORIENTED_EDGE('',*,*,#163253,.F.);
#163897=ORIENTED_EDGE('',*,*,#163868,.F.);
#163898=FACE_OUTER_BOUND('',#163893,.T.);
#163899=ADVANCED_FACE('PartBody',(#163898),#163880,.T.);
#163900=CARTESIAN_POINT('Axis2P3D Location',(9390.923738708196,-2374.34729091747,1536.085344207646));
#163901=DIRECTION('Axis2P3D Direction',(-1.320376280203504e-05,0.9409455142365769,-0.3385580290935733));
#163902=DIRECTION('Axis2P3D XDirection',(0.9999999992395,1.467784824587128e-14,-3.899999894709855e-05));
#163903=AXIS2_PLACEMENT_3D('Cylinder Axis2P3D',#163900,#163901,#163902);
#163904=CYLINDRICAL_SURFACE('generated cylinder',#163903,8.076);
#163905=CARTESIAN_POINT('Line Origine',(9390.421999146451,-2377.07620997448,1528.500950095474));
#163906=DIRECTION('Vector Direction',(-1.320376280279138e-05,0.9409455142365769,-0.3385580290935733));
#163907=VECTOR('Line Direction',#163906,1.);
#163908=LINE('Line',#163905,#163907);
#163909=EDGE_CURVE('',#163886,#163462,#163908,.T.);
#163910=EDGE_LOOP('',(#163911,#163912,#163913,#163914));
#163911=ORIENTED_EDGE('',*,*,#163413,.F.);
#163912=ORIENTED_EDGE('',*,*,#163892,.F.);
#163913=ORIENTED_EDGE('',*,*,#163909,.T.);
#163914=ORIENTED_EDGE('',*,*,#163463,.T.);
#163915=FACE_OUTER_BOUND('',#163910,.T.);
#163916=ADVANCED_FACE('PartBody',(#163915),#163904,.T.);
#163917=CARTESIAN_POINT('Axis2P3D Location',(9366.078885684095,-2386.786582493273,1533.605210641469));
#163918=DIRECTION('Axis2P3D Direction',(0.0621272362159651,0.3379047872563284,0.9391275532479181));
#163919=DIRECTION('Axis2P3D XDirection',(0.5320529205572463,0.7848863602281809,-0.3176052443746217));
#163920=AXIS2_PLACEMENT_3D('Plane Axis2P3D',#163917,#163918,#163919);
#163921=PLANE('',#163920);
#163922=CARTESIAN_POINT('Line Origine',(9388.597420001432,-2391.014513227856,1533.636754524827));
#163923=DIRECTION('Vector Direction',(-0.9980682373193791,0.02102127462898698,0.0584628058440619));
#163924=VECTOR('Line Direction',#163923,1.);
#163925=LINE('Line',#163922,#163924);
#163926=CARTESIAN_POINT('Vertex',(9386.772644728675,-2390.976079885482,1533.743642492496));
#163927=VERTEX_POINT('',#163926);
#163928=EDGE_CURVE('',#163886,#163927,#163925,.T.);
#163929=CARTESIAN_POINT('Axis2P3D Location',(9386.772763562542,-2399.44458951755,1536.79066475435));
#163930=DIRECTION('Axis2P3D Direction',(0.0621272362159651,0.3379047872563284,0.9391275532479181));
#163931=AXIS2_PLACEMENT_3D('Circle Axis2P3D',#163929,#163930,$);
#163932=CIRCLE('generated circle',#163931,9.);
#163933=EDGE_CURVE('',#163927,#163803,#163932,.T.);
#163934=EDGE_LOOP('',(#163935,#163936,#163937,#163938,#163939,#163940,#163941,#163942,#163943,#163944,#163945,#163946,#163947,#163948));
#163935=ORIENTED_EDGE('',*,*,#163909,.F.);
#163936=ORIENTED_EDGE('',*,*,#163928,.T.);
#163937=ORIENTED_EDGE('',*,*,#163933,.T.);
#163938=ORIENTED_EDGE('',*,*,#163804,.T.);
#163939=ORIENTED_EDGE('',*,*,#163773,.T.);
#163940=ORIENTED_EDGE('',*,*,#163742,.T.);
#163941=ORIENTED_EDGE('',*,*,#163711,.T.);
#163942=ORIENTED_EDGE('',*,*,#163680,.T.);
#163943=ORIENTED_EDGE('',*,*,#163649,.T.);
#163944=ORIENTED_EDGE('',*,*,#163618,.T.);
#163945=ORIENTED_EDGE('',*,*,#163587,.T.);
#163946=ORIENTED_EDGE('',*,*,#163556,.T.);
#163947=ORIENTED_EDGE('',*,*,#163525,.T.);
#163948=ORIENTED_EDGE('',*,*,#163487,.F.);
#163949=FACE_OUTER_BOUND('',#163934,.T.);
#163950=ADVANCED_FACE('PartBody',(#163949),#163921,.F.);
#163951=CARTESIAN_POINT('Axis2P3D Location',(9386.772763562542,-2399.44458951755,1536.79066475435));
#163952=DIRECTION('Axis2P3D Direction',(0.0621272362159651,0.3379047872563284,0.9391275532479181));
#163953=DIRECTION('Axis2P3D XDirection',(0.705750155165728,-0.6802132396830358,0.1980572317373426));
#163954=AXIS2_PLACEMENT_3D('Cylinder Axis2P3D',#163951,#163952,#163953);
#163955=CYLINDRICAL_SURFACE('generated cylinder',#163954,9.);
#163956=CARTESIAN_POINT('Line Origine',(9386.868196419495,-2390.456382323829,1535.188020672442));
#163957=DIRECTION('Vector Direction',(0.06212723621606471,0.3379047872563263,0.9391275532479122));
#163958=VECTOR('Line Direction',#163957,1.);
#163959=LINE('Line',#163956,#163958);
#163960=EDGE_CURVE('',#163927,#163830,#163959,.T.);
#163961=EDGE_LOOP('',(#163962,#163963,#163964,#163965));
#163962=ORIENTED_EDGE('',*,*,#163831,.T.);
#163963=ORIENTED_EDGE('',*,*,#163809,.F.);
#163964=ORIENTED_EDGE('',*,*,#163933,.F.);
#163965=ORIENTED_EDGE('',*,*,#163960,.T.);
#163966=FACE_OUTER_BOUND('',#163961,.T.);
#163967=ADVANCED_FACE('PartBody',(#163966),#163955,.F.);
#163968=CARTESIAN_POINT('Axis2P3D Location',(9388.597420001432,-2391.014513227856,1533.636754524827));
#163969=DIRECTION('Axis2P3D Direction',(1.320376279385755e-05,-0.9409455142365769,0.3385580290935733));
#163970=DIRECTION('Axis2P3D XDirection',(0.9999999992395,-8.406253904362165e-15,-3.899999898710586e-05));
#163971=AXIS2_PLACEMENT_3D('Plane Axis2P3D',#163968,#163969,#163970);
#163972=PLANE('',#163971);
#163973=EDGE_LOOP('',(#163974,#163975,#163976,#163977));
#163974=ORIENTED_EDGE('',*,*,#163837,.T.);
#163975=ORIENTED_EDGE('',*,*,#163960,.F.);
#163976=ORIENTED_EDGE('',*,*,#163928,.F.);
#163977=ORIENTED_EDGE('',*,*,#163887,.T.);
#163978=FACE_OUTER_BOUND('',#163973,.T.);
#163979=ADVANCED_FACE('PartBody',(#163978),#163972,.T.);
#163980=ADVANCED_BREP_SHAPE_REPRESENTATION('NONE',(#163237),#162983);

#163981=APPLICATION_CONTEXT('automotive_design');
#163982=APPLICATION_PROTOCOL_DEFINITION('international standard','automotive_design',2010,#163981);
#163983=PRODUCT_CONTEXT('',#163981,'mechanical');
#163984=PRODUCT_DEFINITION_CONTEXT('part definition',#163981,'design');
#163985=PRODUCT('part_037_V5311445120000','part_037_V5311445120000','',(#163983));
#163986=PRODUCT_DEFINITION_FORMATION('','',#163985);
#163987=PRODUCT_DEFINITION('design','',#163986,#163984);
#163988=PRODUCT_DEFINITION_SHAPE('','',#163987);
#163989=SHAPE_DEFINITION_REPRESENTATION(#163988,#163980);
ENDSEC;
END-ISO-10303-21;
