ISO-10303-21;
HEADER;
FILE_DESCRIPTION(('CATIA V5 STEP Exchange','CAx-IF Rec.Pracs.--- Model Styling and Organization---1.4--- 2014-01-23'),'2;1');

FILE_NAME('C:\\Users\\SA516207\\WORK\\01_ASSY\\3_Catia\\ECHELLE\\ECHELLE.stp','2026-09-22T12:18:05+00:00',('none'),('none'),'CATIA Version 5-6 Release 2017 SP2 HF26','CATIA V5 STEP AP203 WITH EXTENSIONS','none');

FILE_SCHEMA(('CONFIG_CONTROL_DESIGN','SHAPE_APPEARANCE_LAYER_MIM'));

ENDSEC;
DATA;
#46=(LENGTH_UNIT()NAMED_UNIT(*)SI_UNIT(.MILLI.,.METRE.));
#47=(NAMED_UNIT(*)PLANE_ANGLE_UNIT()SI_UNIT($,.RADIAN.));
#48=(NAMED_UNIT(*)SI_UNIT($,.STERADIAN.)SOLID_ANGLE_UNIT());
#165021=UNCERTAINTY_MEASURE_WITH_UNIT(LENGTH_MEASURE(0.005),#46,'distance_accuracy_value','CONFUSED CURVE UNCERTAINTY');
#165022=(GEOMETRIC_REPRESENTATION_CONTEXT(3)GLOBAL_UNCERTAINTY_ASSIGNED_CONTEXT((#165021))GLOBAL_UNIT_ASSIGNED_CONTEXT((#46,#47,#48))REPRESENTATION_CONTEXT(' ',' '));
#165276=MANIFOLD_SOLID_BREP('PartBody',#165278);
#165278=CLOSED_SHELL('Closed Shell',(#165318,#165349,#165380,#165416,#165440,#165466,#165483,#165514,#165545,#165576,#165607,#165638,#165669,#165700,#165731,#165762,#165793,#165824,#165855,#165897,#165914,#165938,#165955,#165989,#166006,#166018));
#165279=CARTESIAN_POINT('Axis2P3D Location',(9399,-2625.88459685,886.2752502439999));
#165280=DIRECTION('Axis2P3D Direction',(0,0.9619869615497552,-0.2730953785919305));
#165281=DIRECTION('Axis2P3D XDirection',(1,0,0));
#165282=AXIS2_PLACEMENT_3D('Plane Axis2P3D',#165279,#165280,#165281);
#165283=PLANE('',#165282);
#165284=CARTESIAN_POINT('Line Origine',(9397.646000000001,-2627.11397156,881.944739601));
#165285=DIRECTION('Vector Direction',(-1,0,0));
#165286=VECTOR('Line Direction',#165285,1.);
#165287=LINE('Line',#165284,#165286);
#165288=CARTESIAN_POINT('Vertex',(9396.291999999999,-2627.11397156,881.944739601));
#165289=VERTEX_POINT('',#165288);
#165290=CARTESIAN_POINT('Vertex',(9399,-2627.11397156,881.944739601));
#165291=VERTEX_POINT('',#165290);
#165292=EDGE_CURVE('',#165289,#165291,#165287,.F.);
#165293=CARTESIAN_POINT('Line Origine',(9399,-2625.88459685,886.2752502439999));
#165294=DIRECTION('Vector Direction',(0,0.2730953785919305,0.9619869615497552));
#165295=VECTOR('Line Direction',#165294,1.);
#165296=LINE('Line',#165293,#165295);
#165297=CARTESIAN_POINT('Vertex',(9399,-2624.65522213,890.605760886));
#165298=VERTEX_POINT('',#165297);
#165299=EDGE_CURVE('',#165291,#165298,#165296,.T.);
#165300=CARTESIAN_POINT('Line Origine',(9397.646000000001,-2624.65522213,890.605760886));
#165301=DIRECTION('Vector Direction',(-1,0,0));
#165302=VECTOR('Line Direction',#165301,1.);
#165303=LINE('Line',#165300,#165302);
#165304=CARTESIAN_POINT('Vertex',(9396.291999999999,-2624.65522213,890.605760886));
#165305=VERTEX_POINT('',#165304);
#165306=EDGE_CURVE('',#165298,#165305,#165303,.T.);
#165307=CARTESIAN_POINT('Line Origine',(9396.291999999999,-2625.88459685,886.2752502439999));
#165308=DIRECTION('Vector Direction',(0,0.2730953785919305,0.9619869615497552));
#165309=VECTOR('Line Direction',#165308,1.);
#165310=LINE('Line',#165307,#165309);
#165311=EDGE_CURVE('',#165289,#165305,#165310,.T.);
#165312=EDGE_LOOP('',(#165313,#165314,#165315,#165316));
#165313=ORIENTED_EDGE('',*,*,#165292,.T.);
#165314=ORIENTED_EDGE('',*,*,#165299,.T.);
#165315=ORIENTED_EDGE('',*,*,#165306,.T.);
#165316=ORIENTED_EDGE('',*,*,#165311,.F.);
#165317=FACE_OUTER_BOUND('',#165312,.T.);
#165318=ADVANCED_FACE('PartBody',(#165317),#165283,.F.);
#165319=CARTESIAN_POINT('Axis2P3D Location',(9399,-2613.11137859,887.328616343));
#165320=DIRECTION('Axis2P3D Direction',(-1,0,0));
#165321=DIRECTION('Axis2P3D XDirection',(0,0.4871199098119284,-0.8733350980378717));
#165322=AXIS2_PLACEMENT_3D('Cylinder Axis2P3D',#165319,#165320,#165321);
#165323=CYLINDRICAL_SURFACE('generated cylinder',#165322,12.);
#165324=CARTESIAN_POINT('Axis2P3D Location',(9396.291999999999,-2613.11137859,887.328616343));
#165325=DIRECTION('Axis2P3D Direction',(-1,0,0));
#165326=AXIS2_PLACEMENT_3D('Circle Axis2P3D',#165324,#165325,$);
#165327=CIRCLE('generated circle',#165326,12.);
#165328=CARTESIAN_POINT('Vertex',(9396.291999999999,-2609.83423405,898.872459882));
#165329=VERTEX_POINT('',#165328);
#165330=EDGE_CURVE('',#165329,#165305,#165327,.F.);
#165331=CARTESIAN_POINT('Axis2P3D Location',(9399,-2613.11137859,887.328616343));
#165332=DIRECTION('Axis2P3D Direction',(-1,0,0));
#165333=AXIS2_PLACEMENT_3D('Circle Axis2P3D',#165331,#165332,$);
#165334=CIRCLE('generated circle',#165333,12.);
#165335=CARTESIAN_POINT('Vertex',(9399,-2609.83423405,898.872459882));
#165336=VERTEX_POINT('',#165335);
#165337=EDGE_CURVE('',#165336,#165298,#165334,.F.);
#165338=CARTESIAN_POINT('Line Origine',(9397.646000000001,-2609.83423405,898.872459882));
#165339=DIRECTION('Vector Direction',(-1,0,0));
#165340=VECTOR('Line Direction',#165339,1.);
#165341=LINE('Line',#165338,#165340);
#165342=EDGE_CURVE('',#165336,#165329,#165341,.T.);
#165343=EDGE_LOOP('',(#165344,#165345,#165346,#165347));
#165344=ORIENTED_EDGE('',*,*,#165330,.T.);
#165345=ORIENTED_EDGE('',*,*,#165306,.F.);
#165346=ORIENTED_EDGE('',*,*,#165337,.F.);
#165347=ORIENTED_EDGE('',*,*,#165342,.T.);
#165348=FACE_OUTER_BOUND('',#165343,.T.);
#165349=ADVANCED_FACE('PartBody',(#165348),#165323,.T.);
#165350=CARTESIAN_POINT('Axis2P3D Location',(9399,-2598.72322122,895.718190253));
#165351=DIRECTION('Axis2P3D Direction',(0,0.2730953785919305,0.9619869615497552));
#165352=DIRECTION('Axis2P3D XDirection',(1,0,0));
#165353=AXIS2_PLACEMENT_3D('Plane Axis2P3D',#165350,#165351,#165352);
#165354=PLANE('',#165353);
#165355=CARTESIAN_POINT('Line Origine',(9396.291999999999,-2598.72322122,895.718190253));
#165356=DIRECTION('Vector Direction',(0,-0.9619869615497552,0.2730953785919305));
#165357=VECTOR('Line Direction',#165356,1.);
#165358=LINE('Line',#165355,#165357);
#165359=CARTESIAN_POINT('Vertex',(9396.291999999999,-2587.61220839,892.563920625));
#165360=VERTEX_POINT('',#165359);
#165361=EDGE_CURVE('',#165360,#165329,#165358,.T.);
#165362=CARTESIAN_POINT('Line Origine',(9399,-2598.72322122,895.718190253));
#165363=DIRECTION('Vector Direction',(0,-0.9619869615497552,0.2730953785919305));
#165364=VECTOR('Line Direction',#165363,1.);
#165365=LINE('Line',#165362,#165364);
#165366=CARTESIAN_POINT('Vertex',(9399,-2587.61220839,892.563920625));
#165367=VERTEX_POINT('',#165366);
#165368=EDGE_CURVE('',#165367,#165336,#165365,.T.);
#165369=CARTESIAN_POINT('Line Origine',(9397.646000000001,-2587.61220839,892.563920625));
#165370=DIRECTION('Vector Direction',(-1,0,0));
#165371=VECTOR('Line Direction',#165370,1.);
#165372=LINE('Line',#165369,#165371);
#165373=EDGE_CURVE('',#165367,#165360,#165372,.T.);
#165374=EDGE_LOOP('',(#165375,#165376,#165377,#165378));
#165375=ORIENTED_EDGE('',*,*,#165361,.T.);
#165376=ORIENTED_EDGE('',*,*,#165342,.F.);
#165377=ORIENTED_EDGE('',*,*,#165368,.F.);
#165378=ORIENTED_EDGE('',*,*,#165373,.T.);
#165379=FACE_OUTER_BOUND('',#165374,.T.);
#165380=ADVANCED_FACE('PartBody',(#165379),#165354,.T.);
#165381=CARTESIAN_POINT('Axis2P3D Location',(9396.291999999999,-2603.60778295,878.512169696));
#165382=DIRECTION('Axis2P3D Direction',(-1,0,0));
#165383=DIRECTION('Axis2P3D XDirection',(0,0.9619869615497552,-0.2730953785919305));
#165384=AXIS2_PLACEMENT_3D('Plane Axis2P3D',#165381,#165382,#165383);
#165385=PLANE('',#165384);
#165386=B_SPLINE_CURVE_WITH_KNOTS('',5,(#165387,#165388,#165389,#165390,#165391,#165392),.UNSPECIFIED.,.F.,.U.,(6,6),(56.5486677646,75.3982236862),.UNSPECIFIED.);
#165387=CARTESIAN_POINT('Control Point',(9396.291999999999,-2587.61220839,892.563920625));
#165388=CARTESIAN_POINT('Control Point',(9396.291999999999,-2583.98560298,891.534375303));
#165389=CARTESIAN_POINT('Control Point',(9396.291999999999,-2580.75875188,889.083803449));
#165390=CARTESIAN_POINT('Control Point',(9396.291999999999,-2578.70552414,885.40266495));
#165391=CARTESIAN_POINT('Control Point',(9396.291999999999,-2578.31596407,881.369537949));
#165392=CARTESIAN_POINT('Control Point',(9396.291999999999,-2579.34550939,877.7429325430001));
#165393=CARTESIAN_POINT('Vertex',(9396.291999999999,-2579.34550939,877.7429325430001));
#165394=VERTEX_POINT('',#165393);
#165395=EDGE_CURVE('',#165394,#165360,#165386,.F.);
#165396=CARTESIAN_POINT('Line Origine',(9396.291999999999,-2578.93631183,879.18434367));
#165397=DIRECTION('Vector Direction',(0,-0.2730953785919305,-0.9619869615497552));
#165398=VECTOR('Line Direction',#165397,1.);
#165399=LINE('Line',#165396,#165398);
#165400=CARTESIAN_POINT('Vertex',(9396.291999999999,-2581.80425882,869.081911258));
#165401=VERTEX_POINT('',#165400);
#165402=EDGE_CURVE('',#165401,#165394,#165399,.F.);
#165403=CARTESIAN_POINT('Line Origine',(9396.291999999999,-2604.45911519,875.51332543));
#165404=DIRECTION('Vector Direction',(0,0.9619869615497552,-0.2730953785919305));
#165405=VECTOR('Line Direction',#165404,1.);
#165406=LINE('Line',#165403,#165405);
#165407=EDGE_CURVE('',#165289,#165401,#165406,.T.);
#165408=EDGE_LOOP('',(#165409,#165410,#165411,#165412,#165413,#165414));
#165409=ORIENTED_EDGE('',*,*,#165311,.T.);
#165410=ORIENTED_EDGE('',*,*,#165330,.F.);
#165411=ORIENTED_EDGE('',*,*,#165361,.F.);
#165412=ORIENTED_EDGE('',*,*,#165395,.F.);
#165413=ORIENTED_EDGE('',*,*,#165402,.F.);
#165414=ORIENTED_EDGE('',*,*,#165407,.F.);
#165415=FACE_OUTER_BOUND('',#165408,.T.);
#165416=ADVANCED_FACE('PartBody',(#165415),#165385,.T.);
#165417=CARTESIAN_POINT('Axis2P3D Location',(9399,-2590.88935293,881.020077086));
#165418=DIRECTION('Axis2P3D Direction',(-1,0,0));
#165419=DIRECTION('Axis2P3D XDirection',(-0,-0.8733350980378717,-0.4871199098119284));
#165420=AXIS2_PLACEMENT_3D('Cylinder Axis2P3D',#165417,#165418,#165419);
#165421=CYLINDRICAL_SURFACE('generated cylinder',#165420,12.);
#165422=CARTESIAN_POINT('Axis2P3D Location',(9399,-2590.88935293,881.020077086));
#165423=DIRECTION('Axis2P3D Direction',(-1,0,0));
#165424=AXIS2_PLACEMENT_3D('Circle Axis2P3D',#165422,#165423,$);
#165425=CIRCLE('generated circle',#165424,12.);
#165426=CARTESIAN_POINT('Vertex',(9399,-2579.34550939,877.7429325430001));
#165427=VERTEX_POINT('',#165426);
#165428=EDGE_CURVE('',#165427,#165367,#165425,.F.);
#165429=CARTESIAN_POINT('Line Origine',(9397.646000000001,-2579.34550939,877.7429325430001));
#165430=DIRECTION('Vector Direction',(-1,0,0));
#165431=VECTOR('Line Direction',#165430,1.);
#165432=LINE('Line',#165429,#165431);
#165433=EDGE_CURVE('',#165427,#165394,#165432,.T.);
#165434=EDGE_LOOP('',(#165435,#165436,#165437,#165438));
#165435=ORIENTED_EDGE('',*,*,#165395,.T.);
#165436=ORIENTED_EDGE('',*,*,#165373,.F.);
#165437=ORIENTED_EDGE('',*,*,#165428,.F.);
#165438=ORIENTED_EDGE('',*,*,#165433,.T.);
#165439=FACE_OUTER_BOUND('',#165434,.T.);
#165440=ADVANCED_FACE('PartBody',(#165439),#165421,.T.);
#165441=CARTESIAN_POINT('Axis2P3D Location',(9399,-2603.60778295,878.512169696));
#165442=DIRECTION('Axis2P3D Direction',(-1,0,0));
#165443=DIRECTION('Axis2P3D XDirection',(0,0.9619869615497552,-0.2730953785919305));
#165444=AXIS2_PLACEMENT_3D('Plane Axis2P3D',#165441,#165442,#165443);
#165445=PLANE('',#165444);
#165446=CARTESIAN_POINT('Line Origine',(9399,-2604.45911519,875.51332543));
#165447=DIRECTION('Vector Direction',(0,0.9619869615497552,-0.2730953785919305));
#165448=VECTOR('Line Direction',#165447,1.);
#165449=LINE('Line',#165446,#165448);
#165450=CARTESIAN_POINT('Vertex',(9399,-2581.80425882,869.081911258));
#165451=VERTEX_POINT('',#165450);
#165452=EDGE_CURVE('',#165291,#165451,#165449,.T.);
#165453=CARTESIAN_POINT('Line Origine',(9399,-2580.5748841,873.412421901));
#165454=DIRECTION('Vector Direction',(0,0.2730953785919305,0.9619869615497552));
#165455=VECTOR('Line Direction',#165454,1.);
#165456=LINE('Line',#165453,#165455);
#165457=EDGE_CURVE('',#165451,#165427,#165456,.T.);
#165458=EDGE_LOOP('',(#165459,#165460,#165461,#165462,#165463,#165464));
#165459=ORIENTED_EDGE('',*,*,#165452,.T.);
#165460=ORIENTED_EDGE('',*,*,#165457,.T.);
#165461=ORIENTED_EDGE('',*,*,#165428,.T.);
#165462=ORIENTED_EDGE('',*,*,#165368,.T.);
#165463=ORIENTED_EDGE('',*,*,#165337,.T.);
#165464=ORIENTED_EDGE('',*,*,#165299,.F.);
#165465=FACE_OUTER_BOUND('',#165458,.T.);
#165466=ADVANCED_FACE('PartBody',(#165465),#165445,.F.);
#165467=CARTESIAN_POINT('Axis2P3D Location',(9399,-2580.5748841,873.412421901));
#165468=DIRECTION('Axis2P3D Direction',(0,-0.9619869615497552,0.2730953785919305));
#165469=DIRECTION('Axis2P3D XDirection',(1,0,0));
#165470=AXIS2_PLACEMENT_3D('Plane Axis2P3D',#165467,#165468,#165469);
#165471=PLANE('',#165470);
#165472=CARTESIAN_POINT('Line Origine',(9397.646000000001,-2581.80425882,869.081911258));
#165473=DIRECTION('Vector Direction',(-1,0,0));
#165474=VECTOR('Line Direction',#165473,1.);
#165475=LINE('Line',#165472,#165474);
#165476=EDGE_CURVE('',#165451,#165401,#165475,.T.);
#165477=EDGE_LOOP('',(#165478,#165479,#165480,#165481));
#165478=ORIENTED_EDGE('',*,*,#165402,.T.);
#165479=ORIENTED_EDGE('',*,*,#165433,.F.);
#165480=ORIENTED_EDGE('',*,*,#165457,.F.);
#165481=ORIENTED_EDGE('',*,*,#165476,.T.);
#165482=FACE_OUTER_BOUND('',#165477,.T.);
#165483=ADVANCED_FACE('PartBody',(#165482),#165471,.F.);
#165484=CARTESIAN_POINT('Axis2P3D Location',(9385.44727402,-2583.17661247,864.247752837));
#165485=DIRECTION('Axis2P3D Direction',(3.862882236309017e-14,-0.9619869615497552,0.2730953785919305));
#165486=DIRECTION('Axis2P3D XDirection',(0.9987418027104923,-0.01369515876720675,-0.04824162253632378));
#165487=AXIS2_PLACEMENT_3D('Plane Axis2P3D',#165484,#165485,#165486);
#165488=PLANE('',#165487);
#165489=CARTESIAN_POINT('Axis2P3D Location',(9391.291999999999,-2581.80425882,869.081911258));
#165490=DIRECTION('Axis2P3D Direction',(3.862882236309017e-14,-0.9619869615497552,0.2730953785919305));
#165491=AXIS2_PLACEMENT_3D('Circle Axis2P3D',#165489,#165490,$);
#165492=CIRCLE('generated circle',#165491,5.);
#165493=CARTESIAN_POINT('Vertex',(9391.04126052,-2583.16801767,864.278028297));
#165494=VERTEX_POINT('',#165493);
#165495=EDGE_CURVE('',#165494,#165401,#165492,.T.);
#165496=CARTESIAN_POINT('Axis2P3D Location',(9391.291999999999,-2581.80425882,869.081911258));
#165497=DIRECTION('Axis2P3D Direction',(3.862882236309017e-14,-0.9619869615497552,0.2730953785919305));
#165498=AXIS2_PLACEMENT_3D('Circle Axis2P3D',#165496,#165497,$);
#165499=CIRCLE('generated circle',#165498,7.708);
#165500=CARTESIAN_POINT('Vertex',(9390.905460010001,-2583.90662946,861.676245286));
#165501=VERTEX_POINT('',#165500);
#165502=EDGE_CURVE('',#165501,#165451,#165499,.T.);
#165503=CARTESIAN_POINT('Line Origine',(9390.97336027,-2583.53732357,862.977136792));
#165504=DIRECTION('Vector Direction',(-0.050147896452207,-0.2727517707270381,-0.9607765921621342));
#165505=VECTOR('Line Direction',#165504,1.);
#165506=LINE('Line',#165503,#165505);
#165507=EDGE_CURVE('',#165494,#165501,#165506,.T.);
#165508=EDGE_LOOP('',(#165509,#165510,#165511,#165512));
#165509=ORIENTED_EDGE('',*,*,#165495,.T.);
#165510=ORIENTED_EDGE('',*,*,#165476,.F.);
#165511=ORIENTED_EDGE('',*,*,#165502,.F.);
#165512=ORIENTED_EDGE('',*,*,#165507,.F.);
#165513=FACE_OUTER_BOUND('',#165508,.T.);
#165514=ADVANCED_FACE('PartBody',(#165513),#165488,.F.);
#165515=CARTESIAN_POINT('Axis2P3D Location',(9387.462166490001,-2583.85941361,861.842564615));
#165516=DIRECTION('Axis2P3D Direction',(-6.188626000548424e-14,0.9619869615497552,-0.2730953785919305));
#165517=DIRECTION('Axis2P3D XDirection',(1,5.95337752243e-14,-1.69008516058e-14));
#165518=AXIS2_PLACEMENT_3D('Plane Axis2P3D',#165515,#165516,#165517);
#165519=PLANE('',#165518);
#165520=CARTESIAN_POINT('Line Origine',(9387.462166490001,-2583.85941361,861.842564615));
#165521=DIRECTION('Vector Direction',(-0.9987418027104874,0.01369515876720668,0.04824162253642354));
#165522=VECTOR('Line Direction',#165521,1.);
#165523=LINE('Line',#165520,#165522);
#165524=CARTESIAN_POINT('Vertex',(9384.018872959999,-2583.81219775,862.008883944));
#165525=VERTEX_POINT('',#165524);
#165526=EDGE_CURVE('',#165501,#165525,#165523,.T.);
#165527=CARTESIAN_POINT('Line Origine',(9384.08677321,-2583.44289185,863.30977545));
#165528=DIRECTION('Vector Direction',(0.050147896452207,0.2727517707270381,0.9607765921621342));
#165529=VECTOR('Line Direction',#165528,1.);
#165530=LINE('Line',#165527,#165529);
#165531=CARTESIAN_POINT('Vertex',(9384.15467346,-2583.07358595,864.610666956));
#165532=VERTEX_POINT('',#165531);
#165533=EDGE_CURVE('',#165525,#165532,#165530,.T.);
#165534=CARTESIAN_POINT('Line Origine',(9387.597966990001,-2583.12080181,864.444347626));
#165535=DIRECTION('Vector Direction',(-0.9987418027104813,0.0136951587673066,0.04824162253652325));
#165536=VECTOR('Line Direction',#165535,1.);
#165537=LINE('Line',#165534,#165536);
#165538=EDGE_CURVE('',#165494,#165532,#165537,.T.);
#165539=EDGE_LOOP('',(#165540,#165541,#165542,#165543));
#165540=ORIENTED_EDGE('',*,*,#165507,.T.);
#165541=ORIENTED_EDGE('',*,*,#165526,.T.);
#165542=ORIENTED_EDGE('',*,*,#165533,.T.);
#165543=ORIENTED_EDGE('',*,*,#165538,.F.);
#165544=FACE_OUTER_BOUND('',#165539,.T.);
#165545=ADVANCED_FACE('PartBody',(#165544),#165519,.T.);
#165546=CARTESIAN_POINT('Axis2P3D Location',(9384.018872959999,-2594.39405433,865.012933109));
#165547=DIRECTION('Axis2P3D Direction',(0.05014789645250626,0.272751770727034,0.9607765921621199));
#165548=DIRECTION('Axis2P3D XDirection',(0.1179939154389839,-0.9568678055488697,0.2654834055519639));
#165549=AXIS2_PLACEMENT_3D('Cylinder Axis2P3D',#165546,#165547,#165548);
#165550=CYLINDRICAL_SURFACE('generated cylinder',#165549,11.);
#165551=CARTESIAN_POINT('Axis2P3D Location',(9384.15467346,-2593.65544253,867.61471612));
#165552=DIRECTION('Axis2P3D Direction',(0.05014789645250626,0.272751770727034,0.9607765921621199));
#165553=AXIS2_PLACEMENT_3D('Circle Axis2P3D',#165551,#165552,$);
#165554=CIRCLE('generated circle',#165553,11.);
#165555=CARTESIAN_POINT('Vertex',(9381.576987099999,-2583.33363567,864.819034408));
#165556=VERTEX_POINT('',#165555);
#165557=EDGE_CURVE('',#165556,#165532,#165554,.F.);
#165558=CARTESIAN_POINT('Axis2P3D Location',(9384.018872959999,-2594.39405433,865.012933109));
#165559=DIRECTION('Axis2P3D Direction',(0.05014789645250626,0.272751770727034,0.9607765921621199));
#165560=AXIS2_PLACEMENT_3D('Circle Axis2P3D',#165558,#165559,$);
#165561=CIRCLE('generated circle',#165560,11.);
#165562=CARTESIAN_POINT('Vertex',(9381.441186599999,-2584.07224747,862.2172513960001));
#165563=VERTEX_POINT('',#165562);
#165564=EDGE_CURVE('',#165563,#165525,#165561,.F.);
#165565=CARTESIAN_POINT('Line Origine',(9381.509086849999,-2583.70294157,863.518142902));
#165566=DIRECTION('Vector Direction',(0.05014789645230676,0.2727517707270368,0.9607765921621294));
#165567=VECTOR('Line Direction',#165566,1.);
#165568=LINE('Line',#165565,#165567);
#165569=EDGE_CURVE('',#165563,#165556,#165568,.T.);
#165570=EDGE_LOOP('',(#165571,#165572,#165573,#165574));
#165571=ORIENTED_EDGE('',*,*,#165557,.T.);
#165572=ORIENTED_EDGE('',*,*,#165533,.F.);
#165573=ORIENTED_EDGE('',*,*,#165564,.F.);
#165574=ORIENTED_EDGE('',*,*,#165569,.T.);
#165575=FACE_OUTER_BOUND('',#165570,.T.);
#165576=ADVANCED_FACE('PartBody',(#165575),#165550,.T.);
#165577=CARTESIAN_POINT('Axis2P3D Location',(9375.8268341,-2585.30051716,862.858982998));
#165578=DIRECTION('Axis2P3D Direction',(-0.2343351239679951,0.9383460778269802,-0.2541528829299946));
#165579=DIRECTION('Axis2P3D XDirection',(0.972155877251782,0.2261853778979493,-0.06126275499828626));
#165580=AXIS2_PLACEMENT_3D('Plane Axis2P3D',#165577,#165578,#165579);
#165581=PLANE('',#165580);
#165582=CARTESIAN_POINT('Line Origine',(9375.962634609999,-2584.56190537,865.46076601));
#165583=DIRECTION('Vector Direction',(0.9708615957777879,0.2123984693739536,-0.1109714019529758));
#165584=VECTOR('Line Direction',#165583,1.);
#165585=LINE('Line',#165582,#165584);
#165586=CARTESIAN_POINT('Vertex',(9370.34828212,-2585.79017506,866.102497612));
#165587=VERTEX_POINT('',#165586);
#165588=EDGE_CURVE('',#165587,#165556,#165585,.T.);
#165589=CARTESIAN_POINT('Line Origine',(9375.8268341,-2585.30051716,862.858982998));
#165590=DIRECTION('Vector Direction',(0.9708615957777879,0.2123984693739536,-0.1109714019529758));
#165591=VECTOR('Line Direction',#165590,1.);
#165592=LINE('Line',#165589,#165591);
#165593=CARTESIAN_POINT('Vertex',(9370.212481619999,-2586.52878686,863.5007146));
#165594=VERTEX_POINT('',#165593);
#165595=EDGE_CURVE('',#165594,#165563,#165592,.T.);
#165596=CARTESIAN_POINT('Line Origine',(9370.28038186,-2586.15948096,864.801606106));
#165597=DIRECTION('Vector Direction',(0.050147896452207,0.2727517707270381,0.9607765921621342));
#165598=VECTOR('Line Direction',#165597,1.);
#165599=LINE('Line',#165596,#165598);
#165600=EDGE_CURVE('',#165594,#165587,#165599,.T.);
#165601=EDGE_LOOP('',(#165602,#165603,#165604,#165605));
#165602=ORIENTED_EDGE('',*,*,#165588,.T.);
#165603=ORIENTED_EDGE('',*,*,#165569,.F.);
#165604=ORIENTED_EDGE('',*,*,#165595,.F.);
#165605=ORIENTED_EDGE('',*,*,#165600,.T.);
#165606=FACE_OUTER_BOUND('',#165601,.T.);
#165607=ADVANCED_FACE('PartBody',(#165606),#165581,.T.);
#165608=CARTESIAN_POINT('Axis2P3D Location',(9377.242535339999,-2614.67916919,871.125301088));
#165609=DIRECTION('Axis2P3D Direction',(0.05014789645250626,0.272751770727034,0.9607765921621199));
#165610=DIRECTION('Axis2P3D XDirection',(0.4866058242560971,-0.8467564260991689,0.2149844800440429));
#165611=AXIS2_PLACEMENT_3D('Cylinder Axis2P3D',#165608,#165609,#165610);
#165612=CYLINDRICAL_SURFACE('generated cylinder',#165611,30.);
#165613=CARTESIAN_POINT('Axis2P3D Location',(9377.37833584,-2613.9405574,873.727084099));
#165614=DIRECTION('Axis2P3D Direction',(0.05014789645250626,0.272751770727034,0.9607765921621199));
#165615=AXIS2_PLACEMENT_3D('Circle Axis2P3D',#165613,#165614,$);
#165616=CIRCLE('generated circle',#165615,30.);
#165617=CARTESIAN_POINT('Vertex',(9356.285930509999,-2593.15426095,868.92705104));
#165618=VERTEX_POINT('',#165617);
#165619=EDGE_CURVE('',#165618,#165587,#165616,.F.);
#165620=CARTESIAN_POINT('Axis2P3D Location',(9377.242535339999,-2614.67916919,871.125301088));
#165621=DIRECTION('Axis2P3D Direction',(0.05014789645250626,0.272751770727034,0.9607765921621199));
#165622=AXIS2_PLACEMENT_3D('Circle Axis2P3D',#165620,#165621,$);
#165623=CIRCLE('generated circle',#165622,30.);
#165624=CARTESIAN_POINT('Vertex',(9356.15013,-2593.89287274,866.325268028));
#165625=VERTEX_POINT('',#165624);
#165626=EDGE_CURVE('',#165625,#165594,#165623,.F.);
#165627=CARTESIAN_POINT('Line Origine',(9356.218030260001,-2593.52356685,867.626159534));
#165628=DIRECTION('Vector Direction',(0.05014789645230676,0.2727517707270368,0.9607765921621294));
#165629=VECTOR('Line Direction',#165628,1.);
#165630=LINE('Line',#165627,#165629);
#165631=EDGE_CURVE('',#165625,#165618,#165630,.T.);
#165632=EDGE_LOOP('',(#165633,#165634,#165635,#165636));
#165633=ORIENTED_EDGE('',*,*,#165619,.T.);
#165634=ORIENTED_EDGE('',*,*,#165600,.F.);
#165635=ORIENTED_EDGE('',*,*,#165626,.F.);
#165636=ORIENTED_EDGE('',*,*,#165631,.T.);
#165637=FACE_OUTER_BOUND('',#165632,.T.);
#165638=ADVANCED_FACE('PartBody',(#165637),#165612,.T.);
#165639=CARTESIAN_POINT('Axis2P3D Location',(9343.38328491,-2605.90629714,870.402088003));
#165640=DIRECTION('Axis2P3D Direction',(-0.7030801776162248,0.6928765483172215,-0.1600011019810512));
#165641=DIRECTION('Axis2P3D XDirection',(0.7111105848200837,0.6850520538660806,-0.1581942465790186));
#165642=AXIS2_PLACEMENT_3D('Plane Axis2P3D',#165639,#165640,#165641);
#165643=PLANE('',#165642);
#165644=CARTESIAN_POINT('Line Origine',(9343.51908541,-2605.16768534,873.003871014));
#165645=DIRECTION('Vector Direction',(0.7093401527647121,0.6674792583727291,-0.226512664806908));
#165646=VECTOR('Line Direction',#165645,1.);
#165647=LINE('Line',#165644,#165646);
#165648=CARTESIAN_POINT('Vertex',(9330.75224032,-2617.18110974,877.080690989));
#165649=VERTEX_POINT('',#165648);
#165650=EDGE_CURVE('',#165649,#165618,#165647,.T.);
#165651=CARTESIAN_POINT('Line Origine',(9343.38328491,-2605.90629714,870.402088003));
#165652=DIRECTION('Vector Direction',(0.7093401527647121,0.6674792583727291,-0.226512664806908));
#165653=VECTOR('Line Direction',#165652,1.);
#165654=LINE('Line',#165651,#165653);
#165655=CARTESIAN_POINT('Vertex',(9330.616439810001,-2617.91972153,874.4789079769999));
#165656=VERTEX_POINT('',#165655);
#165657=EDGE_CURVE('',#165656,#165625,#165654,.T.);
#165658=CARTESIAN_POINT('Line Origine',(9330.68434007,-2617.55041564,875.779799483));
#165659=DIRECTION('Vector Direction',(0.05014789645230676,0.2727517707270368,0.9607765921621294));
#165660=VECTOR('Line Direction',#165659,1.);
#165661=LINE('Line',#165658,#165660);
#165662=EDGE_CURVE('',#165656,#165649,#165661,.T.);
#165663=EDGE_LOOP('',(#165664,#165665,#165666,#165667));
#165664=ORIENTED_EDGE('',*,*,#165650,.T.);
#165665=ORIENTED_EDGE('',*,*,#165631,.F.);
#165666=ORIENTED_EDGE('',*,*,#165657,.F.);
#165667=ORIENTED_EDGE('',*,*,#165662,.T.);
#165668=FACE_OUTER_BOUND('',#165663,.T.);
#165669=ADVANCED_FACE('PartBody',(#165668),#165643,.T.);
#165670=CARTESIAN_POINT('Axis2P3D Location',(9339.053401949999,-2626.23424011,876.398921201));
#165671=DIRECTION('Axis2P3D Direction',(0.05014789645250626,0.272751770727034,0.9607765921621199));
#165672=DIRECTION('Axis2P3D XDirection',(0.921867873537999,-0.3827461183619996,0.06053951286019993));
#165673=AXIS2_PLACEMENT_3D('Cylinder Axis2P3D',#165670,#165671,#165672);
#165674=CYLINDRICAL_SURFACE('generated cylinder',#165673,12.);
#165675=CARTESIAN_POINT('Axis2P3D Location',(9339.189202449999,-2625.49562832,879.0007042129999));
#165676=DIRECTION('Axis2P3D Direction',(0.05014789645250626,0.272751770727034,0.9607765921621199));
#165677=AXIS2_PLACEMENT_3D('Circle Axis2P3D',#165675,#165676,$);
#165678=CIRCLE('generated circle',#165677,12.);
#165679=CARTESIAN_POINT('Vertex',(9327.20430082,-2625.33128641,879.579603683));
#165680=VERTEX_POINT('',#165679);
#165681=EDGE_CURVE('',#165680,#165649,#165678,.F.);
#165682=CARTESIAN_POINT('Axis2P3D Location',(9339.053401949999,-2626.23424011,876.398921201));
#165683=DIRECTION('Axis2P3D Direction',(0.05014789645250626,0.272751770727034,0.9607765921621199));
#165684=AXIS2_PLACEMENT_3D('Circle Axis2P3D',#165682,#165683,$);
#165685=CIRCLE('generated circle',#165684,12.);
#165686=CARTESIAN_POINT('Vertex',(9327.068500310001,-2626.06989821,876.977820672));
#165687=VERTEX_POINT('',#165686);
#165688=EDGE_CURVE('',#165687,#165656,#165685,.F.);
#165689=CARTESIAN_POINT('Line Origine',(9327.13640057,-2625.70059231,878.278712177));
#165690=DIRECTION('Vector Direction',(0.05014789645230676,0.2727517707270368,0.9607765921621294));
#165691=VECTOR('Line Direction',#165690,1.);
#165692=LINE('Line',#165689,#165691);
#165693=EDGE_CURVE('',#165687,#165680,#165692,.T.);
#165694=EDGE_LOOP('',(#165695,#165696,#165697,#165698));
#165695=ORIENTED_EDGE('',*,*,#165681,.T.);
#165696=ORIENTED_EDGE('',*,*,#165662,.F.);
#165697=ORIENTED_EDGE('',*,*,#165688,.F.);
#165698=ORIENTED_EDGE('',*,*,#165693,.T.);
#165699=FACE_OUTER_BOUND('',#165694,.T.);
#165700=ADVANCED_FACE('PartBody',(#165699),#165674,.T.);
#165701=CARTESIAN_POINT('Axis2P3D Location',(9327.068500310001,-2640.21009157,880.9920346));
#165702=DIRECTION('Axis2P3D Direction',(-0.9987418027104847,0.01369515876740665,0.04824162253642342));
#165703=DIRECTION('Axis2P3D XDirection',(0.05014789645249258,0.2727517707279596,0.9607765921618576));
#165704=AXIS2_PLACEMENT_3D('Plane Axis2P3D',#165701,#165702,#165703);
#165705=PLANE('',#165704);
#165706=CARTESIAN_POINT('Line Origine',(9327.20430082,-2639.47147978,883.593817612));
#165707=DIRECTION('Vector Direction',(6.187482887598426e-14,0.9619869615497552,-0.2730953785919305));
#165708=VECTOR('Line Direction',#165707,1.);
#165709=LINE('Line',#165706,#165708);
#165710=CARTESIAN_POINT('Vertex',(9327.20430082,-2653.61167314,887.6080315409999));
#165711=VERTEX_POINT('',#165710);
#165712=EDGE_CURVE('',#165711,#165680,#165709,.T.);
#165713=CARTESIAN_POINT('Line Origine',(9327.068500310001,-2640.21009157,880.9920346));
#165714=DIRECTION('Vector Direction',(1.237496577519685e-13,0.9619869615497552,-0.2730953785919305));
#165715=VECTOR('Line Direction',#165714,1.);
#165716=LINE('Line',#165713,#165715);
#165717=CARTESIAN_POINT('Vertex',(9327.068500310001,-2654.35028494,885.006248529));
#165718=VERTEX_POINT('',#165717);
#165719=EDGE_CURVE('',#165718,#165687,#165716,.T.);
#165720=CARTESIAN_POINT('Line Origine',(9327.13640057,-2653.98097904,886.307140035));
#165721=DIRECTION('Vector Direction',(0.05014789645289157,0.2727517707279541,0.9607765921618384));
#165722=VECTOR('Line Direction',#165721,1.);
#165723=LINE('Line',#165720,#165722);
#165724=EDGE_CURVE('',#165718,#165711,#165723,.T.);
#165725=EDGE_LOOP('',(#165726,#165727,#165728,#165729));
#165726=ORIENTED_EDGE('',*,*,#165712,.T.);
#165727=ORIENTED_EDGE('',*,*,#165693,.F.);
#165728=ORIENTED_EDGE('',*,*,#165719,.F.);
#165729=ORIENTED_EDGE('',*,*,#165724,.T.);
#165730=FACE_OUTER_BOUND('',#165725,.T.);
#165731=ADVANCED_FACE('PartBody',(#165730),#165705,.T.);
#165732=CARTESIAN_POINT('Axis2P3D Location',(9339.053401949999,-2654.51462684,884.427349059));
#165733=DIRECTION('Axis2P3D Direction',(0.05014789645250626,0.272751770727034,0.9607765921621199));
#165734=DIRECTION('Axis2P3D XDirection',(0.7559620376319898,0.6183059324919917,-0.2149864449319971));
#165735=AXIS2_PLACEMENT_3D('Cylinder Axis2P3D',#165732,#165733,#165734);
#165736=CYLINDRICAL_SURFACE('generated cylinder',#165735,12.);
#165737=CARTESIAN_POINT('Axis2P3D Location',(9339.189202449999,-2653.77601505,887.0291320699999));
#165738=DIRECTION('Axis2P3D Direction',(0.05014789645250626,0.272751770727034,0.9607765921621199));
#165739=AXIS2_PLACEMENT_3D('Circle Axis2P3D',#165737,#165738,$);
#165740=CIRCLE('generated circle',#165739,12.);
#165741=CARTESIAN_POINT('Vertex',(9337.4413391,-2665.17246867,890.355664587));
#165742=VERTEX_POINT('',#165741);
#165743=EDGE_CURVE('',#165742,#165711,#165740,.F.);
#165744=CARTESIAN_POINT('Axis2P3D Location',(9339.053401949999,-2654.51462684,884.427349059));
#165745=DIRECTION('Axis2P3D Direction',(0.05014789645250626,0.272751770727034,0.9607765921621199));
#165746=AXIS2_PLACEMENT_3D('Circle Axis2P3D',#165744,#165745,$);
#165747=CIRCLE('generated circle',#165746,12.);
#165748=CARTESIAN_POINT('Vertex',(9337.305538590001,-2665.91108046,887.753881575));
#165749=VERTEX_POINT('',#165748);
#165750=EDGE_CURVE('',#165749,#165718,#165747,.F.);
#165751=CARTESIAN_POINT('Line Origine',(9337.37343885,-2665.54177456,889.054773081));
#165752=DIRECTION('Vector Direction',(0.05014789645230676,0.2727517707270368,0.9607765921621294));
#165753=VECTOR('Line Direction',#165752,1.);
#165754=LINE('Line',#165751,#165753);
#165755=EDGE_CURVE('',#165749,#165742,#165754,.T.);
#165756=EDGE_LOOP('',(#165757,#165758,#165759,#165760));
#165757=ORIENTED_EDGE('',*,*,#165743,.T.);
#165758=ORIENTED_EDGE('',*,*,#165724,.F.);
#165759=ORIENTED_EDGE('',*,*,#165750,.F.);
#165760=ORIENTED_EDGE('',*,*,#165755,.T.);
#165761=FACE_OUTER_BOUND('',#165756,.T.);
#165762=ADVANCED_FACE('PartBody',(#165761),#165736,.T.);
#165763=CARTESIAN_POINT('Axis2P3D Location',(9350.88842711,-2668.02596682,887.645308689));
#165764=DIRECTION('Axis2P3D Direction',(-0.1456552792759711,-0.9497044683568117,0.2772110430739451));
#165765=DIRECTION('Axis2P3D XDirection',(0.9893354029947812,-0.1398205999199691,0.04081250077089097));
#165766=AXIS2_PLACEMENT_3D('Plane Axis2P3D',#165763,#165764,#165765);
#165767=PLANE('',#165766);
#165768=CARTESIAN_POINT('Line Origine',(9351.02422761,-2667.28735502,890.2470917000001));
#165769=DIRECTION('Vector Direction',(-0.9880636255324533,0.1538437335370706,0.007897946001243624));
#165770=VECTOR('Line Direction',#165769,1.);
#165771=LINE('Line',#165768,#165770);
#165772=CARTESIAN_POINT('Vertex',(9364.607116130001,-2669.40224138,890.138518814));
#165773=VERTEX_POINT('',#165772);
#165774=EDGE_CURVE('',#165773,#165742,#165771,.T.);
#165775=CARTESIAN_POINT('Line Origine',(9350.88842711,-2668.02596682,887.645308689));
#165776=DIRECTION('Vector Direction',(-0.9880636255324533,0.1538437335370706,0.007897946001253623));
#165777=VECTOR('Line Direction',#165776,1.);
#165778=LINE('Line',#165775,#165777);
#165779=CARTESIAN_POINT('Vertex',(9364.47131563,-2670.14085318,887.536735802));
#165780=VERTEX_POINT('',#165779);
#165781=EDGE_CURVE('',#165780,#165749,#165778,.T.);
#165782=CARTESIAN_POINT('Line Origine',(9364.53921588,-2669.77154728,888.837627308));
#165783=DIRECTION('Vector Direction',(0.050147896452207,0.2727517707270381,0.9607765921621342));
#165784=VECTOR('Line Direction',#165783,1.);
#165785=LINE('Line',#165782,#165784);
#165786=EDGE_CURVE('',#165780,#165773,#165785,.T.);
#165787=EDGE_LOOP('',(#165788,#165789,#165790,#165791));
#165788=ORIENTED_EDGE('',*,*,#165774,.T.);
#165789=ORIENTED_EDGE('',*,*,#165755,.F.);
#165790=ORIENTED_EDGE('',*,*,#165781,.F.);
#165791=ORIENTED_EDGE('',*,*,#165786,.T.);
#165792=FACE_OUTER_BOUND('',#165787,.T.);
#165793=ADVANCED_FACE('PartBody',(#165792),#165767,.T.);
#165794=CARTESIAN_POINT('Axis2P3D Location',(9366.21917898,-2658.74439956,884.210203285));
#165795=DIRECTION('Axis2P3D Direction',(0.05014789645250626,0.272751770727034,0.9607765921621199));
#165796=DIRECTION('Axis2P3D XDirection',(-0.6526918002715464,0.7370917482984878,-0.1751832424878782));
#165797=AXIS2_PLACEMENT_3D('Cylinder Axis2P3D',#165794,#165795,#165796);
#165798=CYLINDRICAL_SURFACE('generated cylinder',#165797,12.);
#165799=CARTESIAN_POINT('Axis2P3D Location',(9366.35497948,-2658.00578776,886.811986297));
#165800=DIRECTION('Axis2P3D Direction',(0.05014789645250626,0.272751770727034,0.9607765921621199));
#165801=AXIS2_PLACEMENT_3D('Circle Axis2P3D',#165799,#165800,$);
#165802=CIRCLE('generated circle',#165801,12.);
#165803=CARTESIAN_POINT('Vertex',(9378.33988112,-2658.17012967,886.233086826));
#165804=VERTEX_POINT('',#165803);
#165805=EDGE_CURVE('',#165804,#165773,#165802,.F.);
#165806=CARTESIAN_POINT('Axis2P3D Location',(9366.21917898,-2658.74439956,884.210203285));
#165807=DIRECTION('Axis2P3D Direction',(0.05014789645250626,0.272751770727034,0.9607765921621199));
#165808=AXIS2_PLACEMENT_3D('Circle Axis2P3D',#165806,#165807,$);
#165809=CIRCLE('generated circle',#165808,12.);
#165810=CARTESIAN_POINT('Vertex',(9378.204080609999,-2658.90874146,883.631303815));
#165811=VERTEX_POINT('',#165810);
#165812=EDGE_CURVE('',#165811,#165780,#165809,.F.);
#165813=CARTESIAN_POINT('Line Origine',(9378.27198086,-2658.53943556,884.932195321));
#165814=DIRECTION('Vector Direction',(0.05014789645230676,0.2727517707270368,0.9607765921621294));
#165815=VECTOR('Line Direction',#165814,1.);
#165816=LINE('Line',#165813,#165815);
#165817=EDGE_CURVE('',#165811,#165804,#165816,.T.);
#165818=EDGE_LOOP('',(#165819,#165820,#165821,#165822));
#165819=ORIENTED_EDGE('',*,*,#165805,.T.);
#165820=ORIENTED_EDGE('',*,*,#165786,.F.);
#165821=ORIENTED_EDGE('',*,*,#165812,.F.);
#165822=ORIENTED_EDGE('',*,*,#165817,.T.);
#165823=FACE_OUTER_BOUND('',#165818,.T.);
#165824=ADVANCED_FACE('PartBody',(#165823),#165798,.T.);
#165825=CARTESIAN_POINT('Axis2P3D Location',(9378.204080609999,-2648.30439989,880.620871457));
#165826=DIRECTION('Axis2P3D Direction',(0.9987418027104835,-0.01369515876750663,-0.04824162253642335));
#165827=DIRECTION('Axis2P3D XDirection',(0.05014789645249972,0.2727517707309985,0.9607765921609946));
#165828=AXIS2_PLACEMENT_3D('Plane Axis2P3D',#165825,#165826,#165827);
#165829=PLANE('',#165828);
#165830=CARTESIAN_POINT('Line Origine',(9378.33988112,-2647.56578809,883.222654469));
#165831=DIRECTION('Vector Direction',(-2.47518067593937e-13,-0.9619869615497552,0.2730953785919305));
#165832=VECTOR('Line Direction',#165831,1.);
#165833=LINE('Line',#165830,#165832);
#165834=CARTESIAN_POINT('Vertex',(9378.33988112,-2636.96144652,880.2122221119999));
#165835=VERTEX_POINT('',#165834);
#165836=EDGE_CURVE('',#165835,#165804,#165833,.T.);
#165837=CARTESIAN_POINT('Line Origine',(9378.204080609999,-2648.30439989,880.620871457));
#165838=DIRECTION('Vector Direction',(-1.65012045061958e-13,-0.9619869615497552,0.2730953785919305));
#165839=VECTOR('Line Direction',#165838,1.);
#165840=LINE('Line',#165837,#165839);
#165841=CARTESIAN_POINT('Vertex',(9378.204080609999,-2637.70005832,877.6104391));
#165842=VERTEX_POINT('',#165841);
#165843=EDGE_CURVE('',#165842,#165811,#165840,.T.);
#165844=CARTESIAN_POINT('Line Origine',(9378.27198086,-2637.33075242,878.911330606));
#165845=DIRECTION('Vector Direction',(0.05014789645290525,0.2727517707270286,0.9607765921621004));
#165846=VECTOR('Line Direction',#165845,1.);
#165847=LINE('Line',#165844,#165846);
#165848=EDGE_CURVE('',#165842,#165835,#165847,.T.);
#165849=EDGE_LOOP('',(#165850,#165851,#165852,#165853));
#165850=ORIENTED_EDGE('',*,*,#165836,.T.);
#165851=ORIENTED_EDGE('',*,*,#165817,.F.);
#165852=ORIENTED_EDGE('',*,*,#165843,.F.);
#165853=ORIENTED_EDGE('',*,*,#165848,.T.);
#165854=FACE_OUTER_BOUND('',#165849,.T.);
#165855=ADVANCED_FACE('PartBody',(#165854),#165829,.T.);
#165856=CARTESIAN_POINT('Axis2P3D Location',(9367.17320116,-2622.34693493,876.646202255));
#165857=DIRECTION('Axis2P3D Direction',(0.05014789645250626,0.272751770727034,0.9607765921621199));
#165858=DIRECTION('Axis2P3D XDirection',(0.5336608311631389,0.8058247749042097,-0.2566175158340668));
#165859=AXIS2_PLACEMENT_3D('Plane Axis2P3D',#165856,#165857,#165858);
#165860=PLANE('',#165859);
#165861=B_SPLINE_CURVE_WITH_KNOTS('',5,(#165862,#165863,#165864,#165865,#165866,#165867),.UNSPECIFIED.,.F.,.U.,(6,6),(5.07346747199,19.2106344131),.UNSPECIFIED.);
#165862=CARTESIAN_POINT('Control Point',(9387.328557340001,-2628.4268203,877.320189101));
#165863=CARTESIAN_POINT('Control Point',(9384.50468142,-2628.38809815,877.456589076));
#165864=CARTESIAN_POINT('Control Point',(9381.678170810001,-2629.41438934,877.895469774));
#165865=CARTESIAN_POINT('Control Point',(9379.44562316,-2631.53416307,878.6137737080001));
#165866=CARTESIAN_POINT('Control Point',(9378.33988112,-2634.24149247,879.44006312));
#165867=CARTESIAN_POINT('Control Point',(9378.33988112,-2636.96144652,880.2122221119999));
#165868=CARTESIAN_POINT('Vertex',(9387.328557340001,-2628.4268203,877.320189101));
#165869=VERTEX_POINT('',#165868);
#165870=EDGE_CURVE('',#165869,#165835,#165861,.T.);
#165871=B_SPLINE_CURVE_WITH_KNOTS('',1,(#165872,#165873),.UNSPECIFIED.,.F.,.U.,(2,2),(-1.85869018798,1.85869018798),.UNSPECIFIED.);
#165872=CARTESIAN_POINT('Control Point',(9391.04126052,-2628.47773041,877.140856641));
#165873=CARTESIAN_POINT('Control Point',(9387.328557340001,-2628.4268203,877.320189101));
#165874=CARTESIAN_POINT('Vertex',(9391.04126052,-2628.47773041,877.140856641));
#165875=VERTEX_POINT('',#165874);
#165876=EDGE_CURVE('',#165875,#165869,#165871,.T.);
#165877=B_SPLINE_CURVE_WITH_KNOTS('',1,(#165878,#165879),.UNSPECIFIED.,.F.,.U.,(2,2),(-14.533625049,32.5665068152),.UNSPECIFIED.);
#165878=CARTESIAN_POINT('Control Point',(9391.04126052,-2628.47773041,877.140856641));
#165879=CARTESIAN_POINT('Control Point',(9391.04126052,-2583.16801767,864.278028297));
#165880=EDGE_CURVE('',#165875,#165494,#165877,.T.);
#165881=EDGE_LOOP('',(#165882,#165883,#165884,#165885,#165886,#165887,#165888,#165889,#165890,#165891,#165892,#165893,#165894,#165895));
#165882=ORIENTED_EDGE('',*,*,#165538,.T.);
#165883=ORIENTED_EDGE('',*,*,#165557,.F.);
#165884=ORIENTED_EDGE('',*,*,#165588,.F.);
#165885=ORIENTED_EDGE('',*,*,#165619,.F.);
#165886=ORIENTED_EDGE('',*,*,#165650,.F.);
#165887=ORIENTED_EDGE('',*,*,#165681,.F.);
#165888=ORIENTED_EDGE('',*,*,#165712,.F.);
#165889=ORIENTED_EDGE('',*,*,#165743,.F.);
#165890=ORIENTED_EDGE('',*,*,#165774,.F.);
#165891=ORIENTED_EDGE('',*,*,#165805,.F.);
#165892=ORIENTED_EDGE('',*,*,#165836,.F.);
#165893=ORIENTED_EDGE('',*,*,#165870,.F.);
#165894=ORIENTED_EDGE('',*,*,#165876,.F.);
#165895=ORIENTED_EDGE('',*,*,#165880,.T.);
#165896=FACE_OUTER_BOUND('',#165881,.T.);
#165897=ADVANCED_FACE('PartBody',(#165896),#165860,.T.);
#165898=CARTESIAN_POINT('Axis2P3D Location',(9391.291999999999,-2613.13281376,877.975673766));
#165899=DIRECTION('Axis2P3D Direction',(2.983724378679241e-16,0.9619869615497552,-0.2730953785919305));
#165900=DIRECTION('Axis2P3D XDirection',(-0.6891487878345713,0.1978903362678769,0.6970748618605664));
#165901=AXIS2_PLACEMENT_3D('Cylinder Axis2P3D',#165898,#165899,#165900);
#165902=CYLINDRICAL_SURFACE('generated cylinder',#165901,5.);
#165903=CARTESIAN_POINT('Axis2P3D Location',(9391.291999999999,-2627.11397156,881.944739601));
#165904=DIRECTION('Axis2P3D Direction',(2.983724378679241e-16,0.9619869615497552,-0.2730953785919305));
#165905=AXIS2_PLACEMENT_3D('Circle Axis2P3D',#165903,#165904,$);
#165906=CIRCLE('generated circle',#165905,5.);
#165907=EDGE_CURVE('',#165875,#165289,#165906,.F.);
#165908=EDGE_LOOP('',(#165909,#165910,#165911,#165912));
#165909=ORIENTED_EDGE('',*,*,#165495,.F.);
#165910=ORIENTED_EDGE('',*,*,#165880,.F.);
#165911=ORIENTED_EDGE('',*,*,#165907,.T.);
#165912=ORIENTED_EDGE('',*,*,#165407,.T.);
#165913=FACE_OUTER_BOUND('',#165908,.T.);
#165914=ADVANCED_FACE('PartBody',(#165913),#165902,.F.);
#165915=CARTESIAN_POINT('Axis2P3D Location',(9385.44727402,-2628.48632521,877.110581181));
#165916=DIRECTION('Axis2P3D Direction',(3.862882236309017e-14,-0.9619869615497552,0.2730953785919305));
#165917=DIRECTION('Axis2P3D XDirection',(0.9987418027104923,-0.01369515876720675,-0.04824162253632378));
#165918=AXIS2_PLACEMENT_3D('Plane Axis2P3D',#165915,#165916,#165917);
#165919=PLANE('',#165918);
#165920=CARTESIAN_POINT('Line Origine',(9390.97336027,-2628.84703631,875.8399651350001));
#165921=DIRECTION('Vector Direction',(-0.050147896452207,-0.2727517707270381,-0.9607765921621342));
#165922=VECTOR('Line Direction',#165921,1.);
#165923=LINE('Line',#165920,#165922);
#165924=CARTESIAN_POINT('Vertex',(9390.905460010001,-2629.21634221,874.539073629));
#165925=VERTEX_POINT('',#165924);
#165926=EDGE_CURVE('',#165925,#165875,#165923,.F.);
#165927=CARTESIAN_POINT('Axis2P3D Location',(9391.291999999999,-2627.11397156,881.944739601));
#165928=DIRECTION('Axis2P3D Direction',(3.862882236309017e-14,-0.9619869615497552,0.2730953785919305));
#165929=AXIS2_PLACEMENT_3D('Circle Axis2P3D',#165927,#165928,$);
#165930=CIRCLE('generated circle',#165929,7.708);
#165931=EDGE_CURVE('',#165925,#165291,#165930,.T.);
#165932=EDGE_LOOP('',(#165933,#165934,#165935,#165936));
#165933=ORIENTED_EDGE('',*,*,#165926,.F.);
#165934=ORIENTED_EDGE('',*,*,#165931,.T.);
#165935=ORIENTED_EDGE('',*,*,#165292,.F.);
#165936=ORIENTED_EDGE('',*,*,#165907,.F.);
#165937=FACE_OUTER_BOUND('',#165932,.T.);
#165938=ADVANCED_FACE('PartBody',(#165937),#165919,.T.);
#165939=CARTESIAN_POINT('Axis2P3D Location',(9391.291999999999,-2613.13281376,877.975673766));
#165940=DIRECTION('Axis2P3D Direction',(2.983724378679241e-16,0.9619869615497552,-0.2730953785919305));
#165941=DIRECTION('Axis2P3D XDirection',(1,-8.84708972748e-17,7.77156117238e-16));
#165942=AXIS2_PLACEMENT_3D('Cylinder Axis2P3D',#165939,#165940,#165941);
#165943=CYLINDRICAL_SURFACE('generated cylinder',#165942,7.708);
#165944=CARTESIAN_POINT('Line Origine',(9390.905460010001,-2615.2351844,870.570007794));
#165945=DIRECTION('Vector Direction',(0,0.9619869615497552,-0.2730953785919305));
#165946=VECTOR('Line Direction',#165945,1.);
#165947=LINE('Line',#165944,#165946);
#165948=EDGE_CURVE('',#165925,#165501,#165947,.T.);
#165949=EDGE_LOOP('',(#165950,#165951,#165952,#165953));
#165950=ORIENTED_EDGE('',*,*,#165452,.F.);
#165951=ORIENTED_EDGE('',*,*,#165931,.F.);
#165952=ORIENTED_EDGE('',*,*,#165948,.T.);
#165953=ORIENTED_EDGE('',*,*,#165502,.T.);
#165954=FACE_OUTER_BOUND('',#165949,.T.);
#165955=ADVANCED_FACE('PartBody',(#165954),#165943,.T.);
#165956=CARTESIAN_POINT('Axis2P3D Location',(9367.03740066,-2623.08554672,874.044419243));
#165957=DIRECTION('Axis2P3D Direction',(0.05014789645250626,0.272751770727034,0.9607765921621199));
#165958=DIRECTION('Axis2P3D XDirection',(0.5336608311631389,0.8058247749042097,-0.2566175158340668));
#165959=AXIS2_PLACEMENT_3D('Plane Axis2P3D',#165956,#165957,#165958);
#165960=PLANE('',#165959);
#165961=CARTESIAN_POINT('Line Origine',(9389.049108429999,-2629.19088715,874.628739859));
#165962=DIRECTION('Vector Direction',(-0.9987418027104847,0.01369515876740665,0.04824162253642342));
#165963=VECTOR('Line Direction',#165962,1.);
#165964=LINE('Line',#165961,#165963);
#165965=CARTESIAN_POINT('Vertex',(9387.192756840001,-2629.16543209,874.71840609));
#165966=VERTEX_POINT('',#165965);
#165967=EDGE_CURVE('',#165925,#165966,#165964,.T.);
#165968=CARTESIAN_POINT('Axis2P3D Location',(9387.192756840001,-2637.82331475,877.176264497));
#165969=DIRECTION('Axis2P3D Direction',(0.05014789645250626,0.272751770727034,0.9607765921621199));
#165970=AXIS2_PLACEMENT_3D('Circle Axis2P3D',#165968,#165969,$);
#165971=CIRCLE('generated circle',#165970,9.);
#165972=EDGE_CURVE('',#165966,#165842,#165971,.T.);
#165973=EDGE_LOOP('',(#165974,#165975,#165976,#165977,#165978,#165979,#165980,#165981,#165982,#165983,#165984,#165985,#165986,#165987));
#165974=ORIENTED_EDGE('',*,*,#165948,.F.);
#165975=ORIENTED_EDGE('',*,*,#165967,.T.);
#165976=ORIENTED_EDGE('',*,*,#165972,.T.);
#165977=ORIENTED_EDGE('',*,*,#165843,.T.);
#165978=ORIENTED_EDGE('',*,*,#165812,.T.);
#165979=ORIENTED_EDGE('',*,*,#165781,.T.);
#165980=ORIENTED_EDGE('',*,*,#165750,.T.);
#165981=ORIENTED_EDGE('',*,*,#165719,.T.);
#165982=ORIENTED_EDGE('',*,*,#165688,.T.);
#165983=ORIENTED_EDGE('',*,*,#165657,.T.);
#165984=ORIENTED_EDGE('',*,*,#165626,.T.);
#165985=ORIENTED_EDGE('',*,*,#165595,.T.);
#165986=ORIENTED_EDGE('',*,*,#165564,.T.);
#165987=ORIENTED_EDGE('',*,*,#165526,.F.);
#165988=FACE_OUTER_BOUND('',#165973,.T.);
#165989=ADVANCED_FACE('PartBody',(#165988),#165960,.F.);
#165990=CARTESIAN_POINT('Axis2P3D Location',(9387.192756840001,-2637.82331475,877.176264497));
#165991=DIRECTION('Axis2P3D Direction',(0.05014789645250626,0.272751770727034,0.9607765921621199));
#165992=DIRECTION('Axis2P3D XDirection',(0.7062171013539471,-0.6899114435559484,0.1589956156809881));
#165993=AXIS2_PLACEMENT_3D('Cylinder Axis2P3D',#165990,#165991,#165992);
#165994=CYLINDRICAL_SURFACE('generated cylinder',#165993,9.);
#165995=CARTESIAN_POINT('Line Origine',(9387.260657090001,-2628.79612619,876.019297596));
#165996=DIRECTION('Vector Direction',(0.05014789645230676,0.2727517707270368,0.9607765921621294));
#165997=VECTOR('Line Direction',#165996,1.);
#165998=LINE('Line',#165995,#165997);
#165999=EDGE_CURVE('',#165966,#165869,#165998,.T.);
#166000=EDGE_LOOP('',(#166001,#166002,#166003,#166004));
#166001=ORIENTED_EDGE('',*,*,#165870,.T.);
#166002=ORIENTED_EDGE('',*,*,#165848,.F.);
#166003=ORIENTED_EDGE('',*,*,#165972,.F.);
#166004=ORIENTED_EDGE('',*,*,#165999,.T.);
#166005=FACE_OUTER_BOUND('',#166000,.T.);
#166006=ADVANCED_FACE('PartBody',(#166005),#165994,.F.);
#166007=CARTESIAN_POINT('Axis2P3D Location',(9389.049108429999,-2629.19088715,874.628739859));
#166008=DIRECTION('Axis2P3D Direction',(-1.395394216839645e-13,-0.9619869615497552,0.2730953785919305));
#166009=DIRECTION('Axis2P3D XDirection',(1,-1.34235104282e-13,3.81075711933e-14));
#166010=AXIS2_PLACEMENT_3D('Plane Axis2P3D',#166007,#166008,#166009);
#166011=PLANE('',#166010);
#166012=EDGE_LOOP('',(#166013,#166014,#166015,#166016));
#166013=ORIENTED_EDGE('',*,*,#165876,.T.);
#166014=ORIENTED_EDGE('',*,*,#165999,.F.);
#166015=ORIENTED_EDGE('',*,*,#165967,.F.);
#166016=ORIENTED_EDGE('',*,*,#165926,.T.);
#166017=FACE_OUTER_BOUND('',#166012,.T.);
#166018=ADVANCED_FACE('PartBody',(#166017),#166011,.T.);
#166019=ADVANCED_BREP_SHAPE_REPRESENTATION('NONE',(#165276),#165022);

#166020=APPLICATION_CONTEXT('automotive_design');
#166021=APPLICATION_PROTOCOL_DEFINITION('international standard','automotive_design',2010,#166020);
#166022=PRODUCT_CONTEXT('',#166020,'mechanical');
#166023=PRODUCT_DEFINITION_CONTEXT('part definition',#166020,'design');
#166024=PRODUCT('part_040_V5311445320000','part_040_V5311445320000','',(#166022));
#166025=PRODUCT_DEFINITION_FORMATION('','',#166024);
#166026=PRODUCT_DEFINITION('design','',#166025,#166023);
#166027=PRODUCT_DEFINITION_SHAPE('','',#166026);
#166028=SHAPE_DEFINITION_REPRESENTATION(#166027,#166019);
ENDSEC;
END-ISO-10303-21;
