ISO-10303-21;
HEADER;
FILE_DESCRIPTION(('CATIA V5 STEP Exchange','CAx-IF Rec.Pracs.--- Model Styling and Organization---1.4--- 2014-01-23'),'2;1');

FILE_NAME('C:\\Users\\SA516207\\WORK\\01_ASSY\\3_Catia\\ECHELLE\\ECHELLE.stp','2026-09-22T12:18:05+00:00',('none'),('none'),'CATIA Version 5-6 Release 2017 SP2 HF26','CATIA V5 STEP AP203 WITH EXTENSIONS','none');

FILE_SCHEMA(('CONFIG_CONTROL_DESIGN','SHAPE_APPEARANCE_LAYER_MIM'));

ENDSEC;
DATA;
#46=(LENGTH_UNIT()NAMED_UNIT(*)SI_UNIT(.MILLI.,.METRE.));
#47=(NAMED_UNIT(*)PLANE_ANGLE_UNIT()SI_UNIT($,.RADIAN.));
#48=(NAMED_UNIT(*)SI_UNIT($,.STERADIAN.)SOLID_ANGLE_UNIT());
#35741=UNCERTAINTY_MEASURE_WITH_UNIT(LENGTH_MEASURE(0.005),#46,'distance_accuracy_value','CONFUSED CURVE UNCERTAINTY');
#35742=(GEOMETRIC_REPRESENTATION_CONTEXT(3)GLOBAL_UNCERTAINTY_ASSIGNED_CONTEXT((#35741))GLOBAL_UNIT_ASSIGNED_CONTEXT((#46,#47,#48))REPRESENTATION_CONTEXT(' ',' '));
#36480=MANIFOLD_SOLID_BREP('PartBody',#36482);
#36482=CLOSED_SHELL('Closed Shell',(#36524,#36660,#36794,#36811,#36865,#36887,#36904,#36921,#36938,#36955,#36972,#36989,#37006,#37018,#37106,#37147,#37225,#37266,#37316,#37360,#37385,#37420));
#36483=CARTESIAN_POINT('Axis2P3D Location',(9401.34,-1438.55211977,2710.8154233));
#36484=DIRECTION('Axis2P3D Direction',(1,0,0));
#36485=DIRECTION('Axis2P3D XDirection',(0,0.9883380084156391,0.1522760031029444));
#36486=AXIS2_PLACEMENT_3D('Cylinder Axis2P3D',#36483,#36484,#36485);
#36487=CYLINDRICAL_SURFACE('generated cylinder',#36486,9.);
#36488=B_SPLINE_CURVE_WITH_KNOTS('',3,(#36489,#36490,#36491,#36492),.UNSPECIFIED.,.F.,.U.,(4,4),(0.,5.28868068538),.UNSPECIFIED.);
#36489=CARTESIAN_POINT('Control Point',(9401.34,-1429.65707769,2712.18590732));
#36490=CARTESIAN_POINT('Control Point',(9401.34,-1429.84692562,2713.41810359));
#36491=CARTESIAN_POINT('Control Point',(9401.34,-1430.2963076,2714.60955855));
#36492=CARTESIAN_POINT('Control Point',(9401.34,-1430.96732414,2715.66009824));
#36493=CARTESIAN_POINT('Vertex',(9401.34,-1429.657127,2712.18588383));
#36494=VERTEX_POINT('',#36493);
#36495=CARTESIAN_POINT('Vertex',(9401.34,-1430.96732414,2715.66009824));
#36496=VERTEX_POINT('',#36495);
#36497=EDGE_CURVE('',#36494,#36496,#36488,.T.);
#36498=CARTESIAN_POINT('Line Origine',(9401.34,-1430.96732414,2715.66009824));
#36499=DIRECTION('Vector Direction',(1,0,0));
#36500=VECTOR('Line Direction',#36499,1.);
#36501=LINE('Line',#36498,#36500);
#36502=CARTESIAN_POINT('Vertex',(9403.200000000001,-1430.96732414,2715.66009824));
#36503=VERTEX_POINT('',#36502);
#36504=EDGE_CURVE('',#36496,#36503,#36501,.T.);
#36505=B_SPLINE_CURVE_WITH_KNOTS('',3,(#36506,#36507,#36508,#36509),.UNSPECIFIED.,.F.,.U.,(4,4),(0.,5.28868068485),.UNSPECIFIED.);
#36506=CARTESIAN_POINT('Control Point',(9403.200000000001,-1429.65707769,2712.18590732));
#36507=CARTESIAN_POINT('Control Point',(9403.200000000001,-1429.84692562,2713.41810359));
#36508=CARTESIAN_POINT('Control Point',(9403.200000000001,-1430.2963076,2714.60955855));
#36509=CARTESIAN_POINT('Control Point',(9403.200000000001,-1430.96732414,2715.66009824));
#36510=CARTESIAN_POINT('Vertex',(9403.200000000001,-1429.657127,2712.18588383));
#36511=VERTEX_POINT('',#36510);
#36512=EDGE_CURVE('',#36511,#36503,#36505,.T.);
#36513=CARTESIAN_POINT('Line Origine',(9401.34,-1429.65707769,2712.18590732));
#36514=DIRECTION('Vector Direction',(1,0,0));
#36515=VECTOR('Line Direction',#36514,1.);
#36516=LINE('Line',#36513,#36515);
#36517=EDGE_CURVE('',#36494,#36511,#36516,.T.);
#36518=EDGE_LOOP('',(#36519,#36520,#36521,#36522));
#36519=ORIENTED_EDGE('',*,*,#36497,.T.);
#36520=ORIENTED_EDGE('',*,*,#36504,.T.);
#36521=ORIENTED_EDGE('',*,*,#36512,.F.);
#36522=ORIENTED_EDGE('',*,*,#36517,.F.);
#36523=FACE_OUTER_BOUND('',#36518,.T.);
#36524=ADVANCED_FACE('PartBody',(#36523),#36487,.T.);
#36525=B_SPLINE_SURFACE_WITH_KNOTS('',5,1,((#36526,#36527),(#36528,#36529),(#36530,#36531),(#36532,#36533),(#36534,#36535),(#36536,#36537)),.UNSPECIFIED.,.F.,.F.,.U.,(6,6),(2,2),(0.,194.910524324),(-58.5555918985,58.5555918985),.UNSPECIFIED.);
#36526=CARTESIAN_POINT('Control Point',(9401.34,-1402.0200468,2736.7667571));
#36527=CARTESIAN_POINT('Control Point',(9401.34,-1340.31111498,2637.23265689));
#36528=CARTESIAN_POINT('Control Point',(9401.34,-1435.28662656,2716.14221674));
#36529=CARTESIAN_POINT('Control Point',(9401.34,-1372.11359606,2617.5158252));
#36530=CARTESIAN_POINT('Control Point',(9401.34,-1468.17397209,2694.90599946));
#36531=CARTESIAN_POINT('Control Point',(9401.34,-1403.55353202,2597.21425564));
#36532=CARTESIAN_POINT('Control Point',(9401.34,-1500.66763226,2673.06708555));
#36533=CARTESIAN_POINT('Control Point',(9401.34,-1434.61711525,2576.33646494));
#36534=CARTESIAN_POINT('Control Point',(9401.34,-1532.75188601,2650.63597669));
#36535=CARTESIAN_POINT('Control Point',(9401.34,-1465.2893031,2554.89258628));
#36536=CARTESIAN_POINT('Control Point',(9401.34,-1564.41300902,2627.62271292));
#36537=CARTESIAN_POINT('Control Point',(9401.34,-1495.55698201,2532.89216391));
#36538=B_SPLINE_CURVE_WITH_KNOTS('',1,(#36539,#36540),.UNSPECIFIED.,.F.,.U.,(2,2),(0.,3.45869919558),.UNSPECIFIED.);
#36539=CARTESIAN_POINT('Control Point',(9401.34,-1432.28386975,2717.7211682));
#36540=CARTESIAN_POINT('Control Point',(9401.34,-1430.9673726,2715.66006772));
#36541=CARTESIAN_POINT('Vertex',(9401.34,-1432.28387075,2717.72116976));
#36542=VERTEX_POINT('',#36541);
#36543=EDGE_CURVE('',#36542,#36496,#36538,.T.);
#36544=B_SPLINE_CURVE_WITH_KNOTS('',3,(#36545,#36546,#36547,#36548),.UNSPECIFIED.,.F.,.U.,(4,4),(1.07509418131E-005,87.8090684444),.UNSPECIFIED.);
#36545=CARTESIAN_POINT('Control Point',(9401.34,-1420.20934695,2650.86599353));
#36546=CARTESIAN_POINT('Control Point',(9401.34,-1423.35558848,2671.28636574));
#36547=CARTESIAN_POINT('Control Point',(9401.34,-1426.50502541,2691.72747747));
#36548=CARTESIAN_POINT('Control Point',(9401.34,-1429.657127,2712.18588383));
#36549=CARTESIAN_POINT('Vertex',(9401.34,-1420.20934695,2650.86599353));
#36550=VERTEX_POINT('',#36549);
#36551=EDGE_CURVE('',#36550,#36494,#36544,.T.);
#36552=B_SPLINE_CURVE_WITH_KNOTS('',3,(#36553,#36554,#36555,#36556),.UNSPECIFIED.,.F.,.U.,(4,4),(0.,5.49809634985),.UNSPECIFIED.);
#36553=CARTESIAN_POINT('Control Point',(9401.34,-1420.20934695,2650.86599353));
#36554=CARTESIAN_POINT('Control Point',(9401.34,-1420.01234855,2649.58738753));
#36555=CARTESIAN_POINT('Control Point',(9401.34,-1419.53491591,2648.35048408));
#36556=CARTESIAN_POINT('Control Point',(9401.34,-1418.81975808,2647.26977118));
#36557=CARTESIAN_POINT('Vertex',(9401.34,-1418.81975808,2647.26977118));
#36558=VERTEX_POINT('',#36557);
#36559=EDGE_CURVE('',#36550,#36558,#36552,.T.);
#36560=B_SPLINE_CURVE_WITH_KNOTS('',3,(#36561,#36562,#36563,#36564),.UNSPECIFIED.,.F.,.U.,(4,4),(0.,46.2598430598),.UNSPECIFIED.);
#36561=CARTESIAN_POINT('Control Point',(9401.34,-1400.76819107,2619.99109167));
#36562=CARTESIAN_POINT('Control Point',(9401.34,-1406.7853793,2629.08398368));
#36563=CARTESIAN_POINT('Control Point',(9401.34,-1412.80256833,2638.17687689));
#36564=CARTESIAN_POINT('Control Point',(9401.34,-1418.81975808,2647.26977118));
#36565=CARTESIAN_POINT('Vertex',(9401.34,-1400.76819107,2619.99109167));
#36566=VERTEX_POINT('',#36565);
#36567=EDGE_CURVE('',#36566,#36558,#36560,.T.);
#36568=B_SPLINE_CURVE_WITH_KNOTS('',5,(#36569,#36570,#36571,#36572,#36573,#36574),.UNSPECIFIED.,.F.,.U.,(6,6),(0.,29.2738123319),.UNSPECIFIED.);
#36569=CARTESIAN_POINT('Control Point',(9401.34,-1404.50016661,2601.93308304));
#36570=CARTESIAN_POINT('Control Point',(9401.34,-1401.10237117,2604.15248745));
#36571=CARTESIAN_POINT('Control Point',(9401.34,-1398.56907054,2607.68799963));
#36572=CARTESIAN_POINT('Control Point',(9401.34,-1397.5657688,2612.16661255));
#36573=CARTESIAN_POINT('Control Point',(9401.34,-1398.48353949,2616.5386336));
#36574=CARTESIAN_POINT('Control Point',(9401.34,-1400.76819107,2619.99109167));
#36575=CARTESIAN_POINT('Vertex',(9401.34,-1404.50016661,2601.93308304));
#36576=VERTEX_POINT('',#36575);
#36577=EDGE_CURVE('',#36576,#36566,#36568,.T.);
#36578=B_SPLINE_CURVE_WITH_KNOTS('',3,(#36579,#36580,#36581,#36582),.UNSPECIFIED.,.F.,.U.,(4,4),(0.,130.528129235),.UNSPECIFIED.);
#36579=CARTESIAN_POINT('Control Point',(9401.34,-1404.50016661,2601.93308304));
#36580=CARTESIAN_POINT('Control Point',(9401.34,-1429.7507146,2585.43968944));
#36581=CARTESIAN_POINT('Control Point',(9401.34,-1454.71614493,2568.50716644));
#36582=CARTESIAN_POINT('Control Point',(9401.34,-1479.38141093,2551.14553207));
#36583=CARTESIAN_POINT('Vertex',(9401.34,-1479.38141093,2551.14553207));
#36584=VERTEX_POINT('',#36583);
#36585=EDGE_CURVE('',#36576,#36584,#36578,.T.);
#36586=B_SPLINE_CURVE_WITH_KNOTS('',5,(#36587,#36588,#36589,#36590,#36591,#36592),.UNSPECIFIED.,.F.,.U.,(6,6),(0.,29.1383049505),.UNSPECIFIED.);
#36587=CARTESIAN_POINT('Control Point',(9401.34,-1497.48644014,2554.28162221));
#36588=CARTESIAN_POINT('Control Point',(9401.34,-1495.11082758,2550.91454269));
#36589=CARTESIAN_POINT('Control Point',(9401.34,-1491.39470128,2548.47811404));
#36590=CARTESIAN_POINT('Control Point',(9401.34,-1486.88416626,2547.77257902));
#36591=CARTESIAN_POINT('Control Point',(9401.34,-1482.68508523,2548.82010873));
#36592=CARTESIAN_POINT('Control Point',(9401.34,-1479.38141093,2551.14553207));
#36593=CARTESIAN_POINT('Vertex',(9401.34,-1497.48644014,2554.28162221));
#36594=VERTEX_POINT('',#36593);
#36595=EDGE_CURVE('',#36594,#36584,#36586,.T.);
#36596=B_SPLINE_CURVE_WITH_KNOTS('',3,(#36597,#36598,#36599,#36600),.UNSPECIFIED.,.F.,.U.,(4,4),(0.,46.7006217564),.UNSPECIFIED.);
#36597=CARTESIAN_POINT('Control Point',(9401.34,-1516.52368716,2581.2641048));
#36598=CARTESIAN_POINT('Control Point',(9401.34,-1510.17793606,2572.26994096));
#36599=CARTESIAN_POINT('Control Point',(9401.34,-1503.83218697,2563.27577998));
#36600=CARTESIAN_POINT('Control Point',(9401.34,-1497.48644014,2554.28162221));
#36601=CARTESIAN_POINT('Vertex',(9401.34,-1516.52368716,2581.2641048));
#36602=VERTEX_POINT('',#36601);
#36603=EDGE_CURVE('',#36602,#36594,#36596,.T.);
#36604=B_SPLINE_CURVE_WITH_KNOTS('',4,(#36605,#36606,#36607,#36608,#36609),.UNSPECIFIED.,.F.,.U.,(5,5),(0.,8.79364243254),.UNSPECIFIED.);
#36605=CARTESIAN_POINT('Control Point',(9401.34,-1518.7805091,2586.98981889));
#36606=CARTESIAN_POINT('Control Point',(9401.34,-1518.56944394,2585.45295022));
#36607=CARTESIAN_POINT('Control Point',(9401.34,-1518.11354529,2583.94760119));
#36608=CARTESIAN_POINT('Control Point',(9401.34,-1517.41985724,2582.53429336));
#36609=CARTESIAN_POINT('Control Point',(9401.34,-1516.52368716,2581.2641048));
#36610=CARTESIAN_POINT('Vertex',(9401.34,-1518.7805091,2586.98981889));
#36611=VERTEX_POINT('',#36610);
#36612=EDGE_CURVE('',#36611,#36602,#36604,.T.);
#36613=B_SPLINE_CURVE_WITH_KNOTS('',3,(#36614,#36615,#36616,#36617),.UNSPECIFIED.,.F.,.U.,(4,4),(0.,84.8079238812),.UNSPECIFIED.);
#36614=CARTESIAN_POINT('Control Point',(9401.34,-1526.93213729,2646.34581223));
#36615=CARTESIAN_POINT('Control Point',(9401.34,-1524.21196936,2626.53893858));
#36616=CARTESIAN_POINT('Control Point',(9401.34,-1521.49459074,2606.75237531));
#36617=CARTESIAN_POINT('Control Point',(9401.34,-1518.7805091,2586.98981889));
#36618=CARTESIAN_POINT('Vertex',(9401.34,-1526.93213729,2646.34581224));
#36619=VERTEX_POINT('',#36618);
#36620=EDGE_CURVE('',#36619,#36611,#36613,.T.);
#36621=B_SPLINE_CURVE_WITH_KNOTS('',4,(#36622,#36623,#36624,#36625,#36626),.UNSPECIFIED.,.F.,.U.,(5,5),(0.,6.05924345232),.UNSPECIFIED.);
#36622=CARTESIAN_POINT('Control Point',(9401.34,-1526.93213729,2646.34581224));
#36623=CARTESIAN_POINT('Control Point',(9401.34,-1527.07789748,2647.40716356));
#36624=CARTESIAN_POINT('Control Point',(9401.34,-1527.39217023,2648.44547929));
#36625=CARTESIAN_POINT('Control Point',(9401.34,-1527.86905073,2649.41973434));
#36626=CARTESIAN_POINT('Control Point',(9401.34,-1528.4849292,2650.29610166));
#36627=CARTESIAN_POINT('Vertex',(9401.34,-1528.48492889,2650.29610121));
#36628=VERTEX_POINT('',#36627);
#36629=EDGE_CURVE('',#36619,#36628,#36621,.T.);
#36630=B_SPLINE_CURVE_WITH_KNOTS('',1,(#36631,#36632),.UNSPECIFIED.,.F.,.U.,(2,2),(0.,3.45870427221),.UNSPECIFIED.);
#36631=CARTESIAN_POINT('Control Point',(9401.34,-1529.89113845,2652.29707406));
#36632=CARTESIAN_POINT('Control Point',(9401.34,-1528.48492889,2650.29610121));
#36633=CARTESIAN_POINT('Vertex',(9401.34,-1529.89113726,2652.29707237));
#36634=VERTEX_POINT('',#36633);
#36635=EDGE_CURVE('',#36634,#36628,#36630,.T.);
#36636=B_SPLINE_CURVE_WITH_KNOTS('',5,(#36637,#36638,#36639,#36640,#36641,#36642),.UNSPECIFIED.,.F.,.U.,(6,6),(35.6128447556,152.649356281),.UNSPECIFIED.);
#36637=CARTESIAN_POINT('Control Point',(9401.34,-1432.28387195,2717.72116679));
#36638=CARTESIAN_POINT('Control Point',(9401.34,-1452.09103226,2705.06956418));
#36639=CARTESIAN_POINT('Control Point',(9401.34,-1471.75856285,2692.19924348));
#36640=CARTESIAN_POINT('Control Point',(9401.34,-1491.28325819,2679.11225495));
#36641=CARTESIAN_POINT('Control Point',(9401.34,-1510.66182523,2665.81079953));
#36642=CARTESIAN_POINT('Control Point',(9401.34,-1529.89113845,2652.29707406));
#36643=EDGE_CURVE('',#36634,#36542,#36636,.F.);
#36644=EDGE_LOOP('',(#36645,#36646,#36647,#36648,#36649,#36650,#36651,#36652,#36653,#36654,#36655,#36656,#36657,#36658));
#36645=ORIENTED_EDGE('',*,*,#36543,.T.);
#36646=ORIENTED_EDGE('',*,*,#36497,.F.);
#36647=ORIENTED_EDGE('',*,*,#36551,.F.);
#36648=ORIENTED_EDGE('',*,*,#36559,.T.);
#36649=ORIENTED_EDGE('',*,*,#36567,.F.);
#36650=ORIENTED_EDGE('',*,*,#36577,.F.);
#36651=ORIENTED_EDGE('',*,*,#36585,.T.);
#36652=ORIENTED_EDGE('',*,*,#36595,.F.);
#36653=ORIENTED_EDGE('',*,*,#36603,.F.);
#36654=ORIENTED_EDGE('',*,*,#36612,.F.);
#36655=ORIENTED_EDGE('',*,*,#36620,.F.);
#36656=ORIENTED_EDGE('',*,*,#36629,.T.);
#36657=ORIENTED_EDGE('',*,*,#36635,.F.);
#36658=ORIENTED_EDGE('',*,*,#36643,.T.);
#36659=FACE_OUTER_BOUND('',#36644,.T.);
#36660=ADVANCED_FACE('PartBody',(#36659),#36525,.F.);
#36661=B_SPLINE_SURFACE_WITH_KNOTS('',5,1,((#36662,#36663),(#36664,#36665),(#36666,#36667),(#36668,#36669),(#36670,#36671),(#36672,#36673)),.UNSPECIFIED.,.F.,.F.,.U.,(6,6),(2,2),(35.4222746063,183.845962047),(-58.5555918985,54.0119741937),.UNSPECIFIED.);
#36662=CARTESIAN_POINT('Control Point',(9403.200000000001,-1432.12260859,2717.8241638));
#36663=CARTESIAN_POINT('Control Point',(9403.200000000001,-1371.53438105,2622.95307712));
#36664=CARTESIAN_POINT('Control Point',(9403.200000000001,-1457.2428613,2701.78142598));
#36665=CARTESIAN_POINT('Control Point',(9403.200000000001,-1395.59195719,2607.58900704));
#36666=CARTESIAN_POINT('Control Point',(9403.200000000001,-1482.13857444,2685.38690574));
#36667=CARTESIAN_POINT('Control Point',(9403.200000000001,-1419.43449071,2591.88803818));
#36668=CARTESIAN_POINT('Control Point',(9403.200000000001,-1506.80320823,2668.644798));
#36669=CARTESIAN_POINT('Control Point',(9403.200000000001,-1443.05573072,2575.85417079));
#36670=CARTESIAN_POINT('Control Point',(9403.200000000001,-1531.23000492,2651.55965969));
#36671=CARTESIAN_POINT('Control Point',(9403.200000000001,-1466.44918053,2559.49179424));
#36672=CARTESIAN_POINT('Control Point',(9403.200000000001,-1555.41280167,2634.13594928));
#36673=CARTESIAN_POINT('Control Point',(9403.200000000001,-1489.60895619,2542.80517188));
#36674=B_SPLINE_CURVE_WITH_KNOTS('',3,(#36675,#36676,#36677,#36678),.UNSPECIFIED.,.F.,.U.,(4,4),(-55.1940941188,61.8424200066),.UNSPECIFIED.);
#36675=CARTESIAN_POINT('Control Point',(9403.200000000001,-1529.89113845,2652.29707406));
#36676=CARTESIAN_POINT('Control Point',(9403.200000000001,-1497.84228237,2674.81995034));
#36677=CARTESIAN_POINT('Control Point',(9403.200000000001,-1465.29580436,2696.63516341));
#36678=CARTESIAN_POINT('Control Point',(9403.200000000001,-1432.28386975,2717.7211682));
#36679=CARTESIAN_POINT('Vertex',(9403.200000000001,-1529.89113608,2652.2970732));
#36680=VERTEX_POINT('',#36679);
#36681=CARTESIAN_POINT('Vertex',(9403.200000000001,-1432.28386855,2717.72117117));
#36682=VERTEX_POINT('',#36681);
#36683=EDGE_CURVE('',#36680,#36682,#36674,.T.);
#36684=B_SPLINE_CURVE_WITH_KNOTS('',1,(#36685,#36686),.UNSPECIFIED.,.F.,.U.,(2,2),(0.,3.45870427221),.UNSPECIFIED.);
#36685=CARTESIAN_POINT('Control Point',(9403.200000000001,-1529.89113845,2652.29707406));
#36686=CARTESIAN_POINT('Control Point',(9403.200000000001,-1528.48492889,2650.29610121));
#36687=CARTESIAN_POINT('Vertex',(9403.200000000001,-1528.48492889,2650.29610121));
#36688=VERTEX_POINT('',#36687);
#36689=EDGE_CURVE('',#36680,#36688,#36684,.T.);
#36690=B_SPLINE_CURVE_WITH_KNOTS('',4,(#36691,#36692,#36693,#36694,#36695),.UNSPECIFIED.,.F.,.U.,(5,5),(0.,6.05924345662),.UNSPECIFIED.);
#36691=CARTESIAN_POINT('Control Point',(9403.200000000001,-1526.93213729,2646.34581224));
#36692=CARTESIAN_POINT('Control Point',(9403.200000000001,-1527.07789748,2647.40716356));
#36693=CARTESIAN_POINT('Control Point',(9403.200000000001,-1527.39217023,2648.44547929));
#36694=CARTESIAN_POINT('Control Point',(9403.200000000001,-1527.86905073,2649.41973434));
#36695=CARTESIAN_POINT('Control Point',(9403.200000000001,-1528.4849292,2650.29610166));
#36696=CARTESIAN_POINT('Vertex',(9403.200000000001,-1526.93213729,2646.34581224));
#36697=VERTEX_POINT('',#36696);
#36698=EDGE_CURVE('',#36697,#36688,#36690,.T.);
#36699=B_SPLINE_CURVE_WITH_KNOTS('',3,(#36700,#36701,#36702,#36703),.UNSPECIFIED.,.F.,.U.,(4,4),(0.,84.8079238812),.UNSPECIFIED.);
#36700=CARTESIAN_POINT('Control Point',(9403.200000000001,-1526.93213729,2646.34581223));
#36701=CARTESIAN_POINT('Control Point',(9403.200000000001,-1524.21196936,2626.53893858));
#36702=CARTESIAN_POINT('Control Point',(9403.200000000001,-1521.49459074,2606.75237531));
#36703=CARTESIAN_POINT('Control Point',(9403.200000000001,-1518.7805091,2586.98981889));
#36704=CARTESIAN_POINT('Vertex',(9403.200000000001,-1518.7805091,2586.98981889));
#36705=VERTEX_POINT('',#36704);
#36706=EDGE_CURVE('',#36697,#36705,#36699,.T.);
#36707=B_SPLINE_CURVE_WITH_KNOTS('',4,(#36708,#36709,#36710,#36711,#36712),.UNSPECIFIED.,.F.,.U.,(5,5),(0.,8.79364243255),.UNSPECIFIED.);
#36708=CARTESIAN_POINT('Control Point',(9403.200000000001,-1518.7805091,2586.98981889));
#36709=CARTESIAN_POINT('Control Point',(9403.200000000001,-1518.56944394,2585.45295022));
#36710=CARTESIAN_POINT('Control Point',(9403.200000000001,-1518.11354529,2583.94760119));
#36711=CARTESIAN_POINT('Control Point',(9403.200000000001,-1517.41985724,2582.53429336));
#36712=CARTESIAN_POINT('Control Point',(9403.200000000001,-1516.52368716,2581.2641048));
#36713=CARTESIAN_POINT('Vertex',(9403.200000000001,-1516.52368716,2581.2641048));
#36714=VERTEX_POINT('',#36713);
#36715=EDGE_CURVE('',#36705,#36714,#36707,.T.);
#36716=B_SPLINE_CURVE_WITH_KNOTS('',3,(#36717,#36718,#36719,#36720),.UNSPECIFIED.,.F.,.U.,(4,4),(0.,46.7006217564),.UNSPECIFIED.);
#36717=CARTESIAN_POINT('Control Point',(9403.200000000001,-1516.52368716,2581.2641048));
#36718=CARTESIAN_POINT('Control Point',(9403.200000000001,-1510.17793606,2572.26994096));
#36719=CARTESIAN_POINT('Control Point',(9403.200000000001,-1503.83218697,2563.27577998));
#36720=CARTESIAN_POINT('Control Point',(9403.200000000001,-1497.48644014,2554.28162221));
#36721=CARTESIAN_POINT('Vertex',(9403.200000000001,-1497.48644014,2554.28162221));
#36722=VERTEX_POINT('',#36721);
#36723=EDGE_CURVE('',#36714,#36722,#36716,.T.);
#36724=B_SPLINE_CURVE_WITH_KNOTS('',5,(#36725,#36726,#36727,#36728,#36729,#36730),.UNSPECIFIED.,.F.,.U.,(6,6),(0.,29.1383049326),.UNSPECIFIED.);
#36725=CARTESIAN_POINT('Control Point',(9403.200000000001,-1497.48644014,2554.28162221));
#36726=CARTESIAN_POINT('Control Point',(9403.200000000001,-1495.11082758,2550.91454269));
#36727=CARTESIAN_POINT('Control Point',(9403.200000000001,-1491.39470127,2548.47811403));
#36728=CARTESIAN_POINT('Control Point',(9403.200000000001,-1486.88416628,2547.77257902));
#36729=CARTESIAN_POINT('Control Point',(9403.200000000001,-1482.68508522,2548.82010873));
#36730=CARTESIAN_POINT('Control Point',(9403.200000000001,-1479.38141093,2551.14553207));
#36731=CARTESIAN_POINT('Vertex',(9403.200000000001,-1479.38141093,2551.14553207));
#36732=VERTEX_POINT('',#36731);
#36733=EDGE_CURVE('',#36722,#36732,#36724,.T.);
#36734=B_SPLINE_CURVE_WITH_KNOTS('',3,(#36735,#36736,#36737,#36738),.UNSPECIFIED.,.F.,.U.,(4,4),(0.,130.528129235),.UNSPECIFIED.);
#36735=CARTESIAN_POINT('Control Point',(9403.200000000001,-1404.50016661,2601.93308304));
#36736=CARTESIAN_POINT('Control Point',(9403.200000000001,-1429.7507146,2585.43968944));
#36737=CARTESIAN_POINT('Control Point',(9403.200000000001,-1454.71614493,2568.50716644));
#36738=CARTESIAN_POINT('Control Point',(9403.200000000001,-1479.38141093,2551.14553207));
#36739=CARTESIAN_POINT('Vertex',(9403.200000000001,-1404.50016661,2601.93308304));
#36740=VERTEX_POINT('',#36739);
#36741=EDGE_CURVE('',#36740,#36732,#36734,.T.);
#36742=B_SPLINE_CURVE_WITH_KNOTS('',5,(#36743,#36744,#36745,#36746,#36747,#36748),.UNSPECIFIED.,.F.,.U.,(6,6),(0.,29.2738123313),.UNSPECIFIED.);
#36743=CARTESIAN_POINT('Control Point',(9403.200000000001,-1404.50016661,2601.93308304));
#36744=CARTESIAN_POINT('Control Point',(9403.200000000001,-1401.10237117,2604.15248745));
#36745=CARTESIAN_POINT('Control Point',(9403.200000000001,-1398.56907053,2607.68799963));
#36746=CARTESIAN_POINT('Control Point',(9403.200000000001,-1397.56576881,2612.16661255));
#36747=CARTESIAN_POINT('Control Point',(9403.200000000001,-1398.48353949,2616.5386336));
#36748=CARTESIAN_POINT('Control Point',(9403.200000000001,-1400.76819107,2619.99109167));
#36749=CARTESIAN_POINT('Vertex',(9403.200000000001,-1400.76819107,2619.99109167));
#36750=VERTEX_POINT('',#36749);
#36751=EDGE_CURVE('',#36740,#36750,#36742,.T.);
#36752=B_SPLINE_CURVE_WITH_KNOTS('',3,(#36753,#36754,#36755,#36756),.UNSPECIFIED.,.F.,.U.,(4,4),(0.,46.2598430598),.UNSPECIFIED.);
#36753=CARTESIAN_POINT('Control Point',(9403.200000000001,-1400.76819107,2619.99109167));
#36754=CARTESIAN_POINT('Control Point',(9403.200000000001,-1406.7853793,2629.08398368));
#36755=CARTESIAN_POINT('Control Point',(9403.200000000001,-1412.80256833,2638.17687689));
#36756=CARTESIAN_POINT('Control Point',(9403.200000000001,-1418.81975808,2647.26977118));
#36757=CARTESIAN_POINT('Vertex',(9403.200000000001,-1418.81975808,2647.26977118));
#36758=VERTEX_POINT('',#36757);
#36759=EDGE_CURVE('',#36750,#36758,#36752,.T.);
#36760=B_SPLINE_CURVE_WITH_KNOTS('',3,(#36761,#36762,#36763,#36764),.UNSPECIFIED.,.F.,.U.,(4,4),(0.,5.49809635192),.UNSPECIFIED.);
#36761=CARTESIAN_POINT('Control Point',(9403.200000000001,-1420.20934695,2650.86599353));
#36762=CARTESIAN_POINT('Control Point',(9403.200000000001,-1420.01234855,2649.58738753));
#36763=CARTESIAN_POINT('Control Point',(9403.200000000001,-1419.53491591,2648.35048408));
#36764=CARTESIAN_POINT('Control Point',(9403.200000000001,-1418.81975808,2647.26977118));
#36765=CARTESIAN_POINT('Vertex',(9403.200000000001,-1420.20934695,2650.86599353));
#36766=VERTEX_POINT('',#36765);
#36767=EDGE_CURVE('',#36766,#36758,#36760,.T.);
#36768=B_SPLINE_CURVE_WITH_KNOTS('',3,(#36769,#36770,#36771,#36772),.UNSPECIFIED.,.F.,.U.,(4,4),(1.07509413717E-005,87.8090684444),.UNSPECIFIED.);
#36769=CARTESIAN_POINT('Control Point',(9403.200000000001,-1420.20934695,2650.86599353));
#36770=CARTESIAN_POINT('Control Point',(9403.200000000001,-1423.35558848,2671.28636574));
#36771=CARTESIAN_POINT('Control Point',(9403.200000000001,-1426.50502541,2691.72747747));
#36772=CARTESIAN_POINT('Control Point',(9403.200000000001,-1429.657127,2712.18588383));
#36773=EDGE_CURVE('',#36766,#36511,#36768,.T.);
#36774=B_SPLINE_CURVE_WITH_KNOTS('',1,(#36775,#36776),.UNSPECIFIED.,.F.,.U.,(2,2),(0.,3.45869919558),.UNSPECIFIED.);
#36775=CARTESIAN_POINT('Control Point',(9403.200000000001,-1432.28386975,2717.7211682));
#36776=CARTESIAN_POINT('Control Point',(9403.200000000001,-1430.9673726,2715.66006772));
#36777=EDGE_CURVE('',#36682,#36503,#36774,.T.);
#36778=EDGE_LOOP('',(#36779,#36780,#36781,#36782,#36783,#36784,#36785,#36786,#36787,#36788,#36789,#36790,#36791,#36792));
#36779=ORIENTED_EDGE('',*,*,#36683,.F.);
#36780=ORIENTED_EDGE('',*,*,#36689,.T.);
#36781=ORIENTED_EDGE('',*,*,#36698,.F.);
#36782=ORIENTED_EDGE('',*,*,#36706,.T.);
#36783=ORIENTED_EDGE('',*,*,#36715,.T.);
#36784=ORIENTED_EDGE('',*,*,#36723,.T.);
#36785=ORIENTED_EDGE('',*,*,#36733,.T.);
#36786=ORIENTED_EDGE('',*,*,#36741,.F.);
#36787=ORIENTED_EDGE('',*,*,#36751,.T.);
#36788=ORIENTED_EDGE('',*,*,#36759,.T.);
#36789=ORIENTED_EDGE('',*,*,#36767,.F.);
#36790=ORIENTED_EDGE('',*,*,#36773,.T.);
#36791=ORIENTED_EDGE('',*,*,#36512,.T.);
#36792=ORIENTED_EDGE('',*,*,#36777,.F.);
#36793=FACE_OUTER_BOUND('',#36778,.T.);
#36794=ADVANCED_FACE('PartBody',(#36793),#36661,.T.);
#36795=CARTESIAN_POINT('Axis2P3D Location',(9401.34,-1420.20934579,2650.86598603));
#36796=DIRECTION('Axis2P3D Direction',(0,0.9883378800177848,0.1522768364589668));
#36797=DIRECTION('Axis2P3D XDirection',(0,-0.1522768364589668,0.9883378800177848));
#36798=AXIS2_PLACEMENT_3D('Plane Axis2P3D',#36795,#36796,#36797);
#36799=PLANE('',#36798);
#36800=CARTESIAN_POINT('Line Origine',(9402.27,-1420.20934579,2650.86598603));
#36801=DIRECTION('Vector Direction',(1,0,0));
#36802=VECTOR('Line Direction',#36801,1.);
#36803=LINE('Line',#36800,#36802);
#36804=EDGE_CURVE('',#36550,#36766,#36803,.T.);
#36805=EDGE_LOOP('',(#36806,#36807,#36808,#36809));
#36806=ORIENTED_EDGE('',*,*,#36551,.T.);
#36807=ORIENTED_EDGE('',*,*,#36517,.T.);
#36808=ORIENTED_EDGE('',*,*,#36773,.F.);
#36809=ORIENTED_EDGE('',*,*,#36804,.F.);
#36810=FACE_OUTER_BOUND('',#36805,.T.);
#36811=ADVANCED_FACE('PartBody',(#36810),#36799,.T.);
#36812=(BOUNDED_SURFACE()B_SPLINE_SURFACE(5,2,((#36813,#36814,#36815),(#36816,#36817,#36818),(#36819,#36820,#36821),(#36822,#36823,#36824),(#36825,#36826,#36827),(#36828,#36829,#36830)),.UNSPECIFIED.,.F.,.F.,.U.)B_SPLINE_SURFACE_WITH_KNOTS((6,6),(3,3),(0.,194.910524324),(8.09126103267,15.2681402964),.UNSPECIFIED.)GEOMETRIC_REPRESENTATION_ITEM()RATIONAL_B_SPLINE_SURFACE(((1.,0.739572007969,1.),(1.,0.739572007969,1.),(1.,0.739572007969,1.),(1.,0.739572007969,1.),(1.,0.739572007969,1.),(1.,0.739572007969,1.)))REPRESENTATION_ITEM('Rational BSpline Surface')SURFACE());
#36813=CARTESIAN_POINT('Control Point',(9405.743483140001,-1404.56958442,2740.87906184));
#36814=CARTESIAN_POINT('Control Point',(9401.34,-1404.35066159,2740.52594785));
#36815=CARTESIAN_POINT('Control Point',(9401.34,-1402.0200468,2736.7667571));
#36816=CARTESIAN_POINT('Control Point',(9405.743483140001,-1437.89665422,2720.21701904));
#36817=CARTESIAN_POINT('Control Point',(9401.34,-1437.67253723,2719.86712531));
#36818=CARTESIAN_POINT('Control Point',(9401.34,-1435.28662656,2716.14221677));
#36819=CARTESIAN_POINT('Control Point',(9405.743483140001,-1470.84380766,2698.94220793));
#36820=CARTESIAN_POINT('Control Point',(9401.34,-1470.61455109,2698.5956345));
#36821=CARTESIAN_POINT('Control Point',(9401.34,-1468.17396754,2694.9060177));
#36822=CARTESIAN_POINT('Control Point',(9405.743483140001,-1503.39654103,2677.06356624));
#36823=CARTESIAN_POINT('Control Point',(9401.34,-1503.16220422,2676.72037993));
#36824=CARTESIAN_POINT('Control Point',(9401.34,-1500.66762309,2673.06707656));
#36825=CARTESIAN_POINT('Control Point',(9405.743483140001,-1535.53913877,2654.59166627));
#36826=CARTESIAN_POINT('Control Point',(9401.34,-1535.29980391,2654.25200045));
#36827=CARTESIAN_POINT('Control Point',(9401.34,-1532.75188597,2650.63597675));
#36828=CARTESIAN_POINT('Control Point',(9405.743483140001,-1567.25783271,2631.53655636));
#36829=CARTESIAN_POINT('Control Point',(9401.34,-1567.01355436,2631.20048379));
#36830=CARTESIAN_POINT('Control Point',(9401.34,-1564.41300902,2627.62271292));
#36831=B_SPLINE_CURVE_WITH_KNOTS('',5,(#36832,#36833,#36834,#36835,#36836,#36837),.UNSPECIFIED.,.F.,.U.,(6,6),(0.,10.1526828196),.UNSPECIFIED.);
#36832=CARTESIAN_POINT('Control Point',(9405.743483140001,-1532.67317938,2656.25579297));
#36833=CARTESIAN_POINT('Control Point',(9404.381599570001,-1532.59929687,2656.15066148));
#36834=CARTESIAN_POINT('Control Point',(9402.95827026,-1532.24915442,2655.65242455));
#36835=CARTESIAN_POINT('Control Point',(9401.812616360001,-1531.52567016,2654.62293904));
#36836=CARTESIAN_POINT('Control Point',(9401.34,-1530.67766864,2653.41627108));
#36837=CARTESIAN_POINT('Control Point',(9401.34,-1529.89113726,2652.29707237));
#36838=CARTESIAN_POINT('Vertex',(9405.743483140001,-1532.67317958,2656.25578977));
#36839=VERTEX_POINT('',#36838);
#36840=EDGE_CURVE('',#36839,#36634,#36831,.T.);
#36841=(BOUNDED_CURVE()B_SPLINE_CURVE(5,(#36842,#36843,#36844,#36845,#36846,#36847),.UNSPECIFIED.,.F.,.U.)B_SPLINE_CURVE_WITH_KNOTS((6,6),(35.6128310414,152.649344537),.UNSPECIFIED.)CURVE()GEOMETRIC_REPRESENTATION_ITEM()RATIONAL_B_SPLINE_CURVE((1.,1.,1.,1.,1.,1.))REPRESENTATION_ITEM(''));
#36842=CARTESIAN_POINT('Control Point',(9405.743483140001,-1434.88842914,2721.79885154));
#36843=CARTESIAN_POINT('Control Point',(9405.743483140001,-1454.73160698,2709.12424746));
#36844=CARTESIAN_POINT('Control Point',(9405.743483140001,-1474.4349006,2696.23052706));
#36845=CARTESIAN_POINT('Control Point',(9405.743483140001,-1493.99509693,2683.11973909));
#36846=CARTESIAN_POINT('Control Point',(9405.743483140001,-1513.40890035,2669.79409349));
#36847=CARTESIAN_POINT('Control Point',(9405.743483140001,-1532.67317938,2656.25579297));
#36848=CARTESIAN_POINT('Vertex',(9405.743483140001,-1434.8884268,2721.79884787));
#36849=VERTEX_POINT('',#36848);
#36850=EDGE_CURVE('',#36839,#36849,#36841,.F.);
#36851=B_SPLINE_CURVE_WITH_KNOTS('',5,(#36852,#36853,#36854,#36855,#36856,#36857),.UNSPECIFIED.,.F.,.U.,(6,6),(0.,10.1526827449),.UNSPECIFIED.);
#36852=CARTESIAN_POINT('Control Point',(9405.743483140001,-1434.8884291,2721.79885156));
#36853=CARTESIAN_POINT('Control Point',(9404.38159952,-1434.81926068,2721.69056188));
#36854=CARTESIAN_POINT('Control Point',(9402.958269889999,-1434.49145647,2721.17735345));
#36855=CARTESIAN_POINT('Control Point',(9401.81261596,-1433.81412738,2720.11693088));
#36856=CARTESIAN_POINT('Control Point',(9401.34,-1433.02022486,2718.87400158));
#36857=CARTESIAN_POINT('Control Point',(9401.34,-1432.28387075,2717.72116976));
#36858=EDGE_CURVE('',#36849,#36542,#36851,.T.);
#36859=EDGE_LOOP('',(#36860,#36861,#36862,#36863));
#36860=ORIENTED_EDGE('',*,*,#36643,.F.);
#36861=ORIENTED_EDGE('',*,*,#36840,.F.);
#36862=ORIENTED_EDGE('',*,*,#36850,.T.);
#36863=ORIENTED_EDGE('',*,*,#36858,.T.);
#36864=FACE_OUTER_BOUND('',#36859,.T.);
#36865=ADVANCED_FACE('PartBody',(#36864),#36812,.F.);
#36866=CARTESIAN_POINT('Axis2P3D Location',(9401.34,-1535.84844581,2645.12129508));
#36867=DIRECTION('Axis2P3D Direction',(1,0,0));
#36868=DIRECTION('Axis2P3D XDirection',(0,0.9907009474209615,0.1360574613139947));
#36869=AXIS2_PLACEMENT_3D('Cylinder Axis2P3D',#36866,#36867,#36868);
#36870=CYLINDRICAL_SURFACE('generated cylinder',#36869,9.);
#36871=CARTESIAN_POINT('Line Origine',(9401.34,-1526.93213729,2646.34581224));
#36872=DIRECTION('Vector Direction',(1,0,0));
#36873=VECTOR('Line Direction',#36872,1.);
#36874=LINE('Line',#36871,#36873);
#36875=EDGE_CURVE('',#36619,#36697,#36874,.T.);
#36876=CARTESIAN_POINT('Line Origine',(9401.34,-1528.4849292,2650.29610166));
#36877=DIRECTION('Vector Direction',(1,0,0));
#36878=VECTOR('Line Direction',#36877,1.);
#36879=LINE('Line',#36876,#36878);
#36880=EDGE_CURVE('',#36628,#36688,#36879,.T.);
#36881=EDGE_LOOP('',(#36882,#36883,#36884,#36885));
#36882=ORIENTED_EDGE('',*,*,#36875,.T.);
#36883=ORIENTED_EDGE('',*,*,#36698,.T.);
#36884=ORIENTED_EDGE('',*,*,#36880,.F.);
#36885=ORIENTED_EDGE('',*,*,#36629,.F.);
#36886=FACE_OUTER_BOUND('',#36881,.T.);
#36887=ADVANCED_FACE('PartBody',(#36886),#36870,.F.);
#36888=CARTESIAN_POINT('Axis2P3D Location',(9401.34,-1526.93213729,2646.34581223));
#36889=DIRECTION('Axis2P3D Direction',(0,-0.9907009474208269,-0.1360574613149762));
#36890=DIRECTION('Axis2P3D XDirection',(0,0.1360574613149762,-0.9907009474208269));
#36891=AXIS2_PLACEMENT_3D('Plane Axis2P3D',#36888,#36889,#36890);
#36892=PLANE('',#36891);
#36893=CARTESIAN_POINT('Line Origine',(9402.27,-1518.7805091,2586.98981889));
#36894=DIRECTION('Vector Direction',(1,0,0));
#36895=VECTOR('Line Direction',#36894,1.);
#36896=LINE('Line',#36893,#36895);
#36897=EDGE_CURVE('',#36611,#36705,#36896,.T.);
#36898=EDGE_LOOP('',(#36899,#36900,#36901,#36902));
#36899=ORIENTED_EDGE('',*,*,#36620,.T.);
#36900=ORIENTED_EDGE('',*,*,#36897,.T.);
#36901=ORIENTED_EDGE('',*,*,#36706,.F.);
#36902=ORIENTED_EDGE('',*,*,#36875,.F.);
#36903=FACE_OUTER_BOUND('',#36898,.T.);
#36904=ADVANCED_FACE('PartBody',(#36903),#36892,.T.);
#36905=CARTESIAN_POINT('Axis2P3D Location',(9401.34,-1505.90139678,2588.75856589));
#36906=DIRECTION('Axis2P3D Direction',(1,0,0));
#36907=DIRECTION('Axis2P3D XDirection',(-0,-0.9907009474209615,-0.1360574613139947));
#36908=AXIS2_PLACEMENT_3D('Cylinder Axis2P3D',#36905,#36906,#36907);
#36909=CYLINDRICAL_SURFACE('generated cylinder',#36908,13.);
#36910=CARTESIAN_POINT('Line Origine',(9401.34,-1516.52368716,2581.2641048));
#36911=DIRECTION('Vector Direction',(1,0,0));
#36912=VECTOR('Line Direction',#36911,1.);
#36913=LINE('Line',#36910,#36912);
#36914=EDGE_CURVE('',#36602,#36714,#36913,.T.);
#36915=EDGE_LOOP('',(#36916,#36917,#36918,#36919));
#36916=ORIENTED_EDGE('',*,*,#36612,.T.);
#36917=ORIENTED_EDGE('',*,*,#36914,.T.);
#36918=ORIENTED_EDGE('',*,*,#36715,.F.);
#36919=ORIENTED_EDGE('',*,*,#36897,.F.);
#36920=FACE_OUTER_BOUND('',#36915,.T.);
#36921=ADVANCED_FACE('PartBody',(#36920),#36909,.T.);
#36922=CARTESIAN_POINT('Axis2P3D Location',(9401.34,-1516.52368716,2581.2641048));
#36923=DIRECTION('Axis2P3D Direction',(0,-0.8170992600658881,-0.576497007103921));
#36924=DIRECTION('Axis2P3D XDirection',(0,0.576497007103921,-0.8170992600658881));
#36925=AXIS2_PLACEMENT_3D('Plane Axis2P3D',#36922,#36923,#36924);
#36926=PLANE('',#36925);
#36927=CARTESIAN_POINT('Line Origine',(9402.27,-1497.48644014,2554.28162221));
#36928=DIRECTION('Vector Direction',(1,0,0));
#36929=VECTOR('Line Direction',#36928,1.);
#36930=LINE('Line',#36927,#36929);
#36931=EDGE_CURVE('',#36594,#36722,#36930,.T.);
#36932=EDGE_LOOP('',(#36933,#36934,#36935,#36936));
#36933=ORIENTED_EDGE('',*,*,#36603,.T.);
#36934=ORIENTED_EDGE('',*,*,#36931,.T.);
#36935=ORIENTED_EDGE('',*,*,#36723,.F.);
#36936=ORIENTED_EDGE('',*,*,#36914,.F.);
#36937=FACE_OUTER_BOUND('',#36932,.T.);
#36938=ADVANCED_FACE('PartBody',(#36937),#36926,.T.);
#36939=CARTESIAN_POINT('Axis2P3D Location',(9401.34,-1486.86414976,2561.7760833));
#36940=DIRECTION('Axis2P3D Direction',(1,0,0));
#36941=DIRECTION('Axis2P3D XDirection',(-0,-0.8170992600658881,-0.576497007103921));
#36942=AXIS2_PLACEMENT_3D('Cylinder Axis2P3D',#36939,#36940,#36941);
#36943=CYLINDRICAL_SURFACE('generated cylinder',#36942,13.);
#36944=CARTESIAN_POINT('Line Origine',(9401.34,-1479.38141093,2551.14553207));
#36945=DIRECTION('Vector Direction',(1,0,0));
#36946=VECTOR('Line Direction',#36945,1.);
#36947=LINE('Line',#36944,#36946);
#36948=EDGE_CURVE('',#36584,#36732,#36947,.T.);
#36949=EDGE_LOOP('',(#36950,#36951,#36952,#36953));
#36950=ORIENTED_EDGE('',*,*,#36595,.T.);
#36951=ORIENTED_EDGE('',*,*,#36948,.T.);
#36952=ORIENTED_EDGE('',*,*,#36733,.F.);
#36953=ORIENTED_EDGE('',*,*,#36931,.F.);
#36954=FACE_OUTER_BOUND('',#36949,.T.);
#36955=ADVANCED_FACE('PartBody',(#36954),#36943,.T.);
#36956=CARTESIAN_POINT('Axis2P3D Location',(9401.34,20.7805866906,419.900631603));
#36957=DIRECTION('Axis2P3D Direction',(1,0,0));
#36958=DIRECTION('Axis2P3D XDirection',(0,-0.546864203086087,0.8372213228191331));
#36959=AXIS2_PLACEMENT_3D('Cylinder Axis2P3D',#36956,#36957,#36958);
#36960=CYLINDRICAL_SURFACE('generated cylinder',#36959,2606.27911875);
#36961=CARTESIAN_POINT('Line Origine',(9401.34,-1404.50016661,2601.93308304));
#36962=DIRECTION('Vector Direction',(1,0,0));
#36963=VECTOR('Line Direction',#36962,1.);
#36964=LINE('Line',#36961,#36963);
#36965=EDGE_CURVE('',#36576,#36740,#36964,.T.);
#36966=EDGE_LOOP('',(#36967,#36968,#36969,#36970));
#36967=ORIENTED_EDGE('',*,*,#36965,.T.);
#36968=ORIENTED_EDGE('',*,*,#36741,.T.);
#36969=ORIENTED_EDGE('',*,*,#36948,.F.);
#36970=ORIENTED_EDGE('',*,*,#36585,.F.);
#36971=FACE_OUTER_BOUND('',#36966,.T.);
#36972=ADVANCED_FACE('PartBody',(#36971),#36960,.F.);
#36973=CARTESIAN_POINT('Axis2P3D Location',(9401.34,-1411.60940125,2612.81696024));
#36974=DIRECTION('Axis2P3D Direction',(1,0,0));
#36975=DIRECTION('Axis2P3D XDirection',(0,0.546864203086087,-0.8372213228191331));
#36976=AXIS2_PLACEMENT_3D('Cylinder Axis2P3D',#36973,#36974,#36975);
#36977=CYLINDRICAL_SURFACE('generated cylinder',#36976,13.);
#36978=CARTESIAN_POINT('Line Origine',(9401.34,-1400.76819107,2619.99109167));
#36979=DIRECTION('Vector Direction',(1,0,0));
#36980=VECTOR('Line Direction',#36979,1.);
#36981=LINE('Line',#36978,#36980);
#36982=EDGE_CURVE('',#36566,#36750,#36981,.T.);
#36983=EDGE_LOOP('',(#36984,#36985,#36986,#36987));
#36984=ORIENTED_EDGE('',*,*,#36577,.T.);
#36985=ORIENTED_EDGE('',*,*,#36982,.T.);
#36986=ORIENTED_EDGE('',*,*,#36751,.F.);
#36987=ORIENTED_EDGE('',*,*,#36965,.F.);
#36988=FACE_OUTER_BOUND('',#36983,.T.);
#36989=ADVANCED_FACE('PartBody',(#36988),#36977,.T.);
#36990=CARTESIAN_POINT('Axis2P3D Location',(9401.34,-1400.76819107,2619.99109167));
#36991=DIRECTION('Axis2P3D Direction',(0,0.8339392447494575,0.5518562639553026));
#36992=DIRECTION('Axis2P3D XDirection',(0,-0.5518562639553026,0.8339392447494575));
#36993=AXIS2_PLACEMENT_3D('Plane Axis2P3D',#36990,#36991,#36992);
#36994=PLANE('',#36993);
#36995=CARTESIAN_POINT('Line Origine',(9402.27,-1418.81975808,2647.26977118));
#36996=DIRECTION('Vector Direction',(1,0,0));
#36997=VECTOR('Line Direction',#36996,1.);
#36998=LINE('Line',#36995,#36997);
#36999=EDGE_CURVE('',#36558,#36758,#36998,.T.);
#37000=EDGE_LOOP('',(#37001,#37002,#37003,#37004));
#37001=ORIENTED_EDGE('',*,*,#36567,.T.);
#37002=ORIENTED_EDGE('',*,*,#36999,.T.);
#37003=ORIENTED_EDGE('',*,*,#36759,.F.);
#37004=ORIENTED_EDGE('',*,*,#36982,.F.);
#37005=FACE_OUTER_BOUND('',#37000,.T.);
#37006=ADVANCED_FACE('PartBody',(#37005),#36994,.T.);
#37007=CARTESIAN_POINT('Axis2P3D Location',(9401.34,-1411.31430487,2652.23647756));
#37008=DIRECTION('Axis2P3D Direction',(1,0,0));
#37009=DIRECTION('Axis2P3D XDirection',(-0,-0.9883380084156391,-0.1522760031029444));
#37010=AXIS2_PLACEMENT_3D('Cylinder Axis2P3D',#37007,#37008,#37009);
#37011=CYLINDRICAL_SURFACE('generated cylinder',#37010,9.);
#37012=EDGE_LOOP('',(#37013,#37014,#37015,#37016));
#37013=ORIENTED_EDGE('',*,*,#36804,.T.);
#37014=ORIENTED_EDGE('',*,*,#36767,.T.);
#37015=ORIENTED_EDGE('',*,*,#36999,.F.);
#37016=ORIENTED_EDGE('',*,*,#36559,.F.);
#37017=FACE_OUTER_BOUND('',#37012,.T.);
#37018=ADVANCED_FACE('PartBody',(#37017),#37011,.F.);
#37019=B_SPLINE_SURFACE_WITH_KNOTS('',5,5,((#37020,#37021,#37022,#37023,#37024,#37025,#37026,#37027,#37028),(#37029,#37030,#37031,#37032,#37033,#37034,#37035,#37036,#37037),(#37038,#37039,#37040,#37041,#37042,#37043,#37044,#37045,#37046),(#37047,#37048,#37049,#37050,#37051,#37052,#37053,#37054,#37055),(#37056,#37057,#37058,#37059,#37060,#37061,#37062,#37063,#37064),(#37065,#37066,#37067,#37068,#37069,#37070,#37071,#37072,#37073)),.UNSPECIFIED.,.F.,.F.,.U.,(6,6),(6,3,6),(35.6128356472,152.649357718),(8.09126103267,11.6797006646,15.2681402964),.UNSPECIFIED.);
#37020=CARTESIAN_POINT('Control Point',(9405.918199739999,-1433.89162327,2720.238258));
#37021=CARTESIAN_POINT('Control Point',(9405.51613896,-1433.87120285,2720.20628844));
#37022=CARTESIAN_POINT('Control Point',(9405.094493639999,-1433.81319032,2720.11546524));
#37023=CARTESIAN_POINT('Control Point',(9404.67262811,-1433.70801822,2719.95080973));
#37024=CARTESIAN_POINT('Control Point',(9403.914967729999,-1433.40330437,2719.4737549));
#37025=CARTESIAN_POINT('Control Point',(9403.42257345,-1432.96863626,2718.79324537));
#37026=CARTESIAN_POINT('Control Point',(9403.26768653,-1432.73267094,2718.42382168));
#37027=CARTESIAN_POINT('Control Point',(9403.200000000001,-1432.50125352,2718.06151803));
#37028=CARTESIAN_POINT('Control Point',(9403.200000000001,-1432.28386304,2717.72117468));
#37029=CARTESIAN_POINT('Control Point',(9405.91820027,-1453.72101854,2707.5724574));
#37030=CARTESIAN_POINT('Control Point',(9405.51613953,-1453.70031555,2707.54066819));
#37031=CARTESIAN_POINT('Control Point',(9405.09449421,-1453.64150059,2707.45035737));
#37032=CARTESIAN_POINT('Control Point',(9404.672628619999,-1453.53487393,2707.28663075));
#37033=CARTESIAN_POINT('Control Point',(9403.91496803,-1453.22594596,2706.81226709));
#37034=CARTESIAN_POINT('Control Point',(9403.422573530001,-1452.78526671,2706.13559633));
#37035=CARTESIAN_POINT('Control Point',(9403.267686540001,-1452.5460382,2705.76825657));
#37036=CARTESIAN_POINT('Control Point',(9403.200000000001,-1452.31142054,2705.4079967));
#37037=CARTESIAN_POINT('Control Point',(9403.200000000001,-1452.09102383,2705.06957329));
#37038=CARTESIAN_POINT('Control Point',(9405.918201500001,-1473.41062677,2694.68769271));
#37039=CARTESIAN_POINT('Control Point',(9405.516140719999,-1473.38964315,2694.65608683));
#37040=CARTESIAN_POINT('Control Point',(9405.09449528,-1473.33003139,2694.56629707));
#37041=CARTESIAN_POINT('Control Point',(9404.67262945,-1473.22196037,2694.4035152));
#37042=CARTESIAN_POINT('Control Point',(9403.91496837,-1472.90884788,2693.93188882));
#37043=CARTESIAN_POINT('Control Point',(9403.422573579999,-1472.46219985,2693.25912299));
#37044=CARTESIAN_POINT('Control Point',(9403.26768655,-1472.21973121,2692.89390317));
#37045=CARTESIAN_POINT('Control Point',(9403.200000000001,-1471.98193597,2692.53572252));
#37046=CARTESIAN_POINT('Control Point',(9403.200000000001,-1471.75855435,2692.1992524));
#37047=CARTESIAN_POINT('Control Point',(9405.918203310001,-1492.95723732,2681.58601111));
#37048=CARTESIAN_POINT('Control Point',(9405.516142279999,-1492.93597529,2681.55459134));
#37049=CARTESIAN_POINT('Control Point',(9405.094496469999,-1492.87557271,2681.46533113));
#37050=CARTESIAN_POINT('Control Point',(9404.67263017,-1492.76606802,2681.30350961));
#37051=CARTESIAN_POINT('Control Point',(9403.914968380001,-1492.44880185,2680.83466618));
#37052=CARTESIAN_POINT('Control Point',(9403.422573440001,-1491.99622904,2680.16587126));
#37053=CARTESIAN_POINT('Control Point',(9403.26768649,-1491.75054419,2679.80280741));
#37054=CARTESIAN_POINT('Control Point',(9403.200000000001,-1491.50959488,2679.44674146));
#37055=CARTESIAN_POINT('Control Point',(9403.200000000001,-1491.28325045,2679.11225803));
#37056=CARTESIAN_POINT('Control Point',(9405.91820274,-1512.35755637,2668.26962101));
#37057=CARTESIAN_POINT('Control Point',(9405.51614168,-1512.33601829,2668.23839086));
#37058=CARTESIAN_POINT('Control Point',(9405.09449587,-1512.27483112,2668.14966937));
#37059=CARTESIAN_POINT('Control Point',(9404.672629639999,-1512.16390382,2667.98882454));
#37060=CARTESIAN_POINT('Control Point',(9403.91496808,-1511.84251575,2667.52281099));
#37061=CARTESIAN_POINT('Control Point',(9403.422573350001,-1511.38406288,2666.85805295));
#37062=CARTESIAN_POINT('Control Point',(9403.267686470001,-1511.13518591,2666.49718057));
#37063=CARTESIAN_POINT('Control Point',(9403.200000000001,-1510.89110595,2666.14326383));
#37064=CARTESIAN_POINT('Control Point',(9403.200000000001,-1510.66182059,2665.81079929));
#37065=CARTESIAN_POINT('Control Point',(9405.91820147,-1531.60845479,2654.74072365));
#37066=CARTESIAN_POINT('Control Point',(9405.516140469999,-1531.5866428,2654.70968634));
#37067=CARTESIAN_POINT('Control Point',(9405.094494819999,-1531.52467707,2654.62151238));
#37068=CARTESIAN_POINT('Control Point',(9404.672628849999,-1531.41233814,2654.46166006));
#37069=CARTESIAN_POINT('Control Point',(9403.91496779,-1531.08685998,2653.99852196));
#37070=CARTESIAN_POINT('Control Point',(9403.422573330001,-1530.62257228,2653.33786536));
#37071=CARTESIAN_POINT('Control Point',(9403.267686470001,-1530.37052771,2652.97921939));
#37072=CARTESIAN_POINT('Control Point',(9403.200000000001,-1530.12334106,2652.62748599));
#37073=CARTESIAN_POINT('Control Point',(9403.200000000001,-1529.89113726,2652.29707237));
#37074=B_SPLINE_CURVE_WITH_KNOTS('',5,(#37075,#37076,#37077,#37078,#37079,#37080),.UNSPECIFIED.,.F.,.U.,(6,6),(0.,8.43723399307),.UNSPECIFIED.);
#37075=CARTESIAN_POINT('Control Point',(9405.918199739999,-1433.89162327,2720.238258));
#37076=CARTESIAN_POINT('Control Point',(9405.094340170001,-1433.84978044,2720.17274911));
#37077=CARTESIAN_POINT('Control Point',(9404.2073315,-1433.65576971,2719.86900701));
#37078=CARTESIAN_POINT('Control Point',(9403.475503260001,-1433.22290601,2719.19131805));
#37079=CARTESIAN_POINT('Control Point',(9403.200000000001,-1432.72932195,2718.41856564));
#37080=CARTESIAN_POINT('Control Point',(9403.200000000001,-1432.28387075,2717.72116976));
#37081=CARTESIAN_POINT('Vertex',(9405.918199870001,-1433.89162072,2720.2382545));
#37082=VERTEX_POINT('',#37081);
#37083=EDGE_CURVE('',#37082,#36682,#37074,.T.);
#37084=B_SPLINE_CURVE_WITH_KNOTS('',3,(#37085,#37086,#37087,#37088),.UNSPECIFIED.,.F.,.U.,(4,4),(-55.1940874415,61.842426515),.UNSPECIFIED.);
#37085=CARTESIAN_POINT('Control Point',(9405.91820147,-1531.60844811,2654.74072834));
#37086=CARTESIAN_POINT('Control Point',(9405.91820358,-1499.52361957,2677.28888894));
#37087=CARTESIAN_POINT('Control Point',(9405.918200620001,-1466.94061309,2699.12859179));
#37088=CARTESIAN_POINT('Control Point',(9405.918199739999,-1433.89162327,2720.238258));
#37089=CARTESIAN_POINT('Vertex',(9405.91819909,-1531.60844835,2654.74072485));
#37090=VERTEX_POINT('',#37089);
#37091=EDGE_CURVE('',#37090,#37082,#37084,.T.);
#37092=B_SPLINE_CURVE_WITH_KNOTS('',5,(#37093,#37094,#37095,#37096,#37097,#37098),.UNSPECIFIED.,.F.,.U.,(6,6),(5.3383368719E-006,8.43723502915),.UNSPECIFIED.);
#37093=CARTESIAN_POINT('Control Point',(9405.918198859999,-1531.60844797,2654.74072814));
#37094=CARTESIAN_POINT('Control Point',(9405.09433923,-1531.56375299,2654.67712919));
#37095=CARTESIAN_POINT('Control Point',(9404.20733067,-1531.35652089,2654.38224725));
#37096=CARTESIAN_POINT('Control Point',(9403.47550294,-1530.89416021,2653.72432883));
#37097=CARTESIAN_POINT('Control Point',(9403.200000000001,-1530.3669422,2652.97412136));
#37098=CARTESIAN_POINT('Control Point',(9403.200000000001,-1529.89113726,2652.29707237));
#37099=EDGE_CURVE('',#37090,#36680,#37092,.T.);
#37100=EDGE_LOOP('',(#37101,#37102,#37103,#37104));
#37101=ORIENTED_EDGE('',*,*,#37083,.F.);
#37102=ORIENTED_EDGE('',*,*,#37091,.F.);
#37103=ORIENTED_EDGE('',*,*,#37099,.T.);
#37104=ORIENTED_EDGE('',*,*,#36683,.T.);
#37105=FACE_OUTER_BOUND('',#37100,.T.);
#37106=ADVANCED_FACE('PartBody',(#37105),#37019,.T.);
#37107=CARTESIAN_POINT('Axis2P3D Location',(9401.34,-1430.9673726,2715.66006772));
#37108=DIRECTION('Axis2P3D Direction',(0,0.8427550697464375,0.5382972156872794));
#37109=DIRECTION('Axis2P3D XDirection',(0,-0.5382972156872794,0.8427550697464375));
#37110=AXIS2_PLACEMENT_3D('Plane Axis2P3D',#37107,#37108,#37109);
#37111=PLANE('',#37110);
#37112=B_SPLINE_CURVE_WITH_KNOTS('',5,(#37113,#37114,#37115,#37116,#37117,#37118),.UNSPECIFIED.,.F.,.U.,(6,6),(0.,16.9662737443),.UNSPECIFIED.);
#37113=CARTESIAN_POINT('Control Point',(9405.918199870001,-1433.89162094,2720.23825435));
#37114=CARTESIAN_POINT('Control Point',(9408.30690657,-1434.01294056,2720.42819165));
#37115=CARTESIAN_POINT('Control Point',(9410.695636930001,-1434.13412532,2720.61791783));
#37116=CARTESIAN_POINT('Control Point',(9413.084390960001,-1434.25517523,2720.80743289));
#37117=CARTESIAN_POINT('Control Point',(9415.4731686,-1434.37609029,2720.99673682));
#37118=CARTESIAN_POINT('Control Point',(9417.8619698,-1434.49687049,2721.18582962));
#37119=CARTESIAN_POINT('Vertex',(9417.8619698,-1434.49687049,2721.18582962));
#37120=VERTEX_POINT('',#37119);
#37121=EDGE_CURVE('',#37082,#37120,#37112,.T.);
#37122=B_SPLINE_CURVE_WITH_KNOTS('',5,(#37123,#37124,#37125,#37126,#37127,#37128),.UNSPECIFIED.,.F.,.U.,(6,6),(0.,16.9681171932),.UNSPECIFIED.);
#37123=CARTESIAN_POINT('Control Point',(9405.743483140001,-1434.88842676,2721.7988479));
#37124=CARTESIAN_POINT('Control Point',(9408.13252707,-1435.00976351,2721.98881202));
#37125=CARTESIAN_POINT('Control Point',(9410.521594670001,-1435.13096537,2722.17856496));
#37126=CARTESIAN_POINT('Control Point',(9412.91068594,-1435.25203235,2722.36810674));
#37127=CARTESIAN_POINT('Control Point',(9415.299800840001,-1435.37296445,2722.55743735));
#37128=CARTESIAN_POINT('Control Point',(9417.688939289999,-1435.49376166,2722.74655678));
#37129=CARTESIAN_POINT('Vertex',(9417.688939289999,-1435.49376166,2722.74655678));
#37130=VERTEX_POINT('',#37129);
#37131=EDGE_CURVE('',#36849,#37130,#37122,.T.);
#37132=CARTESIAN_POINT('Line Origine',(9417.77545454,-1434.99531608,2721.9661932));
#37133=DIRECTION('Vector Direction',(-0.09302714443268109,-0.535962929052891,0.8391005238228294));
#37134=VECTOR('Line Direction',#37133,1.);
#37135=LINE('Line',#37132,#37134);
#37136=EDGE_CURVE('',#37120,#37130,#37135,.T.);
#37137=EDGE_LOOP('',(#37138,#37139,#37140,#37141,#37142,#37143,#37144,#37145));
#37138=ORIENTED_EDGE('',*,*,#37121,.F.);
#37139=ORIENTED_EDGE('',*,*,#37083,.T.);
#37140=ORIENTED_EDGE('',*,*,#36777,.T.);
#37141=ORIENTED_EDGE('',*,*,#36504,.F.);
#37142=ORIENTED_EDGE('',*,*,#36543,.F.);
#37143=ORIENTED_EDGE('',*,*,#36858,.F.);
#37144=ORIENTED_EDGE('',*,*,#37131,.T.);
#37145=ORIENTED_EDGE('',*,*,#37136,.F.);
#37146=FACE_OUTER_BOUND('',#37137,.T.);
#37147=ADVANCED_FACE('PartBody',(#37146),#37111,.T.);
#37148=B_SPLINE_SURFACE_WITH_KNOTS('',2,5,((#37149,#37150,#37151,#37152,#37153,#37154,#37155,#37156,#37157),(#37158,#37159,#37160,#37161,#37162,#37163,#37164,#37165,#37166),(#37167,#37168,#37169,#37170,#37171,#37172,#37173,#37174,#37175)),.UNSPECIFIED.,.F.,.F.,.U.,(3,3),(6,3,6),(12.0258299837,14.7063736315),(0.,7.,14.),.UNSPECIFIED.);
#37149=CARTESIAN_POINT('Control Point',(9417.86506011,-1434.47906621,2721.15795533));
#37150=CARTESIAN_POINT('Control Point',(9420.0553201,-1434.58922391,2721.33041761));
#37151=CARTESIAN_POINT('Control Point',(9422.24561485,-1435.06342569,2721.27035603));
#37152=CARTESIAN_POINT('Control Point',(9424.32310084,-1435.89654401,2720.96853529));
#37153=CARTESIAN_POINT('Control Point',(9428.02823206,-1438.19062339,2719.91399689));
#37154=CARTESIAN_POINT('Control Point',(9430.51657718,-1441.45292077,2718.10612433));
#37155=CARTESIAN_POINT('Control Point',(9431.376396240001,-1443.25495798,2717.05042408));
#37156=CARTESIAN_POINT('Control Point',(9431.805419189999,-1445.13063456,2715.89992745));
#37157=CARTESIAN_POINT('Control Point',(9431.80434846,-1446.98447246,2714.71569746));
#37158=CARTESIAN_POINT('Control Point',(9417.776896789999,-1434.98700686,2721.95318434));
#37159=CARTESIAN_POINT('Control Point',(9419.96715654,-1435.09716456,2722.1256466));
#37160=CARTESIAN_POINT('Control Point',(9422.15745105,-1435.57136624,2722.06558506));
#37161=CARTESIAN_POINT('Control Point',(9424.23493683,-1436.40448439,2721.7637644));
#37162=CARTESIAN_POINT('Control Point',(9427.940067789999,-1438.69856331,2720.70922628));
#37163=CARTESIAN_POINT('Control Point',(9430.42841303,-1441.9608601,2718.90135411));
#37164=CARTESIAN_POINT('Control Point',(9431.28823226,-1443.76289703,2717.84565406));
#37165=CARTESIAN_POINT('Control Point',(9431.717255490001,-1445.63857335,2716.69515762));
#37166=CARTESIAN_POINT('Control Point',(9431.71618515,-1447.49241106,2715.5109278));
#37167=CARTESIAN_POINT('Control Point',(9417.68873347,-1435.49494752,2722.74841336));
#37168=CARTESIAN_POINT('Control Point',(9419.87899298,-1435.6051052,2722.9208756));
#37169=CARTESIAN_POINT('Control Point',(9422.06928724,-1436.07930679,2722.86081409));
#37170=CARTESIAN_POINT('Control Point',(9424.14677282,-1436.91242478,2722.55899353));
#37171=CARTESIAN_POINT('Control Point',(9427.851903520001,-1439.20650323,2721.50445567));
#37172=CARTESIAN_POINT('Control Point',(9430.340248869999,-1442.46879944,2719.69658388));
#37173=CARTESIAN_POINT('Control Point',(9431.20006827,-1444.27083607,2718.64088405));
#37174=CARTESIAN_POINT('Control Point',(9431.629091790001,-1446.14651214,2717.4903878));
#37175=CARTESIAN_POINT('Control Point',(9431.62802183,-1448.00034967,2716.30615814));
#37176=B_SPLINE_CURVE_WITH_KNOTS('',5,(#37177,#37178,#37179,#37180,#37181,#37182),.UNSPECIFIED.,.F.,.U.,(6,6),(0.,26.0126128308),.UNSPECIFIED.);
#37177=CARTESIAN_POINT('Control Point',(9431.6313156,-1447.98137312,2716.2764484));
#37178=CARTESIAN_POINT('Control Point',(9431.631315230001,-1444.27713144,2718.66996261));
#37179=CARTESIAN_POINT('Control Point',(9429.90678428,-1440.47513646,2720.92402859));
#37180=CARTESIAN_POINT('Control Point',(9426.43080765,-1437.37988178,2722.51503527));
#37181=CARTESIAN_POINT('Control Point',(9422.058757180001,-1435.71470395,2723.09246278));
#37182=CARTESIAN_POINT('Control Point',(9417.688939310001,-1435.49376162,2722.74655671));
#37183=CARTESIAN_POINT('Vertex',(9431.6313156,-1447.98137302,2716.27644824));
#37184=VERTEX_POINT('',#37183);
#37185=EDGE_CURVE('',#37130,#37184,#37176,.F.);
#37186=B_SPLINE_CURVE_WITH_KNOTS('',5,(#37187,#37188,#37189,#37190,#37191,#37192,#37193,#37194,#37195),.UNSPECIFIED.,.F.,.U.,(6,3,6),(12.0258299837,14.4718587716,14.656301176),.UNSPECIFIED.);
#37187=CARTESIAN_POINT('Control Point',(9431.80434846,-1446.98447246,2714.71569746));
#37188=CARTESIAN_POINT('Control Point',(9431.772168420001,-1447.16987253,2715.00596042));
#37189=CARTESIAN_POINT('Control Point',(9431.739988380001,-1447.3552726,2715.29622337));
#37190=CARTESIAN_POINT('Control Point',(9431.707808339999,-1447.54067267,2715.58648633));
#37191=CARTESIAN_POINT('Control Point',(9431.67320177,-1447.7400528,2715.89863651));
#37192=CARTESIAN_POINT('Control Point',(9431.6385952,-1447.93943294,2716.2107867));
#37193=CARTESIAN_POINT('Control Point',(9431.636168659999,-1447.953413,2716.23267393));
#37194=CARTESIAN_POINT('Control Point',(9431.63374213,-1447.96739306,2716.25456116));
#37195=CARTESIAN_POINT('Control Point',(9431.6313156,-1447.98137312,2716.2764484));
#37196=CARTESIAN_POINT('Vertex',(9431.80434846,-1446.98447246,2714.71569746));
#37197=VERTEX_POINT('',#37196);
#37198=EDGE_CURVE('',#37197,#37184,#37186,.T.);
#37199=B_SPLINE_CURVE_WITH_KNOTS('',5,(#37200,#37201,#37202,#37203,#37204,#37205,#37206,#37207,#37208,#37209,#37210,#37211,#37212,#37213,#37214,#37215,#37216,#37217),.UNSPECIFIED.,.F.,.U.,(6,3,3,3,3,6),(0.,0.865770643339,1.73604246582,9.01637834445,16.2805883423,26.014957854),.UNSPECIFIED.);
#37200=CARTESIAN_POINT('Control Point',(9417.861969830001,-1434.49687044,2721.18582953));
#37201=CARTESIAN_POINT('Control Point',(9418.00740255,-1434.50422366,2721.1973417));
#37202=CARTESIAN_POINT('Control Point',(9418.152835360001,-1434.51318193,2721.20782756));
#37203=CARTESIAN_POINT('Control Point',(9418.302073450001,-1434.52403983,2721.21752312));
#37204=CARTESIAN_POINT('Control Point',(9418.5934956,-1434.54849619,2721.23437509));
#37205=CARTESIAN_POINT('Control Point',(9418.88452155,-1434.57937741,2721.24707446));
#37206=CARTESIAN_POINT('Control Point',(9419.03033781,-1434.59647664,2721.25239731));
#37207=CARTESIAN_POINT('Control Point',(9420.393888459999,-1434.77161475,2721.29242569));
#37208=CARTESIAN_POINT('Control Point',(9421.73998799,-1435.08735918,2721.24058473));
#37209=CARTESIAN_POINT('Control Point',(9422.90922564,-1435.47896002,2721.12047644));
#37210=CARTESIAN_POINT('Control Point',(9425.140503209999,-1436.46753799,2720.73667067));
#37211=CARTESIAN_POINT('Control Point',(9427.096050390001,-1437.83103961,2720.08119463));
#37212=CARTESIAN_POINT('Control Point',(9427.987294279999,-1438.59639049,2719.68991712));
#37213=CARTESIAN_POINT('Control Point',(9429.83801868,-1440.55543095,2718.63924155));
#37214=CARTESIAN_POINT('Control Point',(9431.07886084,-1442.82944424,2717.31524302));
#37215=CARTESIAN_POINT('Control Point',(9431.56256993,-1444.20050214,2716.48617345));
#37216=CARTESIAN_POINT('Control Point',(9431.804348330001,-1445.59896664,2715.61095612));
#37217=CARTESIAN_POINT('Control Point',(9431.80434846,-1446.98447246,2714.71569746));
#37218=EDGE_CURVE('',#37197,#37120,#37199,.F.);
#37219=EDGE_LOOP('',(#37220,#37221,#37222,#37223));
#37220=ORIENTED_EDGE('',*,*,#37185,.T.);
#37221=ORIENTED_EDGE('',*,*,#37198,.F.);
#37222=ORIENTED_EDGE('',*,*,#37218,.T.);
#37223=ORIENTED_EDGE('',*,*,#37136,.T.);
#37224=FACE_OUTER_BOUND('',#37219,.T.);
#37225=ADVANCED_FACE('PartBody',(#37224),#37148,.T.);
#37226=CARTESIAN_POINT('Axis2P3D Location',(9401.34,-1537.97713942,2663.80308913));
#37227=DIRECTION('Axis2P3D Direction',(0,-0.8181685121378265,-0.5749785089428781));
#37228=DIRECTION('Axis2P3D XDirection',(0,0.5749785089428781,-0.8181685121378265));
#37229=AXIS2_PLACEMENT_3D('Plane Axis2P3D',#37226,#37227,#37228);
#37230=PLANE('',#37229);
#37231=B_SPLINE_CURVE_WITH_KNOTS('',5,(#37232,#37233,#37234,#37235,#37236,#37237),.UNSPECIFIED.,.F.,.U.,(6,6),(26.8748841477,43.843010636),.UNSPECIFIED.);
#37232=CARTESIAN_POINT('Control Point',(9417.688945989999,-1533.31976076,2657.17584913));
#37233=CARTESIAN_POINT('Control Point',(9415.29980621,-1533.19073214,2656.99224723));
#37234=CARTESIAN_POINT('Control Point',(9412.91068999,-1533.06155955,2656.80844045));
#37235=CARTESIAN_POINT('Control Point',(9410.52159737,-1532.93224299,2656.6244288));
#37236=CARTESIAN_POINT('Control Point',(9408.13252843,-1532.80278245,2656.44021229));
#37237=CARTESIAN_POINT('Control Point',(9405.743483140001,-1532.67317795,2656.25579092));
#37238=CARTESIAN_POINT('Vertex',(9417.688945989999,-1533.31976076,2657.17584913));
#37239=VERTEX_POINT('',#37238);
#37240=EDGE_CURVE('',#37239,#36839,#37231,.T.);
#37241=B_SPLINE_CURVE_WITH_KNOTS('',5,(#37242,#37243,#37244,#37245,#37246,#37247),.UNSPECIFIED.,.F.,.U.,(6,6),(26.8753016626,43.8415859454),.UNSPECIFIED.);
#37242=CARTESIAN_POINT('Control Point',(9417.86197686,-1532.25493826,2655.66065469));
#37243=CARTESIAN_POINT('Control Point',(9415.47317411,-1532.1259278,2655.47707862));
#37244=CARTESIAN_POINT('Control Point',(9413.08439491,-1531.9967734,2655.29329773));
#37245=CARTESIAN_POINT('Control Point',(9410.695639310001,-1531.86747505,2655.10931201));
#37246=CARTESIAN_POINT('Control Point',(9408.306907370001,-1531.73803277,2654.92512147));
#37247=CARTESIAN_POINT('Control Point',(9405.91819909,-1531.60844655,2654.74072611));
#37248=CARTESIAN_POINT('Vertex',(9417.86197686,-1532.25493826,2655.66065469));
#37249=VERTEX_POINT('',#37248);
#37250=EDGE_CURVE('',#37249,#37090,#37241,.T.);
#37251=CARTESIAN_POINT('Line Origine',(9417.77546142,-1532.78734951,2656.41825191));
#37252=DIRECTION('Vector Direction',(-0.09302734146951559,-0.5724851459700959,0.8146205689661365));
#37253=VECTOR('Line Direction',#37252,1.);
#37254=LINE('Line',#37251,#37253);
#37255=EDGE_CURVE('',#37249,#37239,#37254,.T.);
#37256=EDGE_LOOP('',(#37257,#37258,#37259,#37260,#37261,#37262,#37263,#37264));
#37257=ORIENTED_EDGE('',*,*,#37240,.T.);
#37258=ORIENTED_EDGE('',*,*,#36840,.T.);
#37259=ORIENTED_EDGE('',*,*,#36635,.T.);
#37260=ORIENTED_EDGE('',*,*,#36880,.T.);
#37261=ORIENTED_EDGE('',*,*,#36689,.F.);
#37262=ORIENTED_EDGE('',*,*,#37099,.F.);
#37263=ORIENTED_EDGE('',*,*,#37250,.F.);
#37264=ORIENTED_EDGE('',*,*,#37255,.T.);
#37265=FACE_OUTER_BOUND('',#37256,.T.);
#37266=ADVANCED_FACE('PartBody',(#37265),#37230,.T.);
#37267=B_SPLINE_SURFACE_WITH_KNOTS('',5,3,((#37268,#37269,#37270,#37271),(#37272,#37273,#37274,#37275),(#37276,#37277,#37278,#37279),(#37280,#37281,#37282,#37283),(#37284,#37285,#37286,#37287),(#37288,#37289,#37290,#37291)),.UNSPECIFIED.,.F.,.F.,.U.,(6,6),(4,4),(35.6080226813,152.977658776),(47600.8604219,47626.9755817),.UNSPECIFIED.);
#37268=CARTESIAN_POINT('Control Point',(9431.917316000001,-1435.20156223,2722.29807783));
#37269=CARTESIAN_POINT('Control Point',(9423.250573290001,-1434.7656854,2721.61567322));
#37270=CARTESIAN_POINT('Control Point',(9414.58419944,-1434.32767905,2720.92993341));
#37271=CARTESIAN_POINT('Control Point',(9405.918199870001,-1433.88754343,2720.24085881));
#37272=CARTESIAN_POINT('Control Point',(9431.917316000001,-1455.10563995,2709.58462301));
#37273=CARTESIAN_POINT('Control Point',(9423.250573380001,-1454.6637185,2708.90607937));
#37274=CARTESIAN_POINT('Control Point',(9414.58419962,-1454.21963813,2708.22421851));
#37275=CARTESIAN_POINT('Control Point',(9405.91820014,-1453.77339912,2707.53904086));
#37276=CARTESIAN_POINT('Control Point',(9431.91731615,-1474.86900555,2696.65075308));
#37277=CARTESIAN_POINT('Control Point',(9423.250573470001,-1474.42108214,2695.97613654));
#37278=CARTESIAN_POINT('Control Point',(9414.584199659999,-1473.97097117,2695.29822243));
#37279=CARTESIAN_POINT('Control Point',(9405.918200120001,-1473.51867229,2694.6170099));
#37280=CARTESIAN_POINT('Control Point',(9431.9173166,-1494.48842065,2683.49853583));
#37281=CARTESIAN_POINT('Control Point',(9423.25057346,-1494.03453907,2682.82791121));
#37282=CARTESIAN_POINT('Control Point',(9414.58419919,-1493.57844162,2682.15401075));
#37283=CARTESIAN_POINT('Control Point',(9405.918199199999,-1493.12012795,2681.47683615));
#37284=CARTESIAN_POINT('Control Point',(9431.917316589999,-1513.96055777,2670.13020369));
#37285=CARTESIAN_POINT('Control Point',(9423.250573380001,-1513.50076326,2669.46363813));
#37286=CARTESIAN_POINT('Control Point',(9414.58419903,-1513.03872331,2668.79381834));
#37287=CARTESIAN_POINT('Control Point',(9405.918198970001,-1512.57443823,2668.12074476));
#37288=CARTESIAN_POINT('Control Point',(9431.9173164,-1533.28225786,2656.54797603));
#37289=CARTESIAN_POINT('Control Point',(9423.2505733,-1532.81659575,2655.88553617));
#37290=CARTESIAN_POINT('Control Point',(9414.584199049999,-1532.34865914,2655.21986163));
#37291=CARTESIAN_POINT('Control Point',(9405.91819909,-1531.87844832,2654.55095282));
#37292=B_SPLINE_CURVE_WITH_KNOTS('',3,(#37293,#37294,#37295,#37296),.UNSPECIFIED.,.F.,.U.,(4,4),(19.7523571115,146.304095784),.UNSPECIFIED.);
#37293=CARTESIAN_POINT('Control Point',(9431.804348629999,-1521.5248505,2664.75285046));
#37294=CARTESIAN_POINT('Control Point',(9431.80435099,-1496.96051045,2681.82379125));
#37295=CARTESIAN_POINT('Control Point',(9431.804350799999,-1472.10941681,2698.48095929));
#37296=CARTESIAN_POINT('Control Point',(9431.80434846,-1446.98447236,2714.71569731));
#37297=CARTESIAN_POINT('Vertex',(9431.804348629999,-1521.5248506,2664.75285062));
#37298=VERTEX_POINT('',#37297);
#37299=EDGE_CURVE('',#37298,#37197,#37292,.T.);
#37300=B_SPLINE_CURVE_WITH_KNOTS('',5,(#37301,#37302,#37303,#37304,#37305,#37306),.UNSPECIFIED.,.F.,.U.,(6,6),(0.,26.019567003),.UNSPECIFIED.);
#37301=CARTESIAN_POINT('Control Point',(9417.86197686,-1532.25493826,2655.66065469));
#37302=CARTESIAN_POINT('Control Point',(9422.23276065,-1532.49098823,2655.99654316));
#37303=CARTESIAN_POINT('Control Point',(9426.606214920001,-1531.32347599,2657.3179906));
#37304=CARTESIAN_POINT('Control Point',(9430.080641639999,-1528.67431417,2659.57720331));
#37305=CARTESIAN_POINT('Control Point',(9431.80434827,-1525.14563065,2662.23659627));
#37306=CARTESIAN_POINT('Control Point',(9431.804348629999,-1521.5248505,2664.75285046));
#37307=EDGE_CURVE('',#37249,#37298,#37300,.T.);
#37308=EDGE_LOOP('',(#37309,#37310,#37311,#37312,#37313,#37314));
#37309=ORIENTED_EDGE('',*,*,#37250,.T.);
#37310=ORIENTED_EDGE('',*,*,#37091,.T.);
#37311=ORIENTED_EDGE('',*,*,#37121,.T.);
#37312=ORIENTED_EDGE('',*,*,#37218,.F.);
#37313=ORIENTED_EDGE('',*,*,#37299,.F.);
#37314=ORIENTED_EDGE('',*,*,#37307,.F.);
#37315=FACE_OUTER_BOUND('',#37308,.T.);
#37316=ADVANCED_FACE('PartBody',(#37315),#37267,.T.);
#37317=(BOUNDED_SURFACE()B_SPLINE_SURFACE(5,2,((#37318,#37319,#37320),(#37321,#37322,#37323),(#37324,#37325,#37326),(#37327,#37328,#37329),(#37330,#37331,#37332),(#37333,#37334,#37335)),.UNSPECIFIED.,.F.,.F.,.U.)B_SPLINE_SURFACE_WITH_KNOTS((6,6),(3,3),(0.,194.910524324),(47595.9738909,47626.9755817),.UNSPECIFIED.)GEOMETRIC_REPRESENTATION_ITEM()RATIONAL_B_SPLINE_SURFACE(((1.,0.999999853197,1.),(1.,0.999999853197,1.),(1.,0.999999853197,1.),(1.,0.999999853197,1.),(1.,0.999999853197,1.),(1.,0.999999853197,1.)))REPRESENTATION_ITEM('Rational BSpline Surface')SURFACE());
#37318=CARTESIAN_POINT('Control Point',(9436.60967107,-1406.09523181,2743.33987157));
#37319=CARTESIAN_POINT('Control Point',(9421.175792669999,-1405.33681453,2742.11657407));
#37320=CARTESIAN_POINT('Control Point',(9405.743483140001,-1404.56958442,2740.87906184));
#37321=CARTESIAN_POINT('Control Point',(9436.60967107,-1439.45849895,2722.65538729));
#37322=CARTESIAN_POINT('Control Point',(9421.175792669999,-1438.68208755,2721.44324571));
#37323=CARTESIAN_POINT('Control Point',(9405.743483140001,-1437.89665422,2720.21701904));
#37324=CARTESIAN_POINT('Control Point',(9436.60967107,-1472.44142683,2701.35746168));
#37325=CARTESIAN_POINT('Control Point',(9421.175792669999,-1471.64722594,2700.15682161));
#37326=CARTESIAN_POINT('Control Point',(9405.743483140001,-1470.84379402,2698.94218974));
#37327=CARTESIAN_POINT('Control Point',(9436.60967107,-1505.02952326,2679.45506132));
#37328=CARTESIAN_POINT('Control Point',(9421.175792669999,-1504.21774533,2678.26619542));
#37329=CARTESIAN_POINT('Control Point',(9405.743483140001,-1503.39654563,2677.06355714));
#37330=CARTESIAN_POINT('Control Point',(9436.60967107,-1537.20703533,2656.95875722));
#37331=CARTESIAN_POINT('Control Point',(9421.175792669999,-1536.3779043,2655.78204839));
#37332=CARTESIAN_POINT('Control Point',(9405.743483140001,-1535.5391388,2654.59166627));
#37333=CARTESIAN_POINT('Control Point',(9436.60967107,-1568.96017975,2633.87860654));
#37334=CARTESIAN_POINT('Control Point',(9421.175792669999,-1568.11392299,2632.71434582));
#37335=CARTESIAN_POINT('Control Point',(9405.743483140001,-1567.25783271,2631.53655636));
#37336=B_SPLINE_CURVE_WITH_KNOTS('',5,(#37337,#37338,#37339,#37340,#37341,#37342),.UNSPECIFIED.,.F.,.U.,(6,6),(0.,26.0125990881),.UNSPECIFIED.);
#37337=CARTESIAN_POINT('Control Point',(9431.631315410001,-1522.58969134,2666.26806268));
#37338=CARTESIAN_POINT('Control Point',(9431.63131504,-1526.211275,2663.75123051));
#37339=CARTESIAN_POINT('Control Point',(9429.9067725,-1529.74101678,2661.09098723));
#37340=CARTESIAN_POINT('Control Point',(9426.4308108,-1532.38886764,2658.83251055));
#37341=CARTESIAN_POINT('Control Point',(9422.058761169999,-1533.55575834,2657.51166305));
#37342=CARTESIAN_POINT('Control Point',(9417.688945989999,-1533.31976076,2657.17584913));
#37343=CARTESIAN_POINT('Vertex',(9431.631315410001,-1522.58969134,2666.26806268));
#37344=VERTEX_POINT('',#37343);
#37345=EDGE_CURVE('',#37344,#37239,#37336,.T.);
#37346=B_SPLINE_CURVE_WITH_KNOTS('',3,(#37347,#37348,#37349,#37350),.UNSPECIFIED.,.F.,.U.,(4,4),(19.7386405298,146.31780939),.UNSPECIFIED.);
#37347=CARTESIAN_POINT('Control Point',(9431.631315410001,-1522.58969134,2666.26806268));
#37348=CARTESIAN_POINT('Control Point',(9431.63131784,-1498.00302419,2683.3546526));
#37349=CARTESIAN_POINT('Control Point',(9431.63131803,-1473.12927713,2700.02700472));
#37350=CARTESIAN_POINT('Control Point',(9431.6313156,-1447.98137302,2716.27644824));
#37351=EDGE_CURVE('',#37344,#37184,#37346,.T.);
#37352=EDGE_LOOP('',(#37353,#37354,#37355,#37356,#37357,#37358));
#37353=ORIENTED_EDGE('',*,*,#37345,.F.);
#37354=ORIENTED_EDGE('',*,*,#37351,.T.);
#37355=ORIENTED_EDGE('',*,*,#37185,.F.);
#37356=ORIENTED_EDGE('',*,*,#37131,.F.);
#37357=ORIENTED_EDGE('',*,*,#36850,.F.);
#37358=ORIENTED_EDGE('',*,*,#37240,.F.);
#37359=FACE_OUTER_BOUND('',#37352,.T.);
#37360=ADVANCED_FACE('PartBody',(#37359),#37317,.F.);
#37361=B_SPLINE_SURFACE_WITH_KNOTS('',5,1,((#37362,#37363),(#37364,#37365),(#37366,#37367),(#37368,#37369),(#37370,#37371),(#37372,#37373)),.UNSPECIFIED.,.F.,.F.,.U.,(6,6),(2,2),(0.,196.180669909),(-0.930000088017,0.930000088017),.UNSPECIFIED.);
#37362=CARTESIAN_POINT('Control Point',(9431.80434638,-1404.87453284,2741.37093179));
#37363=CARTESIAN_POINT('Control Point',(9431.631313240001,-1405.85036517,2742.94491128));
#37364=CARTESIAN_POINT('Control Point',(9431.80434638,-1438.21018181,2720.70357006));
#37365=CARTESIAN_POINT('Control Point',(9431.631313240001,-1439.20916756,2722.26319495));
#37366=CARTESIAN_POINT('Control Point',(9431.80434638,-1471.16581102,2699.42324507));
#37367=CARTESIAN_POINT('Control Point',(9431.631313240001,-1472.18768642,2700.96810607));
#37368=CARTESIAN_POINT('Control Point',(9431.80434638,-1503.7203403,2677.54336593));
#37369=CARTESIAN_POINT('Control Point',(9431.631313240001,-1504.76482979,2679.07300055));
#37370=CARTESIAN_POINT('Control Point',(9431.80434638,-1535.87124149,2655.065733));
#37371=CARTESIAN_POINT('Control Point',(9431.631313240001,-1536.93805811,2656.57976885));
#37372=CARTESIAN_POINT('Control Point',(9431.80434638,-1567.59810009,2632.00468849));
#37373=CARTESIAN_POINT('Control Point',(9431.631313240001,-1568.6869528,2633.50270718));
#37374=B_SPLINE_CURVE_WITH_KNOTS('',2,(#37375,#37376,#37377),.UNSPECIFIED.,.F.,.U.,(3,3),(12.0259444286,14.6564182957),.UNSPECIFIED.);
#37375=CARTESIAN_POINT('Control Point',(9431.804348629999,-1521.5248506,2664.75285062));
#37376=CARTESIAN_POINT('Control Point',(9431.71783202,-1522.05727102,2665.51045672));
#37377=CARTESIAN_POINT('Control Point',(9431.631315410001,-1522.58969144,2666.26806284));
#37378=EDGE_CURVE('',#37298,#37344,#37374,.T.);
#37379=EDGE_LOOP('',(#37380,#37381,#37382,#37383));
#37380=ORIENTED_EDGE('',*,*,#37378,.F.);
#37381=ORIENTED_EDGE('',*,*,#37299,.T.);
#37382=ORIENTED_EDGE('',*,*,#37198,.T.);
#37383=ORIENTED_EDGE('',*,*,#37351,.F.);
#37384=FACE_OUTER_BOUND('',#37379,.T.);
#37385=ADVANCED_FACE('PartBody',(#37384),#37361,.F.);
#37386=B_SPLINE_SURFACE_WITH_KNOTS('',2,5,((#37387,#37388,#37389,#37390,#37391,#37392,#37393,#37394,#37395),(#37396,#37397,#37398,#37399,#37400,#37401,#37402,#37403,#37404),(#37405,#37406,#37407,#37408,#37409,#37410,#37411,#37412,#37413)),.UNSPECIFIED.,.F.,.F.,.U.,(3,3),(6,3,6),(12.0259444286,14.7063894008),(0.,7.,14.),.UNSPECIFIED.);
#37387=CARTESIAN_POINT('Control Point',(9431.804348629999,-1521.5248506,2664.75285062));
#37388=CARTESIAN_POINT('Control Point',(9431.805418280001,-1523.32471378,2663.48809564));
#37389=CARTESIAN_POINT('Control Point',(9431.37639453,-1525.10167277,2662.19032142));
#37390=CARTESIAN_POINT('Control Point',(9430.51657501,-1526.76296309,2660.92463922));
#37391=CARTESIAN_POINT('Control Point',(9428.028229609999,-1529.67490782,2658.59407044));
#37392=CARTESIAN_POINT('Control Point',(9424.32309919,-1531.52210192,2656.87281557));
#37393=CARTESIAN_POINT('Control Point',(9422.24561382,-1532.11787083,2656.21688836));
#37394=CARTESIAN_POINT('Control Point',(9420.055319790001,-1532.35362607,2655.80108299));
#37395=CARTESIAN_POINT('Control Point',(9417.865060530001,-1532.23596165,2655.63365183));
#37396=CARTESIAN_POINT('Control Point',(9431.71618847,-1522.06738541,2665.52484896));
#37397=CARTESIAN_POINT('Control Point',(9431.717257730001,-1523.86724836,2664.26009409));
#37398=CARTESIAN_POINT('Control Point',(9431.288233699999,-1525.64420708,2662.96232004));
#37399=CARTESIAN_POINT('Control Point',(9430.428414,-1527.3054971,2661.69663803));
#37400=CARTESIAN_POINT('Control Point',(9427.940068489999,-1530.21744125,2659.36606964));
#37401=CARTESIAN_POINT('Control Point',(9424.23493834,-1532.06463492,2657.64481509));
#37402=CARTESIAN_POINT('Control Point',(9422.157453170001,-1532.66040369,2656.98888801));
#37403=CARTESIAN_POINT('Control Point',(9419.96715939,-1532.89615886,2656.57308271));
#37404=CARTESIAN_POINT('Control Point',(9417.77690037,-1532.77849445,2656.40565157));
#37405=CARTESIAN_POINT('Control Point',(9431.6280283,-1522.60992022,2666.29684732));
#37406=CARTESIAN_POINT('Control Point',(9431.629097180001,-1524.40978295,2665.03209256));
#37407=CARTESIAN_POINT('Control Point',(9431.20007286,-1526.1867414,2663.73431867));
#37408=CARTESIAN_POINT('Control Point',(9430.340253,-1527.84803111,2662.46863684));
#37409=CARTESIAN_POINT('Control Point',(9427.851907370001,-1530.75997468,2660.13806885));
#37410=CARTESIAN_POINT('Control Point',(9424.14677748,-1532.60716793,2658.41681463));
#37411=CARTESIAN_POINT('Control Point',(9422.069292509999,-1533.20293656,2657.76088766));
#37412=CARTESIAN_POINT('Control Point',(9419.87899897,-1533.43869166,2657.34508244));
#37413=CARTESIAN_POINT('Control Point',(9417.688740199999,-1533.32102726,2657.17765131));
#37414=EDGE_LOOP('',(#37415,#37416,#37417,#37418));
#37415=ORIENTED_EDGE('',*,*,#37345,.T.);
#37416=ORIENTED_EDGE('',*,*,#37255,.F.);
#37417=ORIENTED_EDGE('',*,*,#37307,.T.);
#37418=ORIENTED_EDGE('',*,*,#37378,.T.);
#37419=FACE_OUTER_BOUND('',#37414,.T.);
#37420=ADVANCED_FACE('PartBody',(#37419),#37386,.T.);
#37421=ADVANCED_BREP_SHAPE_REPRESENTATION('NONE',(#36480),#35742);

#37422=APPLICATION_CONTEXT('automotive_design');
#37423=APPLICATION_PROTOCOL_DEFINITION('international standard','automotive_design',2010,#37422);
#37424=PRODUCT_CONTEXT('',#37422,'mechanical');
#37425=PRODUCT_DEFINITION_CONTEXT('part definition',#37422,'design');
#37426=PRODUCT('part_000_V5311363220400','part_000_V5311363220400','',(#37424));
#37427=PRODUCT_DEFINITION_FORMATION('','',#37426);
#37428=PRODUCT_DEFINITION('design','',#37427,#37425);
#37429=PRODUCT_DEFINITION_SHAPE('','',#37428);
#37430=SHAPE_DEFINITION_REPRESENTATION(#37429,#37421);
ENDSEC;
END-ISO-10303-21;
