ISO-10303-21;
HEADER;
FILE_DESCRIPTION(('CATIA V5 STEP Exchange','CAx-IF Rec.Pracs.--- Model Styling and Organization---1.4--- 2014-01-23'),'2;1');

FILE_NAME('C:\\Users\\SA516207\\WORK\\01_ASSY\\3_Catia\\ECHELLE\\ECHELLE.stp','2026-09-22T12:18:05+00:00',('none'),('none'),'CATIA Version 5-6 Release 2017 SP2 HF26','CATIA V5 STEP AP203 WITH EXTENSIONS','none');

FILE_SCHEMA(('CONFIG_CONTROL_DESIGN','SHAPE_APPEARANCE_LAYER_MIM'));

ENDSEC;
DATA;
#46=(LENGTH_UNIT()NAMED_UNIT(*)SI_UNIT(.MILLI.,.METRE.));
#47=(NAMED_UNIT(*)PLANE_ANGLE_UNIT()SI_UNIT($,.RADIAN.));
#48=(NAMED_UNIT(*)SI_UNIT($,.STERADIAN.)SOLID_ANGLE_UNIT());
#162982=UNCERTAINTY_MEASURE_WITH_UNIT(LENGTH_MEASURE(0.005),#46,'distance_accuracy_value','CONFUSED CURVE UNCERTAINTY');
#162983=(GEOMETRIC_REPRESENTATION_CONTEXT(3)GLOBAL_UNCERTAINTY_ASSIGNED_CONTEXT((#162982))GLOBAL_UNIT_ASSIGNED_CONTEXT((#46,#47,#48))REPRESENTATION_CONTEXT(' ',' '));
#163237=MANIFOLD_SOLID_BREP('PartBody',#163239);
#163239=CLOSED_SHELL('Closed Shell',(#163279,#163310,#163341,#163377,#163401,#163427,#163444,#163475,#163506,#163537,#163568,#163599,#163630,#163661,#163692,#163723,#163754,#163785,#163816,#163858,#163875,#163899,#163916,#163950,#163967,#163979));
#163240=CARTESIAN_POINT('Axis2P3D Location',(9399,-2306.46854475,1699.84349026));
#163241=DIRECTION('Axis2P3D Direction',(0,-0.9410165906733544,0.3383604233321274));
#163242=DIRECTION('Axis2P3D XDirection',(1,0,0));
#163243=AXIS2_PLACEMENT_3D('Plane Axis2P3D',#163240,#163241,#163242);
#163244=PLANE('',#163243);
#163245=CARTESIAN_POINT('Line Origine',(9397.462,-2307.98811705,1695.61739689));
#163246=DIRECTION('Vector Direction',(-1,0,0));
#163247=VECTOR('Line Direction',#163246,1.);
#163248=LINE('Line',#163245,#163247);
#163249=CARTESIAN_POINT('Vertex',(9395.924000000001,-2307.98811705,1695.61739689));
#163250=VERTEX_POINT('',#163249);
#163251=CARTESIAN_POINT('Vertex',(9399,-2307.98811705,1695.61739689));
#163252=VERTEX_POINT('',#163251);
#163253=EDGE_CURVE('',#163250,#163252,#163248,.F.);
#163254=CARTESIAN_POINT('Line Origine',(9399,-2306.46854475,1699.84349026));
#163255=DIRECTION('Vector Direction',(0,0.3383604233321274,0.9410165906733544));
#163256=VECTOR('Line Direction',#163255,1.);
#163257=LINE('Line',#163254,#163256);
#163258=CARTESIAN_POINT('Vertex',(9399,-2304.94897246,1704.06958363));
#163259=VERTEX_POINT('',#163258);
#163260=EDGE_CURVE('',#163252,#163259,#163257,.T.);
#163261=CARTESIAN_POINT('Line Origine',(9397.462,-2304.94897246,1704.06958363));
#163262=DIRECTION('Vector Direction',(-1,0,0));
#163263=VECTOR('Line Direction',#163262,1.);
#163264=LINE('Line',#163261,#163263);
#163265=CARTESIAN_POINT('Vertex',(9395.924000000001,-2304.94897246,1704.06958363));
#163266=VERTEX_POINT('',#163265);
#163267=EDGE_CURVE('',#163259,#163266,#163264,.T.);
#163268=CARTESIAN_POINT('Line Origine',(9395.924000000001,-2306.46854475,1699.84349026));
#163269=DIRECTION('Vector Direction',(0,0.3383604233321274,0.9410165906733544));
#163270=VECTOR('Line Direction',#163269,1.);
#163271=LINE('Line',#163268,#163270);
#163272=EDGE_CURVE('',#163250,#163266,#163271,.T.);
#163273=EDGE_LOOP('',(#163274,#163275,#163276,#163277));
#163274=ORIENTED_EDGE('',*,*,#163253,.T.);
#163275=ORIENTED_EDGE('',*,*,#163260,.T.);
#163276=ORIENTED_EDGE('',*,*,#163267,.T.);
#163277=ORIENTED_EDGE('',*,*,#163272,.F.);
#163278=FACE_OUTER_BOUND('',#163273,.T.);
#163279=ADVANCED_FACE('PartBody',(#163278),#163244,.T.);
#163280=CARTESIAN_POINT('Axis2P3D Location',(9399,-2293.65677337,1700.00925855));
#163281=DIRECTION('Axis2P3D Direction',(-1,0,0));
#163282=DIRECTION('Axis2P3D XDirection',(0,0.4261422626511598,-0.9046561622973393));
#163283=AXIS2_PLACEMENT_3D('Cylinder Axis2P3D',#163280,#163281,#163282);
#163284=CYLINDRICAL_SURFACE('generated cylinder',#163283,12.);
#163285=CARTESIAN_POINT('Axis2P3D Location',(9395.924000000001,-2293.65677337,1700.00925855));
#163286=DIRECTION('Axis2P3D Direction',(-1,0,0));
#163287=AXIS2_PLACEMENT_3D('Circle Axis2P3D',#163285,#163286,$);
#163288=CIRCLE('generated circle',#163287,12.);
#163289=CARTESIAN_POINT('Vertex',(9395.924000000001,-2289.59644829,1711.30145764));
#163290=VERTEX_POINT('',#163289);
#163291=EDGE_CURVE('',#163290,#163266,#163288,.F.);
#163292=CARTESIAN_POINT('Axis2P3D Location',(9399,-2293.65677337,1700.00925855));
#163293=DIRECTION('Axis2P3D Direction',(-1,0,0));
#163294=AXIS2_PLACEMENT_3D('Circle Axis2P3D',#163292,#163293,$);
#163295=CIRCLE('generated circle',#163294,12.);
#163296=CARTESIAN_POINT('Vertex',(9399,-2289.59644829,1711.30145764));
#163297=VERTEX_POINT('',#163296);
#163298=EDGE_CURVE('',#163297,#163259,#163295,.F.);
#163299=CARTESIAN_POINT('Line Origine',(9397.462,-2289.59644829,1711.30145764));
#163300=DIRECTION('Vector Direction',(-1,0,0));
#163301=VECTOR('Line Direction',#163300,1.);
#163302=LINE('Line',#163299,#163301);
#163303=EDGE_CURVE('',#163297,#163290,#163302,.T.);
#163304=EDGE_LOOP('',(#163305,#163306,#163307,#163308));
#163305=ORIENTED_EDGE('',*,*,#163291,.T.);
#163306=ORIENTED_EDGE('',*,*,#163267,.F.);
#163307=ORIENTED_EDGE('',*,*,#163298,.F.);
#163308=ORIENTED_EDGE('',*,*,#163303,.T.);
#163309=FACE_OUTER_BOUND('',#163304,.T.);
#163310=ADVANCED_FACE('PartBody',(#163309),#163284,.T.);
#163311=CARTESIAN_POINT('Axis2P3D Location',(9399,-2279.21418066,1707.56831574));
#163312=DIRECTION('Axis2P3D Direction',(0,-0.3383604233321274,-0.9410165906733544));
#163313=DIRECTION('Axis2P3D XDirection',(1,0,0));
#163314=AXIS2_PLACEMENT_3D('Plane Axis2P3D',#163311,#163312,#163313);
#163315=PLANE('',#163314);
#163316=CARTESIAN_POINT('Line Origine',(9395.924000000001,-2279.21418066,1707.56831574));
#163317=DIRECTION('Vector Direction',(0,-0.9410165906733544,0.3383604233321274));
#163318=VECTOR('Line Direction',#163317,1.);
#163319=LINE('Line',#163316,#163318);
#163320=CARTESIAN_POINT('Vertex',(9395.924000000001,-2268.83191304,1703.83517383));
#163321=VERTEX_POINT('',#163320);
#163322=EDGE_CURVE('',#163321,#163290,#163319,.T.);
#163323=CARTESIAN_POINT('Line Origine',(9399,-2279.21418066,1707.56831574));
#163324=DIRECTION('Vector Direction',(0,-0.9410165906733544,0.3383604233321274));
#163325=VECTOR('Line Direction',#163324,1.);
#163326=LINE('Line',#163323,#163325);
#163327=CARTESIAN_POINT('Vertex',(9399,-2268.83191304,1703.83517383));
#163328=VERTEX_POINT('',#163327);
#163329=EDGE_CURVE('',#163328,#163297,#163326,.T.);
#163330=CARTESIAN_POINT('Line Origine',(9397.462,-2268.83191304,1703.83517383));
#163331=DIRECTION('Vector Direction',(-1,0,0));
#163332=VECTOR('Line Direction',#163331,1.);
#163333=LINE('Line',#163330,#163332);
#163334=EDGE_CURVE('',#163328,#163321,#163333,.T.);
#163335=EDGE_LOOP('',(#163336,#163337,#163338,#163339));
#163336=ORIENTED_EDGE('',*,*,#163322,.T.);
#163337=ORIENTED_EDGE('',*,*,#163303,.F.);
#163338=ORIENTED_EDGE('',*,*,#163329,.F.);
#163339=ORIENTED_EDGE('',*,*,#163334,.T.);
#163340=FACE_OUTER_BOUND('',#163335,.T.);
#163341=ADVANCED_FACE('PartBody',(#163340),#163315,.F.);
#163342=CARTESIAN_POINT('Axis2P3D Location',(9395.924000000001,-2284.84680912,1691.90337248));
#163343=DIRECTION('Axis2P3D Direction',(-1,0,0));
#163344=DIRECTION('Axis2P3D XDirection',(0,0.9410165906733544,-0.3383604233321274));
#163345=AXIS2_PLACEMENT_3D('Plane Axis2P3D',#163342,#163343,#163344);
#163346=PLANE('',#163345);
#163347=B_SPLINE_CURVE_WITH_KNOTS('',5,(#163348,#163349,#163350,#163351,#163352,#163353),.UNSPECIFIED.,.F.,.U.,(6,6),(56.5486677646,75.3982236862),.UNSPECIFIED.);
#163348=CARTESIAN_POINT('Control Point',(9395.924000000001,-2268.83191304,1703.83517383));
#163349=CARTESIAN_POINT('Control Point',(9395.924000000001,-2265.28436407,1702.55958509));
#163350=CARTESIAN_POINT('Control Point',(9395.924000000001,-2262.23298612,1699.89369629));
#163351=CARTESIAN_POINT('Control Point',(9395.924000000001,-2260.43678132,1696.08053839));
#163352=CARTESIAN_POINT('Control Point',(9395.924000000001,-2260.32445028,1692.03019863));
#163353=CARTESIAN_POINT('Control Point',(9395.924000000001,-2261.60003903,1688.48264966));
#163354=CARTESIAN_POINT('Vertex',(9395.924000000001,-2261.60003903,1688.48264966));
#163355=VERTEX_POINT('',#163354);
#163356=EDGE_CURVE('',#163355,#163321,#163347,.F.);
#163357=CARTESIAN_POINT('Line Origine',(9395.924000000001,-2261.08944878,1689.90265583));
#163358=DIRECTION('Vector Direction',(0,-0.3383604233321274,-0.9410165906733544));
#163359=VECTOR('Line Direction',#163358,1.);
#163360=LINE('Line',#163357,#163359);
#163361=CARTESIAN_POINT('Vertex',(9395.924000000001,-2264.63918362,1680.03046292));
#163362=VERTEX_POINT('',#163361);
#163363=EDGE_CURVE('',#163362,#163355,#163360,.F.);
#163364=CARTESIAN_POINT('Line Origine',(9395.924000000001,-2286.31365033,1687.82392991));
#163365=DIRECTION('Vector Direction',(0,0.9410165906733544,-0.3383604233321274));
#163366=VECTOR('Line Direction',#163365,1.);
#163367=LINE('Line',#163364,#163366);
#163368=EDGE_CURVE('',#163250,#163362,#163367,.T.);
#163369=EDGE_LOOP('',(#163370,#163371,#163372,#163373,#163374,#163375));
#163370=ORIENTED_EDGE('',*,*,#163272,.T.);
#163371=ORIENTED_EDGE('',*,*,#163291,.F.);
#163372=ORIENTED_EDGE('',*,*,#163322,.F.);
#163373=ORIENTED_EDGE('',*,*,#163356,.F.);
#163374=ORIENTED_EDGE('',*,*,#163363,.F.);
#163375=ORIENTED_EDGE('',*,*,#163368,.F.);
#163376=FACE_OUTER_BOUND('',#163369,.T.);
#163377=ADVANCED_FACE('PartBody',(#163376),#163346,.T.);
#163378=CARTESIAN_POINT('Axis2P3D Location',(9399,-2272.89223812,1692.54297474));
#163379=DIRECTION('Axis2P3D Direction',(-1,0,0));
#163380=DIRECTION('Axis2P3D XDirection',(0,-0.9046561622973393,-0.4261422626511598));
#163381=AXIS2_PLACEMENT_3D('Cylinder Axis2P3D',#163378,#163379,#163380);
#163382=CYLINDRICAL_SURFACE('generated cylinder',#163381,12.);
#163383=CARTESIAN_POINT('Axis2P3D Location',(9399,-2272.89223812,1692.54297474));
#163384=DIRECTION('Axis2P3D Direction',(-1,0,0));
#163385=AXIS2_PLACEMENT_3D('Circle Axis2P3D',#163383,#163384,$);
#163386=CIRCLE('generated circle',#163385,12.);
#163387=CARTESIAN_POINT('Vertex',(9399,-2261.60003903,1688.48264966));
#163388=VERTEX_POINT('',#163387);
#163389=EDGE_CURVE('',#163388,#163328,#163386,.F.);
#163390=CARTESIAN_POINT('Line Origine',(9397.462,-2261.60003903,1688.48264966));
#163391=DIRECTION('Vector Direction',(-1,0,0));
#163392=VECTOR('Line Direction',#163391,1.);
#163393=LINE('Line',#163390,#163392);
#163394=EDGE_CURVE('',#163388,#163355,#163393,.T.);
#163395=EDGE_LOOP('',(#163396,#163397,#163398,#163399));
#163396=ORIENTED_EDGE('',*,*,#163356,.T.);
#163397=ORIENTED_EDGE('',*,*,#163334,.F.);
#163398=ORIENTED_EDGE('',*,*,#163389,.F.);
#163399=ORIENTED_EDGE('',*,*,#163394,.T.);
#163400=FACE_OUTER_BOUND('',#163395,.T.);
#163401=ADVANCED_FACE('PartBody',(#163400),#163382,.T.);
#163402=CARTESIAN_POINT('Axis2P3D Location',(9399,-2284.84680912,1691.90337248));
#163403=DIRECTION('Axis2P3D Direction',(-1,0,0));
#163404=DIRECTION('Axis2P3D XDirection',(0,0.9410165906733544,-0.3383604233321274));
#163405=AXIS2_PLACEMENT_3D('Plane Axis2P3D',#163402,#163403,#163404);
#163406=PLANE('',#163405);
#163407=CARTESIAN_POINT('Line Origine',(9399,-2286.31365033,1687.82392991));
#163408=DIRECTION('Vector Direction',(0,0.9410165906733544,-0.3383604233321274));
#163409=VECTOR('Line Direction',#163408,1.);
#163410=LINE('Line',#163407,#163409);
#163411=CARTESIAN_POINT('Vertex',(9399,-2264.63918362,1680.03046292));
#163412=VERTEX_POINT('',#163411);
#163413=EDGE_CURVE('',#163252,#163412,#163410,.T.);
#163414=CARTESIAN_POINT('Line Origine',(9399,-2263.11961132,1684.25655629));
#163415=DIRECTION('Vector Direction',(0,0.3383604233321274,0.9410165906733544));
#163416=VECTOR('Line Direction',#163415,1.);
#163417=LINE('Line',#163414,#163416);
#163418=EDGE_CURVE('',#163412,#163388,#163417,.T.);
#163419=EDGE_LOOP('',(#163420,#163421,#163422,#163423,#163424,#163425));
#163420=ORIENTED_EDGE('',*,*,#163413,.T.);
#163421=ORIENTED_EDGE('',*,*,#163418,.T.);
#163422=ORIENTED_EDGE('',*,*,#163389,.T.);
#163423=ORIENTED_EDGE('',*,*,#163329,.T.);
#163424=ORIENTED_EDGE('',*,*,#163298,.T.);
#163425=ORIENTED_EDGE('',*,*,#163260,.F.);
#163426=FACE_OUTER_BOUND('',#163419,.T.);
#163427=ADVANCED_FACE('PartBody',(#163426),#163406,.F.);
#163428=CARTESIAN_POINT('Axis2P3D Location',(9399,-2263.11961132,1684.25655629));
#163429=DIRECTION('Axis2P3D Direction',(0,0.9410165906733544,-0.3383604233321274));
#163430=DIRECTION('Axis2P3D XDirection',(1,0,0));
#163431=AXIS2_PLACEMENT_3D('Plane Axis2P3D',#163428,#163429,#163430);
#163432=PLANE('',#163431);
#163433=CARTESIAN_POINT('Line Origine',(9397.462,-2264.63918362,1680.03046292));
#163434=DIRECTION('Vector Direction',(-1,0,0));
#163435=VECTOR('Line Direction',#163434,1.);
#163436=LINE('Line',#163433,#163435);
#163437=EDGE_CURVE('',#163412,#163362,#163436,.T.);
#163438=EDGE_LOOP('',(#163439,#163440,#163441,#163442));
#163439=ORIENTED_EDGE('',*,*,#163363,.T.);
#163440=ORIENTED_EDGE('',*,*,#163394,.F.);
#163441=ORIENTED_EDGE('',*,*,#163418,.F.);
#163442=ORIENTED_EDGE('',*,*,#163437,.T.);
#163443=FACE_OUTER_BOUND('',#163438,.T.);
#163444=ADVANCED_FACE('PartBody',(#163443),#163432,.T.);
#163445=CARTESIAN_POINT('Axis2P3D Location',(9384.706753590001,-2266.38322149,1675.18010675));
#163446=DIRECTION('Axis2P3D Direction',(-7.632783294302875e-16,-0.9410165906733544,0.3383604233321274));
#163447=DIRECTION('Axis2P3D XDirection',(0.9980705166097192,-0.02100900515059409,-0.05842829431868356));
#163448=AXIS2_PLACEMENT_3D('Plane Axis2P3D',#163445,#163446,#163447);
#163449=PLANE('',#163448);
#163450=CARTESIAN_POINT('Axis2P3D Location',(9390.924000000001,-2264.63918362,1680.03046292));
#163451=DIRECTION('Axis2P3D Direction',(-7.632783294302875e-16,-0.9410165906733544,0.3383604233321274));
#163452=AXIS2_PLACEMENT_3D('Circle Axis2P3D',#163450,#163451,$);
#163453=CIRCLE('generated circle',#163452,5.);
#163454=CARTESIAN_POINT('Vertex',(9390.61354695,-2266.32772143,1675.33445835));
#163455=VERTEX_POINT('',#163454);
#163456=EDGE_CURVE('',#163455,#163362,#163453,.T.);
#163457=CARTESIAN_POINT('Axis2P3D Location',(9390.924000000001,-2264.63918362,1680.03046292));
#163458=DIRECTION('Axis2P3D Direction',(-7.632783294302875e-16,-0.9410165906733544,0.3383604233321274));
#163459=AXIS2_PLACEMENT_3D('Circle Axis2P3D',#163457,#163458,$);
#163460=CIRCLE('generated circle',#163459,8.076);
#163461=CARTESIAN_POINT('Vertex',(9390.42255623,-2267.3665099,1672.44547633));
#163462=VERTEX_POINT('',#163461);
#163463=EDGE_CURVE('',#163462,#163412,#163460,.T.);
#163464=CARTESIAN_POINT('Line Origine',(9390.518051589999,-2266.84711566,1673.88996734));
#163465=DIRECTION('Vector Direction',(-0.06209061019538792,-0.3377075625149343,-0.9392009147918173));
#163466=VECTOR('Line Direction',#163465,1.);
#163467=LINE('Line',#163464,#163466);
#163468=EDGE_CURVE('',#163455,#163462,#163467,.T.);
#163469=EDGE_LOOP('',(#163470,#163471,#163472,#163473));
#163470=ORIENTED_EDGE('',*,*,#163456,.T.);
#163471=ORIENTED_EDGE('',*,*,#163437,.F.);
#163472=ORIENTED_EDGE('',*,*,#163463,.F.);
#163473=ORIENTED_EDGE('',*,*,#163468,.F.);
#163474=FACE_OUTER_BOUND('',#163469,.T.);
#163475=ADVANCED_FACE('PartBody',(#163474),#163449,.F.);
#163476=CARTESIAN_POINT('Axis2P3D Location',(9388.92680845,-2267.33502497,1672.53303928));
#163477=DIRECTION('Axis2P3D Direction',(-1.667763149800628e-14,0.9410165906733544,-0.3383604233321274));
#163478=DIRECTION('Axis2P3D XDirection',(1,1.56939279328e-14,-5.64305045385e-15));
#163479=AXIS2_PLACEMENT_3D('Plane Axis2P3D',#163476,#163477,#163478);
#163480=PLANE('',#163479);
#163481=CARTESIAN_POINT('Line Origine',(9388.92680845,-2267.33502497,1672.53303928));
#163482=DIRECTION('Vector Direction',(-0.998070516609723,0.02100900515069417,0.05842829431858378));
#163483=VECTOR('Line Direction',#163482,1.);
#163484=LINE('Line',#163481,#163483);
#163485=CARTESIAN_POINT('Vertex',(9387.431060659999,-2267.30354005,1672.62060222));
#163486=VERTEX_POINT('',#163485);
#163487=EDGE_CURVE('',#163462,#163486,#163484,.T.);
#163488=CARTESIAN_POINT('Line Origine',(9387.52655602,-2266.78414582,1674.06509323));
#163489=DIRECTION('Vector Direction',(0.06209061019479022,0.3377075625149468,0.9392009147918521));
#163490=VECTOR('Line Direction',#163489,1.);
#163491=LINE('Line',#163488,#163490);
#163492=CARTESIAN_POINT('Vertex',(9387.62205138,-2266.26475159,1675.50958423));
#163493=VERTEX_POINT('',#163492);
#163494=EDGE_CURVE('',#163486,#163493,#163491,.T.);
#163495=CARTESIAN_POINT('Line Origine',(9389.117799170001,-2266.29623651,1675.42202129));
#163496=DIRECTION('Vector Direction',(-0.9980705166097132,0.02100900515059396,0.05842829431878321));
#163497=VECTOR('Line Direction',#163496,1.);
#163498=LINE('Line',#163495,#163497);
#163499=EDGE_CURVE('',#163455,#163493,#163498,.T.);
#163500=EDGE_LOOP('',(#163501,#163502,#163503,#163504));
#163501=ORIENTED_EDGE('',*,*,#163468,.T.);
#163502=ORIENTED_EDGE('',*,*,#163487,.T.);
#163503=ORIENTED_EDGE('',*,*,#163494,.T.);
#163504=ORIENTED_EDGE('',*,*,#163499,.F.);
#163505=FACE_OUTER_BOUND('',#163500,.T.);
#163506=ADVANCED_FACE('PartBody',(#163505),#163480,.T.);
#163507=CARTESIAN_POINT('Axis2P3D Location',(9387.431060659999,-2276.71370596,1676.00420645));
#163508=DIRECTION('Axis2P3D Direction',(0.06209061019508907,0.3377075625149406,0.9392009147918345));
#163509=DIRECTION('Axis2P3D XDirection',(0.101738221693022,-0.9382564532252031,0.3306420454630716));
#163510=AXIS2_PLACEMENT_3D('Cylinder Axis2P3D',#163507,#163508,#163509);
#163511=CYLINDRICAL_SURFACE('generated cylinder',#163510,10.);
#163512=CARTESIAN_POINT('Axis2P3D Location',(9387.62205138,-2275.67491749,1678.89318847));
#163513=DIRECTION('Axis2P3D Direction',(0.06209061019508907,0.3377075625149406,0.9392009147918345));
#163514=AXIS2_PLACEMENT_3D('Circle Axis2P3D',#163512,#163513,$);
#163515=CIRCLE('generated circle',#163514,10.);
#163516=CARTESIAN_POINT('Vertex',(9385.59788589,-2266.41770056,1675.69839761));
#163517=VERTEX_POINT('',#163516);
#163518=EDGE_CURVE('',#163517,#163493,#163515,.F.);
#163519=CARTESIAN_POINT('Axis2P3D Location',(9387.431060659999,-2276.71370596,1676.00420645));
#163520=DIRECTION('Axis2P3D Direction',(0.06209061019508907,0.3377075625149406,0.9392009147918345));
#163521=AXIS2_PLACEMENT_3D('Circle Axis2P3D',#163519,#163520,$);
#163522=CIRCLE('generated circle',#163521,10.);
#163523=CARTESIAN_POINT('Vertex',(9385.406895169999,-2267.45648902,1672.80941559));
#163524=VERTEX_POINT('',#163523);
#163525=EDGE_CURVE('',#163524,#163486,#163522,.F.);
#163526=CARTESIAN_POINT('Line Origine',(9385.50239053,-2266.93709479,1674.2539066));
#163527=DIRECTION('Vector Direction',(0.06209061019518868,0.3377075625149384,0.9392009147918288));
#163528=VECTOR('Line Direction',#163527,1.);
#163529=LINE('Line',#163526,#163528);
#163530=EDGE_CURVE('',#163524,#163517,#163529,.T.);
#163531=EDGE_LOOP('',(#163532,#163533,#163534,#163535));
#163532=ORIENTED_EDGE('',*,*,#163518,.T.);
#163533=ORIENTED_EDGE('',*,*,#163494,.F.);
#163534=ORIENTED_EDGE('',*,*,#163525,.F.);
#163535=ORIENTED_EDGE('',*,*,#163530,.T.);
#163536=FACE_OUTER_BOUND('',#163531,.T.);
#163537=ADVANCED_FACE('PartBody',(#163536),#163511,.T.);
#163538=CARTESIAN_POINT('Axis2P3D Location',(9373.55275535,-2269.52175206,1674.33569788));
#163539=DIRECTION('Axis2P3D Direction',(0.2024165490939271,-0.9257216937776663,0.3194790858918849));
#163540=DIRECTION('Axis2P3D XDirection',(0.9792995152927479,0.1913422683769508,-0.066034806577683));
#163541=AXIS2_PLACEMENT_3D('Plane Axis2P3D',#163538,#163539,#163540);
#163542=PLANE('',#163541);
#163543=CARTESIAN_POINT('Line Origine',(9373.74374607,-2268.4829636,1677.2246799));
#163544=DIRECTION('Vector Direction',(0.9773291650095606,0.1702731566909234,-0.1258362242449434));
#163545=VECTOR('Line Direction',#163544,1.);
#163546=LINE('Line',#163543,#163545);
#163547=CARTESIAN_POINT('Vertex',(9361.889606250001,-2270.54822665,1678.75096219));
#163548=VERTEX_POINT('',#163547);
#163549=EDGE_CURVE('',#163548,#163517,#163546,.T.);
#163550=CARTESIAN_POINT('Line Origine',(9373.55275535,-2269.52175206,1674.33569788));
#163551=DIRECTION('Vector Direction',(0.9773291650095606,0.1702731566909234,-0.1258362242449434));
#163552=VECTOR('Line Direction',#163551,1.);
#163553=LINE('Line',#163550,#163552);
#163554=CARTESIAN_POINT('Vertex',(9361.69861553,-2271.58701511,1675.86198017));
#163555=VERTEX_POINT('',#163554);
#163556=EDGE_CURVE('',#163555,#163524,#163553,.T.);
#163557=CARTESIAN_POINT('Line Origine',(9361.79411089,-2271.06762088,1677.30647118));
#163558=DIRECTION('Vector Direction',(0.06209061019479022,0.3377075625149468,0.9392009147918521));
#163559=VECTOR('Line Direction',#163558,1.);
#163560=LINE('Line',#163557,#163559);
#163561=EDGE_CURVE('',#163555,#163548,#163560,.T.);
#163562=EDGE_LOOP('',(#163563,#163564,#163565,#163566));
#163563=ORIENTED_EDGE('',*,*,#163549,.T.);
#163564=ORIENTED_EDGE('',*,*,#163530,.F.);
#163565=ORIENTED_EDGE('',*,*,#163556,.F.);
#163566=ORIENTED_EDGE('',*,*,#163561,.T.);
#163567=FACE_OUTER_BOUND('',#163562,.T.);
#163568=ADVANCED_FACE('PartBody',(#163567),#163542,.F.);
#163569=CARTESIAN_POINT('Axis2P3D Location',(9365.74694651,-2290.10144899,1682.25156189));
#163570=DIRECTION('Axis2P3D Direction',(0.06209061019508907,0.3377075625149406,0.9392009147918345));
#163571=DIRECTION('Axis2P3D XDirection',(0.5206066086010026,-0.813817152795004,0.2582061209530013));
#163572=AXIS2_PLACEMENT_3D('Cylinder Axis2P3D',#163569,#163570,#163571);
#163573=CYLINDRICAL_SURFACE('generated cylinder',#163572,20.);
#163574=CARTESIAN_POINT('Axis2P3D Location',(9365.937937230001,-2289.06266052,1685.14054391));
#163575=DIRECTION('Axis2P3D Direction',(0.06209061019508907,0.3377075625149406,0.9392009147918345));
#163576=AXIS2_PLACEMENT_3D('Circle Axis2P3D',#163574,#163575,$);
#163577=CIRCLE('generated circle',#163576,20.);
#163578=CARTESIAN_POINT('Vertex',(9350.385657590001,-2276.93723532,1681.80877835));
#163579=VERTEX_POINT('',#163578);
#163580=EDGE_CURVE('',#163579,#163548,#163577,.F.);
#163581=CARTESIAN_POINT('Axis2P3D Location',(9365.74694651,-2290.10144899,1682.25156189));
#163582=DIRECTION('Axis2P3D Direction',(0.06209061019508907,0.3377075625149406,0.9392009147918345));
#163583=AXIS2_PLACEMENT_3D('Circle Axis2P3D',#163581,#163582,$);
#163584=CIRCLE('generated circle',#163583,20.);
#163585=CARTESIAN_POINT('Vertex',(9350.194666879999,-2277.97602378,1678.91979634));
#163586=VERTEX_POINT('',#163585);
#163587=EDGE_CURVE('',#163586,#163555,#163584,.F.);
#163588=CARTESIAN_POINT('Line Origine',(9350.29016223,-2277.45662955,1680.36428734));
#163589=DIRECTION('Vector Direction',(0.06209061019518868,0.3377075625149384,0.9392009147918288));
#163590=VECTOR('Line Direction',#163589,1.);
#163591=LINE('Line',#163588,#163590);
#163592=EDGE_CURVE('',#163586,#163579,#163591,.T.);
#163593=EDGE_LOOP('',(#163594,#163595,#163596,#163597));
#163594=ORIENTED_EDGE('',*,*,#163580,.T.);
#163595=ORIENTED_EDGE('',*,*,#163561,.F.);
#163596=ORIENTED_EDGE('',*,*,#163587,.F.);
#163597=ORIENTED_EDGE('',*,*,#163592,.T.);
#163598=FACE_OUTER_BOUND('',#163593,.T.);
#163599=ADVANCED_FACE('PartBody',(#163598),#163573,.T.);
#163600=CARTESIAN_POINT('Axis2P3D Location',(9339.76464877,-2289.97843385,1683.92502021));
#163601=DIRECTION('Axis2P3D Direction',(0.7776139817259814,-0.6062712603399855,0.166588277828996));
#163602=DIRECTION('Axis2P3D XDirection',(0.628741994322385,0.7498226824614592,-0.2060326416901262));
#163603=AXIS2_PLACEMENT_3D('Plane Axis2P3D',#163600,#163601,#163602);
#163604=PLANE('',#163603);
#163605=CARTESIAN_POINT('Line Origine',(9339.955639489999,-2288.93964539,1686.81400222));
#163606=DIRECTION('Vector Direction',(0.6256686435728026,0.7199921951697729,-0.3002498748449052));
#163607=VECTOR('Line Direction',#163606,1.);
#163608=LINE('Line',#163605,#163607);
#163609=CARTESIAN_POINT('Vertex',(9329.52562138,-2300.94205546,1691.81922609));
#163610=VERTEX_POINT('',#163609);
#163611=EDGE_CURVE('',#163610,#163579,#163608,.T.);
#163612=CARTESIAN_POINT('Line Origine',(9339.76464877,-2289.97843385,1683.92502021));
#163613=DIRECTION('Vector Direction',(0.6256686435728026,0.7199921951697729,-0.3002498748449052));
#163614=VECTOR('Line Direction',#163613,1.);
#163615=LINE('Line',#163612,#163614);
#163616=CARTESIAN_POINT('Vertex',(9329.33463067,-2301.98084393,1688.93024408));
#163617=VERTEX_POINT('',#163616);
#163618=EDGE_CURVE('',#163617,#163586,#163615,.T.);
#163619=CARTESIAN_POINT('Line Origine',(9329.43012603,-2301.4614497,1690.37473509));
#163620=DIRECTION('Vector Direction',(0.06209061019538792,0.3377075625149343,0.9392009147918173));
#163621=VECTOR('Line Direction',#163620,1.);
#163622=LINE('Line',#163619,#163621);
#163623=EDGE_CURVE('',#163617,#163610,#163622,.T.);
#163624=EDGE_LOOP('',(#163625,#163626,#163627,#163628));
#163625=ORIENTED_EDGE('',*,*,#163611,.T.);
#163626=ORIENTED_EDGE('',*,*,#163592,.F.);
#163627=ORIENTED_EDGE('',*,*,#163618,.F.);
#163628=ORIENTED_EDGE('',*,*,#163623,.T.);
#163629=FACE_OUTER_BOUND('',#163624,.T.);
#163630=ADVANCED_FACE('PartBody',(#163629),#163604,.F.);
#163631=CARTESIAN_POINT('Axis2P3D Location',(9338.66599845,-2309.25609905,1690.92930341));
#163632=DIRECTION('Axis2P3D Direction',(0.06209061019508907,0.3377075625149406,0.9392009147918345));
#163633=DIRECTION('Axis2P3D XDirection',(0.9413443431044966,-0.3325403414931754,0.05733889591513025));
#163634=AXIS2_PLACEMENT_3D('Cylinder Axis2P3D',#163631,#163632,#163633);
#163635=CYLINDRICAL_SURFACE('generated cylinder',#163634,12.);
#163636=CARTESIAN_POINT('Axis2P3D Location',(9338.85698916,-2308.21731059,1693.81828543));
#163637=DIRECTION('Axis2P3D Direction',(0.06209061019508907,0.3377075625149406,0.9392009147918345));
#163638=AXIS2_PLACEMENT_3D('Circle Axis2P3D',#163636,#163637,$);
#163639=CIRCLE('generated circle',#163638,12.);
#163640=CARTESIAN_POINT('Vertex',(9326.88014297,-2307.96520253,1694.51942496));
#163641=VERTEX_POINT('',#163640);
#163642=EDGE_CURVE('',#163641,#163610,#163639,.F.);
#163643=CARTESIAN_POINT('Axis2P3D Location',(9338.66599845,-2309.25609905,1690.92930341));
#163644=DIRECTION('Axis2P3D Direction',(0.06209061019508907,0.3377075625149406,0.9392009147918345));
#163645=AXIS2_PLACEMENT_3D('Circle Axis2P3D',#163643,#163644,$);
#163646=CIRCLE('generated circle',#163645,12.);
#163647=CARTESIAN_POINT('Vertex',(9326.689152249999,-2309.00399099,1691.63044294));
#163648=VERTEX_POINT('',#163647);
#163649=EDGE_CURVE('',#163648,#163617,#163646,.F.);
#163650=CARTESIAN_POINT('Line Origine',(9326.78464761,-2308.48459676,1693.07493395));
#163651=DIRECTION('Vector Direction',(0.06209061019518868,0.3377075625149384,0.9392009147918288));
#163652=VECTOR('Line Direction',#163651,1.);
#163653=LINE('Line',#163650,#163652);
#163654=EDGE_CURVE('',#163648,#163641,#163653,.T.);
#163655=EDGE_LOOP('',(#163656,#163657,#163658,#163659));
#163656=ORIENTED_EDGE('',*,*,#163642,.T.);
#163657=ORIENTED_EDGE('',*,*,#163623,.F.);
#163658=ORIENTED_EDGE('',*,*,#163649,.F.);
#163659=ORIENTED_EDGE('',*,*,#163654,.T.);
#163660=FACE_OUTER_BOUND('',#163655,.T.);
#163661=ADVANCED_FACE('PartBody',(#163660),#163635,.T.);
#163662=CARTESIAN_POINT('Axis2P3D Location',(9326.689152249999,-2323.76812527,1696.9391684));
#163663=DIRECTION('Axis2P3D Direction',(-0.998070516609725,0.02100900515059421,0.0584282943185839));
#163664=DIRECTION('Axis2P3D XDirection',(0.06209061019508907,0.3377075625149406,0.9392009147918345));
#163665=AXIS2_PLACEMENT_3D('Plane Axis2P3D',#163662,#163663,#163664);
#163666=PLANE('',#163665);
#163667=CARTESIAN_POINT('Line Origine',(9326.88014297,-2322.72933681,1699.82815041));
#163668=DIRECTION('Vector Direction',(0,0.9410165906733544,-0.3383604233321274));
#163669=VECTOR('Line Direction',#163668,1.);
#163670=LINE('Line',#163667,#163669);
#163671=CARTESIAN_POINT('Vertex',(9326.88014297,-2337.49347109,1705.13687586));
#163672=VERTEX_POINT('',#163671);
#163673=EDGE_CURVE('',#163672,#163641,#163670,.T.);
#163674=CARTESIAN_POINT('Line Origine',(9326.689152249999,-2323.76812527,1696.9391684));
#163675=DIRECTION('Vector Direction',(0,0.9410165906733544,-0.3383604233321274));
#163676=VECTOR('Line Direction',#163675,1.);
#163677=LINE('Line',#163674,#163676);
#163678=CARTESIAN_POINT('Vertex',(9326.689152249999,-2338.53225955,1702.24789385));
#163679=VERTEX_POINT('',#163678);
#163680=EDGE_CURVE('',#163679,#163648,#163677,.T.);
#163681=CARTESIAN_POINT('Line Origine',(9326.78464761,-2338.01286532,1703.69238486));
#163682=DIRECTION('Vector Direction',(0.06209061019479022,0.3377075625149468,0.9392009147918521));
#163683=VECTOR('Line Direction',#163682,1.);
#163684=LINE('Line',#163681,#163683);
#163685=EDGE_CURVE('',#163679,#163672,#163684,.T.);
#163686=EDGE_LOOP('',(#163687,#163688,#163689,#163690));
#163687=ORIENTED_EDGE('',*,*,#163673,.T.);
#163688=ORIENTED_EDGE('',*,*,#163654,.F.);
#163689=ORIENTED_EDGE('',*,*,#163680,.F.);
#163690=ORIENTED_EDGE('',*,*,#163685,.T.);
#163691=FACE_OUTER_BOUND('',#163686,.T.);
#163692=ADVANCED_FACE('PartBody',(#163691),#163666,.T.);
#163693=CARTESIAN_POINT('Axis2P3D Location',(9338.66599845,-2338.78436762,1701.54675432));
#163694=DIRECTION('Axis2P3D Direction',(0.06209061019508907,0.3377075625149406,0.9392009147918345));
#163695=DIRECTION('Axis2P3D XDirection',(0.7512800847633376,0.6036820330322713,-0.2667325200121198));
#163696=AXIS2_PLACEMENT_3D('Cylinder Axis2P3D',#163693,#163694,#163695);
#163697=CYLINDRICAL_SURFACE('generated cylinder',#163696,12.);
#163698=CARTESIAN_POINT('Axis2P3D Location',(9338.856989170001,-2337.74557915,1704.43573633));
#163699=DIRECTION('Axis2P3D Direction',(0.06209061019508907,0.3377075625149406,0.9392009147918345));
#163700=AXIS2_PLACEMENT_3D('Circle Axis2P3D',#163698,#163699,$);
#163701=CIRCLE('generated circle',#163700,12.);
#163702=CARTESIAN_POINT('Vertex',(9337.261525440001,-2348.90355284,1708.55327428));
#163703=VERTEX_POINT('',#163702);
#163704=EDGE_CURVE('',#163703,#163672,#163701,.F.);
#163705=CARTESIAN_POINT('Axis2P3D Location',(9338.66599845,-2338.78436762,1701.54675432));
#163706=DIRECTION('Axis2P3D Direction',(0.06209061019508907,0.3377075625149406,0.9392009147918345));
#163707=AXIS2_PLACEMENT_3D('Circle Axis2P3D',#163705,#163706,$);
#163708=CIRCLE('generated circle',#163707,12.);
#163709=CARTESIAN_POINT('Vertex',(9337.07053472,-2349.9423413,1705.66429227));
#163710=VERTEX_POINT('',#163709);
#163711=EDGE_CURVE('',#163710,#163679,#163708,.F.);
#163712=CARTESIAN_POINT('Line Origine',(9337.166030079999,-2349.42294707,1707.10878328));
#163713=DIRECTION('Vector Direction',(0.06209061019518868,0.3377075625149384,0.9392009147918288));
#163714=VECTOR('Line Direction',#163713,1.);
#163715=LINE('Line',#163712,#163714);
#163716=EDGE_CURVE('',#163710,#163703,#163715,.T.);
#163717=EDGE_LOOP('',(#163718,#163719,#163720,#163721));
#163718=ORIENTED_EDGE('',*,*,#163704,.T.);
#163719=ORIENTED_EDGE('',*,*,#163685,.F.);
#163720=ORIENTED_EDGE('',*,*,#163711,.F.);
#163721=ORIENTED_EDGE('',*,*,#163716,.T.);
#163722=FACE_OUTER_BOUND('',#163717,.T.);
#163723=ADVANCED_FACE('PartBody',(#163722),#163697,.T.);
#163724=CARTESIAN_POINT('Axis2P3D Location',(9350.64429375,-2351.94822297,1705.48818344));
#163725=DIRECTION('Axis2P3D Direction',(-0.1329553104620166,-0.929831140258116,0.3431281626830428));
#163726=DIRECTION('Axis2P3D XDirection',(0.9911220335659696,-0.1247333665719962,0.04602935849729859));
#163727=AXIS2_PLACEMENT_3D('Plane Axis2P3D',#163724,#163725,#163726);
#163728=PLANE('',#163727);
#163729=CARTESIAN_POINT('Line Origine',(9350.83528447,-2350.90943451,1708.37716546));
#163730=DIRECTION('Vector Direction',(-0.9891752329823379,0.1461767862080499,0.01283376905760438));
#163731=VECTOR('Line Direction',#163730,1.);
#163732=LINE('Line',#163729,#163731);
#163733=CARTESIAN_POINT('Vertex',(9364.409043490001,-2352.91531618,1708.20105663));
#163734=VERTEX_POINT('',#163733);
#163735=EDGE_CURVE('',#163734,#163703,#163732,.T.);
#163736=CARTESIAN_POINT('Line Origine',(9350.64429375,-2351.94822297,1705.48818344));
#163737=DIRECTION('Vector Direction',(-0.9891752329823379,0.1461767862080499,0.01283376905760438));
#163738=VECTOR('Line Direction',#163737,1.);
#163739=LINE('Line',#163736,#163738);
#163740=CARTESIAN_POINT('Vertex',(9364.21805277,-2353.95410465,1705.31207462));
#163741=VERTEX_POINT('',#163740);
#163742=EDGE_CURVE('',#163741,#163710,#163739,.T.);
#163743=CARTESIAN_POINT('Line Origine',(9364.31354813,-2353.43471041,1706.75656563));
#163744=DIRECTION('Vector Direction',(0.06209061019479022,0.3377075625149468,0.9392009147918521));
#163745=VECTOR('Line Direction',#163744,1.);
#163746=LINE('Line',#163743,#163745);
#163747=EDGE_CURVE('',#163741,#163734,#163746,.T.);
#163748=EDGE_LOOP('',(#163749,#163750,#163751,#163752));
#163749=ORIENTED_EDGE('',*,*,#163735,.T.);
#163750=ORIENTED_EDGE('',*,*,#163716,.F.);
#163751=ORIENTED_EDGE('',*,*,#163742,.F.);
#163752=ORIENTED_EDGE('',*,*,#163747,.T.);
#163753=FACE_OUTER_BOUND('',#163748,.T.);
#163754=ADVANCED_FACE('PartBody',(#163753),#163728,.T.);
#163755=CARTESIAN_POINT('Axis2P3D Location',(9365.8135165,-2342.79613096,1701.19453667));
#163756=DIRECTION('Axis2P3D Direction',(0.06209061019508907,0.3377075625149406,0.9392009147918345));
#163757=DIRECTION('Axis2P3D XDirection',(-0.6570563068439984,0.7221645278009983,-0.2162299803969995));
#163758=AXIS2_PLACEMENT_3D('Cylinder Axis2P3D',#163755,#163756,#163757);
#163759=CYLINDRICAL_SURFACE('generated cylinder',#163758,12.);
#163760=CARTESIAN_POINT('Axis2P3D Location',(9366.004507219999,-2341.7573425,1704.08351868));
#163761=DIRECTION('Axis2P3D Direction',(0.06209061019508907,0.3377075625149406,0.9392009147918345));
#163762=AXIS2_PLACEMENT_3D('Circle Axis2P3D',#163760,#163761,$);
#163763=CIRCLE('generated circle',#163762,12.);
#163764=CARTESIAN_POINT('Vertex',(9377.98135342,-2342.00945056,1703.38237915));
#163765=VERTEX_POINT('',#163764);
#163766=EDGE_CURVE('',#163765,#163734,#163763,.F.);
#163767=CARTESIAN_POINT('Axis2P3D Location',(9365.8135165,-2342.79613096,1701.19453667));
#163768=DIRECTION('Axis2P3D Direction',(0.06209061019508907,0.3377075625149406,0.9392009147918345));
#163769=AXIS2_PLACEMENT_3D('Circle Axis2P3D',#163767,#163768,$);
#163770=CIRCLE('generated circle',#163769,12.);
#163771=CARTESIAN_POINT('Vertex',(9377.7903627,-2343.04823902,1700.49339713));
#163772=VERTEX_POINT('',#163771);
#163773=EDGE_CURVE('',#163772,#163741,#163770,.F.);
#163774=CARTESIAN_POINT('Line Origine',(9377.885858060001,-2342.52884479,1701.93788814));
#163775=DIRECTION('Vector Direction',(0.06209061019518868,0.3377075625149384,0.9392009147918288));
#163776=VECTOR('Line Direction',#163775,1.);
#163777=LINE('Line',#163774,#163776);
#163778=EDGE_CURVE('',#163772,#163765,#163777,.T.);
#163779=EDGE_LOOP('',(#163780,#163781,#163782,#163783));
#163780=ORIENTED_EDGE('',*,*,#163766,.T.);
#163781=ORIENTED_EDGE('',*,*,#163747,.F.);
#163782=ORIENTED_EDGE('',*,*,#163773,.F.);
#163783=ORIENTED_EDGE('',*,*,#163778,.T.);
#163784=FACE_OUTER_BOUND('',#163779,.T.);
#163785=ADVANCED_FACE('PartBody',(#163784),#163759,.T.);
#163786=CARTESIAN_POINT('Axis2P3D Location',(9377.7903627,-2330.9834644,1696.15527782));
#163787=DIRECTION('Axis2P3D Direction',(0.9980705166097217,-0.02100900515019414,-0.05842829431878371));
#163788=DIRECTION('Axis2P3D XDirection',(0.06209061019509825,0.3377075625089905,0.9392009147939735));
#163789=AXIS2_PLACEMENT_3D('Plane Axis2P3D',#163786,#163787,#163788);
#163790=PLANE('',#163789);
#163791=CARTESIAN_POINT('Line Origine',(9377.98135342,-2329.94467593,1699.04425983));
#163792=DIRECTION('Vector Direction',(3.546894284281336e-13,-0.9410165906733544,0.3383604233321274));
#163793=VECTOR('Line Direction',#163792,1.);
#163794=LINE('Line',#163791,#163793);
#163795=CARTESIAN_POINT('Vertex',(9377.98135342,-2317.8799013,1694.70614051));
#163796=VERTEX_POINT('',#163795);
#163797=EDGE_CURVE('',#163796,#163765,#163794,.T.);
#163798=CARTESIAN_POINT('Line Origine',(9377.7903627,-2330.9834644,1696.15527782));
#163799=DIRECTION('Vector Direction',(4.256273141361603e-13,-0.9410165906733544,0.3383604233321274));
#163800=VECTOR('Line Direction',#163799,1.);
#163801=LINE('Line',#163798,#163800);
#163802=CARTESIAN_POINT('Vertex',(9377.7903627,-2318.91868977,1691.8171585));
#163803=VERTEX_POINT('',#163802);
#163804=EDGE_CURVE('',#163803,#163772,#163801,.T.);
#163805=CARTESIAN_POINT('Line Origine',(9377.885858060001,-2318.39929553,1693.2616495));
#163806=DIRECTION('Vector Direction',(0.06209061019538792,0.3377075625149343,0.9392009147918173));
#163807=VECTOR('Line Direction',#163806,1.);
#163808=LINE('Line',#163805,#163807);
#163809=EDGE_CURVE('',#163803,#163796,#163808,.T.);
#163810=EDGE_LOOP('',(#163811,#163812,#163813,#163814));
#163811=ORIENTED_EDGE('',*,*,#163797,.T.);
#163812=ORIENTED_EDGE('',*,*,#163778,.F.);
#163813=ORIENTED_EDGE('',*,*,#163804,.F.);
#163814=ORIENTED_EDGE('',*,*,#163809,.T.);
#163815=FACE_OUTER_BOUND('',#163810,.T.);
#163816=ADVANCED_FACE('PartBody',(#163815),#163790,.T.);
#163817=CARTESIAN_POINT('Axis2P3D Location',(9366.27023443,-2305.4103065,1690.99668294));
#163818=DIRECTION('Axis2P3D Direction',(0.06209061019508907,0.3377075625149406,0.9392009147918345));
#163819=DIRECTION('Axis2P3D XDirection',(0.5320653067568299,0.784953035663749,-0.3174196609348985));
#163820=AXIS2_PLACEMENT_3D('Plane Axis2P3D',#163817,#163818,#163819);
#163821=PLANE('',#163820);
#163822=B_SPLINE_CURVE_WITH_KNOTS('',5,(#163823,#163824,#163825,#163826,#163827,#163828),.UNSPECIFIED.,.F.,.U.,(6,6),(5.06027900698,19.1974459465),.UNSPECIFIED.);
#163823=CARTESIAN_POINT('Control Point',(9386.96398807,-2309.59983304,1691.13504205));
#163824=CARTESIAN_POINT('Control Point',(9384.14201016,-2309.54043147,1691.30024416));
#163825=CARTESIAN_POINT('Control Point',(9381.31739934,-2310.52280693,1691.84021109));
#163826=CARTESIAN_POINT('Control Point',(9379.08635225,-2312.57935524,1692.72717678));
#163827=CARTESIAN_POINT('Control Point',(9377.98135342,-2315.21923958,1693.74944895));
#163828=CARTESIAN_POINT('Control Point',(9377.98135342,-2317.87990131,1694.70614051));
#163829=CARTESIAN_POINT('Vertex',(9386.96398807,-2309.59983304,1691.13504205));
#163830=VERTEX_POINT('',#163829);
#163831=EDGE_CURVE('',#163830,#163796,#163822,.T.);
#163832=B_SPLINE_CURVE_WITH_KNOTS('',1,(#163833,#163834),.UNSPECIFIED.,.F.,.U.,(2,2),(-1.82830712978,1.82830712978),.UNSPECIFIED.);
#163833=CARTESIAN_POINT('Control Point',(9390.61354695,-2309.67665486,1690.92139232));
#163834=CARTESIAN_POINT('Control Point',(9386.96398807,-2309.59983303,1691.13504205));
#163835=CARTESIAN_POINT('Vertex',(9390.61354695,-2309.67665486,1690.92139232));
#163836=VERTEX_POINT('',#163835);
#163837=EDGE_CURVE('',#163836,#163830,#163832,.T.);
#163838=B_SPLINE_CURVE_WITH_KNOTS('',1,(#163839,#163840),.UNSPECIFIED.,.F.,.U.,(2,2),(-14.8539276547,31.212139467),.UNSPECIFIED.);
#163839=CARTESIAN_POINT('Control Point',(9390.61354695,-2309.67665486,1690.92139232));
#163840=CARTESIAN_POINT('Control Point',(9390.61354695,-2266.32772143,1675.33445835));
#163841=EDGE_CURVE('',#163836,#163455,#163838,.T.);
#163842=EDGE_LOOP('',(#163843,#163844,#163845,#163846,#163847,#163848,#163849,#163850,#163851,#163852,#163853,#163854,#163855,#163856));
#163843=ORIENTED_EDGE('',*,*,#163499,.T.);
#163844=ORIENTED_EDGE('',*,*,#163518,.F.);
#163845=ORIENTED_EDGE('',*,*,#163549,.F.);
#163846=ORIENTED_EDGE('',*,*,#163580,.F.);
#163847=ORIENTED_EDGE('',*,*,#163611,.F.);
#163848=ORIENTED_EDGE('',*,*,#163642,.F.);
#163849=ORIENTED_EDGE('',*,*,#163673,.F.);
#163850=ORIENTED_EDGE('',*,*,#163704,.F.);
#163851=ORIENTED_EDGE('',*,*,#163735,.F.);
#163852=ORIENTED_EDGE('',*,*,#163766,.F.);
#163853=ORIENTED_EDGE('',*,*,#163797,.F.);
#163854=ORIENTED_EDGE('',*,*,#163831,.F.);
#163855=ORIENTED_EDGE('',*,*,#163837,.F.);
#163856=ORIENTED_EDGE('',*,*,#163841,.T.);
#163857=FACE_OUTER_BOUND('',#163842,.T.);
#163858=ADVANCED_FACE('PartBody',(#163857),#163821,.T.);
#163859=CARTESIAN_POINT('Axis2P3D Location',(9390.924000000001,-2294.01032469,1690.59141564));
#163860=DIRECTION('Axis2P3D Direction',(7.563394355262849e-16,0.9410165906733544,-0.3383604233321274));
#163861=DIRECTION('Axis2P3D XDirection',(-0.6848026685857327,0.2465729019519037,0.6857456592067324));
#163862=AXIS2_PLACEMENT_3D('Cylinder Axis2P3D',#163859,#163860,#163861);
#163863=CYLINDRICAL_SURFACE('generated cylinder',#163862,5.);
#163864=CARTESIAN_POINT('Axis2P3D Location',(9390.924000000001,-2307.98811705,1695.61739689));
#163865=DIRECTION('Axis2P3D Direction',(7.563394355262849e-16,0.9410165906733544,-0.3383604233321274));
#163866=AXIS2_PLACEMENT_3D('Circle Axis2P3D',#163864,#163865,$);
#163867=CIRCLE('generated circle',#163866,5.);
#163868=EDGE_CURVE('',#163836,#163250,#163867,.F.);
#163869=EDGE_LOOP('',(#163870,#163871,#163872,#163873));
#163870=ORIENTED_EDGE('',*,*,#163456,.F.);
#163871=ORIENTED_EDGE('',*,*,#163841,.F.);
#163872=ORIENTED_EDGE('',*,*,#163868,.T.);
#163873=ORIENTED_EDGE('',*,*,#163368,.T.);
#163874=FACE_OUTER_BOUND('',#163869,.T.);
#163875=ADVANCED_FACE('PartBody',(#163874),#163863,.F.);
#163876=CARTESIAN_POINT('Axis2P3D Location',(9384.706753590001,-2309.73215492,1690.76704072));
#163877=DIRECTION('Axis2P3D Direction',(-7.632783294302875e-16,-0.9410165906733544,0.3383604233321274));
#163878=DIRECTION('Axis2P3D XDirection',(0.9980705166097192,-0.02100900515059409,-0.05842829431868356));
#163879=AXIS2_PLACEMENT_3D('Plane Axis2P3D',#163876,#163877,#163878);
#163880=PLANE('',#163879);
#163881=CARTESIAN_POINT('Line Origine',(9390.518051589999,-2310.19604909,1689.47690131));
#163882=DIRECTION('Vector Direction',(-0.06209061019538792,-0.3377075625149343,-0.9392009147918173));
#163883=VECTOR('Line Direction',#163882,1.);
#163884=LINE('Line',#163881,#163883);
#163885=CARTESIAN_POINT('Vertex',(9390.42255623,-2310.71544332,1688.0324103));
#163886=VERTEX_POINT('',#163885);
#163887=EDGE_CURVE('',#163886,#163836,#163884,.F.);
#163888=CARTESIAN_POINT('Axis2P3D Location',(9390.924000000001,-2307.98811705,1695.61739689));
#163889=DIRECTION('Axis2P3D Direction',(-7.632783294302875e-16,-0.9410165906733544,0.3383604233321274));
#163890=AXIS2_PLACEMENT_3D('Circle Axis2P3D',#163888,#163889,$);
#163891=CIRCLE('generated circle',#163890,8.076);
#163892=EDGE_CURVE('',#163886,#163252,#163891,.T.);
#163893=EDGE_LOOP('',(#163894,#163895,#163896,#163897));
#163894=ORIENTED_EDGE('',*,*,#163887,.F.);
#163895=ORIENTED_EDGE('',*,*,#163892,.T.);
#163896=ORIENTED_EDGE('',*,*,#163253,.F.);
#163897=ORIENTED_EDGE('',*,*,#163868,.F.);
#163898=FACE_OUTER_BOUND('',#163893,.T.);
#163899=ADVANCED_FACE('PartBody',(#163898),#163880,.T.);
#163900=CARTESIAN_POINT('Axis2P3D Location',(9390.924000000001,-2294.01032469,1690.59141564));
#163901=DIRECTION('Axis2P3D Direction',(7.563394355262849e-16,0.9410165906733544,-0.3383604233321274));
#163902=DIRECTION('Axis2P3D XDirection',(1,1.46688217129e-14,4.3035019992e-14));
#163903=AXIS2_PLACEMENT_3D('Cylinder Axis2P3D',#163900,#163901,#163902);
#163904=CYLINDRICAL_SURFACE('generated cylinder',#163903,8.076);
#163905=CARTESIAN_POINT('Line Origine',(9390.42255623,-2296.73765096,1683.00642906));
#163906=DIRECTION('Vector Direction',(0,0.9410165906733544,-0.3383604233321274));
#163907=VECTOR('Line Direction',#163906,1.);
#163908=LINE('Line',#163905,#163907);
#163909=EDGE_CURVE('',#163886,#163462,#163908,.T.);
#163910=EDGE_LOOP('',(#163911,#163912,#163913,#163914));
#163911=ORIENTED_EDGE('',*,*,#163413,.F.);
#163912=ORIENTED_EDGE('',*,*,#163892,.F.);
#163913=ORIENTED_EDGE('',*,*,#163909,.T.);
#163914=ORIENTED_EDGE('',*,*,#163463,.T.);
#163915=FACE_OUTER_BOUND('',#163910,.T.);
#163916=ADVANCED_FACE('PartBody',(#163915),#163904,.T.);
#163917=CARTESIAN_POINT('Axis2P3D Location',(9366.07924372,-2306.44909496,1688.10770093));
#163918=DIRECTION('Axis2P3D Direction',(0.06209061019508907,0.3377075625149406,0.9392009147918345));
#163919=DIRECTION('Axis2P3D XDirection',(0.5320653067568299,0.784953035663749,-0.3174196609348985));
#163920=AXIS2_PLACEMENT_3D('Plane Axis2P3D',#163917,#163918,#163919);
#163921=PLANE('',#163920);
#163922=CARTESIAN_POINT('Line Origine',(9388.59777679,-2310.67703241,1688.13923517));
#163923=DIRECTION('Vector Direction',(-0.998070516609717,0.02100900515069404,0.05842829431868343));
#163924=VECTOR('Line Direction',#163923,1.);
#163925=LINE('Line',#163922,#163924);
#163926=CARTESIAN_POINT('Vertex',(9386.772997350001,-2310.6386215,1688.24606004));
#163927=VERTEX_POINT('',#163926);
#163928=EDGE_CURVE('',#163886,#163927,#163925,.T.);
#163929=CARTESIAN_POINT('Axis2P3D Location',(9386.772997350001,-2319.10777082,1691.29130385));
#163930=DIRECTION('Axis2P3D Direction',(0.06209061019508907,0.3377075625149406,0.9392009147918345));
#163931=AXIS2_PLACEMENT_3D('Circle Axis2P3D',#163929,#163930,$);
#163932=CIRCLE('generated circle',#163931,9.);
#163933=EDGE_CURVE('',#163927,#163803,#163932,.T.);
#163934=EDGE_LOOP('',(#163935,#163936,#163937,#163938,#163939,#163940,#163941,#163942,#163943,#163944,#163945,#163946,#163947,#163948));
#163935=ORIENTED_EDGE('',*,*,#163909,.F.);
#163936=ORIENTED_EDGE('',*,*,#163928,.T.);
#163937=ORIENTED_EDGE('',*,*,#163933,.T.);
#163938=ORIENTED_EDGE('',*,*,#163804,.T.);
#163939=ORIENTED_EDGE('',*,*,#163773,.T.);
#163940=ORIENTED_EDGE('',*,*,#163742,.T.);
#163941=ORIENTED_EDGE('',*,*,#163711,.T.);
#163942=ORIENTED_EDGE('',*,*,#163680,.T.);
#163943=ORIENTED_EDGE('',*,*,#163649,.T.);
#163944=ORIENTED_EDGE('',*,*,#163618,.T.);
#163945=ORIENTED_EDGE('',*,*,#163587,.T.);
#163946=ORIENTED_EDGE('',*,*,#163556,.T.);
#163947=ORIENTED_EDGE('',*,*,#163525,.T.);
#163948=ORIENTED_EDGE('',*,*,#163487,.F.);
#163949=FACE_OUTER_BOUND('',#163934,.T.);
#163950=ADVANCED_FACE('PartBody',(#163949),#163921,.F.);
#163951=CARTESIAN_POINT('Axis2P3D Location',(9386.772997350001,-2319.10777082,1691.29130385));
#163952=DIRECTION('Axis2P3D Direction',(0.06209061019508907,0.3377075625149406,0.9392009147918345));
#163953=DIRECTION('Axis2P3D XDirection',(0.7057424303971676,-0.6802548224821614,0.197941906697047));
#163954=AXIS2_PLACEMENT_3D('Cylinder Axis2P3D',#163951,#163952,#163953);
#163955=CYLINDRICAL_SURFACE('generated cylinder',#163954,9.);
#163956=CARTESIAN_POINT('Line Origine',(9386.86849271,-2310.11922727,1689.69055105));
#163957=DIRECTION('Vector Direction',(0.06209061019518868,0.3377075625149384,0.9392009147918288));
#163958=VECTOR('Line Direction',#163957,1.);
#163959=LINE('Line',#163956,#163958);
#163960=EDGE_CURVE('',#163927,#163830,#163959,.T.);
#163961=EDGE_LOOP('',(#163962,#163963,#163964,#163965));
#163962=ORIENTED_EDGE('',*,*,#163831,.T.);
#163963=ORIENTED_EDGE('',*,*,#163809,.F.);
#163964=ORIENTED_EDGE('',*,*,#163933,.F.);
#163965=ORIENTED_EDGE('',*,*,#163960,.T.);
#163966=FACE_OUTER_BOUND('',#163961,.T.);
#163967=ADVANCED_FACE('PartBody',(#163966),#163955,.F.);
#163968=CARTESIAN_POINT('Axis2P3D Location',(9388.59777679,-2310.67703241,1688.13923517));
#163969=DIRECTION('Axis2P3D Direction',(-8.933825901283363e-15,-0.9410165906733544,0.3383604233321274));
#163970=DIRECTION('Axis2P3D XDirection',(1,-8.40687839129e-15,3.02285311393e-15));
#163971=AXIS2_PLACEMENT_3D('Plane Axis2P3D',#163968,#163969,#163970);
#163972=PLANE('',#163971);
#163973=EDGE_LOOP('',(#163974,#163975,#163976,#163977));
#163974=ORIENTED_EDGE('',*,*,#163837,.T.);
#163975=ORIENTED_EDGE('',*,*,#163960,.F.);
#163976=ORIENTED_EDGE('',*,*,#163928,.F.);
#163977=ORIENTED_EDGE('',*,*,#163887,.T.);
#163978=FACE_OUTER_BOUND('',#163973,.T.);
#163979=ADVANCED_FACE('PartBody',(#163978),#163972,.T.);
#163980=ADVANCED_BREP_SHAPE_REPRESENTATION('NONE',(#163237),#162983);

#163981=APPLICATION_CONTEXT('automotive_design');
#163982=APPLICATION_PROTOCOL_DEFINITION('international standard','automotive_design',2010,#163981);
#163983=PRODUCT_CONTEXT('',#163981,'mechanical');
#163984=PRODUCT_DEFINITION_CONTEXT('part definition',#163981,'design');
#163985=PRODUCT('part_038_V5311445120000_1','part_038_V5311445120000_1','',(#163983));
#163986=PRODUCT_DEFINITION_FORMATION('','',#163985);
#163987=PRODUCT_DEFINITION('design','',#163986,#163984);
#163988=PRODUCT_DEFINITION_SHAPE('','',#163987);
#163989=SHAPE_DEFINITION_REPRESENTATION(#163988,#163980);
ENDSEC;
END-ISO-10303-21;
