ISO-10303-21;
HEADER;
FILE_DESCRIPTION(('CATIA V5 STEP Exchange','CAx-IF Rec.Pracs.--- Model Styling and Organization---1.4--- 2014-01-23'),'2;1');

FILE_NAME('C:\\Users\\SA516207\\WORK\\01_ASSY\\3_Catia\\ECHELLE\\ECHELLE.stp','2026-09-22T12:18:05+00:00',('none'),('none'),'CATIA Version 5-6 Release 2017 SP2 HF26','CATIA V5 STEP AP203 WITH EXTENSIONS','none');

FILE_SCHEMA(('CONFIG_CONTROL_DESIGN','SHAPE_APPEARANCE_LAYER_MIM'));

ENDSEC;
DATA;
#46=(LENGTH_UNIT()NAMED_UNIT(*)SI_UNIT(.MILLI.,.METRE.));
#47=(NAMED_UNIT(*)PLANE_ANGLE_UNIT()SI_UNIT($,.RADIAN.));
#48=(NAMED_UNIT(*)SI_UNIT($,.STERADIAN.)SOLID_ANGLE_UNIT());
#171641=UNCERTAINTY_MEASURE_WITH_UNIT(LENGTH_MEASURE(0.005),#46,'distance_accuracy_value','CONFUSED CURVE UNCERTAINTY');
#171642=(GEOMETRIC_REPRESENTATION_CONTEXT(3)GLOBAL_UNCERTAINTY_ASSIGNED_CONTEXT((#171641))GLOBAL_UNIT_ASSIGNED_CONTEXT((#46,#47,#48))REPRESENTATION_CONTEXT(' ',' '));
#171896=MANIFOLD_SOLID_BREP('PartBody',#171898);
#171898=CLOSED_SHELL('Closed Shell',(#171938,#171969,#172000,#172036,#172060,#172086,#172103,#172134,#172165,#172196,#172227,#172258,#172289,#172320,#172351,#172382,#172413,#172444,#172475,#172517,#172534,#172558,#172575,#172609,#172626,#172638));
#171899=CARTESIAN_POINT('Axis2P3D Location',(9399,-2685.73945728,552.628212675));
#171900=DIRECTION('Axis2P3D Direction',(0,0.9705254622622835,-0.2409986039390704));
#171901=DIRECTION('Axis2P3D XDirection',(1,0,0));
#171902=AXIS2_PLACEMENT_3D('Plane Axis2P3D',#171899,#171900,#171901);
#171903=PLANE('',#171902);
#171904=CARTESIAN_POINT('Line Origine',(9397.646000000001,-2686.83008406,548.2361496349999));
#171905=DIRECTION('Vector Direction',(-1,0,0));
#171906=VECTOR('Line Direction',#171905,1.);
#171907=LINE('Line',#171904,#171906);
#171908=CARTESIAN_POINT('Vertex',(9396.291999999999,-2686.83008406,548.2361496349999));
#171909=VERTEX_POINT('',#171908);
#171910=CARTESIAN_POINT('Vertex',(9399,-2686.83008406,548.2361496349999));
#171911=VERTEX_POINT('',#171910);
#171912=EDGE_CURVE('',#171909,#171911,#171907,.F.);
#171913=CARTESIAN_POINT('Line Origine',(9399,-2685.73945728,552.628212675));
#171914=DIRECTION('Vector Direction',(0,0.2409986039390704,0.9705254622622835));
#171915=VECTOR('Line Direction',#171914,1.);
#171916=LINE('Line',#171913,#171915);
#171917=CARTESIAN_POINT('Vertex',(9399,-2684.6488305,557.020275716));
#171918=VERTEX_POINT('',#171917);
#171919=EDGE_CURVE('',#171911,#171918,#171916,.T.);
#171920=CARTESIAN_POINT('Line Origine',(9397.646000000001,-2684.6488305,557.020275716));
#171921=DIRECTION('Vector Direction',(-1,0,0));
#171922=VECTOR('Line Direction',#171921,1.);
#171923=LINE('Line',#171920,#171922);
#171924=CARTESIAN_POINT('Vertex',(9396.291999999999,-2684.6488305,557.020275716));
#171925=VERTEX_POINT('',#171924);
#171926=EDGE_CURVE('',#171918,#171925,#171923,.T.);
#171927=CARTESIAN_POINT('Line Origine',(9396.291999999999,-2685.73945728,552.628212675));
#171928=DIRECTION('Vector Direction',(0,0.2409986039390704,0.9705254622622835));
#171929=VECTOR('Line Direction',#171928,1.);
#171930=LINE('Line',#171927,#171929);
#171931=EDGE_CURVE('',#171909,#171925,#171930,.T.);
#171932=EDGE_LOOP('',(#171933,#171934,#171935,#171936));
#171933=ORIENTED_EDGE('',*,*,#171912,.T.);
#171934=ORIENTED_EDGE('',*,*,#171919,.T.);
#171935=ORIENTED_EDGE('',*,*,#171926,.T.);
#171936=ORIENTED_EDGE('',*,*,#171931,.F.);
#171937=FACE_OUTER_BOUND('',#171932,.T.);
#171938=ADVANCED_FACE('PartBody',(#171937),#171903,.F.);
#171939=CARTESIAN_POINT('Axis2P3D Location',(9399,-2673.00252495,554.128292468));
#171940=DIRECTION('Axis2P3D Direction',(-1,0,0));
#171941=DIRECTION('Axis2P3D XDirection',(0,0.5158533885778737,-0.8566768827817902));
#171942=AXIS2_PLACEMENT_3D('Cylinder Axis2P3D',#171939,#171940,#171941);
#171943=CYLINDRICAL_SURFACE('generated cylinder',#171942,12.);
#171944=CARTESIAN_POINT('Axis2P3D Location',(9396.291999999999,-2673.00252495,554.128292468));
#171945=DIRECTION('Axis2P3D Direction',(-1,0,0));
#171946=AXIS2_PLACEMENT_3D('Circle Axis2P3D',#171944,#171945,$);
#171947=CIRCLE('generated circle',#171946,12.);
#171948=CARTESIAN_POINT('Vertex',(9396.291999999999,-2670.1105417,565.774598016));
#171949=VERTEX_POINT('',#171948);
#171950=EDGE_CURVE('',#171949,#171925,#171947,.F.);
#171951=CARTESIAN_POINT('Axis2P3D Location',(9399,-2673.00252495,554.128292468));
#171952=DIRECTION('Axis2P3D Direction',(-1,0,0));
#171953=AXIS2_PLACEMENT_3D('Circle Axis2P3D',#171951,#171952,$);
#171954=CIRCLE('generated circle',#171953,12.);
#171955=CARTESIAN_POINT('Vertex',(9399,-2670.1105417,565.774598016));
#171956=VERTEX_POINT('',#171955);
#171957=EDGE_CURVE('',#171956,#171918,#171954,.F.);
#171958=CARTESIAN_POINT('Line Origine',(9397.646000000001,-2670.1105417,565.774598016));
#171959=DIRECTION('Vector Direction',(-1,0,0));
#171960=VECTOR('Line Direction',#171959,1.);
#171961=LINE('Line',#171958,#171960);
#171962=EDGE_CURVE('',#171956,#171949,#171961,.T.);
#171963=EDGE_LOOP('',(#171964,#171965,#171966,#171967));
#171964=ORIENTED_EDGE('',*,*,#171950,.T.);
#171965=ORIENTED_EDGE('',*,*,#171926,.F.);
#171966=ORIENTED_EDGE('',*,*,#171957,.F.);
#171967=ORIENTED_EDGE('',*,*,#171962,.T.);
#171968=FACE_OUTER_BOUND('',#171963,.T.);
#171969=ADVANCED_FACE('PartBody',(#171968),#171943,.T.);
#171970=CARTESIAN_POINT('Axis2P3D Location',(9399,-2659.15568089,563.054312701));
#171971=DIRECTION('Axis2P3D Direction',(0,0.2409986039390704,0.9705254622622835));
#171972=DIRECTION('Axis2P3D XDirection',(1,0,0));
#171973=AXIS2_PLACEMENT_3D('Plane Axis2P3D',#171970,#171971,#171972);
#171974=PLANE('',#171973);
#171975=CARTESIAN_POINT('Line Origine',(9396.291999999999,-2659.15568089,563.054312701));
#171976=DIRECTION('Vector Direction',(0,-0.9705254622622835,0.2409986039390704));
#171977=VECTOR('Line Direction',#171976,1.);
#171978=LINE('Line',#171975,#171977);
#171979=CARTESIAN_POINT('Vertex',(9396.291999999999,-2648.20082007,560.334027386));
#171980=VERTEX_POINT('',#171979);
#171981=EDGE_CURVE('',#171980,#171949,#171978,.T.);
#171982=CARTESIAN_POINT('Line Origine',(9399,-2659.15568089,563.054312701));
#171983=DIRECTION('Vector Direction',(0,-0.9705254622622835,0.2409986039390704));
#171984=VECTOR('Line Direction',#171983,1.);
#171985=LINE('Line',#171982,#171984);
#171986=CARTESIAN_POINT('Vertex',(9399,-2648.20082007,560.334027386));
#171987=VERTEX_POINT('',#171986);
#171988=EDGE_CURVE('',#171987,#171956,#171985,.T.);
#171989=CARTESIAN_POINT('Line Origine',(9397.646000000001,-2648.20082007,560.334027386));
#171990=DIRECTION('Vector Direction',(-1,0,0));
#171991=VECTOR('Line Direction',#171990,1.);
#171992=LINE('Line',#171989,#171991);
#171993=EDGE_CURVE('',#171987,#171980,#171992,.T.);
#171994=EDGE_LOOP('',(#171995,#171996,#171997,#171998));
#171995=ORIENTED_EDGE('',*,*,#171981,.T.);
#171996=ORIENTED_EDGE('',*,*,#171962,.F.);
#171997=ORIENTED_EDGE('',*,*,#171988,.F.);
#171998=ORIENTED_EDGE('',*,*,#171993,.T.);
#171999=FACE_OUTER_BOUND('',#171994,.T.);
#172000=ADVANCED_FACE('PartBody',(#171999),#171974,.T.);
#172001=CARTESIAN_POINT('Axis2P3D Location',(9396.291999999999,-2663.46606877,545.6959499340001));
#172002=DIRECTION('Axis2P3D Direction',(-1,0,0));
#172003=DIRECTION('Axis2P3D XDirection',(0,0.9705254622622835,-0.2409986039390704));
#172004=AXIS2_PLACEMENT_3D('Plane Axis2P3D',#172001,#172002,#172003);
#172005=PLANE('',#172004);
#172006=B_SPLINE_CURVE_WITH_KNOTS('',5,(#172007,#172008,#172009,#172010,#172011,#172012),.UNSPECIFIED.,.F.,.U.,(6,6),(56.5486677646,75.3982236862),.UNSPECIFIED.);
#172007=CARTESIAN_POINT('Control Point',(9396.291999999999,-2648.20082007,560.334027386));
#172008=CARTESIAN_POINT('Control Point',(9396.291999999999,-2644.54202528,559.425484053));
#172009=CARTESIAN_POINT('Control Point',(9396.291999999999,-2641.23557414,557.08342272));
#172010=CARTESIAN_POINT('Control Point',(9396.291999999999,-2639.06123376,553.472499191));
#172011=CARTESIAN_POINT('Control Point',(9396.291999999999,-2638.53795444,549.454533386));
#172012=CARTESIAN_POINT('Control Point',(9396.291999999999,-2639.44649777,545.795738591));
#172013=CARTESIAN_POINT('Vertex',(9396.291999999999,-2639.44649777,545.795738591));
#172014=VERTEX_POINT('',#172013);
#172015=EDGE_CURVE('',#172014,#171980,#172006,.F.);
#172016=CARTESIAN_POINT('Line Origine',(9396.291999999999,-2639.09113293,547.2268283240001));
#172017=DIRECTION('Vector Direction',(0,-0.2409986039390704,-0.9705254622622835));
#172018=VECTOR('Line Direction',#172017,1.);
#172019=LINE('Line',#172016,#172018);
#172020=CARTESIAN_POINT('Vertex',(9396.291999999999,-2641.62775134,537.011612511));
#172021=VERTEX_POINT('',#172020);
#172022=EDGE_CURVE('',#172021,#172014,#172019,.F.);
#172023=CARTESIAN_POINT('Line Origine',(9396.291999999999,-2664.2289177,542.623881073));
#172024=DIRECTION('Vector Direction',(0,0.9705254622622835,-0.2409986039390704));
#172025=VECTOR('Line Direction',#172024,1.);
#172026=LINE('Line',#172023,#172025);
#172027=EDGE_CURVE('',#171909,#172021,#172026,.T.);
#172028=EDGE_LOOP('',(#172029,#172030,#172031,#172032,#172033,#172034));
#172029=ORIENTED_EDGE('',*,*,#171931,.T.);
#172030=ORIENTED_EDGE('',*,*,#171950,.F.);
#172031=ORIENTED_EDGE('',*,*,#171981,.F.);
#172032=ORIENTED_EDGE('',*,*,#172015,.F.);
#172033=ORIENTED_EDGE('',*,*,#172022,.F.);
#172034=ORIENTED_EDGE('',*,*,#172027,.F.);
#172035=FACE_OUTER_BOUND('',#172028,.T.);
#172036=ADVANCED_FACE('PartBody',(#172035),#172005,.T.);
#172037=CARTESIAN_POINT('Axis2P3D Location',(9399,-2651.09280332,548.687721838));
#172038=DIRECTION('Axis2P3D Direction',(-1,0,0));
#172039=DIRECTION('Axis2P3D XDirection',(-0,-0.8566768827817902,-0.5158533885778737));
#172040=AXIS2_PLACEMENT_3D('Cylinder Axis2P3D',#172037,#172038,#172039);
#172041=CYLINDRICAL_SURFACE('generated cylinder',#172040,12.);
#172042=CARTESIAN_POINT('Axis2P3D Location',(9399,-2651.09280332,548.687721838));
#172043=DIRECTION('Axis2P3D Direction',(-1,0,0));
#172044=AXIS2_PLACEMENT_3D('Circle Axis2P3D',#172042,#172043,$);
#172045=CIRCLE('generated circle',#172044,12.);
#172046=CARTESIAN_POINT('Vertex',(9399,-2639.44649777,545.795738591));
#172047=VERTEX_POINT('',#172046);
#172048=EDGE_CURVE('',#172047,#171987,#172045,.F.);
#172049=CARTESIAN_POINT('Line Origine',(9397.646000000001,-2639.44649777,545.795738591));
#172050=DIRECTION('Vector Direction',(-1,0,0));
#172051=VECTOR('Line Direction',#172050,1.);
#172052=LINE('Line',#172049,#172051);
#172053=EDGE_CURVE('',#172047,#172014,#172052,.T.);
#172054=EDGE_LOOP('',(#172055,#172056,#172057,#172058));
#172055=ORIENTED_EDGE('',*,*,#172015,.T.);
#172056=ORIENTED_EDGE('',*,*,#171993,.F.);
#172057=ORIENTED_EDGE('',*,*,#172048,.F.);
#172058=ORIENTED_EDGE('',*,*,#172053,.T.);
#172059=FACE_OUTER_BOUND('',#172054,.T.);
#172060=ADVANCED_FACE('PartBody',(#172059),#172041,.T.);
#172061=CARTESIAN_POINT('Axis2P3D Location',(9399,-2663.46606877,545.6959499340001));
#172062=DIRECTION('Axis2P3D Direction',(-1,0,0));
#172063=DIRECTION('Axis2P3D XDirection',(0,0.9705254622622835,-0.2409986039390704));
#172064=AXIS2_PLACEMENT_3D('Plane Axis2P3D',#172061,#172062,#172063);
#172065=PLANE('',#172064);
#172066=CARTESIAN_POINT('Line Origine',(9399,-2664.2289177,542.623881073));
#172067=DIRECTION('Vector Direction',(0,0.9705254622622835,-0.2409986039390704));
#172068=VECTOR('Line Direction',#172067,1.);
#172069=LINE('Line',#172066,#172068);
#172070=CARTESIAN_POINT('Vertex',(9399,-2641.62775134,537.011612511));
#172071=VERTEX_POINT('',#172070);
#172072=EDGE_CURVE('',#171911,#172071,#172069,.T.);
#172073=CARTESIAN_POINT('Line Origine',(9399,-2640.53712456,541.403675551));
#172074=DIRECTION('Vector Direction',(0,0.2409986039390704,0.9705254622622835));
#172075=VECTOR('Line Direction',#172074,1.);
#172076=LINE('Line',#172073,#172075);
#172077=EDGE_CURVE('',#172071,#172047,#172076,.T.);
#172078=EDGE_LOOP('',(#172079,#172080,#172081,#172082,#172083,#172084));
#172079=ORIENTED_EDGE('',*,*,#172072,.T.);
#172080=ORIENTED_EDGE('',*,*,#172077,.T.);
#172081=ORIENTED_EDGE('',*,*,#172048,.T.);
#172082=ORIENTED_EDGE('',*,*,#171988,.T.);
#172083=ORIENTED_EDGE('',*,*,#171957,.T.);
#172084=ORIENTED_EDGE('',*,*,#171919,.F.);
#172085=FACE_OUTER_BOUND('',#172078,.T.);
#172086=ADVANCED_FACE('PartBody',(#172085),#172065,.F.);
#172087=CARTESIAN_POINT('Axis2P3D Location',(9399,-2640.53712456,541.403675551));
#172088=DIRECTION('Axis2P3D Direction',(0,-0.9705254622622835,0.2409986039390704));
#172089=DIRECTION('Axis2P3D XDirection',(1,0,0));
#172090=AXIS2_PLACEMENT_3D('Plane Axis2P3D',#172087,#172088,#172089);
#172091=PLANE('',#172090);
#172092=CARTESIAN_POINT('Line Origine',(9397.646000000001,-2641.62775134,537.011612511));
#172093=DIRECTION('Vector Direction',(-1,0,0));
#172094=VECTOR('Line Direction',#172093,1.);
#172095=LINE('Line',#172092,#172094);
#172096=EDGE_CURVE('',#172071,#172021,#172095,.T.);
#172097=EDGE_LOOP('',(#172098,#172099,#172100,#172101));
#172098=ORIENTED_EDGE('',*,*,#172022,.T.);
#172099=ORIENTED_EDGE('',*,*,#172053,.F.);
#172100=ORIENTED_EDGE('',*,*,#172077,.F.);
#172101=ORIENTED_EDGE('',*,*,#172096,.T.);
#172102=FACE_OUTER_BOUND('',#172097,.T.);
#172103=ADVANCED_FACE('PartBody',(#172102),#172091,.F.);
#172104=CARTESIAN_POINT('Axis2P3D Location',(9385.491884679999,-2642.85120624,532.084637341));
#172105=DIRECTION('Axis2P3D Direction',(-2.747801985950803e-14,-0.9705254622622835,0.2409986039390704));
#172106=DIRECTION('Axis2P3D XDirection',(0.9990197645386644,-0.01066812941929642,-0.04296162329108557));
#172107=AXIS2_PLACEMENT_3D('Plane Axis2P3D',#172104,#172105,#172106);
#172108=PLANE('',#172107);
#172109=CARTESIAN_POINT('Axis2P3D Location',(9391.291999999999,-2641.62775134,537.011612511));
#172110=DIRECTION('Axis2P3D Direction',(-2.747801985950803e-14,-0.9705254622622835,0.2409986039390704));
#172111=AXIS2_PLACEMENT_3D('Circle Axis2P3D',#172109,#172110,$);
#172112=CIRCLE('generated circle',#172111,5.);
#172113=CARTESIAN_POINT('Vertex',(9391.070668230001,-2642.83156318,532.163741917));
#172114=VERTEX_POINT('',#172113);
#172115=EDGE_CURVE('',#172114,#172021,#172112,.T.);
#172116=CARTESIAN_POINT('Axis2P3D Location',(9391.291999999999,-2641.62775134,537.011612511));
#172117=DIRECTION('Axis2P3D Direction',(-2.747801985950803e-14,-0.9705254622622835,0.2409986039390704));
#172118=AXIS2_PLACEMENT_3D('Circle Axis2P3D',#172116,#172117,$);
#172119=CIRCLE('generated circle',#172118,7.708);
#172120=CARTESIAN_POINT('Vertex',(9390.95079495,-2643.48354767,529.538135203));
#172121=VERTEX_POINT('',#172120);
#172122=EDGE_CURVE('',#172121,#172071,#172119,.T.);
#172123=CARTESIAN_POINT('Line Origine',(9391.01073159,-2643.15755543,530.85093856));
#172124=DIRECTION('Vector Direction',(-0.04426635360110515,-0.240762368561028,-0.9695741187881128));
#172125=VECTOR('Line Direction',#172124,1.);
#172126=LINE('Line',#172123,#172125);
#172127=EDGE_CURVE('',#172114,#172121,#172126,.T.);
#172128=EDGE_LOOP('',(#172129,#172130,#172131,#172132));
#172129=ORIENTED_EDGE('',*,*,#172115,.T.);
#172130=ORIENTED_EDGE('',*,*,#172096,.F.);
#172131=ORIENTED_EDGE('',*,*,#172122,.F.);
#172132=ORIENTED_EDGE('',*,*,#172127,.F.);
#172133=FACE_OUTER_BOUND('',#172128,.T.);
#172134=ADVANCED_FACE('PartBody',(#172133),#172108,.F.);
#172135=CARTESIAN_POINT('Axis2P3D Location',(9388.0747758,-2643.45283582,529.661814889));
#172136=DIRECTION('Axis2P3D Direction',(1.906946822670557e-13,0.9705254622622835,-0.2409986039390704));
#172137=DIRECTION('Axis2P3D XDirection',(1,-1.85074044658e-13,4.5957152205e-14));
#172138=AXIS2_PLACEMENT_3D('Plane Axis2P3D',#172135,#172136,#172137);
#172139=PLANE('',#172138);
#172140=CARTESIAN_POINT('Line Origine',(9388.0747758,-2643.45283582,529.661814889));
#172141=DIRECTION('Vector Direction',(-0.9990197645386577,0.01066812941949635,0.04296162329118528));
#172142=VECTOR('Line Direction',#172141,1.);
#172143=LINE('Line',#172140,#172142);
#172144=CARTESIAN_POINT('Vertex',(9385.198756649999,-2643.42212397,529.785494576));
#172145=VERTEX_POINT('',#172144);
#172146=EDGE_CURVE('',#172121,#172145,#172143,.T.);
#172147=CARTESIAN_POINT('Line Origine',(9385.2586933,-2643.09613173,531.098297933));
#172148=DIRECTION('Vector Direction',(0.04426635360050633,0.2407623685610344,0.9695741187881387));
#172149=VECTOR('Line Direction',#172148,1.);
#172150=LINE('Line',#172147,#172149);
#172151=CARTESIAN_POINT('Vertex',(9385.31862994,-2642.77013948,532.411101289));
#172152=VERTEX_POINT('',#172151);
#172153=EDGE_CURVE('',#172145,#172152,#172150,.T.);
#172154=CARTESIAN_POINT('Line Origine',(9388.194649090001,-2642.80085133,532.287421603));
#172155=DIRECTION('Vector Direction',(-0.9990197645386621,0.01066812941949639,0.04296162329108547));
#172156=VECTOR('Line Direction',#172155,1.);
#172157=LINE('Line',#172154,#172156);
#172158=EDGE_CURVE('',#172114,#172152,#172157,.T.);
#172159=EDGE_LOOP('',(#172160,#172161,#172162,#172163));
#172160=ORIENTED_EDGE('',*,*,#172127,.T.);
#172161=ORIENTED_EDGE('',*,*,#172146,.T.);
#172162=ORIENTED_EDGE('',*,*,#172153,.T.);
#172163=ORIENTED_EDGE('',*,*,#172158,.F.);
#172164=FACE_OUTER_BOUND('',#172159,.T.);
#172165=ADVANCED_FACE('PartBody',(#172164),#172139,.T.);
#172166=CARTESIAN_POINT('Axis2P3D Location',(9385.198756649999,-2654.09790406,532.436479219));
#172167=DIRECTION('Axis2P3D Direction',(0.04426635360090554,0.2407623685610301,0.9695741187881215));
#172168=DIRECTION('Axis2P3D XDirection',(0.08857015258083373,-0.9676495417583685,0.2362407509440899));
#172169=AXIS2_PLACEMENT_3D('Cylinder Axis2P3D',#172166,#172167,#172168);
#172170=CYLINDRICAL_SURFACE('generated cylinder',#172169,11.);
#172171=CARTESIAN_POINT('Axis2P3D Location',(9385.31862994,-2653.44591957,535.062085933));
#172172=DIRECTION('Axis2P3D Direction',(0.04426635360090554,0.2407623685610301,0.9695741187881215));
#172173=AXIS2_PLACEMENT_3D('Circle Axis2P3D',#172171,#172172,$);
#172174=CIRCLE('generated circle',#172173,11.);
#172175=CARTESIAN_POINT('Vertex',(9383.377759540001,-2642.91723855,532.536239918));
#172176=VERTEX_POINT('',#172175);
#172177=EDGE_CURVE('',#172176,#172152,#172174,.F.);
#172178=CARTESIAN_POINT('Axis2P3D Location',(9385.198756649999,-2654.09790406,532.436479219));
#172179=DIRECTION('Axis2P3D Direction',(0.04426635360090554,0.2407623685610301,0.9695741187881215));
#172180=AXIS2_PLACEMENT_3D('Circle Axis2P3D',#172178,#172179,$);
#172181=CIRCLE('generated circle',#172180,11.);
#172182=CARTESIAN_POINT('Vertex',(9383.25788626,-2643.56922304,529.910633203));
#172183=VERTEX_POINT('',#172182);
#172184=EDGE_CURVE('',#172183,#172145,#172181,.F.);
#172185=CARTESIAN_POINT('Line Origine',(9383.31782289,-2643.24323079,531.223436561));
#172186=DIRECTION('Vector Direction',(0.04426635360089488,0.2407623685619722,0.9695741187878881));
#172187=VECTOR('Line Direction',#172186,1.);
#172188=LINE('Line',#172185,#172187);
#172189=EDGE_CURVE('',#172183,#172176,#172188,.T.);
#172190=EDGE_LOOP('',(#172191,#172192,#172193,#172194));
#172191=ORIENTED_EDGE('',*,*,#172177,.T.);
#172192=ORIENTED_EDGE('',*,*,#172153,.F.);
#172193=ORIENTED_EDGE('',*,*,#172184,.F.);
#172194=ORIENTED_EDGE('',*,*,#172189,.T.);
#172195=FACE_OUTER_BOUND('',#172190,.T.);
#172196=ADVANCED_FACE('PartBody',(#172195),#172170,.T.);
#172197=CARTESIAN_POINT('Axis2P3D Location',(9377.56541544,-2644.50073967,530.401837606));
#172198=DIRECTION('Axis2P3D Direction',(-0.176442763837958,0.957152819864772,-0.2296223650129453));
#172199=DIRECTION('Axis2P3D XDirection',(0.9843109016409262,0.1715745387669871,-0.04116098343969691));
#172200=AXIS2_PLACEMENT_3D('Plane Axis2P3D',#172197,#172198,#172199);
#172201=PLANE('',#172200);
#172202=CARTESIAN_POINT('Line Origine',(9377.68528872,-2643.84875518,533.02744432));
#172203=DIRECTION('Vector Direction',(0.9833150263409404,0.1609097924609903,-0.08485044291149485));
#172204=VECTOR('Line Direction',#172203,1.);
#172205=LINE('Line',#172202,#172204);
#172206=CARTESIAN_POINT('Vertex',(9371.9928179,-2644.7802718,533.518648723));
#172207=VERTEX_POINT('',#172206);
#172208=EDGE_CURVE('',#172207,#172176,#172205,.T.);
#172209=CARTESIAN_POINT('Line Origine',(9377.56541544,-2644.50073967,530.401837606));
#172210=DIRECTION('Vector Direction',(0.9833150263409404,0.1609097924609903,-0.08485044291149485));
#172211=VECTOR('Line Direction',#172210,1.);
#172212=LINE('Line',#172209,#172211);
#172213=CARTESIAN_POINT('Vertex',(9371.87294462,-2645.4322563,530.8930420090001));
#172214=VERTEX_POINT('',#172213);
#172215=EDGE_CURVE('',#172214,#172183,#172212,.T.);
#172216=CARTESIAN_POINT('Line Origine',(9371.93288126,-2645.10626405,532.2058453659999));
#172217=DIRECTION('Vector Direction',(0.04426635360050633,0.2407623685610344,0.9695741187881387));
#172218=VECTOR('Line Direction',#172217,1.);
#172219=LINE('Line',#172216,#172218);
#172220=EDGE_CURVE('',#172214,#172207,#172219,.T.);
#172221=EDGE_LOOP('',(#172222,#172223,#172224,#172225));
#172222=ORIENTED_EDGE('',*,*,#172208,.T.);
#172223=ORIENTED_EDGE('',*,*,#172189,.F.);
#172224=ORIENTED_EDGE('',*,*,#172215,.F.);
#172225=ORIENTED_EDGE('',*,*,#172220,.T.);
#172226=FACE_OUTER_BOUND('',#172221,.T.);
#172227=ADVANCED_FACE('PartBody',(#172226),#172201,.T.);
#172228=CARTESIAN_POINT('Axis2P3D Location',(9377.16622753,-2674.14684089,537.78171296));
#172229=DIRECTION('Axis2P3D Direction',(0.04426635360090554,0.2407623685610301,0.9695741187881215));
#172230=DIRECTION('Axis2P3D XDirection',(0.4592714222600853,-0.8667919844621609,0.194271501686036));
#172231=AXIS2_PLACEMENT_3D('Cylinder Axis2P3D',#172228,#172229,#172230);
#172232=CYLINDRICAL_SURFACE('generated cylinder',#172231,30.);
#172233=CARTESIAN_POINT('Axis2P3D Location',(9377.28610082,-2673.4948564,540.407319673));
#172234=DIRECTION('Axis2P3D Direction',(0.04426635360090554,0.2407623685610301,0.9695741187881215));
#172235=AXIS2_PLACEMENT_3D('Circle Axis2P3D',#172233,#172234,$);
#172236=CIRCLE('generated circle',#172235,30.);
#172237=CARTESIAN_POINT('Vertex',(9356.254958240001,-2652.52683522,536.160776404));
#172238=VERTEX_POINT('',#172237);
#172239=EDGE_CURVE('',#172238,#172207,#172236,.F.);
#172240=CARTESIAN_POINT('Axis2P3D Location',(9377.16622753,-2674.14684089,537.78171296));
#172241=DIRECTION('Axis2P3D Direction',(0.04426635360090554,0.2407623685610301,0.9695741187881215));
#172242=AXIS2_PLACEMENT_3D('Circle Axis2P3D',#172240,#172241,$);
#172243=CIRCLE('generated circle',#172242,30.);
#172244=CARTESIAN_POINT('Vertex',(9356.13508495,-2653.17881972,533.53516969));
#172245=VERTEX_POINT('',#172244);
#172246=EDGE_CURVE('',#172245,#172214,#172243,.F.);
#172247=CARTESIAN_POINT('Line Origine',(9356.19502159,-2652.85282747,534.847973047));
#172248=DIRECTION('Vector Direction',(0.04426635360089488,0.2407623685619722,0.9695741187878881));
#172249=VECTOR('Line Direction',#172248,1.);
#172250=LINE('Line',#172247,#172249);
#172251=EDGE_CURVE('',#172245,#172238,#172250,.T.);
#172252=EDGE_LOOP('',(#172253,#172254,#172255,#172256));
#172253=ORIENTED_EDGE('',*,*,#172239,.T.);
#172254=ORIENTED_EDGE('',*,*,#172220,.F.);
#172255=ORIENTED_EDGE('',*,*,#172246,.F.);
#172256=ORIENTED_EDGE('',*,*,#172251,.T.);
#172257=FACE_OUTER_BOUND('',#172252,.T.);
#172258=ADVANCED_FACE('PartBody',(#172257),#172232,.T.);
#172259=CARTESIAN_POINT('Axis2P3D Location',(9343.367351409999,-2665.25939587,537.117906757));
#172260=DIRECTION('Axis2P3D Direction',(-0.7010380859932827,0.6989340392092819,-0.1415514423150571));
#172261=DIRECTION('Axis2P3D XDirection',(0.7131238335569356,0.6870887748049379,-0.1391524830899874));
#172262=AXIS2_PLACEMENT_3D('Plane Axis2P3D',#172259,#172260,#172261);
#172263=PLANE('',#172262);
#172264=CARTESIAN_POINT('Line Origine',(9343.4872247,-2664.60741137,539.743513471));
#172265=DIRECTION('Vector Direction',(0.7117486156824187,0.6734424182653961,-0.1997228513591175));
#172266=VECTOR('Line Direction',#172265,1.);
#172267=LINE('Line',#172264,#172266);
#172268=CARTESIAN_POINT('Vertex',(9330.71949116,-2676.68798752,543.326250538));
#172269=VERTEX_POINT('',#172268);
#172270=EDGE_CURVE('',#172269,#172238,#172267,.T.);
#172271=CARTESIAN_POINT('Line Origine',(9343.367351409999,-2665.25939587,537.117906757));
#172272=DIRECTION('Vector Direction',(0.7117486156824187,0.6734424182653961,-0.1997228513591175));
#172273=VECTOR('Line Direction',#172272,1.);
#172274=LINE('Line',#172271,#172273);
#172275=CARTESIAN_POINT('Vertex',(9330.599617870001,-2677.33997202,540.700643825));
#172276=VERTEX_POINT('',#172275);
#172277=EDGE_CURVE('',#172276,#172245,#172274,.T.);
#172278=CARTESIAN_POINT('Line Origine',(9330.659554510001,-2677.01397977,542.0134471809999));
#172279=DIRECTION('Vector Direction',(0.04426635360050633,0.2407623685610344,0.9695741187881387));
#172280=VECTOR('Line Direction',#172279,1.);
#172281=LINE('Line',#172278,#172280);
#172282=EDGE_CURVE('',#172276,#172269,#172281,.T.);
#172283=EDGE_LOOP('',(#172284,#172285,#172286,#172287));
#172284=ORIENTED_EDGE('',*,*,#172270,.T.);
#172285=ORIENTED_EDGE('',*,*,#172251,.F.);
#172286=ORIENTED_EDGE('',*,*,#172277,.F.);
#172287=ORIENTED_EDGE('',*,*,#172282,.T.);
#172288=FACE_OUTER_BOUND('',#172283,.T.);
#172289=ADVANCED_FACE('PartBody',(#172288),#172263,.T.);
#172290=CARTESIAN_POINT('Axis2P3D Location',(9339.0120749,-2685.72718049,542.399261133));
#172291=DIRECTION('Axis2P3D Direction',(0.04426635360090554,0.2407623685610301,0.9695741187881215));
#172292=DIRECTION('Axis2P3D XDirection',(0.921518147824959,-0.3846406026249829,0.05344071520429763));
#172293=AXIS2_PLACEMENT_3D('Cylinder Axis2P3D',#172290,#172291,#172292);
#172294=CYLINDRICAL_SURFACE('generated cylinder',#172293,12.);
#172295=CARTESIAN_POINT('Axis2P3D Location',(9339.131948189999,-2685.07519599,545.024867847));
#172296=DIRECTION('Axis2P3D Direction',(0.04426635360090554,0.2407623685610301,0.9695741187881215));
#172297=AXIS2_PLACEMENT_3D('Circle Axis2P3D',#172295,#172296,$);
#172298=CIRCLE('generated circle',#172297,12.);
#172299=CARTESIAN_POINT('Vertex',(9327.14371101,-2684.94717844,545.540407326));
#172300=VERTEX_POINT('',#172299);
#172301=EDGE_CURVE('',#172300,#172269,#172298,.F.);
#172302=CARTESIAN_POINT('Axis2P3D Location',(9339.0120749,-2685.72718049,542.399261133));
#172303=DIRECTION('Axis2P3D Direction',(0.04426635360090554,0.2407623685610301,0.9695741187881215));
#172304=AXIS2_PLACEMENT_3D('Circle Axis2P3D',#172302,#172303,$);
#172305=CIRCLE('generated circle',#172304,12.);
#172306=CARTESIAN_POINT('Vertex',(9327.02383772,-2685.59916294,542.914800613));
#172307=VERTEX_POINT('',#172306);
#172308=EDGE_CURVE('',#172307,#172276,#172305,.F.);
#172309=CARTESIAN_POINT('Line Origine',(9327.083774369999,-2685.27317069,544.227603969));
#172310=DIRECTION('Vector Direction',(0.04426635360089488,0.2407623685619722,0.9695741187878881));
#172311=VECTOR('Line Direction',#172310,1.);
#172312=LINE('Line',#172309,#172311);
#172313=EDGE_CURVE('',#172307,#172300,#172312,.T.);
#172314=EDGE_LOOP('',(#172315,#172316,#172317,#172318));
#172315=ORIENTED_EDGE('',*,*,#172301,.T.);
#172316=ORIENTED_EDGE('',*,*,#172282,.F.);
#172317=ORIENTED_EDGE('',*,*,#172308,.F.);
#172318=ORIENTED_EDGE('',*,*,#172313,.T.);
#172319=FACE_OUTER_BOUND('',#172314,.T.);
#172320=ADVANCED_FACE('PartBody',(#172319),#172294,.T.);
#172321=CARTESIAN_POINT('Axis2P3D Location',(9327.02383772,-2700.16045172,546.530625652));
#172322=DIRECTION('Axis2P3D Direction',(-0.9990197645386599,0.01066812941929637,0.04296162329118537));
#172323=DIRECTION('Axis2P3D XDirection',(0.04426635360090554,0.2407623685610301,0.9695741187881215));
#172324=AXIS2_PLACEMENT_3D('Plane Axis2P3D',#172321,#172322,#172323);
#172325=PLANE('',#172324);
#172326=CARTESIAN_POINT('Line Origine',(9327.14371101,-2699.50846722,549.156232366));
#172327=DIRECTION('Vector Direction',(0,0.9705254622622835,-0.2409986039390704));
#172328=VECTOR('Line Direction',#172327,1.);
#172329=LINE('Line',#172326,#172328);
#172330=CARTESIAN_POINT('Vertex',(9327.14371101,-2714.06975601,552.772057406));
#172331=VERTEX_POINT('',#172330);
#172332=EDGE_CURVE('',#172331,#172300,#172329,.T.);
#172333=CARTESIAN_POINT('Line Origine',(9327.02383772,-2700.16045172,546.530625652));
#172334=DIRECTION('Vector Direction',(0,0.9705254622622835,-0.2409986039390704));
#172335=VECTOR('Line Direction',#172334,1.);
#172336=LINE('Line',#172333,#172335);
#172337=CARTESIAN_POINT('Vertex',(9327.02383772,-2714.7217405,550.146450692));
#172338=VERTEX_POINT('',#172337);
#172339=EDGE_CURVE('',#172338,#172307,#172336,.T.);
#172340=CARTESIAN_POINT('Line Origine',(9327.083774369999,-2714.39574825,551.459254049));
#172341=DIRECTION('Vector Direction',(0.04426635360110515,0.240762368561028,0.9695741187881128));
#172342=VECTOR('Line Direction',#172341,1.);
#172343=LINE('Line',#172340,#172342);
#172344=EDGE_CURVE('',#172338,#172331,#172343,.T.);
#172345=EDGE_LOOP('',(#172346,#172347,#172348,#172349));
#172346=ORIENTED_EDGE('',*,*,#172332,.T.);
#172347=ORIENTED_EDGE('',*,*,#172313,.F.);
#172348=ORIENTED_EDGE('',*,*,#172339,.F.);
#172349=ORIENTED_EDGE('',*,*,#172344,.T.);
#172350=FACE_OUTER_BOUND('',#172345,.T.);
#172351=ADVANCED_FACE('PartBody',(#172350),#172325,.T.);
#172352=CARTESIAN_POINT('Axis2P3D Location',(9339.0120749,-2714.84975805,549.630911212));
#172353=DIRECTION('Axis2P3D Direction',(0.04426635360090554,0.2407623685610301,0.9695741187881215));
#172354=DIRECTION('Axis2P3D XDirection',(0.7547440680448544,0.6277960476988789,-0.1903510290089633));
#172355=AXIS2_PLACEMENT_3D('Cylinder Axis2P3D',#172352,#172353,#172354);
#172356=CYLINDRICAL_SURFACE('generated cylinder',#172355,12.);
#172357=CARTESIAN_POINT('Axis2P3D Location',(9339.13194818,-2714.19777356,552.256517926));
#172358=DIRECTION('Axis2P3D Direction',(0.04426635360090554,0.2407623685610301,0.9695741187881215));
#172359=AXIS2_PLACEMENT_3D('Circle Axis2P3D',#172357,#172358,$);
#172360=CIRCLE('generated circle',#172359,12.);
#172361=CARTESIAN_POINT('Vertex',(9337.43544449,-2725.70875733,555.192353046));
#172362=VERTEX_POINT('',#172361);
#172363=EDGE_CURVE('',#172362,#172331,#172360,.F.);
#172364=CARTESIAN_POINT('Axis2P3D Location',(9339.0120749,-2714.84975805,549.630911212));
#172365=DIRECTION('Axis2P3D Direction',(0.04426635360090554,0.2407623685610301,0.9695741187881215));
#172366=AXIS2_PLACEMENT_3D('Circle Axis2P3D',#172364,#172365,$);
#172367=CIRCLE('generated circle',#172366,12.);
#172368=CARTESIAN_POINT('Vertex',(9337.31557121,-2726.36074182,552.566746332));
#172369=VERTEX_POINT('',#172368);
#172370=EDGE_CURVE('',#172369,#172338,#172367,.F.);
#172371=CARTESIAN_POINT('Line Origine',(9337.37550785,-2726.03474958,553.879549689));
#172372=DIRECTION('Vector Direction',(0.04426635360089488,0.2407623685619722,0.9695741187878881));
#172373=VECTOR('Line Direction',#172372,1.);
#172374=LINE('Line',#172371,#172373);
#172375=EDGE_CURVE('',#172369,#172362,#172374,.T.);
#172376=EDGE_LOOP('',(#172377,#172378,#172379,#172380));
#172377=ORIENTED_EDGE('',*,*,#172363,.T.);
#172378=ORIENTED_EDGE('',*,*,#172344,.F.);
#172379=ORIENTED_EDGE('',*,*,#172370,.F.);
#172380=ORIENTED_EDGE('',*,*,#172375,.T.);
#172381=FACE_OUTER_BOUND('',#172376,.T.);
#172382=ADVANCED_FACE('PartBody',(#172381),#172356,.T.);
#172383=CARTESIAN_POINT('Axis2P3D Location',(9350.90224001,-2728.39268151,552.451007195));
#172384=DIRECTION('Axis2P3D Direction',(-0.1413753076469938,-0.9592486475669578,0.2446529266709892));
#172385=DIRECTION('Axis2P3D XDirection',(0.9899560709382869,-0.1369899904060397,0.03493880566051012));
#172386=AXIS2_PLACEMENT_3D('Plane Axis2P3D',#172383,#172384,#172385);
#172387=PLANE('',#172386);
#172388=CARTESIAN_POINT('Line Origine',(9351.022113290001,-2727.74069702,555.076613908));
#172389=DIRECTION('Vector Direction',(-0.9889658802640869,0.147903732292013,0.008424585899140741));
#172390=VECTOR('Line Direction',#172389,1.);
#172391=LINE('Line',#172388,#172390);
#172392=CARTESIAN_POINT('Vertex',(9364.608782089999,-2729.77263671,554.96087477));
#172393=VERTEX_POINT('',#172392);
#172394=EDGE_CURVE('',#172393,#172362,#172391,.T.);
#172395=CARTESIAN_POINT('Line Origine',(9350.90224001,-2728.39268151,552.451007195));
#172396=DIRECTION('Vector Direction',(-0.9889658802640869,0.147903732292013,0.008424585899140741));
#172397=VECTOR('Line Direction',#172396,1.);
#172398=LINE('Line',#172395,#172397);
#172399=CARTESIAN_POINT('Vertex',(9364.488908810001,-2730.4246212,552.335268056));
#172400=VERTEX_POINT('',#172399);
#172401=EDGE_CURVE('',#172400,#172369,#172398,.T.);
#172402=CARTESIAN_POINT('Line Origine',(9364.548845449999,-2730.09862896,553.648071414));
#172403=DIRECTION('Vector Direction',(0.04426635360050633,0.2407623685610344,0.9695741187881387));
#172404=VECTOR('Line Direction',#172403,1.);
#172405=LINE('Line',#172402,#172404);
#172406=EDGE_CURVE('',#172400,#172393,#172405,.T.);
#172407=EDGE_LOOP('',(#172408,#172409,#172410,#172411));
#172408=ORIENTED_EDGE('',*,*,#172394,.T.);
#172409=ORIENTED_EDGE('',*,*,#172375,.F.);
#172410=ORIENTED_EDGE('',*,*,#172401,.F.);
#172411=ORIENTED_EDGE('',*,*,#172406,.T.);
#172412=FACE_OUTER_BOUND('',#172407,.T.);
#172413=ADVANCED_FACE('PartBody',(#172412),#172387,.T.);
#172414=CARTESIAN_POINT('Axis2P3D Location',(9366.185412500001,-2718.91363743,549.399432936));
#172415=DIRECTION('Axis2P3D Direction',(0.04426635360090554,0.2407623685610301,0.9695741187881215));
#172416=DIRECTION('Axis2P3D XDirection',(-0.6545241643290887,0.7402064606431003,-0.1539237276430208));
#172417=AXIS2_PLACEMENT_3D('Cylinder Axis2P3D',#172414,#172415,#172416);
#172418=CYLINDRICAL_SURFACE('generated cylinder',#172417,12.);
#172419=CARTESIAN_POINT('Axis2P3D Location',(9366.30528579,-2718.26165294,552.0250396500001));
#172420=DIRECTION('Axis2P3D Direction',(0.04426635360090554,0.2407623685610301,0.9695741187881215));
#172421=AXIS2_PLACEMENT_3D('Circle Axis2P3D',#172419,#172420,$);
#172422=CIRCLE('generated circle',#172421,12.);
#172423=CARTESIAN_POINT('Vertex',(9378.293522960001,-2718.38967049,551.50950017));
#172424=VERTEX_POINT('',#172423);
#172425=EDGE_CURVE('',#172424,#172393,#172422,.F.);
#172426=CARTESIAN_POINT('Axis2P3D Location',(9366.185412500001,-2718.91363743,549.399432936));
#172427=DIRECTION('Axis2P3D Direction',(0.04426635360090554,0.2407623685610301,0.9695741187881215));
#172428=AXIS2_PLACEMENT_3D('Circle Axis2P3D',#172426,#172427,$);
#172429=CIRCLE('generated circle',#172428,12.);
#172430=CARTESIAN_POINT('Vertex',(9378.17364967,-2719.04165499,548.883893457));
#172431=VERTEX_POINT('',#172430);
#172432=EDGE_CURVE('',#172431,#172400,#172429,.F.);
#172433=CARTESIAN_POINT('Line Origine',(9378.233586320001,-2718.71566274,550.196696814));
#172434=DIRECTION('Vector Direction',(0.04426635360089488,0.2407623685619722,0.9695741187878881));
#172435=VECTOR('Line Direction',#172434,1.);
#172436=LINE('Line',#172433,#172435);
#172437=EDGE_CURVE('',#172431,#172424,#172436,.T.);
#172438=EDGE_LOOP('',(#172439,#172440,#172441,#172442));
#172439=ORIENTED_EDGE('',*,*,#172425,.T.);
#172440=ORIENTED_EDGE('',*,*,#172406,.F.);
#172441=ORIENTED_EDGE('',*,*,#172432,.F.);
#172442=ORIENTED_EDGE('',*,*,#172437,.T.);
#172443=FACE_OUTER_BOUND('',#172438,.T.);
#172444=ADVANCED_FACE('PartBody',(#172443),#172418,.T.);
#172445=CARTESIAN_POINT('Axis2P3D Location',(9378.17364967,-2708.16291128,546.182509364));
#172446=DIRECTION('Axis2P3D Direction',(0.9990197645386577,-0.01066812941949635,-0.04296162329118528));
#172447=DIRECTION('Axis2P3D XDirection',(0.04426635360090583,0.2407623685650317,0.9695741187871278));
#172448=AXIS2_PLACEMENT_3D('Plane Axis2P3D',#172445,#172446,#172447);
#172449=PLANE('',#172448);
#172450=CARTESIAN_POINT('Line Origine',(9378.293522960001,-2707.51092679,548.808116078));
#172451=DIRECTION('Vector Direction',(-1.622775183780474e-13,-0.9705254622622835,0.2409986039390704));
#172452=VECTOR('Line Direction',#172451,1.);
#172453=LINE('Line',#172450,#172452);
#172454=CARTESIAN_POINT('Vertex',(9378.293522960001,-2696.63218308,546.106731984));
#172455=VERTEX_POINT('',#172454);
#172456=EDGE_CURVE('',#172455,#172424,#172453,.T.);
#172457=CARTESIAN_POINT('Line Origine',(9378.17364967,-2708.16291128,546.182509364));
#172458=DIRECTION('Vector Direction',(-1.622775183770474e-13,-0.9705254622622835,0.2409986039390704));
#172459=VECTOR('Line Direction',#172458,1.);
#172460=LINE('Line',#172457,#172459);
#172461=CARTESIAN_POINT('Vertex',(9378.17364968,-2697.28416757,543.48112527));
#172462=VERTEX_POINT('',#172461);
#172463=EDGE_CURVE('',#172462,#172431,#172460,.T.);
#172464=CARTESIAN_POINT('Line Origine',(9378.23358631,-2696.95817533,544.793928627));
#172465=DIRECTION('Vector Direction',(0.04426635360109449,0.2407623685619701,0.9695741187878795));
#172466=VECTOR('Line Direction',#172465,1.);
#172467=LINE('Line',#172464,#172466);
#172468=EDGE_CURVE('',#172462,#172455,#172467,.T.);
#172469=EDGE_LOOP('',(#172470,#172471,#172472,#172473));
#172470=ORIENTED_EDGE('',*,*,#172456,.T.);
#172471=ORIENTED_EDGE('',*,*,#172437,.F.);
#172472=ORIENTED_EDGE('',*,*,#172463,.F.);
#172473=ORIENTED_EDGE('',*,*,#172468,.T.);
#172474=FACE_OUTER_BOUND('',#172469,.T.);
#172475=ADVANCED_FACE('PartBody',(#172474),#172449,.T.);
#172476=CARTESIAN_POINT('Axis2P3D Location',(9367.46928356,-2682.10257312,542.9929589979999));
#172477=DIRECTION('Axis2P3D Direction',(0.04426635360090554,0.2407623685610301,0.9695741187881215));
#172478=DIRECTION('Axis2P3D XDirection',(0.5416255120112267,0.809726654922339,-0.2257975842360945));
#172479=AXIS2_PLACEMENT_3D('Plane Axis2P3D',#172476,#172477,#172478);
#172480=PLANE('',#172479);
#172481=B_SPLINE_CURVE_WITH_KNOTS('',5,(#172482,#172483,#172484,#172485,#172486,#172487),.UNSPECIFIED.,.F.,.U.,(6,6),(5.15701750093,19.2941844421),.UNSPECIFIED.);
#172482=CARTESIAN_POINT('Control Point',(9387.28470084,-2687.99346708,543.551089939));
#172483=CARTESIAN_POINT('Control Point',(9384.460039,-2687.96330366,543.6725610669999));
#172484=CARTESIAN_POINT('Control Point',(9381.632741740001,-2689.00761483,544.060963527));
#172485=CARTESIAN_POINT('Control Point',(9379.39957274,-2691.15324169,544.695716909));
#172486=CARTESIAN_POINT('Control Point',(9378.293522960001,-2693.88808698,545.425324485));
#172487=CARTESIAN_POINT('Control Point',(9378.293522960001,-2696.63218308,546.106731984));
#172488=CARTESIAN_POINT('Vertex',(9387.28470084,-2687.99346708,543.551089939));
#172489=VERTEX_POINT('',#172488);
#172490=EDGE_CURVE('',#172489,#172455,#172481,.T.);
#172491=B_SPLINE_CURVE_WITH_KNOTS('',1,(#172492,#172493),.UNSPECIFIED.,.F.,.U.,(2,2),(-1.89484108657,1.89484108657),.UNSPECIFIED.);
#172492=CARTESIAN_POINT('Control Point',(9391.070668230001,-2688.0338959,543.388279041));
#172493=CARTESIAN_POINT('Control Point',(9387.28470084,-2687.99346708,543.551089939));
#172494=CARTESIAN_POINT('Vertex',(9391.070668230001,-2688.0338959,543.388279041));
#172495=VERTEX_POINT('',#172494);
#172496=EDGE_CURVE('',#172495,#172489,#172491,.T.);
#172497=B_SPLINE_CURVE_WITH_KNOTS('',1,(#172498,#172499),.UNSPECIFIED.,.F.,.U.,(2,2),(-15.0598171816,31.5152954582),.UNSPECIFIED.);
#172498=CARTESIAN_POINT('Control Point',(9391.070668230001,-2688.0338959,543.388279041));
#172499=CARTESIAN_POINT('Control Point',(9391.070668230001,-2642.83156318,532.163741917));
#172500=EDGE_CURVE('',#172495,#172114,#172497,.T.);
#172501=EDGE_LOOP('',(#172502,#172503,#172504,#172505,#172506,#172507,#172508,#172509,#172510,#172511,#172512,#172513,#172514,#172515));
#172502=ORIENTED_EDGE('',*,*,#172158,.T.);
#172503=ORIENTED_EDGE('',*,*,#172177,.F.);
#172504=ORIENTED_EDGE('',*,*,#172208,.F.);
#172505=ORIENTED_EDGE('',*,*,#172239,.F.);
#172506=ORIENTED_EDGE('',*,*,#172270,.F.);
#172507=ORIENTED_EDGE('',*,*,#172301,.F.);
#172508=ORIENTED_EDGE('',*,*,#172332,.F.);
#172509=ORIENTED_EDGE('',*,*,#172363,.F.);
#172510=ORIENTED_EDGE('',*,*,#172394,.F.);
#172511=ORIENTED_EDGE('',*,*,#172425,.F.);
#172512=ORIENTED_EDGE('',*,*,#172456,.F.);
#172513=ORIENTED_EDGE('',*,*,#172490,.F.);
#172514=ORIENTED_EDGE('',*,*,#172496,.F.);
#172515=ORIENTED_EDGE('',*,*,#172500,.T.);
#172516=FACE_OUTER_BOUND('',#172501,.T.);
#172517=ADVANCED_FACE('PartBody',(#172516),#172480,.T.);
#172518=CARTESIAN_POINT('Axis2P3D Location',(9391.291999999999,-2672.21414803,544.606754719));
#172519=DIRECTION('Axis2P3D Direction',(-5.620504062161642e-16,0.9705254622622835,-0.2409986039390704));
#172520=DIRECTION('Axis2P3D XDirection',(-0.6912791210497909,0.1741426590429473,0.701289890916788));
#172521=AXIS2_PLACEMENT_3D('Cylinder Axis2P3D',#172518,#172519,#172520);
#172522=CYLINDRICAL_SURFACE('generated cylinder',#172521,5.);
#172523=CARTESIAN_POINT('Axis2P3D Location',(9391.291999999999,-2686.83008406,548.2361496349999));
#172524=DIRECTION('Axis2P3D Direction',(-5.620504062161642e-16,0.9705254622622835,-0.2409986039390704));
#172525=AXIS2_PLACEMENT_3D('Circle Axis2P3D',#172523,#172524,$);
#172526=CIRCLE('generated circle',#172525,5.);
#172527=EDGE_CURVE('',#172495,#171909,#172526,.F.);
#172528=EDGE_LOOP('',(#172529,#172530,#172531,#172532));
#172529=ORIENTED_EDGE('',*,*,#172115,.F.);
#172530=ORIENTED_EDGE('',*,*,#172500,.F.);
#172531=ORIENTED_EDGE('',*,*,#172527,.T.);
#172532=ORIENTED_EDGE('',*,*,#172027,.T.);
#172533=FACE_OUTER_BOUND('',#172528,.T.);
#172534=ADVANCED_FACE('PartBody',(#172533),#172522,.F.);
#172535=CARTESIAN_POINT('Axis2P3D Location',(9385.491884679999,-2688.05353897,543.3091744659999));
#172536=DIRECTION('Axis2P3D Direction',(-2.747801985950803e-14,-0.9705254622622835,0.2409986039390704));
#172537=DIRECTION('Axis2P3D XDirection',(0.9990197645386644,-0.01066812941929642,-0.04296162329108557));
#172538=AXIS2_PLACEMENT_3D('Plane Axis2P3D',#172535,#172536,#172537);
#172539=PLANE('',#172538);
#172540=CARTESIAN_POINT('Line Origine',(9391.01073159,-2688.35988815,542.075475684));
#172541=DIRECTION('Vector Direction',(-0.04426635360110515,-0.240762368561028,-0.9695741187881128));
#172542=VECTOR('Line Direction',#172541,1.);
#172543=LINE('Line',#172540,#172542);
#172544=CARTESIAN_POINT('Vertex',(9390.95079495,-2688.6858804,540.762672328));
#172545=VERTEX_POINT('',#172544);
#172546=EDGE_CURVE('',#172545,#172495,#172543,.F.);
#172547=CARTESIAN_POINT('Axis2P3D Location',(9391.291999999999,-2686.83008406,548.2361496349999));
#172548=DIRECTION('Axis2P3D Direction',(-2.747801985950803e-14,-0.9705254622622835,0.2409986039390704));
#172549=AXIS2_PLACEMENT_3D('Circle Axis2P3D',#172547,#172548,$);
#172550=CIRCLE('generated circle',#172549,7.708);
#172551=EDGE_CURVE('',#172545,#171911,#172550,.T.);
#172552=EDGE_LOOP('',(#172553,#172554,#172555,#172556));
#172553=ORIENTED_EDGE('',*,*,#172546,.F.);
#172554=ORIENTED_EDGE('',*,*,#172551,.T.);
#172555=ORIENTED_EDGE('',*,*,#171912,.F.);
#172556=ORIENTED_EDGE('',*,*,#172527,.F.);
#172557=FACE_OUTER_BOUND('',#172552,.T.);
#172558=ADVANCED_FACE('PartBody',(#172557),#172539,.T.);
#172559=CARTESIAN_POINT('Axis2P3D Location',(9391.291999999999,-2672.21414803,544.606754719));
#172560=DIRECTION('Axis2P3D Direction',(-5.620504062161642e-16,0.9705254622622835,-0.2409986039390704));
#172561=DIRECTION('Axis2P3D XDirection',(1,5.55111512313e-16,-9.71445146547e-17));
#172562=AXIS2_PLACEMENT_3D('Cylinder Axis2P3D',#172559,#172560,#172561);
#172563=CYLINDRICAL_SURFACE('generated cylinder',#172562,7.708);
#172564=CARTESIAN_POINT('Line Origine',(9390.95079495,-2674.06994437,537.133277411));
#172565=DIRECTION('Vector Direction',(0,0.9705254622622835,-0.2409986039390704));
#172566=VECTOR('Line Direction',#172565,1.);
#172567=LINE('Line',#172564,#172566);
#172568=EDGE_CURVE('',#172545,#172121,#172567,.T.);
#172569=EDGE_LOOP('',(#172570,#172571,#172572,#172573));
#172570=ORIENTED_EDGE('',*,*,#172072,.F.);
#172571=ORIENTED_EDGE('',*,*,#172551,.F.);
#172572=ORIENTED_EDGE('',*,*,#172568,.T.);
#172573=ORIENTED_EDGE('',*,*,#172122,.T.);
#172574=FACE_OUTER_BOUND('',#172569,.T.);
#172575=ADVANCED_FACE('PartBody',(#172574),#172563,.T.);
#172576=CARTESIAN_POINT('Axis2P3D Location',(9367.34941028,-2682.75455761,540.367352284));
#172577=DIRECTION('Axis2P3D Direction',(0.04426635360090554,0.2407623685610301,0.9695741187881215));
#172578=DIRECTION('Axis2P3D XDirection',(0.5416255120112267,0.809726654922339,-0.2257975842360945));
#172579=AXIS2_PLACEMENT_3D('Plane Axis2P3D',#172576,#172577,#172578);
#172580=PLANE('',#172579);
#172581=CARTESIAN_POINT('Line Origine',(9389.057811250001,-2688.66566599,540.8440777770001));
#172582=DIRECTION('Vector Direction',(-0.9990197645386568,0.01066812941919634,0.04296162329128524));
#172583=VECTOR('Line Direction',#172582,1.);
#172584=LINE('Line',#172581,#172583);
#172585=CARTESIAN_POINT('Vertex',(9387.164827549999,-2688.64545158,540.925483226));
#172586=VERTEX_POINT('',#172585);
#172587=EDGE_CURVE('',#172545,#172586,#172584,.T.);
#172588=CARTESIAN_POINT('Axis2P3D Location',(9387.16482756,-2697.38018074,543.0944706609999));
#172589=DIRECTION('Axis2P3D Direction',(0.04426635360090554,0.2407623685610301,0.9695741187881215));
#172590=AXIS2_PLACEMENT_3D('Circle Axis2P3D',#172588,#172589,$);
#172591=CIRCLE('generated circle',#172590,9.);
#172592=EDGE_CURVE('',#172586,#172462,#172591,.T.);
#172593=EDGE_LOOP('',(#172594,#172595,#172596,#172597,#172598,#172599,#172600,#172601,#172602,#172603,#172604,#172605,#172606,#172607));
#172594=ORIENTED_EDGE('',*,*,#172568,.F.);
#172595=ORIENTED_EDGE('',*,*,#172587,.T.);
#172596=ORIENTED_EDGE('',*,*,#172592,.T.);
#172597=ORIENTED_EDGE('',*,*,#172463,.T.);
#172598=ORIENTED_EDGE('',*,*,#172432,.T.);
#172599=ORIENTED_EDGE('',*,*,#172401,.T.);
#172600=ORIENTED_EDGE('',*,*,#172370,.T.);
#172601=ORIENTED_EDGE('',*,*,#172339,.T.);
#172602=ORIENTED_EDGE('',*,*,#172308,.T.);
#172603=ORIENTED_EDGE('',*,*,#172277,.T.);
#172604=ORIENTED_EDGE('',*,*,#172246,.T.);
#172605=ORIENTED_EDGE('',*,*,#172215,.T.);
#172606=ORIENTED_EDGE('',*,*,#172184,.T.);
#172607=ORIENTED_EDGE('',*,*,#172146,.F.);
#172608=FACE_OUTER_BOUND('',#172593,.T.);
#172609=ADVANCED_FACE('PartBody',(#172608),#172580,.F.);
#172610=CARTESIAN_POINT('Axis2P3D Location',(9387.16482756,-2697.38018074,543.0944706609999));
#172611=DIRECTION('Axis2P3D Direction',(0.04426635360090554,0.2407623685610301,0.9695741187881215));
#172612=DIRECTION('Axis2P3D XDirection',(0.7064136500473066,-0.6938086423323012,0.1400332919410608));
#172613=AXIS2_PLACEMENT_3D('Cylinder Axis2P3D',#172610,#172611,#172612);
#172614=CYLINDRICAL_SURFACE('generated cylinder',#172613,9.);
#172615=CARTESIAN_POINT('Line Origine',(9387.2247642,-2688.31945933,542.238286582));
#172616=DIRECTION('Vector Direction',(0.04426635360089488,0.2407623685619722,0.9695741187878881));
#172617=VECTOR('Line Direction',#172616,1.);
#172618=LINE('Line',#172615,#172617);
#172619=EDGE_CURVE('',#172586,#172489,#172618,.T.);
#172620=EDGE_LOOP('',(#172621,#172622,#172623,#172624));
#172621=ORIENTED_EDGE('',*,*,#172490,.T.);
#172622=ORIENTED_EDGE('',*,*,#172468,.F.);
#172623=ORIENTED_EDGE('',*,*,#172592,.F.);
#172624=ORIENTED_EDGE('',*,*,#172619,.T.);
#172625=FACE_OUTER_BOUND('',#172620,.T.);
#172626=ADVANCED_FACE('PartBody',(#172625),#172614,.F.);
#172627=CARTESIAN_POINT('Axis2P3D Location',(9389.057811250001,-2688.66566599,540.8440777770001));
#172628=DIRECTION('Axis2P3D Direction',(2.721468883580795e-13,-0.9705254622622835,0.2409986039390704));
#172629=DIRECTION('Axis2P3D XDirection',(1,2.64125484627e-13,-6.55870201607e-14));
#172630=AXIS2_PLACEMENT_3D('Plane Axis2P3D',#172627,#172628,#172629);
#172631=PLANE('',#172630);
#172632=EDGE_LOOP('',(#172633,#172634,#172635,#172636));
#172633=ORIENTED_EDGE('',*,*,#172496,.T.);
#172634=ORIENTED_EDGE('',*,*,#172619,.F.);
#172635=ORIENTED_EDGE('',*,*,#172587,.F.);
#172636=ORIENTED_EDGE('',*,*,#172546,.T.);
#172637=FACE_OUTER_BOUND('',#172632,.T.);
#172638=ADVANCED_FACE('PartBody',(#172637),#172631,.T.);
#172639=ADVANCED_BREP_SHAPE_REPRESENTATION('NONE',(#171896),#171642);

#172640=APPLICATION_CONTEXT('automotive_design');
#172641=APPLICATION_PROTOCOL_DEFINITION('international standard','automotive_design',2010,#172640);
#172642=PRODUCT_CONTEXT('',#172640,'mechanical');
#172643=PRODUCT_DEFINITION_CONTEXT('part definition',#172640,'design');
#172644=PRODUCT('part_041_V5311445420000','part_041_V5311445420000','',(#172642));
#172645=PRODUCT_DEFINITION_FORMATION('','',#172644);
#172646=PRODUCT_DEFINITION('design','',#172645,#172643);
#172647=PRODUCT_DEFINITION_SHAPE('','',#172646);
#172648=SHAPE_DEFINITION_REPRESENTATION(#172647,#172639);
ENDSEC;
END-ISO-10303-21;
