ISO-10303-21;
HEADER;
FILE_DESCRIPTION(('CATIA V5 STEP Exchange','CAx-IF Rec.Pracs.--- Model Styling and Organization---1.4--- 2014-01-23'),'2;1');

FILE_NAME('C:\\Users\\SA516207\\WORK\\01_ASSY\\3_Catia\\ECHELLE\\ECHELLE.stp','2026-09-22T12:18:05+00:00',('none'),('none'),'CATIA Version 5-6 Release 2017 SP2 HF26','CATIA V5 STEP AP203 WITH EXTENSIONS','none');

FILE_SCHEMA(('CONFIG_CONTROL_DESIGN','SHAPE_APPEARANCE_LAYER_MIM'));

ENDSEC;
DATA;
#46=(LENGTH_UNIT()NAMED_UNIT(*)SI_UNIT(.MILLI.,.METRE.));
#47=(NAMED_UNIT(*)PLANE_ANGLE_UNIT()SI_UNIT($,.RADIAN.));
#48=(NAMED_UNIT(*)SI_UNIT($,.STERADIAN.)SOLID_ANGLE_UNIT());
#172654=UNCERTAINTY_MEASURE_WITH_UNIT(LENGTH_MEASURE(0.005),#46,'distance_accuracy_value','CONFUSED CURVE UNCERTAINTY');
#172655=(GEOMETRIC_REPRESENTATION_CONTEXT(3)GLOBAL_UNCERTAINTY_ASSIGNED_CONTEXT((#172654))GLOBAL_UNIT_ASSIGNED_CONTEXT((#46,#47,#48))REPRESENTATION_CONTEXT(' ',' '));
#172909=MANIFOLD_SOLID_BREP('PartBody',#172911);
#172911=CLOSED_SHELL('Closed Shell',(#172951,#172982,#173013,#173049,#173073,#173099,#173116,#173147,#173178,#173209,#173240,#173271,#173302,#173333,#173364,#173395,#173426,#173457,#173488,#173530,#173547,#173571,#173588,#173622,#173639,#173651));
#172912=CARTESIAN_POINT('Axis2P3D Location',(9399,-2707.0609785,251.814075869));
#172913=DIRECTION('Axis2P3D Direction',(0,0.9771908335119882,-0.2123630732969974));
#172914=DIRECTION('Axis2P3D XDirection',(1,0,0));
#172915=AXIS2_PLACEMENT_3D('Plane Axis2P3D',#172912,#172913,#172914);
#172916=PLANE('',#172915);
#172917=CARTESIAN_POINT('Line Origine',(9397.646000000001,-2708.01588698,247.420054796));
#172918=DIRECTION('Vector Direction',(-1,0,0));
#172919=VECTOR('Line Direction',#172918,1.);
#172920=LINE('Line',#172917,#172919);
#172921=CARTESIAN_POINT('Vertex',(9396.291999999999,-2708.01588698,247.420054796));
#172922=VERTEX_POINT('',#172921);
#172923=CARTESIAN_POINT('Vertex',(9399,-2708.01588698,247.420054796));
#172924=VERTEX_POINT('',#172923);
#172925=EDGE_CURVE('',#172922,#172924,#172920,.F.);
#172926=CARTESIAN_POINT('Line Origine',(9399,-2707.0609785,251.814075869));
#172927=DIRECTION('Vector Direction',(0,0.2123630732969974,0.9771908335119882));
#172928=VECTOR('Line Direction',#172927,1.);
#172929=LINE('Line',#172926,#172928);
#172930=CARTESIAN_POINT('Vertex',(9399,-2706.10607001,256.208096942));
#172931=VERTEX_POINT('',#172930);
#172932=EDGE_CURVE('',#172924,#172931,#172929,.T.);
#172933=CARTESIAN_POINT('Line Origine',(9397.646000000001,-2706.10607001,256.208096942));
#172934=DIRECTION('Vector Direction',(-1,0,0));
#172935=VECTOR('Line Direction',#172934,1.);
#172936=LINE('Line',#172933,#172935);
#172937=CARTESIAN_POINT('Vertex',(9396.291999999999,-2706.10607001,256.208096942));
#172938=VERTEX_POINT('',#172937);
#172939=EDGE_CURVE('',#172931,#172938,#172936,.T.);
#172940=CARTESIAN_POINT('Line Origine',(9396.291999999999,-2707.0609785,251.814075869));
#172941=DIRECTION('Vector Direction',(0,0.2123630732969974,0.9771908335119882));
#172942=VECTOR('Line Direction',#172941,1.);
#172943=LINE('Line',#172940,#172942);
#172944=EDGE_CURVE('',#172922,#172938,#172943,.T.);
#172945=EDGE_LOOP('',(#172946,#172947,#172948,#172949));
#172946=ORIENTED_EDGE('',*,*,#172925,.T.);
#172947=ORIENTED_EDGE('',*,*,#172932,.T.);
#172948=ORIENTED_EDGE('',*,*,#172939,.T.);
#172949=ORIENTED_EDGE('',*,*,#172944,.F.);
#172950=FACE_OUTER_BOUND('',#172945,.T.);
#172951=ADVANCED_FACE('PartBody',(#172950),#172916,.F.);
#172952=CARTESIAN_POINT('Axis2P3D Location',(9399,-2694.37978001,253.659740063));
#172953=DIRECTION('Axis2P3D Direction',(-1,0,0));
#172954=DIRECTION('Axis2P3D XDirection',(0,0.5408148956881893,-0.8411416340912943));
#172955=AXIS2_PLACEMENT_3D('Cylinder Axis2P3D',#172952,#172953,#172954);
#172956=CYLINDRICAL_SURFACE('generated cylinder',#172955,12.);
#172957=CARTESIAN_POINT('Axis2P3D Location',(9396.291999999999,-2694.37978001,253.659740063));
#172958=DIRECTION('Axis2P3D Direction',(-1,0,0));
#172959=AXIS2_PLACEMENT_3D('Circle Axis2P3D',#172957,#172958,$);
#172960=CIRCLE('generated circle',#172959,12.);
#172961=CARTESIAN_POINT('Vertex',(9396.291999999999,-2691.83142313,265.386030065));
#172962=VERTEX_POINT('',#172961);
#172963=EDGE_CURVE('',#172962,#172938,#172960,.F.);
#172964=CARTESIAN_POINT('Axis2P3D Location',(9399,-2694.37978001,253.659740063));
#172965=DIRECTION('Axis2P3D Direction',(-1,0,0));
#172966=AXIS2_PLACEMENT_3D('Circle Axis2P3D',#172964,#172965,$);
#172967=CIRCLE('generated circle',#172966,12.);
#172968=CARTESIAN_POINT('Vertex',(9399,-2691.83142313,265.386030065));
#172969=VERTEX_POINT('',#172968);
#172970=EDGE_CURVE('',#172969,#172931,#172967,.F.);
#172971=CARTESIAN_POINT('Line Origine',(9397.646000000001,-2691.83142313,265.386030065));
#172972=DIRECTION('Vector Direction',(-1,0,0));
#172973=VECTOR('Line Direction',#172972,1.);
#172974=LINE('Line',#172971,#172973);
#172975=EDGE_CURVE('',#172969,#172962,#172974,.T.);
#172976=EDGE_LOOP('',(#172977,#172978,#172979,#172980));
#172977=ORIENTED_EDGE('',*,*,#172963,.T.);
#172978=ORIENTED_EDGE('',*,*,#172939,.F.);
#172979=ORIENTED_EDGE('',*,*,#172970,.F.);
#172980=ORIENTED_EDGE('',*,*,#172975,.T.);
#172981=FACE_OUTER_BOUND('',#172976,.T.);
#172982=ADVANCED_FACE('PartBody',(#172981),#172956,.T.);
#172983=CARTESIAN_POINT('Axis2P3D Location',(9399,-2680.93574534,263.018181798));
#172984=DIRECTION('Axis2P3D Direction',(0,0.2123630732969974,0.9771908335119882));
#172985=DIRECTION('Axis2P3D XDirection',(1,0,0));
#172986=AXIS2_PLACEMENT_3D('Plane Axis2P3D',#172983,#172984,#172985);
#172987=PLANE('',#172986);
#172988=CARTESIAN_POINT('Line Origine',(9396.291999999999,-2680.93574534,263.018181798));
#172989=DIRECTION('Vector Direction',(0,-0.9771908335119882,0.2123630732969974));
#172990=VECTOR('Line Direction',#172989,1.);
#172991=LINE('Line',#172988,#172990);
#172992=CARTESIAN_POINT('Vertex',(9396.291999999999,-2670.04006754,260.650333531));
#172993=VERTEX_POINT('',#172992);
#172994=EDGE_CURVE('',#172993,#172962,#172991,.T.);
#172995=CARTESIAN_POINT('Line Origine',(9399,-2680.93574534,263.018181798));
#172996=DIRECTION('Vector Direction',(0,-0.9771908335119882,0.2123630732969974));
#172997=VECTOR('Line Direction',#172996,1.);
#172998=LINE('Line',#172995,#172997);
#172999=CARTESIAN_POINT('Vertex',(9399,-2670.04006754,260.650333531));
#173000=VERTEX_POINT('',#172999);
#173001=EDGE_CURVE('',#173000,#172969,#172998,.T.);
#173002=CARTESIAN_POINT('Line Origine',(9397.646000000001,-2670.04006754,260.650333531));
#173003=DIRECTION('Vector Direction',(-1,0,0));
#173004=VECTOR('Line Direction',#173003,1.);
#173005=LINE('Line',#173002,#173004);
#173006=EDGE_CURVE('',#173000,#172993,#173005,.T.);
#173007=EDGE_LOOP('',(#173008,#173009,#173010,#173011));
#173008=ORIENTED_EDGE('',*,*,#172994,.T.);
#173009=ORIENTED_EDGE('',*,*,#172975,.F.);
#173010=ORIENTED_EDGE('',*,*,#173001,.F.);
#173011=ORIENTED_EDGE('',*,*,#173006,.T.);
#173012=FACE_OUTER_BOUND('',#173007,.T.);
#173013=ADVANCED_FACE('PartBody',(#173012),#172987,.T.);
#173014=CARTESIAN_POINT('Axis2P3D Location',(9396.291999999999,-2684.64861876,245.933357093));
#173015=DIRECTION('Axis2P3D Direction',(-1,0,0));
#173016=DIRECTION('Axis2P3D XDirection',(0,0.9771908335119882,-0.2123630732969974));
#173017=AXIS2_PLACEMENT_3D('Plane Axis2P3D',#173014,#173015,#173016);
#173018=PLANE('',#173017);
#173019=B_SPLINE_CURVE_WITH_KNOTS('',5,(#173020,#173021,#173022,#173023,#173024,#173025),.UNSPECIFIED.,.F.,.U.,(6,6),(56.5486677646,75.3982236862),.UNSPECIFIED.);
#173020=CARTESIAN_POINT('Control Point',(9396.291999999999,-2670.04006754,260.650333531));
#173021=CARTESIAN_POINT('Control Point',(9396.291999999999,-2666.35614489,259.849743605));
#173022=CARTESIAN_POINT('Control Point',(9396.291999999999,-2662.98227125,257.605897113));
#173023=CARTESIAN_POINT('Control Point',(9396.291999999999,-2660.70271723,254.060455209));
#173024=CARTESIAN_POINT('Control Point',(9396.291999999999,-2660.06154449,250.059609301));
#173025=CARTESIAN_POINT('Control Point',(9396.291999999999,-2660.86213442,246.375686649));
#173026=CARTESIAN_POINT('Vertex',(9396.291999999999,-2660.86213442,246.375686649));
#173027=VERTEX_POINT('',#173026);
#173028=EDGE_CURVE('',#173027,#172993,#173019,.F.);
#173029=CARTESIAN_POINT('Line Origine',(9396.291999999999,-2660.54286447,247.844810577));
#173030=DIRECTION('Vector Direction',(0,-0.2123630732969974,-0.9771908335119882));
#173031=VECTOR('Line Direction',#173030,1.);
#173032=LINE('Line',#173029,#173031);
#173033=CARTESIAN_POINT('Vertex',(9396.291999999999,-2662.77195139,237.587644502));
#173034=VERTEX_POINT('',#173033);
#173035=EDGE_CURVE('',#173034,#173027,#173032,.F.);
#173036=CARTESIAN_POINT('Line Origine',(9396.291999999999,-2685.39391919,242.503849649));
#173037=DIRECTION('Vector Direction',(0,0.9771908335119882,-0.2123630732969974));
#173038=VECTOR('Line Direction',#173037,1.);
#173039=LINE('Line',#173036,#173038);
#173040=EDGE_CURVE('',#172922,#173034,#173039,.T.);
#173041=EDGE_LOOP('',(#173042,#173043,#173044,#173045,#173046,#173047));
#173042=ORIENTED_EDGE('',*,*,#172944,.T.);
#173043=ORIENTED_EDGE('',*,*,#172963,.F.);
#173044=ORIENTED_EDGE('',*,*,#172994,.F.);
#173045=ORIENTED_EDGE('',*,*,#173028,.F.);
#173046=ORIENTED_EDGE('',*,*,#173035,.F.);
#173047=ORIENTED_EDGE('',*,*,#173040,.F.);
#173048=FACE_OUTER_BOUND('',#173041,.T.);
#173049=ADVANCED_FACE('PartBody',(#173048),#173018,.T.);
#173050=CARTESIAN_POINT('Axis2P3D Location',(9399,-2672.58842442,248.924043528));
#173051=DIRECTION('Axis2P3D Direction',(-1,0,0));
#173052=DIRECTION('Axis2P3D XDirection',(-0,-0.8411416340912943,-0.5408148956881893));
#173053=AXIS2_PLACEMENT_3D('Cylinder Axis2P3D',#173050,#173051,#173052);
#173054=CYLINDRICAL_SURFACE('generated cylinder',#173053,12.);
#173055=CARTESIAN_POINT('Axis2P3D Location',(9399,-2672.58842442,248.924043528));
#173056=DIRECTION('Axis2P3D Direction',(-1,0,0));
#173057=AXIS2_PLACEMENT_3D('Circle Axis2P3D',#173055,#173056,$);
#173058=CIRCLE('generated circle',#173057,12.);
#173059=CARTESIAN_POINT('Vertex',(9399,-2660.86213442,246.375686649));
#173060=VERTEX_POINT('',#173059);
#173061=EDGE_CURVE('',#173060,#173000,#173058,.F.);
#173062=CARTESIAN_POINT('Line Origine',(9397.646000000001,-2660.86213442,246.375686649));
#173063=DIRECTION('Vector Direction',(-1,0,0));
#173064=VECTOR('Line Direction',#173063,1.);
#173065=LINE('Line',#173062,#173064);
#173066=EDGE_CURVE('',#173060,#173027,#173065,.T.);
#173067=EDGE_LOOP('',(#173068,#173069,#173070,#173071));
#173068=ORIENTED_EDGE('',*,*,#173028,.T.);
#173069=ORIENTED_EDGE('',*,*,#173006,.F.);
#173070=ORIENTED_EDGE('',*,*,#173061,.F.);
#173071=ORIENTED_EDGE('',*,*,#173066,.T.);
#173072=FACE_OUTER_BOUND('',#173067,.T.);
#173073=ADVANCED_FACE('PartBody',(#173072),#173054,.T.);
#173074=CARTESIAN_POINT('Axis2P3D Location',(9399,-2684.64861876,245.933357093));
#173075=DIRECTION('Axis2P3D Direction',(-1,0,0));
#173076=DIRECTION('Axis2P3D XDirection',(0,0.9771908335119882,-0.2123630732969974));
#173077=AXIS2_PLACEMENT_3D('Plane Axis2P3D',#173074,#173075,#173076);
#173078=PLANE('',#173077);
#173079=CARTESIAN_POINT('Line Origine',(9399,-2685.39391919,242.503849649));
#173080=DIRECTION('Vector Direction',(0,0.9771908335119882,-0.2123630732969974));
#173081=VECTOR('Line Direction',#173080,1.);
#173082=LINE('Line',#173079,#173081);
#173083=CARTESIAN_POINT('Vertex',(9399,-2662.77195139,237.587644502));
#173084=VERTEX_POINT('',#173083);
#173085=EDGE_CURVE('',#172924,#173084,#173082,.T.);
#173086=CARTESIAN_POINT('Line Origine',(9399,-2661.81704291,241.981665575));
#173087=DIRECTION('Vector Direction',(0,0.2123630732969974,0.9771908335119882));
#173088=VECTOR('Line Direction',#173087,1.);
#173089=LINE('Line',#173086,#173088);
#173090=EDGE_CURVE('',#173084,#173060,#173089,.T.);
#173091=EDGE_LOOP('',(#173092,#173093,#173094,#173095,#173096,#173097));
#173092=ORIENTED_EDGE('',*,*,#173085,.T.);
#173093=ORIENTED_EDGE('',*,*,#173090,.T.);
#173094=ORIENTED_EDGE('',*,*,#173061,.T.);
#173095=ORIENTED_EDGE('',*,*,#173001,.T.);
#173096=ORIENTED_EDGE('',*,*,#172970,.T.);
#173097=ORIENTED_EDGE('',*,*,#172932,.F.);
#173098=FACE_OUTER_BOUND('',#173091,.T.);
#173099=ADVANCED_FACE('PartBody',(#173098),#173078,.F.);
#173100=CARTESIAN_POINT('Axis2P3D Location',(9399,-2661.81704291,241.981665575));
#173101=DIRECTION('Axis2P3D Direction',(0,-0.9771908335119882,0.2123630732969974));
#173102=DIRECTION('Axis2P3D XDirection',(1,0,0));
#173103=AXIS2_PLACEMENT_3D('Plane Axis2P3D',#173100,#173101,#173102);
#173104=PLANE('',#173103);
#173105=CARTESIAN_POINT('Line Origine',(9397.646000000001,-2662.77195139,237.587644502));
#173106=DIRECTION('Vector Direction',(-1,0,0));
#173107=VECTOR('Line Direction',#173106,1.);
#173108=LINE('Line',#173105,#173107);
#173109=EDGE_CURVE('',#173084,#173034,#173108,.T.);
#173110=EDGE_LOOP('',(#173111,#173112,#173113,#173114));
#173111=ORIENTED_EDGE('',*,*,#173035,.T.);
#173112=ORIENTED_EDGE('',*,*,#173066,.F.);
#173113=ORIENTED_EDGE('',*,*,#173090,.F.);
#173114=ORIENTED_EDGE('',*,*,#173109,.T.);
#173115=FACE_OUTER_BOUND('',#173110,.T.);
#173116=ADVANCED_FACE('PartBody',(#173115),#173104,.F.);
#173117=CARTESIAN_POINT('Axis2P3D Location',(9385.532086650001,-2663.85971191,232.582303431));
#173118=DIRECTION('Axis2P3D Direction',(2.092943873769975e-14,-0.9771908335119882,0.2123630732969974));
#173119=DIRECTION('Axis2P3D XDirection',(0.9992386189289303,-0.008285378551139422,-0.03812525335349734));
#173120=AXIS2_PLACEMENT_3D('Plane Axis2P3D',#173117,#173118,#173119);
#173121=PLANE('',#173120);
#173122=CARTESIAN_POINT('Axis2P3D Location',(9391.291999999999,-2662.77195139,237.587644502));
#173123=DIRECTION('Axis2P3D Direction',(2.092943873769975e-14,-0.9771908335119882,0.2123630732969974));
#173124=AXIS2_PLACEMENT_3D('Circle Axis2P3D',#173122,#173123,$);
#173125=CIRCLE('generated circle',#173124,5.);
#173126=CARTESIAN_POINT('Vertex',(9391.096924220001,-2663.83295831,232.705410408));
#173127=VERTEX_POINT('',#173126);
#173128=EDGE_CURVE('',#173127,#173034,#173125,.T.);
#173129=CARTESIAN_POINT('Axis2P3D Location',(9391.291999999999,-2662.77195139,237.587644502));
#173130=DIRECTION('Axis2P3D Direction',(2.092943873769975e-14,-0.9771908335119882,0.2123630732969974));
#173131=AXIS2_PLACEMENT_3D('Circle Axis2P3D',#173129,#173130,$);
#173132=CIRCLE('generated circle',#173131,7.708);
#173133=CARTESIAN_POINT('Vertex',(9390.99127117,-2664.40759966,230.061192422));
#173134=VERTEX_POINT('',#173133);
#173135=EDGE_CURVE('',#173134,#173084,#173132,.T.);
#173136=CARTESIAN_POINT('Line Origine',(9391.0440977,-2664.12027899,231.383301415));
#173137=DIRECTION('Vector Direction',(-0.03901515655498023,-0.2122013840728925,-0.9764468189085052));
#173138=VECTOR('Line Direction',#173137,1.);
#173139=LINE('Line',#173136,#173138);
#173140=EDGE_CURVE('',#173127,#173134,#173139,.T.);
#173141=EDGE_LOOP('',(#173142,#173143,#173144,#173145));
#173142=ORIENTED_EDGE('',*,*,#173128,.T.);
#173143=ORIENTED_EDGE('',*,*,#173109,.F.);
#173144=ORIENTED_EDGE('',*,*,#173135,.F.);
#173145=ORIENTED_EDGE('',*,*,#173140,.F.);
#173146=FACE_OUTER_BOUND('',#173141,.T.);
#173147=ADVANCED_FACE('PartBody',(#173146),#173121,.F.);
#173148=CARTESIAN_POINT('Axis2P3D Location',(9387.50134594,-2664.37866228,230.194348088));
#173149=DIRECTION('Axis2P3D Direction',(-3.417058302979959e-14,0.9771908335119882,-0.2123630732969974));
#173150=DIRECTION('Axis2P3D XDirection',(1,3.33911805125e-14,-7.256570028550001e-15));
#173151=AXIS2_PLACEMENT_3D('Plane Axis2P3D',#173148,#173149,#173150);
#173152=PLANE('',#173151);
#173153=CARTESIAN_POINT('Line Origine',(9387.50134594,-2664.37866228,230.194348088));
#173154=DIRECTION('Vector Direction',(-0.9992386189289303,0.008285378551129423,0.03812525335349734));
#173155=VECTOR('Line Direction',#173154,1.);
#173156=LINE('Line',#173153,#173155);
#173157=CARTESIAN_POINT('Vertex',(9384.01142071,-2664.34972489,230.327503754));
#173158=VERTEX_POINT('',#173157);
#173159=EDGE_CURVE('',#173134,#173158,#173156,.T.);
#173160=CARTESIAN_POINT('Line Origine',(9384.06424724,-2664.06240422,231.649612746));
#173161=DIRECTION('Vector Direction',(0.03901515655498852,0.2122013840719375,0.9764468189087124));
#173162=VECTOR('Line Direction',#173161,1.);
#173163=LINE('Line',#173160,#173162);
#173164=CARTESIAN_POINT('Vertex',(9384.11707376,-2663.77508354,232.971721739));
#173165=VERTEX_POINT('',#173164);
#173166=EDGE_CURVE('',#173158,#173165,#173163,.T.);
#173167=CARTESIAN_POINT('Line Origine',(9387.606998990001,-2663.80402093,232.838566073));
#173168=DIRECTION('Vector Direction',(-0.9992386189289345,0.008285378551089457,0.0381252533533975));
#173169=VECTOR('Line Direction',#173168,1.);
#173170=LINE('Line',#173167,#173169);
#173171=EDGE_CURVE('',#173127,#173165,#173170,.T.);
#173172=EDGE_LOOP('',(#173173,#173174,#173175,#173176));
#173173=ORIENTED_EDGE('',*,*,#173140,.T.);
#173174=ORIENTED_EDGE('',*,*,#173159,.T.);
#173175=ORIENTED_EDGE('',*,*,#173166,.T.);
#173176=ORIENTED_EDGE('',*,*,#173171,.F.);
#173177=FACE_OUTER_BOUND('',#173172,.T.);
#173178=ADVANCED_FACE('PartBody',(#173177),#173152,.T.);
#173179=CARTESIAN_POINT('Axis2P3D Location',(9384.01142071,-2675.09882406,232.66349756));
#173180=DIRECTION('Axis2P3D Direction',(0.03901515655488039,0.2122013840728933,0.9764468189085092));
#173181=DIRECTION('Axis2P3D XDirection',(0.05545647363962333,-0.9761445737514108,0.2099198672520883));
#173182=AXIS2_PLACEMENT_3D('Cylinder Axis2P3D',#173179,#173180,#173181);
#173183=CYLINDRICAL_SURFACE('generated cylinder',#173182,11.);
#173184=CARTESIAN_POINT('Axis2P3D Location',(9384.11707375,-2674.52418271,235.307715546));
#173185=DIRECTION('Axis2P3D Direction',(0.03901515655488039,0.2122013840728933,0.9764468189085092));
#173186=AXIS2_PLACEMENT_3D('Circle Axis2P3D',#173184,#173185,$);
#173187=CIRCLE('generated circle',#173186,11.);
#173188=CARTESIAN_POINT('Vertex',(9382.898911710001,-2663.83119971,233.032590094));
#173189=VERTEX_POINT('',#173188);
#173190=EDGE_CURVE('',#173189,#173165,#173187,.F.);
#173191=CARTESIAN_POINT('Axis2P3D Location',(9384.01142071,-2675.09882406,232.66349756));
#173192=DIRECTION('Axis2P3D Direction',(0.03901515655488039,0.2122013840728933,0.9764468189085092));
#173193=AXIS2_PLACEMENT_3D('Circle Axis2P3D',#173191,#173192,$);
#173194=CIRCLE('generated circle',#173193,11.);
#173195=CARTESIAN_POINT('Vertex',(9382.793258670001,-2664.40584106,230.388372109));
#173196=VERTEX_POINT('',#173195);
#173197=EDGE_CURVE('',#173196,#173158,#173194,.F.);
#173198=CARTESIAN_POINT('Line Origine',(9382.84608519,-2664.11852039,231.710481101));
#173199=DIRECTION('Vector Direction',(0.03901515655508009,0.2122013840728917,0.9764468189085015));
#173200=VECTOR('Line Direction',#173199,1.);
#173201=LINE('Line',#173198,#173200);
#173202=EDGE_CURVE('',#173196,#173189,#173201,.T.);
#173203=EDGE_LOOP('',(#173204,#173205,#173206,#173207));
#173204=ORIENTED_EDGE('',*,*,#173190,.T.);
#173205=ORIENTED_EDGE('',*,*,#173166,.F.);
#173206=ORIENTED_EDGE('',*,*,#173197,.F.);
#173207=ORIENTED_EDGE('',*,*,#173202,.T.);
#173208=FACE_OUTER_BOUND('',#173203,.T.);
#173209=ADVANCED_FACE('PartBody',(#173208),#173183,.T.);
#173210=CARTESIAN_POINT('Axis2P3D Location',(9375.65264348,-2665.12533762,230.830045303));
#173211=DIRECTION('Axis2P3D Direction',(-0.1107420041490192,0.972089363527169,-0.206829586458036));
#173212=DIRECTION('Axis2P3D XDirection',(0.9938491880145048,0.108317364069946,-0.02304647747158852));
#173213=AXIS2_PLACEMENT_3D('Plane Axis2P3D',#173210,#173211,#173212);
#173214=PLANE('',#173213);
#173215=CARTESIAN_POINT('Line Origine',(9375.75829652,-2664.55069627,233.474263289));
#173216=DIRECTION('Vector Direction',(0.9930830912245339,0.100064188974953,-0.06142582525867117));
#173217=VECTOR('Line Direction',#173216,1.);
#173218=LINE('Line',#173215,#173217);
#173219=CARTESIAN_POINT('Vertex',(9368.617681330001,-2665.27019283,233.915936483));
#173220=VERTEX_POINT('',#173219);
#173221=EDGE_CURVE('',#173220,#173189,#173218,.T.);
#173222=CARTESIAN_POINT('Line Origine',(9375.65264348,-2665.12533762,230.830045303));
#173223=DIRECTION('Vector Direction',(0.9930830912245339,0.100064188974953,-0.06142582525867117));
#173224=VECTOR('Line Direction',#173223,1.);
#173225=LINE('Line',#173222,#173224);
#173226=CARTESIAN_POINT('Vertex',(9368.51202828,-2665.84483418,231.271718498));
#173227=VERTEX_POINT('',#173226);
#173228=EDGE_CURVE('',#173227,#173196,#173225,.T.);
#173229=CARTESIAN_POINT('Line Origine',(9368.56485481,-2665.55751351,232.59382749));
#173230=DIRECTION('Vector Direction',(0.03901515655498023,0.2122013840728925,0.9764468189085052));
#173231=VECTOR('Line Direction',#173230,1.);
#173232=LINE('Line',#173229,#173231);
#173233=EDGE_CURVE('',#173227,#173220,#173232,.T.);
#173234=EDGE_LOOP('',(#173235,#173236,#173237,#173238));
#173235=ORIENTED_EDGE('',*,*,#173221,.T.);
#173236=ORIENTED_EDGE('',*,*,#173202,.F.);
#173237=ORIENTED_EDGE('',*,*,#173228,.F.);
#173238=ORIENTED_EDGE('',*,*,#173233,.T.);
#173239=FACE_OUTER_BOUND('',#173234,.T.);
#173240=ADVANCED_FACE('PartBody',(#173239),#173214,.T.);
#173241=CARTESIAN_POINT('Axis2P3D Location',(9370.72686836,-2685.28662145,235.408310227));
#173242=DIRECTION('Axis2P3D Direction',(0.03901515655488039,0.2122013840728933,0.9764468189085092));
#173243=DIRECTION('Axis2P3D XDirection',(0.481852511498864,-0.8600637327507573,0.1676559953269527));
#173244=AXIS2_PLACEMENT_3D('Cylinder Axis2P3D',#173241,#173242,#173243);
#173245=CYLINDRICAL_SURFACE('generated cylinder',#173244,20.);
#173246=CARTESIAN_POINT('Axis2P3D Location',(9370.8325214,-2684.7119801,238.052528212));
#173247=DIRECTION('Axis2P3D Direction',(0.03901515655488039,0.2122013840728933,0.9764468189085092));
#173248=AXIS2_PLACEMENT_3D('Circle Axis2P3D',#173246,#173247,$);
#173249=CIRCLE('generated circle',#173248,20.);
#173250=CARTESIAN_POINT('Vertex',(9355.236235799999,-2672.36249749,235.991908278));
#173251=VERTEX_POINT('',#173250);
#173252=EDGE_CURVE('',#173251,#173220,#173249,.F.);
#173253=CARTESIAN_POINT('Axis2P3D Location',(9370.72686836,-2685.28662145,235.408310227));
#173254=DIRECTION('Axis2P3D Direction',(0.03901515655488039,0.2122013840728933,0.9764468189085092));
#173255=AXIS2_PLACEMENT_3D('Circle Axis2P3D',#173253,#173254,$);
#173256=CIRCLE('generated circle',#173255,20.);
#173257=CARTESIAN_POINT('Vertex',(9355.13058277,-2672.93713883,233.347690292));
#173258=VERTEX_POINT('',#173257);
#173259=EDGE_CURVE('',#173258,#173227,#173256,.F.);
#173260=CARTESIAN_POINT('Line Origine',(9355.18340928,-2672.64981816,234.669799285));
#173261=DIRECTION('Vector Direction',(0.03901515655508009,0.2122013840728917,0.9764468189085015));
#173262=VECTOR('Line Direction',#173261,1.);
#173263=LINE('Line',#173260,#173262);
#173264=EDGE_CURVE('',#173258,#173251,#173263,.T.);
#173265=EDGE_LOOP('',(#173266,#173267,#173268,#173269));
#173266=ORIENTED_EDGE('',*,*,#173252,.T.);
#173267=ORIENTED_EDGE('',*,*,#173233,.F.);
#173268=ORIENTED_EDGE('',*,*,#173259,.F.);
#173269=ORIENTED_EDGE('',*,*,#173264,.T.);
#173270=FACE_OUTER_BOUND('',#173265,.T.);
#173271=ADVANCED_FACE('PartBody',(#173270),#173245,.T.);
#173272=CARTESIAN_POINT('Axis2P3D Location',(9342.42028975,-2688.34561694,237.204115833));
#173273=DIRECTION('Axis2P3D Direction',(-0.7798142800299919,0.6174741309369935,-0.1030309967189989));
#173274=DIRECTION('Axis2P3D XDirection',(0.6260109333401507,0.7691800880931852,-0.1283444717140309));
#173275=AXIS2_PLACEMENT_3D('Plane Axis2P3D',#173272,#173273,#173274);
#173276=PLANE('',#173275);
#173277=CARTESIAN_POINT('Line Origine',(9342.525942800001,-2687.77097559,239.848333819));
#173278=DIRECTION('Vector Direction',(0.6247939710178607,0.7574274026078311,-0.1895685194289577));
#173279=VECTOR('Line Direction',#173278,1.);
#173280=LINE('Line',#173277,#173279);
#173281=CARTESIAN_POINT('Vertex',(9329.815649779999,-2703.1794537,243.70475936));
#173282=VERTEX_POINT('',#173281);
#173283=EDGE_CURVE('',#173282,#173251,#173280,.T.);
#173284=CARTESIAN_POINT('Line Origine',(9342.42028975,-2688.34561694,237.204115833));
#173285=DIRECTION('Vector Direction',(0.6247939710178607,0.7574274026078311,-0.1895685194289577));
#173286=VECTOR('Line Direction',#173285,1.);
#173287=LINE('Line',#173284,#173286);
#173288=CARTESIAN_POINT('Vertex',(9329.709996740001,-2703.75409504,241.060541375));
#173289=VERTEX_POINT('',#173288);
#173290=EDGE_CURVE('',#173289,#173258,#173287,.T.);
#173291=CARTESIAN_POINT('Line Origine',(9329.76282326,-2703.46677437,242.382650367));
#173292=DIRECTION('Vector Direction',(0.03901515655498023,0.2122013840728925,0.9764468189085052));
#173293=VECTOR('Line Direction',#173292,1.);
#173294=LINE('Line',#173291,#173293);
#173295=EDGE_CURVE('',#173289,#173282,#173294,.T.);
#173296=EDGE_LOOP('',(#173297,#173298,#173299,#173300));
#173297=ORIENTED_EDGE('',*,*,#173283,.T.);
#173298=ORIENTED_EDGE('',*,*,#173264,.F.);
#173299=ORIENTED_EDGE('',*,*,#173290,.F.);
#173300=ORIENTED_EDGE('',*,*,#173295,.T.);
#173301=FACE_OUTER_BOUND('',#173296,.T.);
#173302=ADVANCED_FACE('PartBody',(#173301),#173276,.T.);
#173303=CARTESIAN_POINT('Axis2P3D Location',(9339.0677681,-2711.16378462,242.296913335));
#173304=DIRECTION('Axis2P3D Direction',(0.03901515655488039,0.2122013840728933,0.9764468189085092));
#173305=DIRECTION('Axis2P3D XDirection',(0.942787982994277,-0.3316138301090974,0.0343960288690101));
#173306=AXIS2_PLACEMENT_3D('Cylinder Axis2P3D',#173303,#173304,#173305);
#173307=CYLINDRICAL_SURFACE('generated cylinder',#173306,12.);
#173308=CARTESIAN_POINT('Axis2P3D Location',(9339.173421150001,-2710.58914327,244.941131321));
#173309=DIRECTION('Axis2P3D Direction',(0.03901515655488039,0.2122013840728933,0.9764468189085092));
#173310=AXIS2_PLACEMENT_3D('Circle Axis2P3D',#173308,#173309,$);
#173311=CIRCLE('generated circle',#173310,12.);
#173312=CARTESIAN_POINT('Vertex',(9327.18255772,-2710.48971873,245.398634361));
#173313=VERTEX_POINT('',#173312);
#173314=EDGE_CURVE('',#173313,#173282,#173311,.F.);
#173315=CARTESIAN_POINT('Axis2P3D Location',(9339.0677681,-2711.16378462,242.296913335));
#173316=DIRECTION('Axis2P3D Direction',(0.03901515655488039,0.2122013840728933,0.9764468189085092));
#173317=AXIS2_PLACEMENT_3D('Circle Axis2P3D',#173315,#173316,$);
#173318=CIRCLE('generated circle',#173317,12.);
#173319=CARTESIAN_POINT('Vertex',(9327.076904670001,-2711.06436007,242.754416376));
#173320=VERTEX_POINT('',#173319);
#173321=EDGE_CURVE('',#173320,#173289,#173318,.F.);
#173322=CARTESIAN_POINT('Line Origine',(9327.129731200001,-2710.7770394,244.076525368));
#173323=DIRECTION('Vector Direction',(0.03901515655508009,0.2122013840728917,0.9764468189085015));
#173324=VECTOR('Line Direction',#173323,1.);
#173325=LINE('Line',#173322,#173324);
#173326=EDGE_CURVE('',#173320,#173313,#173325,.T.);
#173327=EDGE_LOOP('',(#173328,#173329,#173330,#173331));
#173328=ORIENTED_EDGE('',*,*,#173314,.T.);
#173329=ORIENTED_EDGE('',*,*,#173295,.F.);
#173330=ORIENTED_EDGE('',*,*,#173321,.F.);
#173331=ORIENTED_EDGE('',*,*,#173326,.T.);
#173332=FACE_OUTER_BOUND('',#173327,.T.);
#173333=ADVANCED_FACE('PartBody',(#173332),#173307,.T.);
#173334=CARTESIAN_POINT('Axis2P3D Location',(9327.076904670001,-2725.18288838,245.822654389));
#173335=DIRECTION('Axis2P3D Direction',(-0.9992386189289305,0.008285378551579424,0.03812525335339735));
#173336=DIRECTION('Axis2P3D XDirection',(0.03901515655491188,0.2122013840830646,0.9764468189062973));
#173337=AXIS2_PLACEMENT_3D('Plane Axis2P3D',#173334,#173335,#173336);
#173338=PLANE('',#173337);
#173339=CARTESIAN_POINT('Line Origine',(9327.18255772,-2724.60824703,248.466872375));
#173340=DIRECTION('Vector Direction',(4.406443124779947e-13,0.9771908335119882,-0.2123630732969974));
#173341=VECTOR('Line Direction',#173340,1.);
#173342=LINE('Line',#173339,#173341);
#173343=CARTESIAN_POINT('Vertex',(9327.18255772,-2738.72677534,251.535110389));
#173344=VERTEX_POINT('',#173343);
#173345=EDGE_CURVE('',#173344,#173313,#173342,.T.);
#173346=CARTESIAN_POINT('Line Origine',(9327.076904670001,-2725.18288838,245.822654389));
#173347=DIRECTION('Vector Direction',(3.776951249809955e-13,0.9771908335119882,-0.2123630732969974));
#173348=VECTOR('Line Direction',#173347,1.);
#173349=LINE('Line',#173346,#173348);
#173350=CARTESIAN_POINT('Vertex',(9327.076904670001,-2739.30141669,248.890892403));
#173351=VERTEX_POINT('',#173350);
#173352=EDGE_CURVE('',#173351,#173320,#173349,.T.);
#173353=CARTESIAN_POINT('Line Origine',(9327.129731200001,-2739.01409602,250.213001396));
#173354=DIRECTION('Vector Direction',(0.0390151565542813,0.2122013840728983,0.9764468189085319));
#173355=VECTOR('Line Direction',#173354,1.);
#173356=LINE('Line',#173353,#173355);
#173357=EDGE_CURVE('',#173351,#173344,#173356,.T.);
#173358=EDGE_LOOP('',(#173359,#173360,#173361,#173362));
#173359=ORIENTED_EDGE('',*,*,#173345,.T.);
#173360=ORIENTED_EDGE('',*,*,#173326,.F.);
#173361=ORIENTED_EDGE('',*,*,#173352,.F.);
#173362=ORIENTED_EDGE('',*,*,#173357,.T.);
#173363=FACE_OUTER_BOUND('',#173358,.T.);
#173364=ADVANCED_FACE('PartBody',(#173363),#173338,.T.);
#173365=CARTESIAN_POINT('Axis2P3D Location',(9339.0677681,-2739.40084123,248.433389363));
#173366=DIRECTION('Axis2P3D Direction',(0.03901515655488039,0.2122013840728933,0.9764468189085092));
#173367=DIRECTION('Axis2P3D XDirection',(0.7476908777972145,0.6420735864831841,-0.1694103326230486));
#173368=AXIS2_PLACEMENT_3D('Cylinder Axis2P3D',#173365,#173366,#173367);
#173369=CYLINDRICAL_SURFACE('generated cylinder',#173368,12.);
#173370=CARTESIAN_POINT('Axis2P3D Location',(9339.173421150001,-2738.82619989,251.077607349));
#173371=DIRECTION('Axis2P3D Direction',(0.03901515655488039,0.2122013840728933,0.9764468189085092));
#173372=AXIS2_PLACEMENT_3D('Circle Axis2P3D',#173370,#173371,$);
#173373=CIRCLE('generated circle',#173372,12.);
#173374=CARTESIAN_POINT('Vertex',(9337.73706177,-2750.45614507,253.662418116));
#173375=VERTEX_POINT('',#173374);
#173376=EDGE_CURVE('',#173375,#173344,#173373,.F.);
#173377=CARTESIAN_POINT('Axis2P3D Location',(9339.0677681,-2739.40084123,248.433389363));
#173378=DIRECTION('Axis2P3D Direction',(0.03901515655488039,0.2122013840728933,0.9764468189085092));
#173379=AXIS2_PLACEMENT_3D('Circle Axis2P3D',#173377,#173378,$);
#173380=CIRCLE('generated circle',#173379,12.);
#173381=CARTESIAN_POINT('Vertex',(9337.63140873,-2751.03078642,251.01820013));
#173382=VERTEX_POINT('',#173381);
#173383=EDGE_CURVE('',#173382,#173351,#173380,.F.);
#173384=CARTESIAN_POINT('Line Origine',(9337.684235250001,-2750.74346575,252.340309123));
#173385=DIRECTION('Vector Direction',(0.03901515655508009,0.2122013840728917,0.9764468189085015));
#173386=VECTOR('Line Direction',#173385,1.);
#173387=LINE('Line',#173384,#173386);
#173388=EDGE_CURVE('',#173382,#173375,#173387,.T.);
#173389=EDGE_LOOP('',(#173390,#173391,#173392,#173393));
#173390=ORIENTED_EDGE('',*,*,#173376,.T.);
#173391=ORIENTED_EDGE('',*,*,#173357,.F.);
#173392=ORIENTED_EDGE('',*,*,#173383,.F.);
#173393=ORIENTED_EDGE('',*,*,#173388,.T.);
#173394=FACE_OUTER_BOUND('',#173389,.T.);
#173395=ADVANCED_FACE('PartBody',(#173394),#173369,.T.);
#173396=CARTESIAN_POINT('Axis2P3D Location',(9351.22105394,-2752.74696915,250.848169585));
#173397=DIRECTION('Axis2P3D Direction',(-0.1196966146599698,-0.9691620988737557,0.2154008972719457));
#173398=DIRECTION('Axis2P3D XDirection',(0.9928105158785598,-0.1168454810219482,0.02596946525628848));
#173399=AXIS2_PLACEMENT_3D('Plane Axis2P3D',#173396,#173397,#173398);
#173400=PLANE('',#173399);
#173401=CARTESIAN_POINT('Line Origine',(9351.326706989999,-2752.1723278,253.492387571));
#173402=DIRECTION('Vector Direction',(-0.9920436169836231,0.1252812783479524,0.01241222371509529));
#173403=VECTOR('Line Direction',#173402,1.);
#173404=LINE('Line',#173401,#173403);
#173405=CARTESIAN_POINT('Vertex',(9364.9163522,-2753.88851054,253.322357026));
#173406=VERTEX_POINT('',#173405);
#173407=EDGE_CURVE('',#173406,#173375,#173404,.T.);
#173408=CARTESIAN_POINT('Line Origine',(9351.22105394,-2752.74696915,250.848169585));
#173409=DIRECTION('Vector Direction',(-0.9920436169836231,0.1252812783479524,0.01241222371509529));
#173410=VECTOR('Line Direction',#173409,1.);
#173411=LINE('Line',#173408,#173410);
#173412=CARTESIAN_POINT('Vertex',(9364.81069916,-2754.46315188,250.678139041));
#173413=VERTEX_POINT('',#173412);
#173414=EDGE_CURVE('',#173413,#173382,#173411,.T.);
#173415=CARTESIAN_POINT('Line Origine',(9364.863525680001,-2754.17583121,252.000248033));
#173416=DIRECTION('Vector Direction',(0.03901515655498023,0.2122013840728925,0.9764468189085052));
#173417=VECTOR('Line Direction',#173416,1.);
#173418=LINE('Line',#173415,#173417);
#173419=EDGE_CURVE('',#173413,#173406,#173418,.T.);
#173420=EDGE_LOOP('',(#173421,#173422,#173423,#173424));
#173421=ORIENTED_EDGE('',*,*,#173407,.T.);
#173422=ORIENTED_EDGE('',*,*,#173388,.F.);
#173423=ORIENTED_EDGE('',*,*,#173414,.F.);
#173424=ORIENTED_EDGE('',*,*,#173419,.T.);
#173425=FACE_OUTER_BOUND('',#173420,.T.);
#173426=ADVANCED_FACE('PartBody',(#173425),#173400,.T.);
#173427=CARTESIAN_POINT('Axis2P3D Location',(9366.247058540001,-2742.8332067,248.093328273));
#173428=DIRECTION('Axis2P3D Direction',(0.03901515655488039,0.2122013840728933,0.9764468189085092));
#173429=DIRECTION('Axis2P3D XDirection',(-0.662899818085934,0.7366899498009267,-0.1336104376309867));
#173430=AXIS2_PLACEMENT_3D('Cylinder Axis2P3D',#173427,#173428,#173429);
#173431=CYLINDRICAL_SURFACE('generated cylinder',#173430,12.);
#173432=CARTESIAN_POINT('Axis2P3D Location',(9366.352711580001,-2742.25856535,250.737546259));
#173433=DIRECTION('Axis2P3D Direction',(0.03901515655488039,0.2122013840728933,0.9764468189085092));
#173434=AXIS2_PLACEMENT_3D('Circle Axis2P3D',#173432,#173433,$);
#173435=CIRCLE('generated circle',#173434,12.);
#173436=CARTESIAN_POINT('Vertex',(9378.34357501,-2742.35798989,250.280043219));
#173437=VERTEX_POINT('',#173436);
#173438=EDGE_CURVE('',#173437,#173406,#173435,.F.);
#173439=CARTESIAN_POINT('Axis2P3D Location',(9366.247058540001,-2742.8332067,248.093328273));
#173440=DIRECTION('Axis2P3D Direction',(0.03901515655488039,0.2122013840728933,0.9764468189085092));
#173441=AXIS2_PLACEMENT_3D('Circle Axis2P3D',#173439,#173440,$);
#173442=CIRCLE('generated circle',#173441,12.);
#173443=CARTESIAN_POINT('Vertex',(9378.237921960001,-2742.93263124,247.635825233));
#173444=VERTEX_POINT('',#173443);
#173445=EDGE_CURVE('',#173444,#173413,#173442,.F.);
#173446=CARTESIAN_POINT('Line Origine',(9378.290748490001,-2742.64531057,248.957934226));
#173447=DIRECTION('Vector Direction',(0.03901515655508009,0.2122013840728917,0.9764468189085015));
#173448=VECTOR('Line Direction',#173447,1.);
#173449=LINE('Line',#173446,#173448);
#173450=EDGE_CURVE('',#173444,#173437,#173449,.T.);
#173451=EDGE_LOOP('',(#173452,#173453,#173454,#173455));
#173452=ORIENTED_EDGE('',*,*,#173438,.T.);
#173453=ORIENTED_EDGE('',*,*,#173419,.F.);
#173454=ORIENTED_EDGE('',*,*,#173445,.F.);
#173455=ORIENTED_EDGE('',*,*,#173450,.T.);
#173456=FACE_OUTER_BOUND('',#173451,.T.);
#173457=ADVANCED_FACE('PartBody',(#173456),#173431,.T.);
#173458=CARTESIAN_POINT('Axis2P3D Location',(9378.237921960001,-2730.63656858,244.963645381));
#173459=DIRECTION('Axis2P3D Direction',(0.9992386189289298,-0.008285378551199419,-0.03812525335349732));
#173460=DIRECTION('Axis2P3D XDirection',(0.0390151565549102,0.2122013840740554,0.9764468189082552));
#173461=AXIS2_PLACEMENT_3D('Plane Axis2P3D',#173458,#173459,#173460);
#173462=PLANE('',#173461);
#173463=CARTESIAN_POINT('Line Origine',(9378.34357501,-2730.06192723,247.607863367));
#173464=DIRECTION('Vector Direction',(0,-0.9771908335119882,0.2123630732969974));
#173465=VECTOR('Line Direction',#173464,1.);
#173466=LINE('Line',#173463,#173465);
#173467=CARTESIAN_POINT('Vertex',(9378.34357501,-2717.76586457,244.935683515));
#173468=VERTEX_POINT('',#173467);
#173469=EDGE_CURVE('',#173468,#173437,#173466,.T.);
#173470=CARTESIAN_POINT('Line Origine',(9378.237921960001,-2730.63656858,244.963645381));
#173471=DIRECTION('Vector Direction',(0,-0.9771908335119882,0.2123630732969974));
#173472=VECTOR('Line Direction',#173471,1.);
#173473=LINE('Line',#173470,#173472);
#173474=CARTESIAN_POINT('Vertex',(9378.237921960001,-2718.34050591,242.291465529));
#173475=VERTEX_POINT('',#173474);
#173476=EDGE_CURVE('',#173475,#173444,#173473,.T.);
#173477=CARTESIAN_POINT('Line Origine',(9378.290748490001,-2718.05318524,243.613574522));
#173478=DIRECTION('Vector Direction',(0.03901515655501005,0.2122013840740546,0.9764468189082515));
#173479=VECTOR('Line Direction',#173478,1.);
#173480=LINE('Line',#173477,#173479);
#173481=EDGE_CURVE('',#173475,#173468,#173480,.T.);
#173482=EDGE_LOOP('',(#173483,#173484,#173485,#173486));
#173483=ORIENTED_EDGE('',*,*,#173469,.T.);
#173484=ORIENTED_EDGE('',*,*,#173450,.F.);
#173485=ORIENTED_EDGE('',*,*,#173476,.F.);
#173486=ORIENTED_EDGE('',*,*,#173481,.T.);
#173487=FACE_OUTER_BOUND('',#173482,.T.);
#173488=ADVANCED_FACE('PartBody',(#173487),#173462,.T.);
#173489=CARTESIAN_POINT('Axis2P3D Location',(9367.02132811,-2704.66840652,242.541739017));
#173490=DIRECTION('Axis2P3D Direction',(0.03901515655488039,0.2122013840728933,0.9764468189085092));
#173491=DIRECTION('Axis2P3D XDirection',(0.5134025661129161,0.8340884600348639,-0.2017777141939671));
#173492=AXIS2_PLACEMENT_3D('Plane Axis2P3D',#173489,#173490,#173491);
#173493=PLANE('',#173492);
#173494=B_SPLINE_CURVE_WITH_KNOTS('',5,(#173495,#173496,#173497,#173498,#173499,#173500),.UNSPECIFIED.,.F.,.U.,(6,6),(4.85640935657,18.9935762977),.UNSPECIFIED.);
#173495=CARTESIAN_POINT('Control Point',(9387.336722579999,-2709.04571547,242.681288575));
#173496=CARTESIAN_POINT('Control Point',(9384.51144194,-2709.02228911,242.789085189));
#173497=CARTESIAN_POINT('Control Point',(9381.683525300001,-2710.08072311,243.132096977));
#173498=CARTESIAN_POINT('Control Point',(9379.449867089999,-2712.24657578,243.692028607));
#173499=CARTESIAN_POINT('Control Point',(9378.34357501,-2715.00292258,244.335241071));
#173500=CARTESIAN_POINT('Control Point',(9378.34357501,-2717.76586457,244.935683515));
#173501=CARTESIAN_POINT('Vertex',(9387.336722579999,-2709.04571547,242.681288575));
#173502=VERTEX_POINT('',#173501);
#173503=EDGE_CURVE('',#173502,#173468,#173494,.T.);
#173504=B_SPLINE_CURVE_WITH_KNOTS('',1,(#173505,#173506),.UNSPECIFIED.,.F.,.U.,(2,2),(-1.88153338385,1.88153338385),.UNSPECIFIED.);
#173505=CARTESIAN_POINT('Control Point',(9391.096924220001,-2709.0768939,242.537820701));
#173506=CARTESIAN_POINT('Control Point',(9387.336722579999,-2709.04571547,242.681288575));
#173507=CARTESIAN_POINT('Vertex',(9391.096924220001,-2709.0768939,242.537820701));
#173508=VERTEX_POINT('',#173507);
#173509=EDGE_CURVE('',#173508,#173502,#173504,.T.);
#173510=B_SPLINE_CURVE_WITH_KNOTS('',1,(#173511,#173512),.UNSPECIFIED.,.F.,.U.,(2,2),(-12.9136665133,33.3863334867),.UNSPECIFIED.);
#173511=CARTESIAN_POINT('Control Point',(9391.096924220001,-2709.0768939,242.537820701));
#173512=CARTESIAN_POINT('Control Point',(9391.096924220001,-2663.83295831,232.705410408));
#173513=EDGE_CURVE('',#173508,#173127,#173510,.T.);
#173514=EDGE_LOOP('',(#173515,#173516,#173517,#173518,#173519,#173520,#173521,#173522,#173523,#173524,#173525,#173526,#173527,#173528));
#173515=ORIENTED_EDGE('',*,*,#173171,.T.);
#173516=ORIENTED_EDGE('',*,*,#173190,.F.);
#173517=ORIENTED_EDGE('',*,*,#173221,.F.);
#173518=ORIENTED_EDGE('',*,*,#173252,.F.);
#173519=ORIENTED_EDGE('',*,*,#173283,.F.);
#173520=ORIENTED_EDGE('',*,*,#173314,.F.);
#173521=ORIENTED_EDGE('',*,*,#173345,.F.);
#173522=ORIENTED_EDGE('',*,*,#173376,.F.);
#173523=ORIENTED_EDGE('',*,*,#173407,.F.);
#173524=ORIENTED_EDGE('',*,*,#173438,.F.);
#173525=ORIENTED_EDGE('',*,*,#173469,.F.);
#173526=ORIENTED_EDGE('',*,*,#173503,.F.);
#173527=ORIENTED_EDGE('',*,*,#173509,.F.);
#173528=ORIENTED_EDGE('',*,*,#173513,.T.);
#173529=FACE_OUTER_BOUND('',#173514,.T.);
#173530=ADVANCED_FACE('PartBody',(#173529),#173493,.T.);
#173531=CARTESIAN_POINT('Axis2P3D Location',(9391.291999999999,-2695.39677044,244.677668887));
#173532=DIRECTION('Axis2P3D Direction',(-1.002670169109988e-15,0.9771908335119882,-0.2123630732969974));
#173533=DIRECTION('Axis2P3D XDirection',(-0.6931756066992746,0.1530646650150606,0.704328606973279));
#173534=AXIS2_PLACEMENT_3D('Cylinder Axis2P3D',#173531,#173532,#173533);
#173535=CYLINDRICAL_SURFACE('generated cylinder',#173534,5.);
#173536=CARTESIAN_POINT('Axis2P3D Location',(9391.291999999999,-2708.01588698,247.420054796));
#173537=DIRECTION('Axis2P3D Direction',(-1.002670169109988e-15,0.9771908335119882,-0.2123630732969974));
#173538=AXIS2_PLACEMENT_3D('Circle Axis2P3D',#173536,#173537,$);
#173539=CIRCLE('generated circle',#173538,5.);
#173540=EDGE_CURVE('',#173508,#172922,#173539,.F.);
#173541=EDGE_LOOP('',(#173542,#173543,#173544,#173545));
#173542=ORIENTED_EDGE('',*,*,#173128,.F.);
#173543=ORIENTED_EDGE('',*,*,#173513,.F.);
#173544=ORIENTED_EDGE('',*,*,#173540,.T.);
#173545=ORIENTED_EDGE('',*,*,#173040,.T.);
#173546=FACE_OUTER_BOUND('',#173541,.T.);
#173547=ADVANCED_FACE('PartBody',(#173546),#173535,.F.);
#173548=CARTESIAN_POINT('Axis2P3D Location',(9385.532086650001,-2709.10364751,242.414713724));
#173549=DIRECTION('Axis2P3D Direction',(2.092943873769975e-14,-0.9771908335119882,0.2123630732969974));
#173550=DIRECTION('Axis2P3D XDirection',(0.9992386189289303,-0.008285378551139422,-0.03812525335349734));
#173551=AXIS2_PLACEMENT_3D('Plane Axis2P3D',#173548,#173549,#173550);
#173552=PLANE('',#173551);
#173553=CARTESIAN_POINT('Line Origine',(9391.0440977,-2709.36421458,241.215711708));
#173554=DIRECTION('Vector Direction',(-0.03901515655498023,-0.2122013840728925,-0.9764468189085052));
#173555=VECTOR('Line Direction',#173554,1.);
#173556=LINE('Line',#173553,#173555);
#173557=CARTESIAN_POINT('Vertex',(9390.99127117,-2709.65153525,239.893602716));
#173558=VERTEX_POINT('',#173557);
#173559=EDGE_CURVE('',#173558,#173508,#173556,.F.);
#173560=CARTESIAN_POINT('Axis2P3D Location',(9391.291999999999,-2708.01588698,247.420054796));
#173561=DIRECTION('Axis2P3D Direction',(2.092943873769975e-14,-0.9771908335119882,0.2123630732969974));
#173562=AXIS2_PLACEMENT_3D('Circle Axis2P3D',#173560,#173561,$);
#173563=CIRCLE('generated circle',#173562,7.708);
#173564=EDGE_CURVE('',#173558,#172924,#173563,.T.);
#173565=EDGE_LOOP('',(#173566,#173567,#173568,#173569));
#173566=ORIENTED_EDGE('',*,*,#173559,.F.);
#173567=ORIENTED_EDGE('',*,*,#173564,.T.);
#173568=ORIENTED_EDGE('',*,*,#172925,.F.);
#173569=ORIENTED_EDGE('',*,*,#173540,.F.);
#173570=FACE_OUTER_BOUND('',#173565,.T.);
#173571=ADVANCED_FACE('PartBody',(#173570),#173552,.T.);
#173572=CARTESIAN_POINT('Axis2P3D Location',(9391.291999999999,-2695.39677044,244.677668887));
#173573=DIRECTION('Axis2P3D Direction',(-1.002670169109988e-15,0.9771908335119882,-0.2123630732969974));
#173574=DIRECTION('Axis2P3D XDirection',(1,-1.43635103811e-15,-1.13312137451e-14));
#173575=AXIS2_PLACEMENT_3D('Cylinder Axis2P3D',#173572,#173573,#173574);
#173576=CYLINDRICAL_SURFACE('generated cylinder',#173575,7.708);
#173577=CARTESIAN_POINT('Line Origine',(9390.99127117,-2697.03241871,237.151216807));
#173578=DIRECTION('Vector Direction',(0,0.9771908335119882,-0.2123630732969974));
#173579=VECTOR('Line Direction',#173578,1.);
#173580=LINE('Line',#173577,#173579);
#173581=EDGE_CURVE('',#173558,#173134,#173580,.T.);
#173582=EDGE_LOOP('',(#173583,#173584,#173585,#173586));
#173583=ORIENTED_EDGE('',*,*,#173085,.F.);
#173584=ORIENTED_EDGE('',*,*,#173564,.F.);
#173585=ORIENTED_EDGE('',*,*,#173581,.T.);
#173586=ORIENTED_EDGE('',*,*,#173135,.T.);
#173587=FACE_OUTER_BOUND('',#173582,.T.);
#173588=ADVANCED_FACE('PartBody',(#173587),#173576,.T.);
#173589=CARTESIAN_POINT('Axis2P3D Location',(9366.91567507,-2705.24304787,239.897521031));
#173590=DIRECTION('Axis2P3D Direction',(0.03901515655488039,0.2122013840728933,0.9764468189085092));
#173591=DIRECTION('Axis2P3D XDirection',(0.5134025661129161,0.8340884600348639,-0.2017777141939671));
#173592=AXIS2_PLACEMENT_3D('Plane Axis2P3D',#173589,#173590,#173591);
#173593=PLANE('',#173592);
#173594=CARTESIAN_POINT('Line Origine',(9389.111170349999,-2709.63594603,239.965336653));
#173595=DIRECTION('Vector Direction',(-0.9992386189289298,0.008285378551199419,0.03812525335349732));
#173596=VECTOR('Line Direction',#173595,1.);
#173597=LINE('Line',#173594,#173596);
#173598=CARTESIAN_POINT('Vertex',(9387.23106953,-2709.62035682,240.037070589));
#173599=VERTEX_POINT('',#173598);
#173600=EDGE_CURVE('',#173558,#173599,#173597,.T.);
#173601=CARTESIAN_POINT('Axis2P3D Location',(9387.23106953,-2718.41507432,241.948338249));
#173602=DIRECTION('Axis2P3D Direction',(0.03901515655488039,0.2122013840728933,0.9764468189085092));
#173603=AXIS2_PLACEMENT_3D('Circle Axis2P3D',#173601,#173602,$);
#173604=CIRCLE('generated circle',#173603,9.);
#173605=EDGE_CURVE('',#173599,#173475,#173604,.T.);
#173606=EDGE_LOOP('',(#173607,#173608,#173609,#173610,#173611,#173612,#173613,#173614,#173615,#173616,#173617,#173618,#173619,#173620));
#173607=ORIENTED_EDGE('',*,*,#173581,.F.);
#173608=ORIENTED_EDGE('',*,*,#173600,.T.);
#173609=ORIENTED_EDGE('',*,*,#173605,.T.);
#173610=ORIENTED_EDGE('',*,*,#173476,.T.);
#173611=ORIENTED_EDGE('',*,*,#173445,.T.);
#173612=ORIENTED_EDGE('',*,*,#173414,.T.);
#173613=ORIENTED_EDGE('',*,*,#173383,.T.);
#173614=ORIENTED_EDGE('',*,*,#173352,.T.);
#173615=ORIENTED_EDGE('',*,*,#173321,.T.);
#173616=ORIENTED_EDGE('',*,*,#173290,.T.);
#173617=ORIENTED_EDGE('',*,*,#173259,.T.);
#173618=ORIENTED_EDGE('',*,*,#173228,.T.);
#173619=ORIENTED_EDGE('',*,*,#173197,.T.);
#173620=ORIENTED_EDGE('',*,*,#173159,.F.);
#173621=FACE_OUTER_BOUND('',#173606,.T.);
#173622=ADVANCED_FACE('PartBody',(#173621),#173593,.F.);
#173623=CARTESIAN_POINT('Axis2P3D Location',(9387.23106953,-2718.41507432,241.948338249));
#173624=DIRECTION('Axis2P3D Direction',(0.03901515655488039,0.2122013840728933,0.9764468189085092));
#173625=DIRECTION('Axis2P3D XDirection',(0.7065684034710927,-0.6968369122450915,0.1232047440200162));
#173626=AXIS2_PLACEMENT_3D('Cylinder Axis2P3D',#173623,#173624,#173625);
#173627=CYLINDRICAL_SURFACE('generated cylinder',#173626,9.);
#173628=CARTESIAN_POINT('Line Origine',(9387.28389606,-2709.33303614,241.359179582));
#173629=DIRECTION('Vector Direction',(0.03901515655508009,0.2122013840728917,0.9764468189085015));
#173630=VECTOR('Line Direction',#173629,1.);
#173631=LINE('Line',#173628,#173630);
#173632=EDGE_CURVE('',#173599,#173502,#173631,.T.);
#173633=EDGE_LOOP('',(#173634,#173635,#173636,#173637));
#173634=ORIENTED_EDGE('',*,*,#173503,.T.);
#173635=ORIENTED_EDGE('',*,*,#173481,.F.);
#173636=ORIENTED_EDGE('',*,*,#173605,.F.);
#173637=ORIENTED_EDGE('',*,*,#173632,.T.);
#173638=FACE_OUTER_BOUND('',#173633,.T.);
#173639=ADVANCED_FACE('PartBody',(#173638),#173627,.F.);
#173640=CARTESIAN_POINT('Axis2P3D Location',(9389.111170349999,-2709.63594603,239.965336653));
#173641=DIRECTION('Axis2P3D Direction',(-5.483807852259934e-14,-0.9771908335119882,0.2123630732969974));
#173642=DIRECTION('Axis2P3D XDirection',(1,-5.35872676597e-14,1.16455828887e-14));
#173643=AXIS2_PLACEMENT_3D('Plane Axis2P3D',#173640,#173641,#173642);
#173644=PLANE('',#173643);
#173645=EDGE_LOOP('',(#173646,#173647,#173648,#173649));
#173646=ORIENTED_EDGE('',*,*,#173509,.T.);
#173647=ORIENTED_EDGE('',*,*,#173632,.F.);
#173648=ORIENTED_EDGE('',*,*,#173600,.F.);
#173649=ORIENTED_EDGE('',*,*,#173559,.T.);
#173650=FACE_OUTER_BOUND('',#173645,.T.);
#173651=ADVANCED_FACE('PartBody',(#173650),#173644,.T.);
#173652=ADVANCED_BREP_SHAPE_REPRESENTATION('NONE',(#172909),#172655);

#173653=APPLICATION_CONTEXT('automotive_design');
#173654=APPLICATION_PROTOCOL_DEFINITION('international standard','automotive_design',2010,#173653);
#173655=PRODUCT_CONTEXT('',#173653,'mechanical');
#173656=PRODUCT_DEFINITION_CONTEXT('part definition',#173653,'design');
#173657=PRODUCT('part_042_V5311445520000','part_042_V5311445520000','',(#173655));
#173658=PRODUCT_DEFINITION_FORMATION('','',#173657);
#173659=PRODUCT_DEFINITION('design','',#173658,#173656);
#173660=PRODUCT_DEFINITION_SHAPE('','',#173659);
#173661=SHAPE_DEFINITION_REPRESENTATION(#173660,#173652);
ENDSEC;
END-ISO-10303-21;
