ISO-10303-21;
HEADER;
FILE_DESCRIPTION(('CATIA V5 STEP Exchange','CAx-IF Rec.Pracs.--- Model Styling and Organization---1.4--- 2014-01-23'),'2;1');

FILE_NAME('C:\\Users\\SA516207\\WORK\\01_ASSY\\3_Catia\\ECHELLE\\ECHELLE.stp','2026-09-22T12:18:05+00:00',('none'),('none'),'CATIA Version 5-6 Release 2017 SP2 HF26','CATIA V5 STEP AP203 WITH EXTENSIONS','none');

FILE_SCHEMA(('CONFIG_CONTROL_DESIGN','SHAPE_APPEARANCE_LAYER_MIM'));

ENDSEC;
DATA;
#46=(LENGTH_UNIT()NAMED_UNIT(*)SI_UNIT(.MILLI.,.METRE.));
#47=(NAMED_UNIT(*)PLANE_ANGLE_UNIT()SI_UNIT($,.RADIAN.));
#48=(NAMED_UNIT(*)SI_UNIT($,.STERADIAN.)SOLID_ANGLE_UNIT());
#29518=UNCERTAINTY_MEASURE_WITH_UNIT(LENGTH_MEASURE(0.005),#46,'distance_accuracy_value','CONFUSED CURVE UNCERTAINTY');
#29519=(GEOMETRIC_REPRESENTATION_CONTEXT(3)GLOBAL_UNCERTAINTY_ASSIGNED_CONTEXT((#29518))GLOBAL_UNIT_ASSIGNED_CONTEXT((#46,#47,#48))REPRESENTATION_CONTEXT(' ',' '));
#30671=MANIFOLD_SOLID_BREP('PartBody',#30673);
#30673=CLOSED_SHELL('Closed Shell',(#30713,#30744,#30775,#30806,#30837,#30880,#30911,#30942,#30973,#31004,#31035,#31076,#31100,#31140,#31157,#31264,#31347,#31445,#31518,#31606,#31673,#31743,#31795,#31815,#31835,#31855));
#30674=CARTESIAN_POINT('Axis2P3D Location',(9402.444336,-2751.64468104,478.299535961));
#30675=DIRECTION('Axis2P3D Direction',(1,0,0));
#30676=DIRECTION('Axis2P3D XDirection',(0,-0.05385053519378256,0.9985490072396764));
#30677=AXIS2_PLACEMENT_3D('Cylinder Axis2P3D',#30674,#30675,#30676);
#30678=CYLINDRICAL_SURFACE('generated cylinder',#30677,5.);
#30679=CARTESIAN_POINT('Line Origine',(9403.839335999999,-2752.13381105,473.323518294));
#30680=DIRECTION('Vector Direction',(1,0,0));
#30681=VECTOR('Line Direction',#30680,1.);
#30682=LINE('Line',#30679,#30681);
#30683=CARTESIAN_POINT('Vertex',(9402.444336,-2752.13381105,473.323518294));
#30684=VERTEX_POINT('',#30683);
#30685=CARTESIAN_POINT('Vertex',(9405.234336,-2752.13381105,473.323518294));
#30686=VERTEX_POINT('',#30685);
#30687=EDGE_CURVE('',#30684,#30686,#30682,.T.);
#30688=CARTESIAN_POINT('Axis2P3D Location',(9405.234336,-2751.64468104,478.299535961));
#30689=DIRECTION('Axis2P3D Direction',(1,0,0));
#30690=AXIS2_PLACEMENT_3D('Circle Axis2P3D',#30688,#30689,$);
#30691=CIRCLE('generated circle',#30690,5.);
#30692=CARTESIAN_POINT('Vertex',(9405.234336,-2750.62324305,473.404981392));
#30693=VERTEX_POINT('',#30692);
#30694=EDGE_CURVE('',#30686,#30693,#30691,.T.);
#30695=CARTESIAN_POINT('Line Origine',(9403.839335999999,-2750.62324305,473.404981392));
#30696=DIRECTION('Vector Direction',(1,0,0));
#30697=VECTOR('Line Direction',#30696,1.);
#30698=LINE('Line',#30695,#30697);
#30699=CARTESIAN_POINT('Vertex',(9402.444336,-2750.62324305,473.404981392));
#30700=VERTEX_POINT('',#30699);
#30701=EDGE_CURVE('',#30700,#30693,#30698,.T.);
#30702=CARTESIAN_POINT('Axis2P3D Location',(9402.444336,-2751.64468104,478.299535961));
#30703=DIRECTION('Axis2P3D Direction',(1,0,0));
#30704=AXIS2_PLACEMENT_3D('Circle Axis2P3D',#30702,#30703,$);
#30705=CIRCLE('generated circle',#30704,5.);
#30706=EDGE_CURVE('',#30684,#30700,#30705,.T.);
#30707=EDGE_LOOP('',(#30708,#30709,#30710,#30711));
#30708=ORIENTED_EDGE('',*,*,#30687,.T.);
#30709=ORIENTED_EDGE('',*,*,#30694,.T.);
#30710=ORIENTED_EDGE('',*,*,#30701,.F.);
#30711=ORIENTED_EDGE('',*,*,#30706,.F.);
#30712=FACE_OUTER_BOUND('',#30707,.T.);
#30713=ADVANCED_FACE('PartBody',(#30712),#30678,.F.);
#30714=CARTESIAN_POINT('Axis2P3D Location',(9402.444336,-2720.55053903,479.680813407));
#30715=DIRECTION('Axis2P3D Direction',(0,-0.2042875975119479,0.9789109139767502));
#30716=DIRECTION('Axis2P3D XDirection',(1,0,0));
#30717=AXIS2_PLACEMENT_3D('Plane Axis2P3D',#30714,#30715,#30716);
#30718=PLANE('',#30717);
#30719=CARTESIAN_POINT('Line Origine',(9405.234336,-2720.55053903,479.680813407));
#30720=DIRECTION('Vector Direction',(0,0.9789109139767502,0.2042875975119479));
#30721=VECTOR('Line Direction',#30720,1.);
#30722=LINE('Line',#30719,#30721);
#30723=CARTESIAN_POINT('Vertex',(9405.234336,-2690.47783502,485.956645422));
#30724=VERTEX_POINT('',#30723);
#30725=EDGE_CURVE('',#30693,#30724,#30722,.T.);
#30726=CARTESIAN_POINT('Line Origine',(9403.839335999999,-2690.47783502,485.956645422));
#30727=DIRECTION('Vector Direction',(1,0,0));
#30728=VECTOR('Line Direction',#30727,1.);
#30729=LINE('Line',#30726,#30728);
#30730=CARTESIAN_POINT('Vertex',(9402.444336,-2690.47783502,485.956645422));
#30731=VERTEX_POINT('',#30730);
#30732=EDGE_CURVE('',#30731,#30724,#30729,.T.);
#30733=CARTESIAN_POINT('Line Origine',(9402.444336,-2720.55053903,479.680813407));
#30734=DIRECTION('Vector Direction',(0,0.9789109139767502,0.2042875975119479));
#30735=VECTOR('Line Direction',#30734,1.);
#30736=LINE('Line',#30733,#30735);
#30737=EDGE_CURVE('',#30700,#30731,#30736,.T.);
#30738=EDGE_LOOP('',(#30739,#30740,#30741,#30742));
#30739=ORIENTED_EDGE('',*,*,#30701,.T.);
#30740=ORIENTED_EDGE('',*,*,#30725,.T.);
#30741=ORIENTED_EDGE('',*,*,#30732,.F.);
#30742=ORIENTED_EDGE('',*,*,#30737,.F.);
#30743=FACE_OUTER_BOUND('',#30738,.T.);
#30744=ADVANCED_FACE('PartBody',(#30743),#30718,.T.);
#30745=CARTESIAN_POINT('Axis2P3D Location',(9402.444336,-2687.82209625,473.23080354));
#30746=DIRECTION('Axis2P3D Direction',(1,0,0));
#30747=DIRECTION('Axis2P3D XDirection',(0,0.07240326148607949,-0.9973754397047174));
#30748=AXIS2_PLACEMENT_3D('Cylinder Axis2P3D',#30745,#30746,#30747);
#30749=CYLINDRICAL_SURFACE('generated cylinder',#30748,13.);
#30750=CARTESIAN_POINT('Axis2P3D Location',(9405.234336,-2687.82209625,473.23080354));
#30751=DIRECTION('Axis2P3D Direction',(1,0,0));
#30752=AXIS2_PLACEMENT_3D('Circle Axis2P3D',#30750,#30751,$);
#30753=CIRCLE('generated circle',#30752,13.);
#30754=CARTESIAN_POINT('Vertex',(9405.234336,-2687.0321499,486.206780758));
#30755=VERTEX_POINT('',#30754);
#30756=EDGE_CURVE('',#30755,#30724,#30753,.T.);
#30757=CARTESIAN_POINT('Line Origine',(9403.839335999999,-2687.0321499,486.206780758));
#30758=DIRECTION('Vector Direction',(1,0,0));
#30759=VECTOR('Line Direction',#30758,1.);
#30760=LINE('Line',#30757,#30759);
#30761=CARTESIAN_POINT('Vertex',(9402.444336,-2687.0321499,486.206780758));
#30762=VERTEX_POINT('',#30761);
#30763=EDGE_CURVE('',#30762,#30755,#30760,.T.);
#30764=CARTESIAN_POINT('Axis2P3D Location',(9402.444336,-2687.82209625,473.23080354));
#30765=DIRECTION('Axis2P3D Direction',(1,0,0));
#30766=AXIS2_PLACEMENT_3D('Circle Axis2P3D',#30764,#30765,$);
#30767=CIRCLE('generated circle',#30766,13.);
#30768=EDGE_CURVE('',#30762,#30731,#30767,.T.);
#30769=EDGE_LOOP('',(#30770,#30771,#30772,#30773));
#30770=ORIENTED_EDGE('',*,*,#30732,.T.);
#30771=ORIENTED_EDGE('',*,*,#30756,.F.);
#30772=ORIENTED_EDGE('',*,*,#30763,.F.);
#30773=ORIENTED_EDGE('',*,*,#30768,.T.);
#30774=FACE_OUTER_BOUND('',#30769,.T.);
#30775=ADVANCED_FACE('PartBody',(#30774),#30749,.T.);
#30776=CARTESIAN_POINT('Axis2P3D Location',(9402.444336,-2672.70423382,485.33453161));
#30777=DIRECTION('Axis2P3D Direction',(0,-0.060765104156771,-0.9981520936795237));
#30778=DIRECTION('Axis2P3D XDirection',(1,0,0));
#30779=AXIS2_PLACEMENT_3D('Plane Axis2P3D',#30776,#30777,#30778);
#30780=PLANE('',#30779);
#30781=CARTESIAN_POINT('Line Origine',(9405.234336,-2672.70423382,485.33453161));
#30782=DIRECTION('Vector Direction',(0,-0.9981520936795237,0.060765104156771));
#30783=VECTOR('Line Direction',#30782,1.);
#30784=LINE('Line',#30781,#30783);
#30785=CARTESIAN_POINT('Vertex',(9405.234336,-2658.37631774,484.462282463));
#30786=VERTEX_POINT('',#30785);
#30787=EDGE_CURVE('',#30786,#30755,#30784,.T.);
#30788=CARTESIAN_POINT('Line Origine',(9403.839335999999,-2658.37631774,484.462282463));
#30789=DIRECTION('Vector Direction',(1,0,0));
#30790=VECTOR('Line Direction',#30789,1.);
#30791=LINE('Line',#30788,#30790);
#30792=CARTESIAN_POINT('Vertex',(9402.444336,-2658.37631774,484.462282463));
#30793=VERTEX_POINT('',#30792);
#30794=EDGE_CURVE('',#30793,#30786,#30791,.T.);
#30795=CARTESIAN_POINT('Line Origine',(9402.444336,-2672.70423382,485.33453161));
#30796=DIRECTION('Vector Direction',(0,-0.9981520936795237,0.060765104156771));
#30797=VECTOR('Line Direction',#30796,1.);
#30798=LINE('Line',#30795,#30797);
#30799=EDGE_CURVE('',#30793,#30762,#30798,.T.);
#30800=EDGE_LOOP('',(#30801,#30802,#30803,#30804));
#30801=ORIENTED_EDGE('',*,*,#30763,.T.);
#30802=ORIENTED_EDGE('',*,*,#30787,.F.);
#30803=ORIENTED_EDGE('',*,*,#30794,.F.);
#30804=ORIENTED_EDGE('',*,*,#30799,.T.);
#30805=FACE_OUTER_BOUND('',#30800,.T.);
#30806=ADVANCED_FACE('PartBody',(#30805),#30780,.F.);
#30807=CARTESIAN_POINT('Axis2P3D Location',(9402.444336,-2659.16626409,471.486305245));
#30808=DIRECTION('Axis2P3D Direction',(1,0,0));
#30809=DIRECTION('Axis2P3D XDirection',(-0,-0.7613406176063393,-0.6483521141962889));
#30810=AXIS2_PLACEMENT_3D('Cylinder Axis2P3D',#30807,#30808,#30809);
#30811=CYLINDRICAL_SURFACE('generated cylinder',#30810,13.);
#30812=CARTESIAN_POINT('Axis2P3D Location',(9405.234336,-2659.16626409,471.486305245));
#30813=DIRECTION('Axis2P3D Direction',(1,0,0));
#30814=AXIS2_PLACEMENT_3D('Circle Axis2P3D',#30812,#30813,$);
#30815=CIRCLE('generated circle',#30814,13.);
#30816=CARTESIAN_POINT('Vertex',(9405.234336,-2646.23012149,470.199365216));
#30817=VERTEX_POINT('',#30816);
#30818=EDGE_CURVE('',#30817,#30786,#30815,.T.);
#30819=CARTESIAN_POINT('Line Origine',(9403.839335999999,-2646.23012149,470.199365216));
#30820=DIRECTION('Vector Direction',(1,0,0));
#30821=VECTOR('Line Direction',#30820,1.);
#30822=LINE('Line',#30819,#30821);
#30823=CARTESIAN_POINT('Vertex',(9402.444336,-2646.23012149,470.199365216));
#30824=VERTEX_POINT('',#30823);
#30825=EDGE_CURVE('',#30824,#30817,#30822,.T.);
#30826=CARTESIAN_POINT('Axis2P3D Location',(9402.444336,-2659.16626409,471.486305245));
#30827=DIRECTION('Axis2P3D Direction',(1,0,0));
#30828=AXIS2_PLACEMENT_3D('Circle Axis2P3D',#30826,#30827,$);
#30829=CIRCLE('generated circle',#30828,13.);
#30830=EDGE_CURVE('',#30824,#30793,#30829,.T.);
#30831=EDGE_LOOP('',(#30832,#30833,#30834,#30835));
#30832=ORIENTED_EDGE('',*,*,#30794,.T.);
#30833=ORIENTED_EDGE('',*,*,#30818,.F.);
#30834=ORIENTED_EDGE('',*,*,#30825,.F.);
#30835=ORIENTED_EDGE('',*,*,#30830,.T.);
#30836=FACE_OUTER_BOUND('',#30831,.T.);
#30837=ADVANCED_FACE('PartBody',(#30836),#30811,.T.);
#30838=B_SPLINE_CURVE_WITH_KNOTS('',5,(#30839,#30840,#30841,#30842,#30843,#30844,#30845,#30846,#30847),.UNSPECIFIED.,.F.,.U.,(6,3,6),(8.06124444657,199.839020817,214.366332886),.UNSPECIFIED.);
#30839=CARTESIAN_POINT('Control Point',(9402.444336,-2646.23012149,470.199365216));
#30840=CARTESIAN_POINT('Control Point',(9402.444336,-2648.42781734,448.108431522));
#30841=CARTESIAN_POINT('Control Point',(9402.444336,-2650.3860713,425.992836201));
#30842=CARTESIAN_POINT('Control Point',(9402.444336,-2652.10498205,403.850674054));
#30843=CARTESIAN_POINT('Control Point',(9402.444336,-2653.69589883,380.025268184));
#30844=CARTESIAN_POINT('Control Point',(9402.444336,-2655.00802191,356.174692732));
#30845=CARTESIAN_POINT('Control Point',(9402.444336,-2655.09903509,354.49509945));
#30846=CARTESIAN_POINT('Control Point',(9402.444336,-2655.18866674,352.815406207));
#30847=CARTESIAN_POINT('Control Point',(9402.444336,-2655.27691799,351.135639864));
#30848=DIRECTION('Vector Direction',(1,0,0));
#30849=VECTOR('Extrusion Surface Vector',#30848,1.);
#30850=SURFACE_OF_LINEAR_EXTRUSION('generated tabulated cylinder',#30838,#30849);
#30851=B_SPLINE_CURVE_WITH_KNOTS('',4,(#30852,#30853,#30854,#30855,#30856),.UNSPECIFIED.,.F.,.U.,(5,5),(0.,238.370518646),.UNSPECIFIED.);
#30852=CARTESIAN_POINT('Control Point',(9405.234336,-2646.23012149,470.199365216));
#30853=CARTESIAN_POINT('Control Point',(9405.234336,-2649.18534777,440.493840709));
#30854=CARTESIAN_POINT('Control Point',(9405.234336,-2651.6789961,410.734139694));
#30855=CARTESIAN_POINT('Control Point',(9405.234336,-2653.71041963,380.952230525));
#30856=CARTESIAN_POINT('Control Point',(9405.234336,-2655.27691799,351.135639864));
#30857=CARTESIAN_POINT('Vertex',(9405.234336,-2655.27691799,351.135639864));
#30858=VERTEX_POINT('',#30857);
#30859=EDGE_CURVE('',#30817,#30858,#30851,.T.);
#30860=CARTESIAN_POINT('Line Origine',(9403.839335999999,-2655.27691799,351.135639864));
#30861=DIRECTION('Vector Direction',(1,0,0));
#30862=VECTOR('Line Direction',#30861,1.);
#30863=LINE('Line',#30860,#30862);
#30864=CARTESIAN_POINT('Vertex',(9402.444336,-2655.27691799,351.135639864));
#30865=VERTEX_POINT('',#30864);
#30866=EDGE_CURVE('',#30865,#30858,#30863,.T.);
#30867=B_SPLINE_CURVE_WITH_KNOTS('',4,(#30868,#30869,#30870,#30871,#30872),.UNSPECIFIED.,.F.,.U.,(5,5),(0.,238.370518646),.UNSPECIFIED.);
#30868=CARTESIAN_POINT('Control Point',(9402.444336,-2646.23012149,470.199365216));
#30869=CARTESIAN_POINT('Control Point',(9402.444336,-2649.18534777,440.493840709));
#30870=CARTESIAN_POINT('Control Point',(9402.444336,-2651.6789961,410.734139694));
#30871=CARTESIAN_POINT('Control Point',(9402.444336,-2653.71041963,380.952230525));
#30872=CARTESIAN_POINT('Control Point',(9402.444336,-2655.27691799,351.135639864));
#30873=EDGE_CURVE('',#30824,#30865,#30867,.T.);
#30874=EDGE_LOOP('',(#30875,#30876,#30877,#30878));
#30875=ORIENTED_EDGE('',*,*,#30825,.T.);
#30876=ORIENTED_EDGE('',*,*,#30859,.T.);
#30877=ORIENTED_EDGE('',*,*,#30866,.F.);
#30878=ORIENTED_EDGE('',*,*,#30873,.F.);
#30879=FACE_OUTER_BOUND('',#30874,.T.);
#30880=ADVANCED_FACE('PartBody',(#30879),#30850,.F.);
#30881=CARTESIAN_POINT('Axis2P3D Location',(9402.444336,-2668.2590136,351.817690727));
#30882=DIRECTION('Axis2P3D Direction',(1,0,0));
#30883=DIRECTION('Axis2P3D XDirection',(0,-0.6659392184861137,0.7460060035161273));
#30884=AXIS2_PLACEMENT_3D('Cylinder Axis2P3D',#30881,#30882,#30883);
#30885=CYLINDRICAL_SURFACE('generated cylinder',#30884,13.);
#30886=CARTESIAN_POINT('Axis2P3D Location',(9405.234336,-2668.2590136,351.817690727));
#30887=DIRECTION('Axis2P3D Direction',(1,0,0));
#30888=AXIS2_PLACEMENT_3D('Circle Axis2P3D',#30886,#30887,$);
#30889=CIRCLE('generated circle',#30888,13.);
#30890=CARTESIAN_POINT('Vertex',(9405.234336,-2669.04895996,338.841713509));
#30891=VERTEX_POINT('',#30890);
#30892=EDGE_CURVE('',#30891,#30858,#30889,.T.);
#30893=CARTESIAN_POINT('Line Origine',(9403.839335999999,-2669.04895996,338.841713509));
#30894=DIRECTION('Vector Direction',(1,0,0));
#30895=VECTOR('Line Direction',#30894,1.);
#30896=LINE('Line',#30893,#30895);
#30897=CARTESIAN_POINT('Vertex',(9402.444336,-2669.04895996,338.841713509));
#30898=VERTEX_POINT('',#30897);
#30899=EDGE_CURVE('',#30898,#30891,#30896,.T.);
#30900=CARTESIAN_POINT('Axis2P3D Location',(9402.444336,-2668.2590136,351.817690727));
#30901=DIRECTION('Axis2P3D Direction',(1,0,0));
#30902=AXIS2_PLACEMENT_3D('Circle Axis2P3D',#30900,#30901,$);
#30903=CIRCLE('generated circle',#30902,13.);
#30904=EDGE_CURVE('',#30898,#30865,#30903,.T.);
#30905=EDGE_LOOP('',(#30906,#30907,#30908,#30909));
#30906=ORIENTED_EDGE('',*,*,#30866,.T.);
#30907=ORIENTED_EDGE('',*,*,#30892,.F.);
#30908=ORIENTED_EDGE('',*,*,#30899,.F.);
#30909=ORIENTED_EDGE('',*,*,#30904,.T.);
#30910=FACE_OUTER_BOUND('',#30905,.T.);
#30911=ADVANCED_FACE('PartBody',(#30910),#30885,.T.);
#30912=CARTESIAN_POINT('Axis2P3D Location',(9402.444336,-2683.3668563,339.713352679));
#30913=DIRECTION('Axis2P3D Direction',(0,-0.060765104156771,-0.9981520936795237));
#30914=DIRECTION('Axis2P3D XDirection',(1,0,0));
#30915=AXIS2_PLACEMENT_3D('Plane Axis2P3D',#30912,#30913,#30914);
#30916=PLANE('',#30915);
#30917=CARTESIAN_POINT('Line Origine',(9405.234336,-2683.3668563,339.713352679));
#30918=DIRECTION('Vector Direction',(0,-0.9981520936795237,0.060765104156771));
#30919=VECTOR('Line Direction',#30918,1.);
#30920=LINE('Line',#30917,#30919);
#30921=CARTESIAN_POINT('Vertex',(9405.234336,-2697.68475265,340.58499185));
#30922=VERTEX_POINT('',#30921);
#30923=EDGE_CURVE('',#30891,#30922,#30920,.T.);
#30924=CARTESIAN_POINT('Line Origine',(9403.839335999999,-2697.68475265,340.58499185));
#30925=DIRECTION('Vector Direction',(1,0,0));
#30926=VECTOR('Line Direction',#30925,1.);
#30927=LINE('Line',#30924,#30926);
#30928=CARTESIAN_POINT('Vertex',(9402.444336,-2697.68475265,340.58499185));
#30929=VERTEX_POINT('',#30928);
#30930=EDGE_CURVE('',#30929,#30922,#30927,.T.);
#30931=CARTESIAN_POINT('Line Origine',(9402.444336,-2683.3668563,339.713352679));
#30932=DIRECTION('Vector Direction',(0,-0.9981520936795237,0.060765104156771));
#30933=VECTOR('Line Direction',#30932,1.);
#30934=LINE('Line',#30931,#30933);
#30935=EDGE_CURVE('',#30898,#30929,#30934,.T.);
#30936=EDGE_LOOP('',(#30937,#30938,#30939,#30940));
#30937=ORIENTED_EDGE('',*,*,#30899,.T.);
#30938=ORIENTED_EDGE('',*,*,#30923,.T.);
#30939=ORIENTED_EDGE('',*,*,#30930,.F.);
#30940=ORIENTED_EDGE('',*,*,#30935,.F.);
#30941=FACE_OUTER_BOUND('',#30936,.T.);
#30942=ADVANCED_FACE('PartBody',(#30941),#30916,.T.);
#30943=CARTESIAN_POINT('Axis2P3D Location',(9402.444336,-2696.89480629,353.560969067));
#30944=DIRECTION('Axis2P3D Direction',(1,0,0));
#30945=DIRECTION('Axis2P3D XDirection',(0,0.1860439973089176,0.9825414144275648));
#30946=AXIS2_PLACEMENT_3D('Cylinder Axis2P3D',#30943,#30944,#30945);
#30947=CYLINDRICAL_SURFACE('generated cylinder',#30946,13.);
#30948=CARTESIAN_POINT('Axis2P3D Location',(9405.234336,-2696.89480629,353.560969067));
#30949=DIRECTION('Axis2P3D Direction',(1,0,0));
#30950=AXIS2_PLACEMENT_3D('Circle Axis2P3D',#30948,#30949,$);
#30951=CIRCLE('generated circle',#30950,13.);
#30952=CARTESIAN_POINT('Vertex',(9405.234336,-2700.90345548,341.194452511));
#30953=VERTEX_POINT('',#30952);
#30954=EDGE_CURVE('',#30953,#30922,#30951,.T.);
#30955=CARTESIAN_POINT('Line Origine',(9403.839335999999,-2700.90345548,341.194452511));
#30956=DIRECTION('Vector Direction',(1,0,0));
#30957=VECTOR('Line Direction',#30956,1.);
#30958=LINE('Line',#30955,#30957);
#30959=CARTESIAN_POINT('Vertex',(9402.444336,-2700.90345548,341.194452511));
#30960=VERTEX_POINT('',#30959);
#30961=EDGE_CURVE('',#30960,#30953,#30958,.T.);
#30962=CARTESIAN_POINT('Axis2P3D Location',(9402.444336,-2696.89480629,353.560969067));
#30963=DIRECTION('Axis2P3D Direction',(1,0,0));
#30964=AXIS2_PLACEMENT_3D('Circle Axis2P3D',#30962,#30963,$);
#30965=CIRCLE('generated circle',#30964,13.);
#30966=EDGE_CURVE('',#30960,#30929,#30965,.T.);
#30967=EDGE_LOOP('',(#30968,#30969,#30970,#30971));
#30968=ORIENTED_EDGE('',*,*,#30930,.T.);
#30969=ORIENTED_EDGE('',*,*,#30954,.F.);
#30970=ORIENTED_EDGE('',*,*,#30961,.F.);
#30971=ORIENTED_EDGE('',*,*,#30966,.T.);
#30972=FACE_OUTER_BOUND('',#30967,.T.);
#30973=ADVANCED_FACE('PartBody',(#30972),#30947,.T.);
#30974=CARTESIAN_POINT('Axis2P3D Location',(9402.444336,-2730.45682112,350.774278358));
#30975=DIRECTION('Axis2P3D Direction',(0,0.30835762925615,0.9512705043674626));
#30976=DIRECTION('Axis2P3D XDirection',(1,0,0));
#30977=AXIS2_PLACEMENT_3D('Plane Axis2P3D',#30974,#30975,#30976);
#30978=PLANE('',#30977);
#30979=CARTESIAN_POINT('Line Origine',(9405.234336,-2730.45682112,350.774278358));
#30980=DIRECTION('Vector Direction',(0,0.9512705043674626,-0.30835762925615));
#30981=VECTOR('Line Direction',#30980,1.);
#30982=LINE('Line',#30979,#30981);
#30983=CARTESIAN_POINT('Vertex',(9405.234336,-2760.01018676,360.354104206));
#30984=VERTEX_POINT('',#30983);
#30985=EDGE_CURVE('',#30984,#30953,#30982,.T.);
#30986=CARTESIAN_POINT('Line Origine',(9403.839335999999,-2760.01018676,360.354104206));
#30987=DIRECTION('Vector Direction',(1,0,0));
#30988=VECTOR('Line Direction',#30987,1.);
#30989=LINE('Line',#30986,#30988);
#30990=CARTESIAN_POINT('Vertex',(9402.444336,-2760.01018676,360.354104206));
#30991=VERTEX_POINT('',#30990);
#30992=EDGE_CURVE('',#30991,#30984,#30989,.T.);
#30993=CARTESIAN_POINT('Line Origine',(9402.444336,-2730.45682112,350.774278358));
#30994=DIRECTION('Vector Direction',(0,0.9512705043674626,-0.30835762925615));
#30995=VECTOR('Line Direction',#30994,1.);
#30996=LINE('Line',#30993,#30995);
#30997=EDGE_CURVE('',#30991,#30960,#30996,.T.);
#30998=EDGE_LOOP('',(#30999,#31000,#31001,#31002));
#30999=ORIENTED_EDGE('',*,*,#30961,.T.);
#31000=ORIENTED_EDGE('',*,*,#30985,.F.);
#31001=ORIENTED_EDGE('',*,*,#30992,.F.);
#31002=ORIENTED_EDGE('',*,*,#30997,.T.);
#31003=FACE_OUTER_BOUND('',#30998,.T.);
#31004=ADVANCED_FACE('PartBody',(#31003),#30978,.F.);
#31005=CARTESIAN_POINT('Axis2P3D Location',(9402.444336,-2761.55197491,355.597751684));
#31006=DIRECTION('Axis2P3D Direction',(1,0,0));
#31007=DIRECTION('Axis2P3D XDirection',(-0,-0.1871454580440975,-0.9823322134255117));
#31008=AXIS2_PLACEMENT_3D('Cylinder Axis2P3D',#31005,#31006,#31007);
#31009=CYLINDRICAL_SURFACE('generated cylinder',#31008,5.);
#31010=CARTESIAN_POINT('Axis2P3D Location',(9405.234336,-2761.55197491,355.597751684));
#31011=DIRECTION('Axis2P3D Direction',(1,0,0));
#31012=AXIS2_PLACEMENT_3D('Circle Axis2P3D',#31010,#31011,$);
#31013=CIRCLE('generated circle',#31012,5.);
#31014=CARTESIAN_POINT('Vertex',(9405.234336,-2761.23695936,360.587818338));
#31015=VERTEX_POINT('',#31014);
#31016=EDGE_CURVE('',#30984,#31015,#31013,.T.);
#31017=CARTESIAN_POINT('Line Origine',(9403.839335999999,-2761.23695936,360.587818338));
#31018=DIRECTION('Vector Direction',(1,0,0));
#31019=VECTOR('Line Direction',#31018,1.);
#31020=LINE('Line',#31017,#31019);
#31021=CARTESIAN_POINT('Vertex',(9402.444336,-2761.23695936,360.587818338));
#31022=VERTEX_POINT('',#31021);
#31023=EDGE_CURVE('',#31022,#31015,#31020,.T.);
#31024=CARTESIAN_POINT('Axis2P3D Location',(9402.444336,-2761.55197491,355.597751684));
#31025=DIRECTION('Axis2P3D Direction',(1,0,0));
#31026=AXIS2_PLACEMENT_3D('Circle Axis2P3D',#31024,#31025,$);
#31027=CIRCLE('generated circle',#31026,5.);
#31028=EDGE_CURVE('',#30991,#31022,#31027,.T.);
#31029=EDGE_LOOP('',(#31030,#31031,#31032,#31033));
#31030=ORIENTED_EDGE('',*,*,#30992,.T.);
#31031=ORIENTED_EDGE('',*,*,#31016,.T.);
#31032=ORIENTED_EDGE('',*,*,#31023,.F.);
#31033=ORIENTED_EDGE('',*,*,#31028,.F.);
#31034=FACE_OUTER_BOUND('',#31029,.T.);
#31035=ADVANCED_FACE('PartBody',(#31034),#31009,.F.);
#31036=CARTESIAN_POINT('Axis2P3D Location',(9405.234336,-0.0927,0.007469));
#31037=DIRECTION('Axis2P3D Direction',(1,0,0));
#31038=DIRECTION('Axis2P3D XDirection',(0,1,0));
#31039=AXIS2_PLACEMENT_3D('Plane Axis2P3D',#31036,#31037,#31038);
#31040=PLANE('',#31039);
#31041=B_SPLINE_CURVE_WITH_KNOTS('',1,(#31042,#31043),.UNSPECIFIED.,.F.,.U.,(2,2),(-1.00172584672,1.00172584672),.UNSPECIFIED.);
#31042=CARTESIAN_POINT('Control Point',(9405.234336,-2754.12765326,473.519507965));
#31043=CARTESIAN_POINT('Control Point',(9405.234336,-2752.13381105,473.323518294));
#31044=CARTESIAN_POINT('Vertex',(9405.234336,-2754.12765326,473.519507965));
#31045=VERTEX_POINT('',#31044);
#31046=EDGE_CURVE('',#31045,#30686,#31041,.T.);
#31047=B_SPLINE_CURVE_WITH_KNOTS('',4,(#31048,#31049,#31050,#31051,#31052),.UNSPECIFIED.,.F.,.U.,(5,5),(71.8729541794,230.40751909),.UNSPECIFIED.);
#31048=CARTESIAN_POINT('Control Point',(9405.234336,-2763.21864187,360.712919031));
#31049=CARTESIAN_POINT('Control Point',(9405.234336,-2761.43577536,389.003488043));
#31050=CARTESIAN_POINT('Control Point',(9405.234336,-2759.32534233,417.231699499));
#31051=CARTESIAN_POINT('Control Point',(9405.234336,-2756.88855005,445.407488748));
#31052=CARTESIAN_POINT('Control Point',(9405.234336,-2754.12765326,473.519507965));
#31053=CARTESIAN_POINT('Vertex',(9405.2344022,-2763.21872968,360.712922648));
#31054=VERTEX_POINT('',#31053);
#31055=EDGE_CURVE('',#31054,#31045,#31047,.T.);
#31056=B_SPLINE_CURVE_WITH_KNOTS('',1,(#31057,#31058),.UNSPECIFIED.,.F.,.U.,(2,2),(-0.9928136454,0.9928136454),.UNSPECIFIED.);
#31057=CARTESIAN_POINT('Control Point',(9405.234336,-2763.21864187,360.712919031));
#31058=CARTESIAN_POINT('Control Point',(9405.234336,-2761.23695936,360.587818338));
#31059=EDGE_CURVE('',#31054,#31015,#31056,.T.);
#31060=EDGE_LOOP('',(#31061,#31062,#31063,#31064,#31065,#31066,#31067,#31068,#31069,#31070,#31071,#31072,#31073,#31074));
#31061=ORIENTED_EDGE('',*,*,#30694,.F.);
#31062=ORIENTED_EDGE('',*,*,#31046,.F.);
#31063=ORIENTED_EDGE('',*,*,#31055,.F.);
#31064=ORIENTED_EDGE('',*,*,#31059,.T.);
#31065=ORIENTED_EDGE('',*,*,#31016,.F.);
#31066=ORIENTED_EDGE('',*,*,#30985,.T.);
#31067=ORIENTED_EDGE('',*,*,#30954,.T.);
#31068=ORIENTED_EDGE('',*,*,#30923,.F.);
#31069=ORIENTED_EDGE('',*,*,#30892,.T.);
#31070=ORIENTED_EDGE('',*,*,#30859,.F.);
#31071=ORIENTED_EDGE('',*,*,#30818,.T.);
#31072=ORIENTED_EDGE('',*,*,#30787,.T.);
#31073=ORIENTED_EDGE('',*,*,#30756,.T.);
#31074=ORIENTED_EDGE('',*,*,#30725,.F.);
#31075=FACE_OUTER_BOUND('',#31060,.T.);
#31076=ADVANCED_FACE('PartBody',(#31075),#31040,.T.);
#31077=CARTESIAN_POINT('Axis2P3D Location',(9402.444336,-2753.13073215,473.421513129));
#31078=DIRECTION('Axis2P3D Direction',(0,0.09782600297734108,0.9952035335254179));
#31079=DIRECTION('Axis2P3D XDirection',(1,0,0));
#31080=AXIS2_PLACEMENT_3D('Plane Axis2P3D',#31077,#31078,#31079);
#31081=PLANE('',#31080);
#31082=CARTESIAN_POINT('Line Origine',(9402.444336,-2753.13073215,473.421513129));
#31083=DIRECTION('Vector Direction',(0,0.9952035335254179,-0.09782600297734108));
#31084=VECTOR('Line Direction',#31083,1.);
#31085=LINE('Line',#31082,#31084);
#31086=CARTESIAN_POINT('Vertex',(9402.444390799999,-2754.12772458,473.519514704));
#31087=VERTEX_POINT('',#31086);
#31088=EDGE_CURVE('',#31087,#30684,#31085,.T.);
#31089=CARTESIAN_POINT('Line Origine',(9403.839335999999,-2754.12765326,473.519507965));
#31090=DIRECTION('Vector Direction',(1,0,0));
#31091=VECTOR('Line Direction',#31090,1.);
#31092=LINE('Line',#31089,#31091);
#31093=EDGE_CURVE('',#31087,#31045,#31092,.T.);
#31094=EDGE_LOOP('',(#31095,#31096,#31097,#31098));
#31095=ORIENTED_EDGE('',*,*,#31088,.F.);
#31096=ORIENTED_EDGE('',*,*,#31093,.T.);
#31097=ORIENTED_EDGE('',*,*,#31046,.T.);
#31098=ORIENTED_EDGE('',*,*,#30687,.F.);
#31099=FACE_OUTER_BOUND('',#31094,.T.);
#31100=ADVANCED_FACE('PartBody',(#31099),#31081,.T.);
#31101=CARTESIAN_POINT('Axis2P3D Location',(9402.444336,-0.0927,0.007469));
#31102=DIRECTION('Axis2P3D Direction',(1,0,0));
#31103=DIRECTION('Axis2P3D XDirection',(0,1,0));
#31104=AXIS2_PLACEMENT_3D('Plane Axis2P3D',#31101,#31102,#31103);
#31105=PLANE('',#31104);
#31106=CARTESIAN_POINT('Line Origine',(9402.444336,-2762.22780061,360.650368684));
#31107=DIRECTION('Vector Direction',(0,0.9980133306891992,-0.06300310918241257));
#31108=VECTOR('Line Direction',#31107,1.);
#31109=LINE('Line',#31106,#31108);
#31110=CARTESIAN_POINT('Vertex',(9402.44439045,-2763.21871406,360.712923406));
#31111=VERTEX_POINT('',#31110);
#31112=EDGE_CURVE('',#31111,#31022,#31109,.T.);
#31113=B_SPLINE_CURVE_WITH_KNOTS('',5,(#31114,#31115,#31116,#31117,#31118,#31119,#31120,#31121,#31122),.UNSPECIFIED.,.F.,.U.,(6,3,6),(71.8729541794,217.929860867,230.40751909),.UNSPECIFIED.);
#31114=CARTESIAN_POINT('Control Point',(9402.444336,-2763.21864187,360.712919031));
#31115=CARTESIAN_POINT('Control Point',(9402.444336,-2761.90460683,381.564058973));
#31116=CARTESIAN_POINT('Control Point',(9402.444336,-2760.42370706,402.38408207));
#31117=CARTESIAN_POINT('Control Point',(9402.444336,-2758.77649896,423.17358795));
#31118=CARTESIAN_POINT('Control Point',(9402.444336,-2756.80833801,445.710051295));
#31119=CARTESIAN_POINT('Control Point',(9402.444336,-2754.64555772,468.208587052));
#31120=CARTESIAN_POINT('Control Point',(9402.444336,-2754.474128,469.979127999));
#31121=CARTESIAN_POINT('Control Point',(9402.444336,-2754.30149308,471.749435083));
#31122=CARTESIAN_POINT('Control Point',(9402.444336,-2754.12765326,473.519507965));
#31123=EDGE_CURVE('',#31111,#31087,#31113,.T.);
#31124=EDGE_LOOP('',(#31125,#31126,#31127,#31128,#31129,#31130,#31131,#31132,#31133,#31134,#31135,#31136,#31137,#31138));
#31125=ORIENTED_EDGE('',*,*,#30737,.T.);
#31126=ORIENTED_EDGE('',*,*,#30768,.F.);
#31127=ORIENTED_EDGE('',*,*,#30799,.F.);
#31128=ORIENTED_EDGE('',*,*,#30830,.F.);
#31129=ORIENTED_EDGE('',*,*,#30873,.T.);
#31130=ORIENTED_EDGE('',*,*,#30904,.F.);
#31131=ORIENTED_EDGE('',*,*,#30935,.T.);
#31132=ORIENTED_EDGE('',*,*,#30966,.F.);
#31133=ORIENTED_EDGE('',*,*,#30997,.F.);
#31134=ORIENTED_EDGE('',*,*,#31028,.T.);
#31135=ORIENTED_EDGE('',*,*,#31112,.F.);
#31136=ORIENTED_EDGE('',*,*,#31123,.T.);
#31137=ORIENTED_EDGE('',*,*,#31088,.T.);
#31138=ORIENTED_EDGE('',*,*,#30706,.T.);
#31139=FACE_OUTER_BOUND('',#31124,.T.);
#31140=ADVANCED_FACE('PartBody',(#31139),#31105,.F.);
#31141=CARTESIAN_POINT('Axis2P3D Location',(9402.444336,-2762.22780061,360.650368684));
#31142=DIRECTION('Axis2P3D Direction',(0,0.06300310918241257,0.9980133306891992));
#31143=DIRECTION('Axis2P3D XDirection',(1,0,0));
#31144=AXIS2_PLACEMENT_3D('Plane Axis2P3D',#31141,#31142,#31143);
#31145=PLANE('',#31144);
#31146=CARTESIAN_POINT('Line Origine',(9403.83933592,-2763.21864187,360.712919031));
#31147=DIRECTION('Vector Direction',(1,0,0));
#31148=VECTOR('Line Direction',#31147,1.);
#31149=LINE('Line',#31146,#31148);
#31150=EDGE_CURVE('',#31111,#31054,#31149,.T.);
#31151=EDGE_LOOP('',(#31152,#31153,#31154,#31155));
#31152=ORIENTED_EDGE('',*,*,#31023,.T.);
#31153=ORIENTED_EDGE('',*,*,#31059,.F.);
#31154=ORIENTED_EDGE('',*,*,#31150,.F.);
#31155=ORIENTED_EDGE('',*,*,#31112,.T.);
#31156=FACE_OUTER_BOUND('',#31151,.T.);
#31157=ADVANCED_FACE('PartBody',(#31156),#31145,.F.);
#31158=B_SPLINE_SURFACE_WITH_KNOTS('',5,5,((#31159,#31160,#31161,#31162,#31163,#31164),(#31165,#31166,#31167,#31168,#31169,#31170),(#31171,#31172,#31173,#31174,#31175,#31176),(#31177,#31178,#31179,#31180,#31181,#31182),(#31183,#31184,#31185,#31186,#31187,#31188),(#31189,#31190,#31191,#31192,#31193,#31194),(#31195,#31196,#31197,#31198,#31199,#31200),(#31201,#31202,#31203,#31204,#31205,#31206),(#31207,#31208,#31209,#31210,#31211,#31212),(#31213,#31214,#31215,#31216,#31217,#31218),(#31219,#31220,#31221,#31222,#31223,#31224),(#31225,#31226,#31227,#31228,#31229,#31230)),.UNSPECIFIED.,.F.,.F.,.U.,(6,3,3,6),(6,6),(0.,2.05605556723,6.16816670169,10.1763970538),(-2.7900169239,1.72409651635E-005),.UNSPECIFIED.);
#31159=CARTESIAN_POINT('Control Point',(9407.858024589999,-2766.19514822,360.802630498));
#31160=CARTESIAN_POINT('Control Point',(9407.788132019999,-2766.74769496,360.837307079));
#31161=CARTESIAN_POINT('Control Point',(9407.718060699999,-2767.30018047,360.872236683));
#31162=CARTESIAN_POINT('Control Point',(9407.648095750001,-2767.85269636,360.906974783));
#31163=CARTESIAN_POINT('Control Point',(9407.578171929999,-2768.40525904,360.941859585));
#31164=CARTESIAN_POINT('Control Point',(9407.508052929999,-2768.9576701,360.976656645));
#31165=CARTESIAN_POINT('Control Point',(9407.68451574,-2766.17333718,360.804615807));
#31166=CARTESIAN_POINT('Control Point',(9407.58244984,-2766.72186471,360.839680084));
#31167=CARTESIAN_POINT('Control Point',(9407.480308390001,-2767.27040583,360.875080878));
#31168=CARTESIAN_POINT('Control Point',(9407.37754713,-2767.81844029,360.910158571));
#31169=CARTESIAN_POINT('Control Point',(9407.27615215,-2768.36755113,360.945356628));
#31170=CARTESIAN_POINT('Control Point',(9407.173309940001,-2768.91553205,360.980504549));
#31171=CARTESIAN_POINT('Control Point',(9407.51159991,-2766.13781859,360.806415661));
#31172=CARTESIAN_POINT('Control Point',(9407.37896975,-2766.68098193,360.845457779));
#31173=CARTESIAN_POINT('Control Point',(9407.24404073,-2767.2225536,360.878044531));
#31174=CARTESIAN_POINT('Control Point',(9407.108733200001,-2767.76350852,360.914320989));
#31175=CARTESIAN_POINT('Control Point',(9406.977167929999,-2768.30808787,360.94816204));
#31176=CARTESIAN_POINT('Control Point',(9406.839682739999,-2768.84714264,360.982688202));
#31177=CARTESIAN_POINT('Control Point',(9407.34279244,-2766.09099479,360.807797508));
#31178=CARTESIAN_POINT('Control Point',(9407.17727475,-2766.62408808,360.846235085));
#31179=CARTESIAN_POINT('Control Point',(9407.011487,-2767.15739354,360.880105249));
#31180=CARTESIAN_POINT('Control Point',(9406.84593537,-2767.69073959,360.915003269));
#31181=CARTESIAN_POINT('Control Point',(9406.67987029,-2768.22381897,360.949125006));
#31182=CARTESIAN_POINT('Control Point',(9406.51411942,-2768.75699139,360.98331859));
#31183=CARTESIAN_POINT('Control Point',(9406.846430289999,-2765.91183504,360.810844145));
#31184=CARTESIAN_POINT('Control Point',(9406.58874571,-2766.41192395,360.848903868));
#31185=CARTESIAN_POINT('Control Point',(9406.33064401,-2766.91187945,360.882324466));
#31186=CARTESIAN_POINT('Control Point',(9406.072754319999,-2767.41211078,360.915350015));
#31187=CARTESIAN_POINT('Control Point',(9405.81472063,-2767.91230186,360.947647847));
#31188=CARTESIAN_POINT('Control Point',(9405.556246239999,-2768.41193311,360.980177589));
#31189=CARTESIAN_POINT('Control Point',(9406.39774559,-2765.62857231,360.80943073));
#31190=CARTESIAN_POINT('Control Point',(9406.05536025,-2766.07492432,360.842981957));
#31191=CARTESIAN_POINT('Control Point',(9405.71403436,-2766.52262873,360.874034306));
#31192=CARTESIAN_POINT('Control Point',(9405.37244847,-2766.97013754,360.903631205));
#31193=CARTESIAN_POINT('Control Point',(9405.03022226,-2767.41702398,360.93317967));
#31194=CARTESIAN_POINT('Control Point',(9404.69028787,-2767.8662856,360.962557987));
#31195=CARTESIAN_POINT('Control Point',(9406.127725300001,-2765.39621227,360.805938105));
#31196=CARTESIAN_POINT('Control Point',(9405.73629481,-2765.80087752,360.836397416));
#31197=CARTESIAN_POINT('Control Point',(9405.344425929999,-2766.20517435,360.864057202));
#31198=CARTESIAN_POINT('Control Point',(9404.95281551,-2766.609897,360.891225881));
#31199=CARTESIAN_POINT('Control Point',(9404.561080379999,-2767.01432471,360.917803407));
#31200=CARTESIAN_POINT('Control Point',(9404.1690215,-2767.41867804,360.944450175));
#31201=CARTESIAN_POINT('Control Point',(9405.670517709999,-2764.86851729,360.793273108));
#31202=CARTESIAN_POINT('Control Point',(9405.19342732,-2765.17473205,360.814416801));
#31203=CARTESIAN_POINT('Control Point',(9404.716793629999,-2765.48151653,360.836125038));
#31204=CARTESIAN_POINT('Control Point',(9404.23961552,-2765.78766884,360.856541582));
#31205=CARTESIAN_POINT('Control Point',(9403.76307979,-2766.09463642,360.877029207));
#31206=CARTESIAN_POINT('Control Point',(9403.28609308,-2766.40110699,360.897414959));
#31207=CARTESIAN_POINT('Control Point',(9405.379795139999,-2764.23205556,360.768363783));
#31208=CARTESIAN_POINT('Control Point',(9404.849757759999,-2764.42167018,360.781081643));
#31209=CARTESIAN_POINT('Control Point',(9404.31853755,-2764.60969377,360.793316876));
#31210=CARTESIAN_POINT('Control Point',(9403.787928199999,-2764.79850758,360.806094799));
#31211=CARTESIAN_POINT('Control Point',(9403.25710463,-2764.987033,360.81850471));
#31212=CARTESIAN_POINT('Control Point',(9402.725275389999,-2765.17427651,360.830878654));
#31213=CARTESIAN_POINT('Control Point',(9405.283682859999,-2763.90155277,360.753034206));
#31214=CARTESIAN_POINT('Control Point',(9404.73339213,-2764.02691503,360.758454198));
#31215=CARTESIAN_POINT('Control Point',(9404.184989810001,-2764.15433525,360.768873733));
#31216=CARTESIAN_POINT('Control Point',(9403.634936279999,-2764.27964077,360.776878206));
#31217=CARTESIAN_POINT('Control Point',(9403.08727846,-2764.40835379,360.785572586));
#31218=CARTESIAN_POINT('Control Point',(9402.53897071,-2764.53567185,360.794222947));
#31219=CARTESIAN_POINT('Control Point',(9405.233880350001,-2763.55888592,360.734429248));
#31220=CARTESIAN_POINT('Control Point',(9404.67560887,-2763.62194388,360.738328064));
#31221=CARTESIAN_POINT('Control Point',(9404.116773289999,-2763.6842426,360.742270651));
#31222=CARTESIAN_POINT('Control Point',(9403.561115320001,-2763.75077907,360.746412094));
#31223=CARTESIAN_POINT('Control Point',(9402.99955687,-2763.80944629,360.750216572));
#31224=CARTESIAN_POINT('Control Point',(9402.443812899999,-2763.87586249,360.754404076));
#31225=CARTESIAN_POINT('Control Point',(9405.23441929,-2763.21872968,360.712922649));
#31226=CARTESIAN_POINT('Control Point',(9404.67629745,-2763.21857821,360.712886048));
#31227=CARTESIAN_POINT('Control Point',(9404.11833678,-2763.21864551,360.712813677));
#31228=CARTESIAN_POINT('Control Point',(9403.560378919999,-2763.21870512,360.712905608));
#31229=CARTESIAN_POINT('Control Point',(9403.00227463,-2763.21857344,360.712909489));
#31230=CARTESIAN_POINT('Control Point',(9402.444373210001,-2763.21871406,360.712923406));
#31231=B_SPLINE_CURVE_WITH_KNOTS('',4,(#31232,#31233,#31234,#31235,#31236),.UNSPECIFIED.,.F.,.U.,(5,5),(0.,11.7091134435),.UNSPECIFIED.);
#31232=CARTESIAN_POINT('Control Point',(9407.85802455,-2766.19514822,360.802630499));
#31233=CARTESIAN_POINT('Control Point',(9406.784611609999,-2766.0602184,360.81491288));
#31234=CARTESIAN_POINT('Control Point',(9405.7635859,-2765.39443936,360.817742465));
#31235=CARTESIAN_POINT('Control Point',(9405.232696040001,-2764.29829145,360.781178637));
#31236=CARTESIAN_POINT('Control Point',(9405.2344022,-2763.21872968,360.712922648));
#31237=CARTESIAN_POINT('Vertex',(9407.85805966,-2766.19523356,360.802649829));
#31238=VERTEX_POINT('',#31237);
#31239=EDGE_CURVE('',#31238,#31054,#31231,.T.);
#31240=B_SPLINE_CURVE_WITH_KNOTS('',5,(#31241,#31242,#31243,#31244,#31245,#31246),.UNSPECIFIED.,.F.,.U.,(6,6),(-2.78993562045,1.72409651635E-005),.UNSPECIFIED.);
#31241=CARTESIAN_POINT('Control Point',(9407.858014400001,-2766.19522873,360.802635551));
#31242=CARTESIAN_POINT('Control Point',(9407.788123849999,-2766.74775936,360.837311151));
#31243=CARTESIAN_POINT('Control Point',(9407.71805458,-2767.30022877,360.87223972));
#31244=CARTESIAN_POINT('Control Point',(9407.648091679999,-2767.85272856,360.906976817));
#31245=CARTESIAN_POINT('Control Point',(9407.578169889999,-2768.40527514,360.941860599));
#31246=CARTESIAN_POINT('Control Point',(9407.508052929999,-2768.9576701,360.976656645));
#31247=CARTESIAN_POINT('Vertex',(9407.508130890001,-2768.95772715,360.976658457));
#31248=VERTEX_POINT('',#31247);
#31249=EDGE_CURVE('',#31238,#31248,#31240,.T.);
#31250=B_SPLINE_CURVE_WITH_KNOTS('',5,(#31251,#31252,#31253,#31254,#31255,#31256),.UNSPECIFIED.,.F.,.U.,(6,6),(0.,11.7092726251),.UNSPECIFIED.);
#31251=CARTESIAN_POINT('Control Point',(9407.50805726,-2768.95763596,360.976654495));
#31252=CARTESIAN_POINT('Control Point',(9405.851335789999,-2768.74908787,360.995698856));
#31253=CARTESIAN_POINT('Control Point',(9404.2579635,-2767.93241736,360.975141136));
#31254=CARTESIAN_POINT('Control Point',(9403.051974550001,-2766.56591584,360.912386102));
#31255=CARTESIAN_POINT('Control Point',(9402.44296859,-2764.88720857,360.818242489));
#31256=CARTESIAN_POINT('Control Point',(9402.44439045,-2763.21871406,360.712923406));
#31257=EDGE_CURVE('',#31248,#31111,#31250,.T.);
#31258=EDGE_LOOP('',(#31259,#31260,#31261,#31262));
#31259=ORIENTED_EDGE('',*,*,#31150,.T.);
#31260=ORIENTED_EDGE('',*,*,#31239,.F.);
#31261=ORIENTED_EDGE('',*,*,#31249,.T.);
#31262=ORIENTED_EDGE('',*,*,#31257,.T.);
#31263=FACE_OUTER_BOUND('',#31258,.T.);
#31264=ADVANCED_FACE('PartBody',(#31263),#31158,.F.);
#31265=B_SPLINE_SURFACE_WITH_KNOTS('',5,5,((#31266,#31267,#31268,#31269,#31270,#31271,#31272,#31273,#31274),(#31275,#31276,#31277,#31278,#31279,#31280,#31281,#31282,#31283),(#31284,#31285,#31286,#31287,#31288,#31289,#31290,#31291,#31292),(#31293,#31294,#31295,#31296,#31297,#31298,#31299,#31300,#31301),(#31302,#31303,#31304,#31305,#31306,#31307,#31308,#31309,#31310),(#31311,#31312,#31313,#31314,#31315,#31316,#31317,#31318,#31319)),.UNSPECIFIED.,.F.,.F.,.U.,(6,6),(6,3,6),(71.7365418195,230.407665669),(0.,2.895,5.79),.UNSPECIFIED.);
#31266=CARTESIAN_POINT('Control Point',(9407.858067699999,-2766.19520004,360.80264779));
#31267=CARTESIAN_POINT('Control Point',(9407.42797827,-2766.14093522,360.799229768));
#31268=CARTESIAN_POINT('Control Point',(9407.007704399999,-2766.00914895,360.790928841));
#31269=CARTESIAN_POINT('Control Point',(9406.61598877,-2765.80212087,360.777888597));
#31270=CARTESIAN_POINT('Control Point',(9405.925182630001,-2765.25635787,360.743512185));
#31271=CARTESIAN_POINT('Control Point',(9405.46929906,-2764.50391122,360.696117224));
#31272=CARTESIAN_POINT('Control Point',(9405.312628809999,-2764.09009144,360.670051626));
#31273=CARTESIAN_POINT('Control Point',(9405.234336,-2763.657432,360.642799359));
#31274=CARTESIAN_POINT('Control Point',(9405.234336,-2763.22477674,360.615547355));
#31275=CARTESIAN_POINT('Control Point',(9407.856645690001,-2764.76686475,383.4755298));
#31276=CARTESIAN_POINT('Control Point',(9407.42672444,-2764.71243675,383.471719705));
#31277=CARTESIAN_POINT('Control Point',(9407.00664937,-2764.58057744,383.46248696));
#31278=CARTESIAN_POINT('Control Point',(9406.61514346,-2764.37357224,383.447991556));
#31279=CARTESIAN_POINT('Control Point',(9405.92473518,-2763.82803176,383.409789301));
#31280=CARTESIAN_POINT('Control Point',(9405.46914363,-2763.07609152,383.3571322));
#31281=CARTESIAN_POINT('Control Point',(9405.31257706,-2762.66257878,383.328174402));
#31282=CARTESIAN_POINT('Control Point',(9405.234336,-2762.2302534,383.297899087));
#31283=CARTESIAN_POINT('Control Point',(9405.234336,-2761.79793218,383.267624063));
#31284=CARTESIAN_POINT('Control Point',(9407.85529901,-2763.14142313,406.111657921));
#31285=CARTESIAN_POINT('Control Point',(9407.42553714,-2763.08684555,406.107453576));
#31286=CARTESIAN_POINT('Control Point',(9407.0056504,-2762.95492852,406.097288297));
#31287=CARTESIAN_POINT('Control Point',(9406.614343110001,-2762.74796267,406.081338551));
#31288=CARTESIAN_POINT('Control Point',(9405.92431156,-2762.20267927,406.0393149));
#31289=CARTESIAN_POINT('Control Point',(9405.46899648,-2761.45128208,405.981404611));
#31290=CARTESIAN_POINT('Control Point',(9405.31252806,-2761.03809494,405.949559939));
#31291=CARTESIAN_POINT('Control Point',(9405.234336,-2760.60612232,405.916267327));
#31292=CARTESIAN_POINT('Control Point',(9405.234336,-2760.17415384,405.882975035));
#31293=CARTESIAN_POINT('Control Point',(9407.854023280001,-2761.31947578,428.713197523));
#31294=CARTESIAN_POINT('Control Point',(9407.42441249,-2761.26476164,428.708597064));
#31295=CARTESIAN_POINT('Control Point',(9407.00470421,-2761.13280175,428.697498742));
#31296=CARTESIAN_POINT('Control Point',(9406.613585069999,-2760.92589148,428.680095565));
#31297=CARTESIAN_POINT('Control Point',(9405.92391037,-2760.38089949,428.634254939));
#31298=CARTESIAN_POINT('Control Point',(9405.468857129999,-2759.63008229,428.571100032));
#31299=CARTESIAN_POINT('Control Point',(9405.312481659999,-2759.21723959,428.536373554));
#31300=CARTESIAN_POINT('Control Point',(9405.234336,-2758.78563873,428.500069106));
#31301=CARTESIAN_POINT('Control Point',(9405.234336,-2758.35404202,428.463765006));
#31302=CARTESIAN_POINT('Control Point',(9407.852820509999,-2759.30169134,451.280766565));
#31303=CARTESIAN_POINT('Control Point',(9407.42335225,-2759.24685389,451.275768718));
#31304=CARTESIAN_POINT('Control Point',(9407.00381226,-2759.11486614,451.263737669));
#31305=CARTESIAN_POINT('Control Point',(9406.612870520001,-2758.90802766,451.244883005));
#31306=CARTESIAN_POINT('Control Point',(9405.92353222,-2758.36336119,451.195232234));
#31307=CARTESIAN_POINT('Control Point',(9405.46872578,-2757.61316035,451.126844228));
#31308=CARTESIAN_POINT('Control Point',(9405.31243792,-2757.20068056,451.089242578));
#31309=CARTESIAN_POINT('Control Point',(9405.234336,-2756.76947009,451.049933367));
#31310=CARTESIAN_POINT('Control Point',(9405.234336,-2756.33826375,451.010624532));
#31311=CARTESIAN_POINT('Control Point',(9407.85169157,-2757.08889336,473.810437981));
#31312=CARTESIAN_POINT('Control Point',(9407.422357150001,-2757.03394596,473.805041566));
#31313=CARTESIAN_POINT('Control Point',(9407.002975150001,-2756.90194543,473.79207772));
#31314=CARTESIAN_POINT('Control Point',(9406.61219992,-2756.69519504,473.771772649));
#31315=CARTESIAN_POINT('Control Point',(9405.923177369999,-2756.15088828,473.718315978));
#31316=CARTESIAN_POINT('Control Point',(9405.46860253,-2755.40134022,473.644702444));
#31317=CARTESIAN_POINT('Control Point',(9405.312396879999,-2754.98924183,473.604230032));
#31318=CARTESIAN_POINT('Control Point',(9405.234336,-2754.55844038,473.56192078));
#31319=CARTESIAN_POINT('Control Point',(9405.234336,-2754.12764305,473.519611933));
#31320=B_SPLINE_CURVE_WITH_KNOTS('',5,(#31321,#31322,#31323,#31324,#31325,#31326),.UNSPECIFIED.,.F.,.U.,(6,6),(0.,11.7033004764),.UNSPECIFIED.);
#31321=CARTESIAN_POINT('Control Point',(9407.85169892,-2757.10328673,473.663857187));
#31322=CARTESIAN_POINT('Control Point',(9406.99281281,-2756.99091979,473.677984066));
#31323=CARTESIAN_POINT('Control Point',(9406.17387224,-2756.56878852,473.682853752));
#31324=CARTESIAN_POINT('Control Point',(9405.546253889999,-2755.85459768,473.659943363));
#31325=CARTESIAN_POINT('Control Point',(9405.234336,-2754.98962347,473.604288478));
#31326=CARTESIAN_POINT('Control Point',(9405.234336,-2754.12765326,473.519507965));
#31327=CARTESIAN_POINT('Vertex',(9407.851698910001,-2757.10328681,473.663857209));
#31328=VERTEX_POINT('',#31327);
#31329=EDGE_CURVE('',#31328,#31045,#31320,.T.);
#31330=B_SPLINE_CURVE_WITH_KNOTS('',5,(#31331,#31332,#31333,#31334,#31335,#31336,#31337,#31338,#31339),.UNSPECIFIED.,.F.,.U.,(6,3,6),(71.7365418196,217.929860867,230.20119983),.UNSPECIFIED.);
#31331=CARTESIAN_POINT('Control Point',(9407.858067699999,-2766.19520004,360.80264779));
#31332=CARTESIAN_POINT('Control Point',(9407.85675752,-2764.87918821,381.692547559));
#31333=CARTESIAN_POINT('Control Point',(9407.85551128,-2763.39585176,402.551246755));
#31334=CARTESIAN_POINT('Control Point',(9407.85432575,-2761.74574941,423.379343212));
#31335=CARTESIAN_POINT('Control Point',(9407.85310722,-2759.77666044,445.926591664));
#31336=CARTESIAN_POINT('Control Point',(9407.85196226,-2757.61295311,468.435919115));
#31337=CARTESIAN_POINT('Control Point',(9407.85187404,-2757.44423093,470.178791594));
#31338=CARTESIAN_POINT('Control Point',(9407.85178626,-2757.27434204,471.921437719));
#31339=CARTESIAN_POINT('Control Point',(9407.85169892,-2757.10328673,473.663857187));
#31340=EDGE_CURVE('',#31238,#31328,#31330,.T.);
#31341=EDGE_LOOP('',(#31342,#31343,#31344,#31345));
#31342=ORIENTED_EDGE('',*,*,#31329,.F.);
#31343=ORIENTED_EDGE('',*,*,#31340,.F.);
#31344=ORIENTED_EDGE('',*,*,#31239,.T.);
#31345=ORIENTED_EDGE('',*,*,#31055,.T.);
#31346=FACE_OUTER_BOUND('',#31341,.T.);
#31347=ADVANCED_FACE('PartBody',(#31346),#31265,.F.);
#31348=B_SPLINE_SURFACE_WITH_KNOTS('',5,5,((#31349,#31350,#31351,#31352,#31353,#31354),(#31355,#31356,#31357,#31358,#31359,#31360),(#31361,#31362,#31363,#31364,#31365,#31366),(#31367,#31368,#31369,#31370,#31371,#31372),(#31373,#31374,#31375,#31376,#31377,#31378),(#31379,#31380,#31381,#31382,#31383,#31384),(#31385,#31386,#31387,#31388,#31389,#31390),(#31391,#31392,#31393,#31394,#31395,#31396),(#31397,#31398,#31399,#31400,#31401,#31402),(#31403,#31404,#31405,#31406,#31407,#31408),(#31409,#31410,#31411,#31412,#31413,#31414),(#31415,#31416,#31417,#31418,#31419,#31420)),.UNSPECIFIED.,.F.,.F.,.U.,(6,3,3,6),(6,6),(0.,2.05237495543,6.1571248663,10.1684252331),(-2.79,3.39336433734E-009),.UNSPECIFIED.);
#31349=CARTESIAN_POINT('Control Point',(9407.851658760001,-2757.10324659,473.663836911));
#31350=CARTESIAN_POINT('Control Point',(9407.78056553,-2757.65413918,473.717789069));
#31351=CARTESIAN_POINT('Control Point',(9407.70933184,-2758.20484909,473.771974077));
#31352=CARTESIAN_POINT('Control Point',(9407.638166569999,-2758.75566414,473.825983903));
#31353=CARTESIAN_POINT('Control Point',(9407.56707107,-2759.30651585,473.880136059));
#31354=CARTESIAN_POINT('Control Point',(9407.495778389999,-2759.85720073,473.934196651));
#31355=CARTESIAN_POINT('Control Point',(9407.678529229999,-2757.0808776,473.666713017));
#31356=CARTESIAN_POINT('Control Point',(9407.575390980001,-2757.62765055,473.721212974));
#31357=CARTESIAN_POINT('Control Point',(9407.47226488,-2758.17435089,473.776048784));
#31358=CARTESIAN_POINT('Control Point',(9407.368380329999,-2758.72051,473.830544129));
#31359=CARTESIAN_POINT('Control Point',(9407.265943070001,-2759.26790386,473.885187858));
#31360=CARTESIAN_POINT('Control Point',(9407.16204458,-2759.81401157,473.939753037));
#31361=CARTESIAN_POINT('Control Point',(9407.50612301,-2757.04484798,473.669233451));
#31362=CARTESIAN_POINT('Control Point',(9407.372590200001,-2757.58578304,473.729709417));
#31363=CARTESIAN_POINT('Control Point',(9407.236715450001,-2758.12580798,473.780349387));
#31364=CARTESIAN_POINT('Control Point',(9407.10044923,-2758.66472245,473.836563743));
#31365=CARTESIAN_POINT('Control Point',(9406.96784877,-2759.20756617,473.889182572));
#31366=CARTESIAN_POINT('Control Point',(9406.829447210001,-2759.74477592,473.942732794));
#31367=CARTESIAN_POINT('Control Point',(9407.33772763,-2756.99760455,473.671152872));
#31368=CARTESIAN_POINT('Control Point',(9407.171589469999,-2757.5285711,473.730502591));
#31369=CARTESIAN_POINT('Control Point',(9407.004857149999,-2758.060039,473.783211472));
#31370=CARTESIAN_POINT('Control Point',(9406.838456179999,-2758.59147034,473.837317862));
#31371=CARTESIAN_POINT('Control Point',(9406.671662889999,-2759.12283703,473.890220197));
#31372=CARTESIAN_POINT('Control Point',(9406.50494137,-2759.6540987,473.943345708));
#31373=CARTESIAN_POINT('Control Point',(9406.842836870001,-2756.81731623,473.675036728));
#31374=CARTESIAN_POINT('Control Point',(9406.5847514,-2757.31506703,473.734065265));
#31375=CARTESIAN_POINT('Control Point',(9406.326205650001,-2757.81331908,473.785610504));
#31376=CARTESIAN_POINT('Control Point',(9406.067795180001,-2758.31170748,473.836811224));
#31377=CARTESIAN_POINT('Control Point',(9405.8088995,-2758.80977386,473.887059537));
#31378=CARTESIAN_POINT('Control Point',(9405.550137120001,-2759.30782884,473.937367385));
#31379=CARTESIAN_POINT('Control Point',(9406.395700700001,-2756.5337501,473.671984313));
#31380=CARTESIAN_POINT('Control Point',(9406.053272220001,-2756.9784206,473.7236764));
#31381=CARTESIAN_POINT('Control Point',(9405.71163097,-2757.42423117,473.771886632));
#31382=CARTESIAN_POINT('Control Point',(9405.369783980001,-2757.87012226,473.817776396));
#31383=CARTESIAN_POINT('Control Point',(9405.02750299,-2758.31562733,473.863529143));
#31384=CARTESIAN_POINT('Control Point',(9404.687121999999,-2758.76306376,473.909169093));
#31385=CARTESIAN_POINT('Control Point',(9406.12658749,-2756.30152017,473.665980375));
#31386=CARTESIAN_POINT('Control Point',(9405.734993689999,-2756.70444642,473.712967564));
#31387=CARTESIAN_POINT('Control Point',(9405.34316421,-2757.10742754,473.755908382));
#31388=CARTESIAN_POINT('Control Point',(9404.951444939999,-2757.51072302,473.79801775));
#31389=CARTESIAN_POINT('Control Point',(9404.55940943,-2757.91353165,473.839248376));
#31390=CARTESIAN_POINT('Control Point',(9404.167385569999,-2758.31663987,473.880562508));
#31391=CARTESIAN_POINT('Control Point',(9405.67026549,-2755.77426652,473.645315583));
#31392=CARTESIAN_POINT('Control Point',(9405.193329940001,-2756.07969678,473.678335501));
#31393=CARTESIAN_POINT('Control Point',(9404.71651969,-2756.3851065,473.711689783));
#31394=CARTESIAN_POINT('Control Point',(9404.239322719999,-2756.69022431,473.743348416));
#31395=CARTESIAN_POINT('Control Point',(9403.76302538,-2756.9964346,473.775171463));
#31396=CARTESIAN_POINT('Control Point',(9403.28583816,-2757.30166655,473.806734991));
#31397=CARTESIAN_POINT('Control Point',(9405.37985682,-2755.1391678,473.605975196));
#31398=CARTESIAN_POINT('Control Point',(9404.849574239999,-2755.32792998,473.625301452));
#31399=CARTESIAN_POINT('Control Point',(9404.31861536,-2755.51574191,473.644711576));
#31400=CARTESIAN_POINT('Control Point',(9403.78805402,-2755.70403099,473.664530255));
#31401=CARTESIAN_POINT('Control Point',(9403.25709374,-2755.89181657,473.683704163));
#31402=CARTESIAN_POINT('Control Point',(9402.72543015,-2756.07873092,473.702993482));
#31403=CARTESIAN_POINT('Control Point',(9405.283704400001,-2754.80906848,473.581922702));
#31404=CARTESIAN_POINT('Control Point',(9404.7335171,-2754.934454,473.590716217));
#31405=CARTESIAN_POINT('Control Point',(9404.18499648,-2755.06121084,473.606547276));
#31406=CARTESIAN_POINT('Control Point',(9403.634912449999,-2755.18612151,473.618971234));
#31407=CARTESIAN_POINT('Control Point',(9403.08747568,-2755.3147196,473.632679277));
#31408=CARTESIAN_POINT('Control Point',(9402.539065630001,-2755.44146515,473.645871231));
#31409=CARTESIAN_POINT('Control Point',(9405.23385466,-2754.46703616,473.552890214));
#31410=CARTESIAN_POINT('Control Point',(9404.67560031,-2754.52995477,473.558994462));
#31411=CARTESIAN_POINT('Control Point',(9404.1167191,-2754.59204488,473.565072375));
#31412=CARTESIAN_POINT('Control Point',(9403.561137049999,-2754.65845614,473.571625386));
#31413=CARTESIAN_POINT('Control Point',(9402.999545459999,-2754.71698675,473.577416423));
#31414=CARTESIAN_POINT('Control Point',(9402.443814759999,-2754.7832018,473.583941899));
#31415=CARTESIAN_POINT('Control Point',(9405.23440381,-2754.12774175,473.519514635));
#31416=CARTESIAN_POINT('Control Point',(9404.67628501,-2754.12758923,473.519467628));
#31417=CARTESIAN_POINT('Control Point',(9404.11833078,-2754.12765725,473.519401242));
#31418=CARTESIAN_POINT('Control Point',(9403.56038692,-2754.12772206,473.519494167));
#31419=CARTESIAN_POINT('Control Point',(9403.002279169999,-2754.1275789,473.51949456));
#31420=CARTESIAN_POINT('Control Point',(9402.444390799999,-2754.12772458,473.519514704));
#31421=B_SPLINE_CURVE_WITH_KNOTS('',5,(#31422,#31423,#31424,#31425,#31426,#31427),.UNSPECIFIED.,.F.,.U.,(6,6),(0.,11.7035609039),.UNSPECIFIED.);
#31422=CARTESIAN_POINT('Control Point',(9407.495778389999,-2759.85720073,473.934196651));
#31423=CARTESIAN_POINT('Control Point',(9405.842492420001,-2759.64324568,473.961722463));
#31424=CARTESIAN_POINT('Control Point',(9404.253489500001,-2758.82572995,473.928063844));
#31425=CARTESIAN_POINT('Control Point',(9403.050614579999,-2757.46245009,473.82947184));
#31426=CARTESIAN_POINT('Control Point',(9402.442930409999,-2755.7894894,473.682850427));
#31427=CARTESIAN_POINT('Control Point',(9402.444390799999,-2754.12772458,473.519514704));
#31428=CARTESIAN_POINT('Vertex',(9407.495846420001,-2759.85726277,473.934200281));
#31429=VERTEX_POINT('',#31428);
#31430=EDGE_CURVE('',#31429,#31087,#31421,.T.);
#31431=B_SPLINE_CURVE_WITH_KNOTS('',5,(#31432,#31433,#31434,#31435,#31436,#31437),.UNSPECIFIED.,.F.,.U.,(6,6),(-2.78996345832,3.39336433734E-009),.UNSPECIFIED.);
#31432=CARTESIAN_POINT('Control Point',(9407.851654100001,-2757.10328267,473.663840444));
#31433=CARTESIAN_POINT('Control Point',(9407.780561789999,-2757.65416804,473.717791907));
#31434=CARTESIAN_POINT('Control Point',(9407.709329040001,-2758.20487073,473.771976199));
#31435=CARTESIAN_POINT('Control Point',(9407.638164710001,-2758.75567857,473.825985322));
#31436=CARTESIAN_POINT('Control Point',(9407.567070139999,-2759.30652307,473.880136767));
#31437=CARTESIAN_POINT('Control Point',(9407.495778389999,-2759.85720073,473.934196651));
#31438=EDGE_CURVE('',#31328,#31429,#31431,.T.);
#31439=EDGE_LOOP('',(#31440,#31441,#31442,#31443));
#31440=ORIENTED_EDGE('',*,*,#31430,.F.);
#31441=ORIENTED_EDGE('',*,*,#31438,.F.);
#31442=ORIENTED_EDGE('',*,*,#31329,.T.);
#31443=ORIENTED_EDGE('',*,*,#31093,.F.);
#31444=FACE_OUTER_BOUND('',#31439,.T.);
#31445=ADVANCED_FACE('PartBody',(#31444),#31348,.T.);
#31446=B_SPLINE_SURFACE_WITH_KNOTS('',5,5,((#31447,#31448,#31449,#31450,#31451,#31452,#31453,#31454,#31455),(#31456,#31457,#31458,#31459,#31460,#31461,#31462,#31463,#31464),(#31465,#31466,#31467,#31468,#31469,#31470,#31471,#31472,#31473),(#31474,#31475,#31476,#31477,#31478,#31479,#31480,#31481,#31482),(#31483,#31484,#31485,#31486,#31487,#31488,#31489,#31490,#31491),(#31492,#31493,#31494,#31495,#31496,#31497,#31498,#31499,#31500)),.UNSPECIFIED.,.F.,.F.,.U.,(6,6),(6,3,6),(71.7365489711,230.408137054),(0.,2.895,5.79),.UNSPECIFIED.);
#31447=CARTESIAN_POINT('Control Point',(9407.50813819,-2768.95769339,360.97665631));
#31448=CARTESIAN_POINT('Control Point',(9406.67806559,-2768.85296228,360.970059528));
#31449=CARTESIAN_POINT('Control Point',(9405.866937000001,-2768.59861478,360.954038737));
#31450=CARTESIAN_POINT('Control Point',(9405.11092585,-2768.1990506,360.928871067));
#31451=CARTESIAN_POINT('Control Point',(9403.777669999999,-2767.145728,360.86252459));
#31452=CARTESIAN_POINT('Control Point',(9402.8978147,-2765.69350596,360.771052313));
#31453=CARTESIAN_POINT('Control Point',(9402.595441130001,-2764.8948338,360.720745707));
#31454=CARTESIAN_POINT('Control Point',(9402.444336,-2764.05980108,360.66814883));
#31455=CARTESIAN_POINT('Control Point',(9402.444336,-2763.22477642,360.61555246));
#31456=CARTESIAN_POINT('Control Point',(9407.505393699999,-2767.52796751,383.668953636));
#31457=CARTESIAN_POINT('Control Point',(9406.675645679999,-2767.42292146,383.661600151));
#31458=CARTESIAN_POINT('Control Point',(9405.864900799999,-2767.168433,383.643780947));
#31459=CARTESIAN_POINT('Control Point',(9405.109294399999,-2766.76891295,383.615804809));
#31460=CARTESIAN_POINT('Control Point',(9403.77680641,-2765.71601983,383.542074432));
#31461=CARTESIAN_POINT('Control Point',(9402.89751472,-2764.26477517,383.440446195));
#31462=CARTESIAN_POINT('Control Point',(9402.595341239999,-2763.46669558,383.384557629));
#31463=CARTESIAN_POINT('Control Point',(9402.444336,-2762.6323076,383.326126251));
#31464=CARTESIAN_POINT('Control Point',(9402.444336,-2761.79792765,383.267695436));
#31465=CARTESIAN_POINT('Control Point',(9407.50279459,-2765.90097365,406.324470674));
#31466=CARTESIAN_POINT('Control Point',(9406.673354189999,-2765.79563892,406.316356284));
#31467=CARTESIAN_POINT('Control Point',(9405.862972790001,-2765.54103905,406.296737284));
#31468=CARTESIAN_POINT('Control Point',(9405.10774971,-2765.14159496,406.265954257));
#31469=CARTESIAN_POINT('Control Point',(9403.77598882,-2764.08919801,406.184848567));
#31470=CARTESIAN_POINT('Control Point',(9402.89723072,-2762.63900143,406.073081646));
#31471=CARTESIAN_POINT('Control Point',(9402.59524667,-2761.84155026,406.011621397));
#31472=CARTESIAN_POINT('Control Point',(9402.444336,-2761.0078431,405.94736662));
#31473=CARTESIAN_POINT('Control Point',(9402.444336,-2760.17414395,405.883112461));
#31474=CARTESIAN_POINT('Control Point',(9407.50033243,-2764.07731274,428.945373437));
#31475=CARTESIAN_POINT('Control Point',(9406.67118361,-2763.97171444,428.936494544));
#31476=CARTESIAN_POINT('Control Point',(9405.861146630001,-2763.71703187,428.915074768));
#31477=CARTESIAN_POINT('Control Point',(9405.106286689999,-2763.31769504,428.881486611));
#31478=CARTESIAN_POINT('Control Point',(9403.775214519999,-2762.26586051,428.793014136));
#31479=CARTESIAN_POINT('Control Point',(9402.89696177,-2760.81678332,428.671125074));
#31480=CARTESIAN_POINT('Control Point',(9402.59515712,-2760.01999691,428.604102922));
#31481=CARTESIAN_POINT('Control Point',(9402.444336,-2759.18700727,428.534035284));
#31482=CARTESIAN_POINT('Control Point',(9402.444336,-2758.35402561,428.463968319));
#31483=CARTESIAN_POINT('Control Point',(9407.498011080001,-2762.05765489,451.532268079));
#31484=CARTESIAN_POINT('Control Point',(9406.669137340001,-2761.95181861,451.522622224));
#31485=CARTESIAN_POINT('Control Point',(9405.85942515,-2761.69708226,451.499402278));
#31486=CARTESIAN_POINT('Control Point',(9405.1049076,-2761.29788399,451.463012743));
#31487=CARTESIAN_POINT('Control Point',(9403.774484699999,-2760.24667771,451.367186669));
#31488=CARTESIAN_POINT('Control Point',(9402.896708279999,-2758.7987901,451.235197696));
#31489=CARTESIAN_POINT('Control Point',(9402.595072710001,-2758.00270412,451.162626445));
#31490=CARTESIAN_POINT('Control Point',(9402.444336,-2757.17046792,451.086759599));
#31491=CARTESIAN_POINT('Control Point',(9402.444336,-2756.3382397,451.010893479));
#31492=CARTESIAN_POINT('Control Point',(9407.49583222,-2759.84282326,474.081241151));
#31493=CARTESIAN_POINT('Control Point',(9406.6672168,-2759.73677478,474.070826059));
#31494=CARTESIAN_POINT('Control Point',(9405.85780953,-2759.48201375,474.045805809));
#31495=CARTESIAN_POINT('Control Point',(9405.10361335,-2759.08298549,474.00661698));
#31496=CARTESIAN_POINT('Control Point',(9403.77379983,-2758.03247347,473.903445496));
#31497=CARTESIAN_POINT('Control Point',(9402.89647041,-2756.58584572,473.761371225));
#31498=CARTESIAN_POINT('Control Point',(9402.59499351,-2755.79049585,473.683259387));
#31499=CARTESIAN_POINT('Control Point',(9402.444336,-2754.95904905,473.601602446));
#31500=CARTESIAN_POINT('Control Point',(9402.444336,-2754.12761021,473.519946285));
#31501=B_SPLINE_CURVE_WITH_KNOTS('',5,(#31502,#31503,#31504,#31505,#31506,#31507,#31508,#31509,#31510),.UNSPECIFIED.,.F.,.U.,(6,3,6),(71.7365489885,217.929860867,230.20119983),.UNSPECIFIED.);
#31502=CARTESIAN_POINT('Control Point',(9407.50813819,-2768.95769338,360.976656322));
#31503=CARTESIAN_POINT('Control Point',(9407.505609530001,-2767.64040424,381.884382402));
#31504=CARTESIAN_POINT('Control Point',(9407.50320429,-2766.15565425,402.760885684));
#31505=CARTESIAN_POINT('Control Point',(9407.500916229999,-2764.50400233,423.606766203));
#31506=CARTESIAN_POINT('Control Point',(9407.498564449999,-2762.53308758,446.173255422));
#31507=CARTESIAN_POINT('Control Point',(9407.49635469,-2760.36739582,468.701798667));
#31508=CARTESIAN_POINT('Control Point',(9407.496184420001,-2760.19851901,470.446159129));
#31509=CARTESIAN_POINT('Control Point',(9407.496015000001,-2760.02847455,472.190293094));
#31510=CARTESIAN_POINT('Control Point',(9407.49584643,-2759.8572627,473.934200259));
#31511=EDGE_CURVE('',#31248,#31429,#31501,.T.);
#31512=EDGE_LOOP('',(#31513,#31514,#31515,#31516));
#31513=ORIENTED_EDGE('',*,*,#31123,.F.);
#31514=ORIENTED_EDGE('',*,*,#31257,.F.);
#31515=ORIENTED_EDGE('',*,*,#31511,.T.);
#31516=ORIENTED_EDGE('',*,*,#31430,.T.);
#31517=FACE_OUTER_BOUND('',#31512,.T.);
#31518=ADVANCED_FACE('PartBody',(#31517),#31446,.T.);
#31519=B_SPLINE_SURFACE_WITH_KNOTS('',5,4,((#31520,#31521,#31522,#31523,#31524),(#31525,#31526,#31527,#31528,#31529),(#31530,#31531,#31532,#31533,#31534),(#31535,#31536,#31537,#31538,#31539),(#31540,#31541,#31542,#31543,#31544),(#31545,#31546,#31547,#31548,#31549)),.UNSPECIFIED.,.F.,.F.,.U.,(6,6),(5,5),(-702.737760786,-591.155831474),(-1147.46087491,-1121.63013784),.UNSPECIFIED.);
#31520=CARTESIAN_POINT('Control Point',(9433.14980662,-2772.17182177,361.317101938));
#31521=CARTESIAN_POINT('Control Point',(9426.74584711,-2771.38360233,361.050135612));
#31522=CARTESIAN_POINT('Control Point',(9420.34219451,-2770.59342326,360.78257226));
#31523=CARTESIAN_POINT('Control Point',(9413.938848489999,-2769.8012869,360.514412628));
#31524=CARTESIAN_POINT('Control Point',(9407.535808750001,-2769.00719536,360.2456574));
#31525=CARTESIAN_POINT('Control Point',(9432.284171830001,-2770.63688076,384.141138419));
#31526=CARTESIAN_POINT('Control Point',(9425.88048596,-2769.8469349,383.873665458));
#31527=CARTESIAN_POINT('Control Point',(9419.47710727,-2769.05502725,383.605595027));
#31528=CARTESIAN_POINT('Control Point',(9413.07403539,-2768.2611603,383.336927897));
#31529=CARTESIAN_POINT('Control Point',(9406.67127001,-2767.46533633,383.067664774));
#31530=CARTESIAN_POINT('Control Point',(9431.449240669999,-2768.90590145,406.905542016));
#31531=CARTESIAN_POINT('Control Point',(9425.045809589999,-2768.11434451,406.637598055));
#31532=CARTESIAN_POINT('Control Point',(9418.64268585,-2767.32082434,406.369056313));
#31533=CARTESIAN_POINT('Control Point',(9412.23986906,-2766.52534297,406.099917768));
#31534=CARTESIAN_POINT('Control Point',(9405.83735887,-2765.727905,405.830183073));
#31535=CARTESIAN_POINT('Control Point',(9430.644717880001,-2766.98074813,429.610865778));
#31536=CARTESIAN_POINT('Control Point',(9424.241522869999,-2766.1876961,429.342486857));
#31537=CARTESIAN_POINT('Control Point',(9417.83863518,-2765.39268049,429.073510135));
#31538=CARTESIAN_POINT('Control Point',(9411.436054629999,-2764.59570459,428.80393648));
#31539=CARTESIAN_POINT('Control Point',(9405.03378082,-2763.79676981,428.53376644));
#31540=CARTESIAN_POINT('Control Point',(9429.870359910001,-2764.86296354,452.257567213));
#31541=CARTESIAN_POINT('Control Point',(9423.467382229999,-2764.06853489,451.988789628));
#31542=CARTESIAN_POINT('Control Point',(9417.06471205,-2763.2721425,451.719414169));
#31543=CARTESIAN_POINT('Control Point',(9410.662349030001,-2762.47378875,451.449441542));
#31544=CARTESIAN_POINT('Control Point',(9404.260292860001,-2761.67347581,451.178872394));
#31545=CARTESIAN_POINT('Control Point',(9429.12596168,-2762.55385092,474.846033501));
#31546=CARTESIAN_POINT('Control Point',(9422.72318284,-2761.75816335,474.576893329));
#31547=CARTESIAN_POINT('Control Point',(9416.320711599999,-2760.9605115,474.307155106));
#31548=CARTESIAN_POINT('Control Point',(9409.91854764,-2760.16089767,474.036819516));
#31549=CARTESIAN_POINT('Control Point',(9403.51669068,-2759.35932397,473.765887184));
#31550=B_SPLINE_CURVE_WITH_KNOTS('',3,(#31551,#31552,#31553,#31554),.UNSPECIFIED.,.F.,.U.,(4,4),(0.,21.4163677303),.UNSPECIFIED.);
#31551=CARTESIAN_POINT('Control Point',(9407.508130890001,-2768.95772715,360.976658457));
#31552=CARTESIAN_POINT('Control Point',(9410.400458329999,-2769.32617865,360.94366633));
#31553=CARTESIAN_POINT('Control Point',(9413.292826569999,-2769.69414047,360.910719581));
#31554=CARTESIAN_POINT('Control Point',(9416.18513824,-2770.06160011,360.877818708));
#31555=CARTESIAN_POINT('Vertex',(9416.18513824,-2770.06160011,360.877818708));
#31556=VERTEX_POINT('',#31555);
#31557=EDGE_CURVE('',#31248,#31556,#31550,.T.);
#31558=B_SPLINE_CURVE_WITH_KNOTS('',5,(#31559,#31560,#31561,#31562,#31563,#31564),.UNSPECIFIED.,.F.,.U.,(6,6),(0.,28.9198625474),.UNSPECIFIED.);
#31559=CARTESIAN_POINT('Control Point',(9416.18513824,-2770.06160011,360.877818708));
#31560=CARTESIAN_POINT('Control Point',(9420.24338528,-2770.57718838,360.831655008));
#31561=CARTESIAN_POINT('Control Point',(9424.33206418,-2770.99486981,362.39149511));
#31562=CARTESIAN_POINT('Control Point',(9427.653176440001,-2771.21478206,365.57411005));
#31563=CARTESIAN_POINT('Control Point',(9429.334000479999,-2771.1540248,369.779039244));
#31564=CARTESIAN_POINT('Control Point',(9429.33327108,-2770.87584781,373.960445544));
#31565=CARTESIAN_POINT('Vertex',(9429.33327108,-2770.87584781,373.960445544));
#31566=VERTEX_POINT('',#31565);
#31567=EDGE_CURVE('',#31556,#31566,#31558,.T.);
#31568=B_SPLINE_CURVE_WITH_KNOTS('',3,(#31569,#31570,#31571,#31572),.UNSPECIFIED.,.F.,.U.,(4,4),(0.,171.73580905),.UNSPECIFIED.);
#31569=CARTESIAN_POINT('Control Point',(9429.33327108,-2770.87584781,373.960445544));
#31570=CARTESIAN_POINT('Control Point',(9429.32819385,-2768.93951379,403.066373705));
#31571=CARTESIAN_POINT('Control Point',(9429.32352525,-2766.61463022,432.076885491));
#31572=CARTESIAN_POINT('Control Point',(9429.31924395,-2763.90572186,460.996575184));
#31573=CARTESIAN_POINT('Vertex',(9429.31924395,-2763.90572186,460.996575184));
#31574=VERTEX_POINT('',#31573);
#31575=EDGE_CURVE('',#31566,#31574,#31568,.T.);
#31576=B_SPLINE_CURVE_WITH_KNOTS('',5,(#31577,#31578,#31579,#31580,#31581,#31582,#31583,#31584,#31585,#31586,#31587,#31588),.UNSPECIFIED.,.F.,.U.,(6,3,3,6),(0.,7.38234078113,14.7884762078,28.0327874971),.UNSPECIFIED.);
#31577=CARTESIAN_POINT('Control Point',(9429.31924395,-2763.90572186,460.996575184));
#31578=CARTESIAN_POINT('Control Point',(9429.31908718,-2763.80652978,462.055527291));
#31579=CARTESIAN_POINT('Control Point',(9429.21108814,-2763.69316889,463.113587214));
#31580=CARTESIAN_POINT('Control Point',(9428.994795889999,-2763.56678633,464.157753607));
#31581=CARTESIAN_POINT('Control Point',(9428.350289309999,-2763.2917431,466.185222308));
#31582=CARTESIAN_POINT('Control Point',(9427.31125982,-2762.98202493,468.0289523));
#31583=CARTESIAN_POINT('Control Point',(9426.698184909999,-2762.8202715,468.893615318));
#31584=CARTESIAN_POINT('Control Point',(9424.758272229999,-2762.35830998,471.101835015));
#31585=CARTESIAN_POINT('Control Point',(9422.25935506,-2761.88295606,472.68532065));
#31586=CARTESIAN_POINT('Control Point',(9420.500122089999,-2761.58829604,473.383755609));
#31587=CARTESIAN_POINT('Control Point',(9418.65041049,-2761.31424456,473.750267849));
#31588=CARTESIAN_POINT('Control Point',(9416.792908130001,-2761.07191137,473.780860917));
#31589=CARTESIAN_POINT('Vertex',(9416.792908130001,-2761.07191137,473.780860917));
#31590=VERTEX_POINT('',#31589);
#31591=EDGE_CURVE('',#31574,#31590,#31576,.T.);
#31592=B_SPLINE_CURVE_WITH_KNOTS('',3,(#31593,#31594,#31595,#31596),.UNSPECIFIED.,.F.,.U.,(4,4),(0.,20.9441931594),.UNSPECIFIED.);
#31593=CARTESIAN_POINT('Control Point',(9407.495846420001,-2759.85726277,473.934200281));
#31594=CARTESIAN_POINT('Control Point',(9410.5952487,-2760.2627744,473.883008822));
#31595=CARTESIAN_POINT('Control Point',(9413.69429945,-2760.66766114,473.83189501));
#31596=CARTESIAN_POINT('Control Point',(9416.792908130001,-2761.07191137,473.780860917));
#31597=EDGE_CURVE('',#31429,#31590,#31592,.T.);
#31598=EDGE_LOOP('',(#31599,#31600,#31601,#31602,#31603,#31604));
#31599=ORIENTED_EDGE('',*,*,#31511,.F.);
#31600=ORIENTED_EDGE('',*,*,#31557,.T.);
#31601=ORIENTED_EDGE('',*,*,#31567,.T.);
#31602=ORIENTED_EDGE('',*,*,#31575,.T.);
#31603=ORIENTED_EDGE('',*,*,#31591,.T.);
#31604=ORIENTED_EDGE('',*,*,#31597,.F.);
#31605=FACE_OUTER_BOUND('',#31598,.T.);
#31606=ADVANCED_FACE('PartBody',(#31605),#31519,.T.);
#31607=B_SPLINE_SURFACE_WITH_KNOTS('',5,1,((#31608,#31609),(#31610,#31611),(#31612,#31613),(#31614,#31615),(#31616,#31617),(#31618,#31619),(#31620,#31621),(#31622,#31623),(#31624,#31625),(#31626,#31627),(#31628,#31629),(#31630,#31631),(#31632,#31633),(#31634,#31635),(#31636,#31637)),.UNSPECIFIED.,.F.,.F.,.U.,(6,3,3,3,6),(2,2),(0.,5.93825487025,9.89774961522,13.8594093937,19.8136367477),(-2.79,1.9701243652E-014),.UNSPECIFIED.);
#31608=CARTESIAN_POINT('Control Point',(9429.672199230001,-2761.15019494,460.738517132));
#31609=CARTESIAN_POINT('Control Point',(9429.31924395,-2763.90572186,460.996575184));
#31610=CARTESIAN_POINT('Control Point',(9429.67207864,-2761.03746039,461.942124253));
#31611=CARTESIAN_POINT('Control Point',(9429.31906561,-2763.7928835,462.201211804));
#31612=CARTESIAN_POINT('Control Point',(9429.53241645,-2760.90639333,463.144569878));
#31613=CARTESIAN_POINT('Control Point',(9429.179331290001,-2763.66170965,463.404693943));
#31614=CARTESIAN_POINT('Control Point',(9429.252560589999,-2760.75852762,464.328369813));
#31615=CARTESIAN_POINT('Control Point',(9428.8993897,-2763.51373563,464.589522426));
#31616=CARTESIAN_POINT('Control Point',(9428.557966689999,-2760.48932778,466.222958937));
#31617=CARTESIAN_POINT('Control Point',(9428.20463301,-2763.24435708,466.485771606));
#31618=CARTESIAN_POINT('Control Point',(9427.52246765,-2760.19299919,467.929408603));
#31619=CARTESIAN_POINT('Control Point',(9427.168944769999,-2762.94785876,468.193739522));
#31620=CARTESIAN_POINT('Control Point',(9427.054267240001,-2760.07050211,468.578944904));
#31621=CARTESIAN_POINT('Control Point',(9426.700664649999,-2762.82529554,468.843857874));
#31622=CARTESIAN_POINT('Control Point',(9426.02953372,-2759.82224353,469.790384871));
#31623=CARTESIAN_POINT('Control Point',(9425.675766660001,-2762.57691044,470.056391896));
#31624=CARTESIAN_POINT('Control Point',(9424.82531527,-2759.56678659,470.831182603));
#31625=CARTESIAN_POINT('Control Point',(9424.471373140001,-2762.32133827,471.098147693));
#31626=CARTESIAN_POINT('Control Point',(9424.187466380001,-2759.43931952,471.300074893));
#31627=CARTESIAN_POINT('Control Point',(9423.83343542,-2762.19381739,471.567476937));
#31628=CARTESIAN_POINT('Control Point',(9422.505870679999,-2759.12149187,472.345759368));
#31629=CARTESIAN_POINT('Control Point',(9422.151614529999,-2761.87586465,472.614150374));
#31630=CARTESIAN_POINT('Control Point',(9420.658093489999,-2758.81534744,473.046208009));
#31631=CARTESIAN_POINT('Control Point',(9420.30361103,-2761.56962246,473.315301916));
#31632=CARTESIAN_POINT('Control Point',(9419.506324620001,-2758.6386498,473.336765917));
#31633=CARTESIAN_POINT('Control Point',(9419.151707929999,-2761.39287689,473.606173034));
#31634=CARTESIAN_POINT('Control Point',(9418.32862962,-2758.47179263,473.491804346));
#31635=CARTESIAN_POINT('Control Point',(9417.97388232,-2761.22598344,473.761410269));
#31636=CARTESIAN_POINT('Control Point',(9417.14778003,-2758.31774474,473.511171942));
#31637=CARTESIAN_POINT('Control Point',(9416.792908130001,-2761.07191137,473.780860917));
#31638=B_SPLINE_CURVE_WITH_KNOTS('',1,(#31639,#31640),.UNSPECIFIED.,.F.,.U.,(2,2),(-2.79,-6.49706454259E-014),.UNSPECIFIED.);
#31639=CARTESIAN_POINT('Control Point',(9429.672199230001,-2761.15019494,460.738517132));
#31640=CARTESIAN_POINT('Control Point',(9429.31924395,-2763.90572186,460.996575184));
#31641=CARTESIAN_POINT('Vertex',(9429.672199230001,-2761.15019494,460.738517132));
#31642=VERTEX_POINT('',#31641);
#31643=EDGE_CURVE('',#31642,#31574,#31638,.T.);
#31644=B_SPLINE_CURVE_WITH_KNOTS('',5,(#31645,#31646,#31647,#31648,#31649,#31650,#31651,#31652,#31653,#31654,#31655,#31656,#31657,#31658,#31659),.UNSPECIFIED.,.F.,.U.,(6,3,3,3,6),(0.,7.38277599639,14.7899312087,19.7622249097,28.0327732037),.UNSPECIFIED.);
#31645=CARTESIAN_POINT('Control Point',(9429.672199230001,-2761.15019494,460.738517132));
#31646=CARTESIAN_POINT('Control Point',(9429.672093220001,-2761.05108827,461.79662662));
#31647=CARTESIAN_POINT('Control Point',(9429.56414334,-2760.93781343,462.853838453));
#31648=CARTESIAN_POINT('Control Point',(9429.34806009,-2760.81157205,463.896787494));
#31649=CARTESIAN_POINT('Control Point',(9428.703291780001,-2760.53657537,465.923421307));
#31650=CARTESIAN_POINT('Control Point',(9427.664610739999,-2760.22711519,467.764909905));
#31651=CARTESIAN_POINT('Control Point',(9427.05106059,-2760.06530547,468.629526526));
#31652=CARTESIAN_POINT('Control Point',(9425.888702599999,-2759.78860915,469.951583969));
#31653=CARTESIAN_POINT('Control Point',(9424.52468386,-2759.50691527,471.050034963));
#31654=CARTESIAN_POINT('Control Point',(9423.94938136,-2759.39406901,471.450761534));
#31655=CARTESIAN_POINT('Control Point',(9422.34686621,-2759.09474311,472.410214104));
#31656=CARTESIAN_POINT('Control Point',(9420.598430419999,-2758.80621513,473.061044451));
#31657=CARTESIAN_POINT('Control Point',(9419.4643655,-2758.63270919,473.342246468));
#31658=CARTESIAN_POINT('Control Point',(9418.307594370001,-2758.46904848,473.492149354));
#31659=CARTESIAN_POINT('Control Point',(9417.14778003,-2758.31774474,473.511171942));
#31660=CARTESIAN_POINT('Vertex',(9417.14778003,-2758.31774474,473.511171942));
#31661=VERTEX_POINT('',#31660);
#31662=EDGE_CURVE('',#31642,#31661,#31644,.T.);
#31663=B_SPLINE_CURVE_WITH_KNOTS('',1,(#31664,#31665),.UNSPECIFIED.,.F.,.U.,(2,2),(-2.79,1.9701243652E-014),.UNSPECIFIED.);
#31664=CARTESIAN_POINT('Control Point',(9417.14778003,-2758.31774474,473.511171942));
#31665=CARTESIAN_POINT('Control Point',(9416.792908130001,-2761.07191137,473.780860917));
#31666=EDGE_CURVE('',#31661,#31590,#31663,.T.);
#31667=EDGE_LOOP('',(#31668,#31669,#31670,#31671));
#31668=ORIENTED_EDGE('',*,*,#31591,.F.);
#31669=ORIENTED_EDGE('',*,*,#31643,.F.);
#31670=ORIENTED_EDGE('',*,*,#31662,.T.);
#31671=ORIENTED_EDGE('',*,*,#31666,.T.);
#31672=FACE_OUTER_BOUND('',#31667,.T.);
#31673=ADVANCED_FACE('PartBody',(#31672),#31607,.T.);
#31674=B_SPLINE_SURFACE_WITH_KNOTS('',5,4,((#31675,#31676,#31677,#31678,#31679),(#31680,#31681,#31682,#31683,#31684),(#31685,#31686,#31687,#31688,#31689),(#31690,#31691,#31692,#31693,#31694),(#31695,#31696,#31697,#31698,#31699),(#31700,#31701,#31702,#31703,#31704)),.UNSPECIFIED.,.F.,.F.,.U.,(6,6),(5,5),(-702.737982598,-591.155831474),(-1147.46090621,-1121.63013786),.UNSPECIFIED.);
#31675=CARTESIAN_POINT('Control Point',(9433.49711147,-2769.4089252,361.14423806));
#31676=CARTESIAN_POINT('Control Point',(9427.09379904,-2768.62079874,360.877085585));
#31677=CARTESIAN_POINT('Control Point',(9420.69079302,-2767.83071284,360.609335794));
#31678=CARTESIAN_POINT('Control Point',(9414.28809312,-2767.03866982,360.340989455));
#31679=CARTESIAN_POINT('Control Point',(9407.885699050001,-2766.24467181,360.072047271));
#31680=CARTESIAN_POINT('Control Point',(9432.632891499999,-2767.87538368,383.948748953));
#31681=CARTESIAN_POINT('Control Point',(9426.22985396,-2767.08553198,383.681100733));
#31682=CARTESIAN_POINT('Control Point',(9419.827123040001,-2766.29371865,383.41285487));
#31683=CARTESIAN_POINT('Control Point',(9413.424698430001,-2765.49994619,383.144012142));
#31684=CARTESIAN_POINT('Control Point',(9407.02257983,-2764.70421688,382.874573261));
#31685=CARTESIAN_POINT('Control Point',(9431.79930413,-2766.14596533,406.693693444));
#31686=CARTESIAN_POINT('Control Point',(9425.396522249999,-2765.35450273,406.425585444));
#31687=CARTESIAN_POINT('Control Point',(9418.99404707,-2764.56107745,406.156879475));
#31688=CARTESIAN_POINT('Control Point',(9412.59187832,-2763.76569263,405.887576598));
#31689=CARTESIAN_POINT('Control Point',(9406.190015759999,-2762.96834949,405.617677538));
#31690=CARTESIAN_POINT('Control Point',(9430.99605301,-2764.22253186,429.379616154));
#31691=CARTESIAN_POINT('Control Point',(9424.59350778,-2763.42957553,429.11108452));
#31692=CARTESIAN_POINT('Control Point',(9418.19126938,-2762.63465614,428.841955018));
#31693=CARTESIAN_POINT('Control Point',(9411.789337509999,-2761.83777588,428.572228475));
#31694=CARTESIAN_POINT('Control Point',(9405.38771194,-2761.03893727,428.301905471));
#31695=CARTESIAN_POINT('Control Point',(9430.22289397,-2762.10662583,452.006967402));
#31696=CARTESIAN_POINT('Control Point',(9423.820566660001,-2761.31229329,451.738048609));
#31697=CARTESIAN_POINT('Control Point',(9417.41854633,-2760.51599716,451.468531872));
#31698=CARTESIAN_POINT('Control Point',(9411.01683266,-2759.71773982,451.198417888));
#31699=CARTESIAN_POINT('Control Point',(9404.615425370001,-2758.91752347,450.927707296));
#31700=CARTESIAN_POINT('Control Point',(9429.47962181,-2759.79954955,474.576128918));
#31701=CARTESIAN_POINT('Control Point',(9423.077493950001,-2759.00395827,474.306859119));
#31702=CARTESIAN_POINT('Control Point',(9416.67567318,-2758.20640287,474.036991194));
#31703=CARTESIAN_POINT('Control Point',(9410.27415922,-2757.40688565,473.766525815));
#31704=CARTESIAN_POINT('Control Point',(9403.87295178,-2756.60540873,473.495463601));
#31705=B_SPLINE_CURVE_WITH_KNOTS('',3,(#31706,#31707,#31708,#31709),.UNSPECIFIED.,.F.,.U.,(4,4),(0.,20.9441931579),.UNSPECIFIED.);
#31706=CARTESIAN_POINT('Control Point',(9407.851698910001,-2757.10328681,473.663857209));
#31707=CARTESIAN_POINT('Control Point',(9410.950774389999,-2757.50873479,473.612883901));
#31708=CARTESIAN_POINT('Control Point',(9414.04949827,-2757.91355798,473.561988123));
#31709=CARTESIAN_POINT('Control Point',(9417.14778003,-2758.31774474,473.511171942));
#31710=EDGE_CURVE('',#31328,#31661,#31705,.T.);
#31711=B_SPLINE_CURVE_WITH_KNOTS('',3,(#31712,#31713,#31714,#31715),.UNSPECIFIED.,.F.,.U.,(4,4),(0.,171.73580905),.UNSPECIFIED.);
#31712=CARTESIAN_POINT('Control Point',(9429.68166264,-2768.11378684,373.776754312));
#31713=CARTESIAN_POINT('Control Point',(9429.678240839999,-2766.17931585,402.857808664));
#31714=CARTESIAN_POINT('Control Point',(9429.67509436,-2763.85661114,431.843542589));
#31715=CARTESIAN_POINT('Control Point',(9429.672199230001,-2761.15019494,460.738517132));
#31716=CARTESIAN_POINT('Vertex',(9429.68166264,-2768.11378684,373.776754312));
#31717=VERTEX_POINT('',#31716);
#31718=EDGE_CURVE('',#31717,#31642,#31711,.T.);
#31719=B_SPLINE_CURVE_WITH_KNOTS('',5,(#31720,#31721,#31722,#31723,#31724,#31725),.UNSPECIFIED.,.F.,.U.,(6,6),(0.,28.918871863),.UNSPECIFIED.);
#31720=CARTESIAN_POINT('Control Point',(9416.5341527,-2767.29895018,360.704457021));
#31721=CARTESIAN_POINT('Control Point',(9420.591833729999,-2767.81444786,360.658597447));
#31722=CARTESIAN_POINT('Control Point',(9424.679551310001,-2768.23212347,362.216614596));
#31723=CARTESIAN_POINT('Control Point',(9428.002104540001,-2768.45226686,365.398391235));
#31724=CARTESIAN_POINT('Control Point',(9429.682154210001,-2768.39168665,369.599064542));
#31725=CARTESIAN_POINT('Control Point',(9429.68166264,-2768.11378684,373.776754312));
#31726=CARTESIAN_POINT('Vertex',(9416.5341527,-2767.29895018,360.704457021));
#31727=VERTEX_POINT('',#31726);
#31728=EDGE_CURVE('',#31727,#31717,#31719,.T.);
#31729=B_SPLINE_CURVE_WITH_KNOTS('',3,(#31730,#31731,#31732,#31733),.UNSPECIFIED.,.F.,.U.,(4,4),(0.,21.4163670855),.UNSPECIFIED.);
#31730=CARTESIAN_POINT('Control Point',(9407.85805966,-2766.19523356,360.802649829));
#31731=CARTESIAN_POINT('Control Point',(9410.750082529999,-2766.56363289,360.769873465));
#31732=CARTESIAN_POINT('Control Point',(9413.642145759999,-2766.93154256,360.73714237));
#31733=CARTESIAN_POINT('Control Point',(9416.5341527,-2767.29895018,360.704457021));
#31734=EDGE_CURVE('',#31238,#31727,#31729,.T.);
#31735=EDGE_LOOP('',(#31736,#31737,#31738,#31739,#31740,#31741));
#31736=ORIENTED_EDGE('',*,*,#31710,.T.);
#31737=ORIENTED_EDGE('',*,*,#31662,.F.);
#31738=ORIENTED_EDGE('',*,*,#31718,.F.);
#31739=ORIENTED_EDGE('',*,*,#31728,.F.);
#31740=ORIENTED_EDGE('',*,*,#31734,.F.);
#31741=ORIENTED_EDGE('',*,*,#31340,.T.);
#31742=FACE_OUTER_BOUND('',#31735,.T.);
#31743=ADVANCED_FACE('PartBody',(#31742),#31674,.F.);
#31744=B_SPLINE_SURFACE_WITH_KNOTS('',5,1,((#31745,#31746),(#31747,#31748),(#31749,#31750),(#31751,#31752),(#31753,#31754),(#31755,#31756),(#31757,#31758),(#31759,#31760),(#31761,#31762),(#31763,#31764),(#31765,#31766),(#31767,#31768),(#31769,#31770),(#31771,#31772),(#31773,#31774),(#31775,#31776),(#31777,#31778),(#31779,#31780)),.UNSPECIFIED.,.F.,.F.,.U.,(6,3,3,3,3,6),(2,2),(0.,6.12710975205,10.2123101718,14.3020459437,18.3911221761,20.4350490368),(-2.79,9.77819078316E-014),.UNSPECIFIED.);
#31745=CARTESIAN_POINT('Control Point',(9416.5341527,-2767.29895018,360.704457021));
#31746=CARTESIAN_POINT('Control Point',(9416.18513824,-2770.06160011,360.877818708));
#31747=CARTESIAN_POINT('Control Point',(9417.74996691,-2767.45341017,360.690715989));
#31748=CARTESIAN_POINT('Control Point',(9417.40108039,-2770.21608196,360.863987025));
#31749=CARTESIAN_POINT('Control Point',(9418.96755578,-2767.59898101,360.821048475));
#31750=CARTESIAN_POINT('Control Point',(9418.618789009999,-2770.36166587,360.994351871));
#31751=CARTESIAN_POINT('Control Point',(9420.17068628,-2767.73363023,361.095552396));
#31752=CARTESIAN_POINT('Control Point',(9419.82202935,-2770.49631914,361.269012367));
#31753=CARTESIAN_POINT('Control Point',(9422.10641237,-2767.93425441,361.790035481));
#31754=CARTESIAN_POINT('Control Point',(9421.75791749,-2770.69693438,361.963963659));
#31755=CARTESIAN_POINT('Control Point',(9423.867038369999,-2768.08965696,362.845442571));
#31756=CARTESIAN_POINT('Control Point',(9423.518666399999,-2770.85230266,363.020159191));
#31757=CARTESIAN_POINT('Control Point',(9424.540494749999,-2768.14419456,363.325531107));
#31758=CARTESIAN_POINT('Control Point',(9424.192165390001,-2770.90682241,363.500614683));
#31759=CARTESIAN_POINT('Control Point',(9425.80224992,-2768.23615789,364.383034547));
#31760=CARTESIAN_POINT('Control Point',(9425.45399131,-2770.99874244,364.558940887));
#31761=CARTESIAN_POINT('Control Point',(9426.8947202,-2768.29364996,365.638749203));
#31762=CARTESIAN_POINT('Control Point',(9426.546503359999,-2771.05617568,365.815658976));
#31763=CARTESIAN_POINT('Control Point',(9427.38832493,-2768.31301273,366.307162624));
#31764=CARTESIAN_POINT('Control Point',(9427.04012118,-2771.07550549,366.48461225));
#31765=CARTESIAN_POINT('Control Point',(9428.26848201,-2768.33309251,367.718556518));
#31766=CARTESIAN_POINT('Control Point',(9427.920289059999,-2771.09551257,367.897156624));
#31767=CARTESIAN_POINT('Control Point',(9428.91868746,-2768.31503326,369.25900437));
#31768=CARTESIAN_POINT('Control Point',(9428.57047411,-2771.07736791,369.438880293));
#31769=CARTESIAN_POINT('Control Point',(9429.18206639,-2768.29642506,370.053389294));
#31770=CARTESIAN_POINT('Control Point',(9428.83383507,-2771.05871423,370.233927788));
#31771=CARTESIAN_POINT('Control Point',(9429.481597350001,-2768.25382557,371.279552099));
#31772=CARTESIAN_POINT('Control Point',(9429.13332723,-2771.01604237,371.461120189));
#31773=CARTESIAN_POINT('Control Point',(9429.631550869999,-2768.19058838,372.523835271));
#31774=CARTESIAN_POINT('Control Point',(9429.283225429999,-2770.95272858,372.70645805));
#31775=CARTESIAN_POINT('Control Point',(9429.66503375,-2768.16716733,372.941543491));
#31776=CARTESIAN_POINT('Control Point',(9429.316688000001,-2770.92928147,373.12452141));
#31777=CARTESIAN_POINT('Control Point',(9429.68171178,-2768.14156396,373.35917864));
#31778=CARTESIAN_POINT('Control Point',(9429.333343980001,-2770.90365169,373.542512708));
#31779=CARTESIAN_POINT('Control Point',(9429.68166264,-2768.11378684,373.776754312));
#31780=CARTESIAN_POINT('Control Point',(9429.33327108,-2770.87584781,373.960445544));
#31781=B_SPLINE_CURVE_WITH_KNOTS('',1,(#31782,#31783),.UNSPECIFIED.,.F.,.U.,(2,2),(-2.79,-3.77365733187E-014),.UNSPECIFIED.);
#31782=CARTESIAN_POINT('Control Point',(9416.5341527,-2767.29895018,360.704457021));
#31783=CARTESIAN_POINT('Control Point',(9416.18513824,-2770.06160011,360.877818708));
#31784=EDGE_CURVE('',#31727,#31556,#31781,.T.);
#31785=B_SPLINE_CURVE_WITH_KNOTS('',1,(#31786,#31787),.UNSPECIFIED.,.F.,.U.,(2,2),(-2.79,9.77819078316E-014),.UNSPECIFIED.);
#31786=CARTESIAN_POINT('Control Point',(9429.68166264,-2768.11378684,373.776754312));
#31787=CARTESIAN_POINT('Control Point',(9429.33327108,-2770.87584781,373.960445544));
#31788=EDGE_CURVE('',#31717,#31566,#31785,.T.);
#31789=EDGE_LOOP('',(#31790,#31791,#31792,#31793));
#31790=ORIENTED_EDGE('',*,*,#31567,.F.);
#31791=ORIENTED_EDGE('',*,*,#31784,.F.);
#31792=ORIENTED_EDGE('',*,*,#31728,.T.);
#31793=ORIENTED_EDGE('',*,*,#31788,.T.);
#31794=FACE_OUTER_BOUND('',#31789,.T.);
#31795=ADVANCED_FACE('PartBody',(#31794),#31744,.T.);
#31796=B_SPLINE_SURFACE_WITH_KNOTS('',5,1,((#31797,#31798),(#31799,#31800),(#31801,#31802),(#31803,#31804),(#31805,#31806),(#31807,#31808)),.UNSPECIFIED.,.F.,.F.,.U.,(6,6),(2,2),(0.,148.956926211),(-2.79,9.77819078316E-014),.UNSPECIFIED.);
#31797=CARTESIAN_POINT('Control Point',(9429.68166264,-2768.11378684,373.776754312));
#31798=CARTESIAN_POINT('Control Point',(9429.33327108,-2770.87584781,373.960445544));
#31799=CARTESIAN_POINT('Control Point',(9429.67961006,-2766.95338481,391.221169205));
#31800=CARTESIAN_POINT('Control Point',(9429.33022548,-2769.71432823,391.419781114));
#31801=CARTESIAN_POINT('Control Point',(9429.6776469,-2765.6763748,408.639087687));
#31802=CARTESIAN_POINT('Control Point',(9429.32730911,-2768.43610573,408.852593037));
#31803=CARTESIAN_POINT('Control Point',(9429.67575541,-2764.2832976,426.030586197));
#31804=CARTESIAN_POINT('Control Point',(9429.324504619999,-2767.04172156,426.258961239));
#31805=CARTESIAN_POINT('Control Point',(9429.673936749999,-2762.77445985,443.397099707));
#31806=CARTESIAN_POINT('Control Point',(9429.321813389999,-2765.53148244,443.640324878));
#31807=CARTESIAN_POINT('Control Point',(9429.672199230001,-2761.15019494,460.738517132));
#31808=CARTESIAN_POINT('Control Point',(9429.31924395,-2763.90572186,460.996575184));
#31809=EDGE_LOOP('',(#31810,#31811,#31812,#31813));
#31810=ORIENTED_EDGE('',*,*,#31575,.F.);
#31811=ORIENTED_EDGE('',*,*,#31788,.F.);
#31812=ORIENTED_EDGE('',*,*,#31718,.T.);
#31813=ORIENTED_EDGE('',*,*,#31643,.T.);
#31814=FACE_OUTER_BOUND('',#31809,.T.);
#31815=ADVANCED_FACE('PartBody',(#31814),#31796,.T.);
#31816=B_SPLINE_SURFACE_WITH_KNOTS('',5,1,((#31817,#31818),(#31819,#31820),(#31821,#31822),(#31823,#31824),(#31825,#31826),(#31827,#31828)),.UNSPECIFIED.,.F.,.F.,.U.,(6,6),(2,2),(0.,18.7287939783),(-2.79,1.9701243652E-014),.UNSPECIFIED.);
#31817=CARTESIAN_POINT('Control Point',(9407.851698910001,-2757.10328681,473.663857209));
#31818=CARTESIAN_POINT('Control Point',(9407.495846420001,-2759.85726277,473.934200281));
#31819=CARTESIAN_POINT('Control Point',(9409.711215249999,-2757.34656489,473.633272056));
#31820=CARTESIAN_POINT('Control Point',(9409.35555885,-2760.10057904,473.903484232));
#31821=CARTESIAN_POINT('Control Point',(9411.570595540001,-2757.58965153,473.602710665));
#31822=CARTESIAN_POINT('Control Point',(9411.21513524,-2760.34370384,473.872791982));
#31823=CARTESIAN_POINT('Control Point',(9413.429822960001,-2757.83254454,473.572173371));
#31824=CARTESIAN_POINT('Control Point',(9413.07455879,-2760.58663499,473.842123868));
#31825=CARTESIAN_POINT('Control Point',(9415.28888652,-2758.07524254,473.541660411));
#31826=CARTESIAN_POINT('Control Point',(9414.93381848,-2760.82937109,473.811480128));
#31827=CARTESIAN_POINT('Control Point',(9417.14778003,-2758.31774474,473.511171942));
#31828=CARTESIAN_POINT('Control Point',(9416.792908130001,-2761.07191137,473.780860917));
#31829=EDGE_LOOP('',(#31830,#31831,#31832,#31833));
#31830=ORIENTED_EDGE('',*,*,#31597,.T.);
#31831=ORIENTED_EDGE('',*,*,#31666,.F.);
#31832=ORIENTED_EDGE('',*,*,#31710,.F.);
#31833=ORIENTED_EDGE('',*,*,#31438,.T.);
#31834=FACE_OUTER_BOUND('',#31829,.T.);
#31835=ADVANCED_FACE('PartBody',(#31834),#31816,.F.);
#31836=B_SPLINE_SURFACE_WITH_KNOTS('',5,1,((#31837,#31838),(#31839,#31840),(#31841,#31842),(#31843,#31844),(#31845,#31846),(#31847,#31848)),.UNSPECIFIED.,.F.,.F.,.U.,(6,6),(2,2),(0.,19.5496229913),(-2.79,1.72409652437E-005),.UNSPECIFIED.);
#31837=CARTESIAN_POINT('Control Point',(9407.858061819999,-2766.19521649,360.802648754));
#31838=CARTESIAN_POINT('Control Point',(9407.50813131,-2768.9577272,360.976658452));
#31839=CARTESIAN_POINT('Control Point',(9409.59328331,-2766.41626055,360.782983059));
#31840=CARTESIAN_POINT('Control Point',(9409.24353553,-2769.17880256,360.956863298));
#31841=CARTESIAN_POINT('Control Point',(9411.32851365,-2766.63715729,360.763330974));
#31842=CARTESIAN_POINT('Control Point',(9410.97894863,-2769.39973059,360.937081789));
#31843=CARTESIAN_POINT('Control Point',(9413.063743389999,-2766.85790551,360.743692558));
#31844=CARTESIAN_POINT('Control Point',(9412.71436115,-2769.62051006,360.917313984));
#31845=CARTESIAN_POINT('Control Point',(9414.798961029999,-2767.07850372,360.724067879));
#31846=CARTESIAN_POINT('Control Point',(9414.44976159,-2769.84113951,360.897559952));
#31847=CARTESIAN_POINT('Control Point',(9416.5341527,-2767.29895018,360.704457021));
#31848=CARTESIAN_POINT('Control Point',(9416.18513609,-2770.06161718,360.877819779));
#31849=EDGE_LOOP('',(#31850,#31851,#31852,#31853));
#31850=ORIENTED_EDGE('',*,*,#31557,.F.);
#31851=ORIENTED_EDGE('',*,*,#31249,.F.);
#31852=ORIENTED_EDGE('',*,*,#31734,.T.);
#31853=ORIENTED_EDGE('',*,*,#31784,.T.);
#31854=FACE_OUTER_BOUND('',#31849,.T.);
#31855=ADVANCED_FACE('PartBody',(#31854),#31836,.T.);
#31856=ADVANCED_BREP_SHAPE_REPRESENTATION('NONE',(#30671),#29519);

#31857=APPLICATION_CONTEXT('automotive_design');
#31858=APPLICATION_PROTOCOL_DEFINITION('international standard','automotive_design',2010,#31857);
#31859=PRODUCT_CONTEXT('',#31857,'mechanical');
#31860=PRODUCT_DEFINITION_CONTEXT('part definition',#31857,'design');
#31861=PRODUCT('part_015_V5311446920200','part_015_V5311446920200','',(#31859));
#31862=PRODUCT_DEFINITION_FORMATION('','',#31861);
#31863=PRODUCT_DEFINITION('design','',#31862,#31860);
#31864=PRODUCT_DEFINITION_SHAPE('','',#31863);
#31865=SHAPE_DEFINITION_REPRESENTATION(#31864,#31856);
ENDSEC;
END-ISO-10303-21;
