ISO-10303-21;
HEADER;
FILE_DESCRIPTION(('CATIA V5 STEP Exchange','CAx-IF Rec.Pracs.--- Model Styling and Organization---1.4--- 2014-01-23'),'2;1');

FILE_NAME('C:\\Users\\SA516207\\WORK\\01_ASSY\\3_Catia\\ECHELLE\\ECHELLE.stp','2026-09-22T12:18:05+00:00',('none'),('none'),'CATIA Version 5-6 Release 2017 SP2 HF26','CATIA V5 STEP AP203 WITH EXTENSIONS','none');

FILE_SCHEMA(('CONFIG_CONTROL_DESIGN','SHAPE_APPEARANCE_LAYER_MIM'));

ENDSEC;
DATA;
#46=(LENGTH_UNIT()NAMED_UNIT(*)SI_UNIT(.MILLI.,.METRE.));
#47=(NAMED_UNIT(*)PLANE_ANGLE_UNIT()SI_UNIT($,.RADIAN.));
#48=(NAMED_UNIT(*)SI_UNIT($,.STERADIAN.)SOLID_ANGLE_UNIT());
#173667=UNCERTAINTY_MEASURE_WITH_UNIT(LENGTH_MEASURE(0.005),#46,'distance_accuracy_value','CONFUSED CURVE UNCERTAINTY');
#173668=(GEOMETRIC_REPRESENTATION_CONTEXT(3)GLOBAL_UNCERTAINTY_ASSIGNED_CONTEXT((#173667))GLOBAL_UNIT_ASSIGNED_CONTEXT((#46,#47,#48))REPRESENTATION_CONTEXT(' ',' '));
#174004=MANIFOLD_SOLID_BREP('PartBody',#174006);
#174006=CLOSED_SHELL('Closed Shell',(#174046,#174077,#174108,#174139,#174170,#174207,#174231,#174259,#174276,#174307,#174338,#174369,#174400,#174431,#174462,#174493,#174524,#174555,#174586,#174617,#174648,#174690,#174707,#174731,#174748,#174782,#174799,#174811));
#174007=CARTESIAN_POINT('Axis2P3D Location',(9399,-2705.88876076,55.7920206789));
#174008=DIRECTION('Axis2P3D Direction',(0,0.9806576393390577,-0.1957309234790115));
#174009=DIRECTION('Axis2P3D XDirection',(1,0,0));
#174010=AXIS2_PLACEMENT_3D('Plane Axis2P3D',#174007,#174008,#174009);
#174011=PLANE('',#174010);
#174012=CARTESIAN_POINT('Line Origine',(9397.646000000001,-2706.7668486,51.3925955626));
#174013=DIRECTION('Vector Direction',(-1,0,0));
#174014=VECTOR('Line Direction',#174013,1.);
#174015=LINE('Line',#174012,#174014);
#174016=CARTESIAN_POINT('Vertex',(9399,-2706.7668486,51.3925955626));
#174017=VERTEX_POINT('',#174016);
#174018=CARTESIAN_POINT('Vertex',(9396.291999999999,-2706.7668486,51.3925955626));
#174019=VERTEX_POINT('',#174018);
#174020=EDGE_CURVE('',#174017,#174019,#174015,.T.);
#174021=CARTESIAN_POINT('Line Origine',(9399,-2705.88876076,55.7920206789));
#174022=DIRECTION('Vector Direction',(0,0.1957309234790115,0.9806576393390577));
#174023=VECTOR('Line Direction',#174022,1.);
#174024=LINE('Line',#174021,#174023);
#174025=CARTESIAN_POINT('Vertex',(9399,-2705.01067293,60.1914457951));
#174026=VERTEX_POINT('',#174025);
#174027=EDGE_CURVE('',#174017,#174026,#174024,.T.);
#174028=CARTESIAN_POINT('Line Origine',(9397.646000000001,-2705.01067293,60.1914457951));
#174029=DIRECTION('Vector Direction',(-1,0,0));
#174030=VECTOR('Line Direction',#174029,1.);
#174031=LINE('Line',#174028,#174030);
#174032=CARTESIAN_POINT('Vertex',(9396.291999999999,-2705.01067293,60.1914457951));
#174033=VERTEX_POINT('',#174032);
#174034=EDGE_CURVE('',#174033,#174026,#174031,.F.);
#174035=CARTESIAN_POINT('Line Origine',(9396.291999999999,-2705.88876076,55.7920206789));
#174036=DIRECTION('Vector Direction',(0,0.1957309234790115,0.9806576393390577));
#174037=VECTOR('Line Direction',#174036,1.);
#174038=LINE('Line',#174035,#174037);
#174039=EDGE_CURVE('',#174019,#174033,#174038,.T.);
#174040=EDGE_LOOP('',(#174041,#174042,#174043,#174044));
#174041=ORIENTED_EDGE('',*,*,#174020,.F.);
#174042=ORIENTED_EDGE('',*,*,#174027,.T.);
#174043=ORIENTED_EDGE('',*,*,#174034,.F.);
#174044=ORIENTED_EDGE('',*,*,#174039,.F.);
#174045=FACE_OUTER_BOUND('',#174040,.T.);
#174046=ADVANCED_FACE('PartBody',(#174045),#174011,.F.);
#174047=CARTESIAN_POINT('Axis2P3D Location',(9399,-2693.03764165,48.6523626339));
#174048=DIRECTION('Axis2P3D Direction',(-1,0,0));
#174049=DIRECTION('Axis2P3D XDirection',(0,0.9800274814893799,0.1988621017830771));
#174050=AXIS2_PLACEMENT_3D('Cylinder Axis2P3D',#174047,#174048,#174049);
#174051=CYLINDRICAL_SURFACE('generated cylinder',#174050,14.);
#174052=CARTESIAN_POINT('Line Origine',(9397.646000000001,-2704.61288467,40.7774817477));
#174053=DIRECTION('Vector Direction',(-1,0,0));
#174054=VECTOR('Line Direction',#174053,1.);
#174055=LINE('Line',#174052,#174054);
#174056=CARTESIAN_POINT('Vertex',(9399,-2704.61288467,40.7774817477));
#174057=VERTEX_POINT('',#174056);
#174058=CARTESIAN_POINT('Vertex',(9396.291999999999,-2704.61288467,40.7774817477));
#174059=VERTEX_POINT('',#174058);
#174060=EDGE_CURVE('',#174057,#174059,#174055,.T.);
#174061=CARTESIAN_POINT('Axis2P3D Location',(9399,-2693.03764165,48.6523626339));
#174062=DIRECTION('Axis2P3D Direction',(-1,0,0));
#174063=AXIS2_PLACEMENT_3D('Circle Axis2P3D',#174061,#174062,$);
#174064=CIRCLE('generated circle',#174063,14.);
#174065=EDGE_CURVE('',#174057,#174017,#174064,.T.);
#174066=CARTESIAN_POINT('Axis2P3D Location',(9396.291999999999,-2693.03764165,48.6523626339));
#174067=DIRECTION('Axis2P3D Direction',(-1,0,0));
#174068=AXIS2_PLACEMENT_3D('Circle Axis2P3D',#174066,#174067,$);
#174069=CIRCLE('generated circle',#174068,14.);
#174070=EDGE_CURVE('',#174059,#174019,#174069,.T.);
#174071=EDGE_LOOP('',(#174072,#174073,#174074,#174075));
#174072=ORIENTED_EDGE('',*,*,#174060,.F.);
#174073=ORIENTED_EDGE('',*,*,#174065,.T.);
#174074=ORIENTED_EDGE('',*,*,#174020,.T.);
#174075=ORIENTED_EDGE('',*,*,#174070,.F.);
#174076=FACE_OUTER_BOUND('',#174071,.T.);
#174077=ADVANCED_FACE('PartBody',(#174076),#174051,.T.);
#174078=CARTESIAN_POINT('Axis2P3D Location',(9399,-2697.44111815,30.2357425665));
#174079=DIRECTION('Axis2P3D Direction',(0,-0.8268030730303659,-0.5624914918712489));
#174080=DIRECTION('Axis2P3D XDirection',(1,0,0));
#174081=AXIS2_PLACEMENT_3D('Plane Axis2P3D',#174078,#174079,#174080);
#174082=PLANE('',#174081);
#174083=CARTESIAN_POINT('Line Origine',(9397.646000000001,-2690.26935163,19.6940033854));
#174084=DIRECTION('Vector Direction',(-1,0,0));
#174085=VECTOR('Line Direction',#174084,1.);
#174086=LINE('Line',#174083,#174085);
#174087=CARTESIAN_POINT('Vertex',(9399,-2690.26935163,19.6940033854));
#174088=VERTEX_POINT('',#174087);
#174089=CARTESIAN_POINT('Vertex',(9396.291999999999,-2690.26935163,19.6940033854));
#174090=VERTEX_POINT('',#174089);
#174091=EDGE_CURVE('',#174088,#174090,#174086,.T.);
#174092=CARTESIAN_POINT('Line Origine',(9399,-2697.44111815,30.2357425665));
#174093=DIRECTION('Vector Direction',(0,-0.5624914918712489,0.8268030730303659));
#174094=VECTOR('Line Direction',#174093,1.);
#174095=LINE('Line',#174092,#174094);
#174096=EDGE_CURVE('',#174088,#174057,#174095,.T.);
#174097=CARTESIAN_POINT('Line Origine',(9396.291999999999,-2697.44111815,30.2357425665));
#174098=DIRECTION('Vector Direction',(0,-0.5624914918712489,0.8268030730303659));
#174099=VECTOR('Line Direction',#174098,1.);
#174100=LINE('Line',#174097,#174099);
#174101=EDGE_CURVE('',#174090,#174059,#174100,.T.);
#174102=EDGE_LOOP('',(#174103,#174104,#174105,#174106));
#174103=ORIENTED_EDGE('',*,*,#174091,.F.);
#174104=ORIENTED_EDGE('',*,*,#174096,.T.);
#174105=ORIENTED_EDGE('',*,*,#174060,.T.);
#174106=ORIENTED_EDGE('',*,*,#174101,.F.);
#174107=FACE_OUTER_BOUND('',#174102,.T.);
#174108=ADVANCED_FACE('PartBody',(#174107),#174082,.T.);
#174109=CARTESIAN_POINT('Axis2P3D Location',(9399,-2678.6941086,27.5688842716));
#174110=DIRECTION('Axis2P3D Direction',(-1,0,0));
#174111=DIRECTION('Axis2P3D XDirection',(0,0.1957309234790115,0.9806576393390577));
#174112=AXIS2_PLACEMENT_3D('Cylinder Axis2P3D',#174109,#174110,#174111);
#174113=CYLINDRICAL_SURFACE('generated cylinder',#174112,14.);
#174114=CARTESIAN_POINT('Line Origine',(9397.646000000001,-2671.02886288,15.8537654896));
#174115=DIRECTION('Vector Direction',(-1,0,0));
#174116=VECTOR('Line Direction',#174115,1.);
#174117=LINE('Line',#174114,#174116);
#174118=CARTESIAN_POINT('Vertex',(9399,-2671.02886288,15.8537654896));
#174119=VERTEX_POINT('',#174118);
#174120=CARTESIAN_POINT('Vertex',(9396.291999999999,-2671.02886288,15.8537654896));
#174121=VERTEX_POINT('',#174120);
#174122=EDGE_CURVE('',#174119,#174121,#174117,.T.);
#174123=CARTESIAN_POINT('Axis2P3D Location',(9399,-2678.6941086,27.5688842716));
#174124=DIRECTION('Axis2P3D Direction',(-1,0,0));
#174125=AXIS2_PLACEMENT_3D('Circle Axis2P3D',#174123,#174124,$);
#174126=CIRCLE('generated circle',#174125,14.);
#174127=EDGE_CURVE('',#174119,#174088,#174126,.T.);
#174128=CARTESIAN_POINT('Axis2P3D Location',(9396.291999999999,-2678.6941086,27.5688842716));
#174129=DIRECTION('Axis2P3D Direction',(-1,0,0));
#174130=AXIS2_PLACEMENT_3D('Circle Axis2P3D',#174128,#174129,$);
#174131=CIRCLE('generated circle',#174130,14.);
#174132=EDGE_CURVE('',#174121,#174090,#174131,.T.);
#174133=EDGE_LOOP('',(#174134,#174135,#174136,#174137));
#174134=ORIENTED_EDGE('',*,*,#174122,.F.);
#174135=ORIENTED_EDGE('',*,*,#174127,.T.);
#174136=ORIENTED_EDGE('',*,*,#174091,.T.);
#174137=ORIENTED_EDGE('',*,*,#174132,.F.);
#174138=FACE_OUTER_BOUND('',#174133,.T.);
#174139=ADVANCED_FACE('PartBody',(#174138),#174113,.T.);
#174140=CARTESIAN_POINT('Axis2P3D Location',(9399,-2660.35973685,22.8346142688));
#174141=DIRECTION('Axis2P3D Direction',(0,0.5475175513121531,-0.836794198716234));
#174142=DIRECTION('Axis2P3D XDirection',(1,0,0));
#174143=AXIS2_PLACEMENT_3D('Plane Axis2P3D',#174140,#174141,#174142);
#174144=PLANE('',#174143);
#174145=CARTESIAN_POINT('Line Origine',(9397.646000000001,-2649.69061082,29.815463048));
#174146=DIRECTION('Vector Direction',(-1,0,0));
#174147=VECTOR('Line Direction',#174146,1.);
#174148=LINE('Line',#174145,#174147);
#174149=CARTESIAN_POINT('Vertex',(9399,-2649.69061082,29.815463048));
#174150=VERTEX_POINT('',#174149);
#174151=CARTESIAN_POINT('Vertex',(9396.291999999999,-2649.69061082,29.815463048));
#174152=VERTEX_POINT('',#174151);
#174153=EDGE_CURVE('',#174150,#174152,#174148,.T.);
#174154=CARTESIAN_POINT('Line Origine',(9399,-2660.35973685,22.8346142688));
#174155=DIRECTION('Vector Direction',(0,-0.836794198716234,-0.5475175513121531));
#174156=VECTOR('Line Direction',#174155,1.);
#174157=LINE('Line',#174154,#174156);
#174158=EDGE_CURVE('',#174150,#174119,#174157,.T.);
#174159=CARTESIAN_POINT('Line Origine',(9396.291999999999,-2660.35973685,22.8346142688));
#174160=DIRECTION('Vector Direction',(0,-0.836794198716234,-0.5475175513121531));
#174161=VECTOR('Line Direction',#174160,1.);
#174162=LINE('Line',#174159,#174161);
#174163=EDGE_CURVE('',#174152,#174121,#174162,.T.);
#174164=EDGE_LOOP('',(#174165,#174166,#174167,#174168));
#174165=ORIENTED_EDGE('',*,*,#174153,.F.);
#174166=ORIENTED_EDGE('',*,*,#174158,.T.);
#174167=ORIENTED_EDGE('',*,*,#174122,.T.);
#174168=ORIENTED_EDGE('',*,*,#174163,.F.);
#174169=FACE_OUTER_BOUND('',#174164,.T.);
#174170=ADVANCED_FACE('PartBody',(#174169),#174144,.T.);
#174171=CARTESIAN_POINT('Axis2P3D Location',(9396.291999999999,-2675.83466564,41.8953613228));
#174172=DIRECTION('Axis2P3D Direction',(-1,0,0));
#174173=DIRECTION('Axis2P3D XDirection',(0,0.9806576393390577,-0.1957309234790115));
#174174=AXIS2_PLACEMENT_3D('Plane Axis2P3D',#174171,#174172,#174173);
#174175=PLANE('',#174174);
#174176=CARTESIAN_POINT('Line Origine',(9396.291999999999,-2673.44057343,53.8903224645));
#174177=DIRECTION('Vector Direction',(0,0.9806576393390577,-0.1957309234790115));
#174178=VECTOR('Line Direction',#174177,1.);
#174179=LINE('Line',#174176,#174178);
#174180=CARTESIAN_POINT('Vertex',(9396.291999999999,-2641.87047392,47.5891991339));
#174181=VERTEX_POINT('',#174180);
#174182=EDGE_CURVE('',#174033,#174181,#174179,.T.);
#174183=CARTESIAN_POINT('Line Origine',(9396.291999999999,-2645.86735797,27.5638765621));
#174184=DIRECTION('Vector Direction',(0,-0.1957309234790115,-0.9806576393390577));
#174185=VECTOR('Line Direction',#174184,1.);
#174186=LINE('Line',#174183,#174185);
#174187=CARTESIAN_POINT('Vertex',(9396.291999999999,-2643.62664958,38.7903489014));
#174188=VERTEX_POINT('',#174187);
#174189=EDGE_CURVE('',#174181,#174188,#174186,.T.);
#174190=B_SPLINE_CURVE_WITH_KNOTS('',4,(#174191,#174192,#174193,#174194,#174195),.UNSPECIFIED.,.F.,.U.,(5,5),(0.,11.1215840559),.UNSPECIFIED.);
#174191=CARTESIAN_POINT('Control Point',(9396.291999999999,-2643.62664958,38.7903489014));
#174192=CARTESIAN_POINT('Control Point',(9396.291999999999,-2644.17085906,36.0637323099));
#174193=CARTESIAN_POINT('Control Point',(9396.291999999999,-2645.43862619,33.4785994432));
#174194=CARTESIAN_POINT('Control Point',(9396.291999999999,-2647.36399156,31.3377786653));
#174195=CARTESIAN_POINT('Control Point',(9396.291999999999,-2649.69061082,29.815463048));
#174196=EDGE_CURVE('',#174188,#174152,#174190,.T.);
#174197=EDGE_LOOP('',(#174198,#174199,#174200,#174201,#174202,#174203,#174204,#174205));
#174198=ORIENTED_EDGE('',*,*,#174182,.T.);
#174199=ORIENTED_EDGE('',*,*,#174189,.T.);
#174200=ORIENTED_EDGE('',*,*,#174196,.T.);
#174201=ORIENTED_EDGE('',*,*,#174163,.T.);
#174202=ORIENTED_EDGE('',*,*,#174132,.T.);
#174203=ORIENTED_EDGE('',*,*,#174101,.T.);
#174204=ORIENTED_EDGE('',*,*,#174070,.T.);
#174205=ORIENTED_EDGE('',*,*,#174039,.T.);
#174206=FACE_OUTER_BOUND('',#174197,.T.);
#174207=ADVANCED_FACE('PartBody',(#174206),#174175,.T.);
#174208=CARTESIAN_POINT('Axis2P3D Location',(9399,-2657.35585654,41.5305818301));
#174209=DIRECTION('Axis2P3D Direction',(-1,0,0));
#174210=DIRECTION('Axis2P3D XDirection',(0,-0.8285954284481624,0.5598478507191097));
#174211=AXIS2_PLACEMENT_3D('Cylinder Axis2P3D',#174208,#174209,#174210);
#174212=CYLINDRICAL_SURFACE('generated cylinder',#174211,14.);
#174213=CARTESIAN_POINT('Line Origine',(9397.646000000001,-2643.62664958,38.7903489014));
#174214=DIRECTION('Vector Direction',(-1,0,0));
#174215=VECTOR('Line Direction',#174214,1.);
#174216=LINE('Line',#174213,#174215);
#174217=CARTESIAN_POINT('Vertex',(9399,-2643.62664958,38.7903489014));
#174218=VERTEX_POINT('',#174217);
#174219=EDGE_CURVE('',#174218,#174188,#174216,.T.);
#174220=CARTESIAN_POINT('Axis2P3D Location',(9399,-2657.35585654,41.5305818301));
#174221=DIRECTION('Axis2P3D Direction',(-1,0,0));
#174222=AXIS2_PLACEMENT_3D('Circle Axis2P3D',#174220,#174221,$);
#174223=CIRCLE('generated circle',#174222,14.);
#174224=EDGE_CURVE('',#174218,#174150,#174223,.T.);
#174225=EDGE_LOOP('',(#174226,#174227,#174228,#174229));
#174226=ORIENTED_EDGE('',*,*,#174219,.F.);
#174227=ORIENTED_EDGE('',*,*,#174224,.T.);
#174228=ORIENTED_EDGE('',*,*,#174153,.T.);
#174229=ORIENTED_EDGE('',*,*,#174196,.F.);
#174230=FACE_OUTER_BOUND('',#174225,.T.);
#174231=ADVANCED_FACE('PartBody',(#174230),#174212,.T.);
#174232=CARTESIAN_POINT('Axis2P3D Location',(9399,-2675.83466564,41.8953613228));
#174233=DIRECTION('Axis2P3D Direction',(-1,0,0));
#174234=DIRECTION('Axis2P3D XDirection',(0,0.9806576393390577,-0.1957309234790115));
#174235=AXIS2_PLACEMENT_3D('Plane Axis2P3D',#174232,#174233,#174234);
#174236=PLANE('',#174235);
#174237=CARTESIAN_POINT('Line Origine',(9399,-2642.74856175,43.1897740177));
#174238=DIRECTION('Vector Direction',(0,-0.1957309234790115,-0.9806576393390577));
#174239=VECTOR('Line Direction',#174238,1.);
#174240=LINE('Line',#174237,#174239);
#174241=CARTESIAN_POINT('Vertex',(9399,-2641.87047392,47.5891991339));
#174242=VERTEX_POINT('',#174241);
#174243=EDGE_CURVE('',#174242,#174218,#174240,.T.);
#174244=CARTESIAN_POINT('Line Origine',(9399,-2673.44057343,53.8903224645));
#174245=DIRECTION('Vector Direction',(0,0.9806576393390577,-0.1957309234790115));
#174246=VECTOR('Line Direction',#174245,1.);
#174247=LINE('Line',#174244,#174246);
#174248=EDGE_CURVE('',#174242,#174026,#174247,.F.);
#174249=EDGE_LOOP('',(#174250,#174251,#174252,#174253,#174254,#174255,#174256,#174257));
#174250=ORIENTED_EDGE('',*,*,#174027,.F.);
#174251=ORIENTED_EDGE('',*,*,#174065,.F.);
#174252=ORIENTED_EDGE('',*,*,#174096,.F.);
#174253=ORIENTED_EDGE('',*,*,#174127,.F.);
#174254=ORIENTED_EDGE('',*,*,#174158,.F.);
#174255=ORIENTED_EDGE('',*,*,#174224,.F.);
#174256=ORIENTED_EDGE('',*,*,#174243,.F.);
#174257=ORIENTED_EDGE('',*,*,#174248,.T.);
#174258=FACE_OUTER_BOUND('',#174249,.T.);
#174259=ADVANCED_FACE('PartBody',(#174258),#174236,.F.);
#174260=CARTESIAN_POINT('Axis2P3D Location',(9399,-2642.74856175,43.1897740177));
#174261=DIRECTION('Axis2P3D Direction',(0,-0.9806576393390577,0.1957309234790115));
#174262=DIRECTION('Axis2P3D XDirection',(1,0,0));
#174263=AXIS2_PLACEMENT_3D('Plane Axis2P3D',#174260,#174261,#174262);
#174264=PLANE('',#174263);
#174265=CARTESIAN_POINT('Line Origine',(9397.646000000001,-2641.87047392,47.5891991339));
#174266=DIRECTION('Vector Direction',(-1,0,0));
#174267=VECTOR('Line Direction',#174266,1.);
#174268=LINE('Line',#174265,#174267);
#174269=EDGE_CURVE('',#174242,#174181,#174268,.T.);
#174270=EDGE_LOOP('',(#174271,#174272,#174273,#174274));
#174271=ORIENTED_EDGE('',*,*,#174269,.F.);
#174272=ORIENTED_EDGE('',*,*,#174243,.T.);
#174273=ORIENTED_EDGE('',*,*,#174219,.T.);
#174274=ORIENTED_EDGE('',*,*,#174189,.F.);
#174275=FACE_OUTER_BOUND('',#174270,.T.);
#174276=ADVANCED_FACE('PartBody',(#174275),#174264,.F.);
#174277=CARTESIAN_POINT('Axis2P3D Location',(9386.14349692,-2640.74768484,53.2146346445));
#174278=DIRECTION('Axis2P3D Direction',(2.530961551450149e-14,0.9806576393390577,-0.1957309234790115));
#174279=DIRECTION('Axis2P3D XDirection',(0.9993530993301365,-0.007039194991800961,-0.03526801090390481));
#174280=AXIS2_PLACEMENT_3D('Plane Axis2P3D',#174277,#174278,#174279);
#174281=PLANE('',#174280);
#174282=CARTESIAN_POINT('Line Origine',(9391.52051292,-2640.62760417,53.8162668724));
#174283=DIRECTION('Vector Direction',(0.03596363245361264,0.1956043050130687,0.9800232512553445));
#174284=VECTOR('Line Direction',#174283,1.);
#174285=LINE('Line',#174282,#174284);
#174286=CARTESIAN_POINT('Vertex',(9391.47181816,-2640.89245239,52.4893153902));
#174287=VERTEX_POINT('',#174286);
#174288=CARTESIAN_POINT('Vertex',(9391.569207680001,-2640.36275594,55.1432183546));
#174289=VERTEX_POINT('',#174288);
#174290=EDGE_CURVE('',#174287,#174289,#174285,.T.);
#174291=CARTESIAN_POINT('Axis2P3D Location',(9391.291999999999,-2641.87047392,47.5891991339));
#174292=DIRECTION('Axis2P3D Direction',(2.530961551450149e-14,0.9806576393390577,-0.1957309234790115));
#174293=AXIS2_PLACEMENT_3D('Circle Axis2P3D',#174291,#174292,$);
#174294=CIRCLE('generated circle',#174293,7.708);
#174295=EDGE_CURVE('',#174289,#174242,#174294,.T.);
#174296=CARTESIAN_POINT('Axis2P3D Location',(9391.291999999999,-2641.87047392,47.5891991339));
#174297=DIRECTION('Axis2P3D Direction',(2.530961551450149e-14,0.9806576393390577,-0.1957309234790115));
#174298=AXIS2_PLACEMENT_3D('Circle Axis2P3D',#174296,#174297,$);
#174299=CIRCLE('generated circle',#174298,5.);
#174300=EDGE_CURVE('',#174287,#174181,#174299,.T.);
#174301=EDGE_LOOP('',(#174302,#174303,#174304,#174305));
#174302=ORIENTED_EDGE('',*,*,#174290,.T.);
#174303=ORIENTED_EDGE('',*,*,#174295,.T.);
#174304=ORIENTED_EDGE('',*,*,#174269,.T.);
#174305=ORIENTED_EDGE('',*,*,#174300,.F.);
#174306=FACE_OUTER_BOUND('',#174301,.T.);
#174307=ADVANCED_FACE('PartBody',(#174306),#174281,.T.);
#174308=CARTESIAN_POINT('Axis2P3D Location',(9389.438388209999,-2640.34774697,55.2184167648));
#174309=DIRECTION('Axis2P3D Direction',(-7.820914055270461e-14,0.9806576393390577,-0.1957309234790115));
#174310=DIRECTION('Axis2P3D XDirection',(1,7.66963911491e-14,-1.53079473049e-14));
#174311=AXIS2_PLACEMENT_3D('Plane Axis2P3D',#174308,#174309,#174310);
#174312=PLANE('',#174311);
#174313=CARTESIAN_POINT('Line Origine',(9389.340998690001,-2640.87744343,52.5645138004));
#174314=DIRECTION('Vector Direction',(-0.9993530993301374,0.007039194991680967,0.03526801090390485));
#174315=VECTOR('Line Direction',#174314,1.);
#174316=LINE('Line',#174313,#174315);
#174317=CARTESIAN_POINT('Vertex',(9387.210179219999,-2640.86243447,52.6397122107));
#174318=VERTEX_POINT('',#174317);
#174319=EDGE_CURVE('',#174287,#174318,#174316,.T.);
#174320=CARTESIAN_POINT('Line Origine',(9387.258873979999,-2640.59758624,53.9666636929));
#174321=DIRECTION('Vector Direction',(0.03596363245361264,0.1956043050130687,0.9800232512553445));
#174322=VECTOR('Line Direction',#174321,1.);
#174323=LINE('Line',#174320,#174322);
#174324=CARTESIAN_POINT('Vertex',(9387.30756874,-2640.33273801,55.2936151751));
#174325=VERTEX_POINT('',#174324);
#174326=EDGE_CURVE('',#174318,#174325,#174323,.T.);
#174327=CARTESIAN_POINT('Line Origine',(9389.438388209999,-2640.34774697,55.2184167648));
#174328=DIRECTION('Vector Direction',(-0.9993530993301374,0.007039194991680967,0.03526801090390485));
#174329=VECTOR('Line Direction',#174328,1.);
#174330=LINE('Line',#174327,#174329);
#174331=EDGE_CURVE('',#174289,#174325,#174330,.T.);
#174332=EDGE_LOOP('',(#174333,#174334,#174335,#174336));
#174333=ORIENTED_EDGE('',*,*,#174319,.T.);
#174334=ORIENTED_EDGE('',*,*,#174326,.T.);
#174335=ORIENTED_EDGE('',*,*,#174331,.F.);
#174336=ORIENTED_EDGE('',*,*,#174290,.F.);
#174337=FACE_OUTER_BOUND('',#174332,.T.);
#174338=ADVANCED_FACE('PartBody',(#174337),#174312,.T.);
#174339=CARTESIAN_POINT('Axis2P3D Location',(9387.30756874,-2651.11997204,57.4466553333));
#174340=DIRECTION('Axis2P3D Direction',(0.03596363245351276,0.1956043050130694,0.9800232512553479));
#174341=DIRECTION('Axis2P3D XDirection',(0.3392947929291,-0.9247973153652727,0.1721306741530508));
#174342=AXIS2_PLACEMENT_3D('Cylinder Axis2P3D',#174339,#174340,#174341);
#174343=CYLINDRICAL_SURFACE('generated cylinder',#174342,11.);
#174344=CARTESIAN_POINT('Line Origine',(9380.237772639999,-2643.03502125,54.7108063319));
#174345=DIRECTION('Vector Direction',(0.0359636324537125,0.195604305013068,0.9800232512553407));
#174346=VECTOR('Line Direction',#174345,1.);
#174347=LINE('Line',#174344,#174346);
#174348=CARTESIAN_POINT('Vertex',(9380.189077880001,-2643.29986948,53.3838548497));
#174349=VERTEX_POINT('',#174348);
#174350=CARTESIAN_POINT('Vertex',(9380.286467399999,-2642.77017302,56.0377578139));
#174351=VERTEX_POINT('',#174350);
#174352=EDGE_CURVE('',#174349,#174351,#174347,.T.);
#174353=CARTESIAN_POINT('Axis2P3D Location',(9387.30756874,-2651.11997204,57.4466553333));
#174354=DIRECTION('Axis2P3D Direction',(0.03596363245351276,0.1956043050130694,0.9800232512553479));
#174355=AXIS2_PLACEMENT_3D('Circle Axis2P3D',#174353,#174354,$);
#174356=CIRCLE('generated circle',#174355,11.);
#174357=EDGE_CURVE('',#174351,#174325,#174356,.F.);
#174358=CARTESIAN_POINT('Axis2P3D Location',(9387.210179219999,-2651.6496685,54.7927523689));
#174359=DIRECTION('Axis2P3D Direction',(0.03596363245351276,0.1956043050130694,0.9800232512553479));
#174360=AXIS2_PLACEMENT_3D('Circle Axis2P3D',#174358,#174359,$);
#174361=CIRCLE('generated circle',#174360,11.);
#174362=EDGE_CURVE('',#174349,#174318,#174361,.F.);
#174363=EDGE_LOOP('',(#174364,#174365,#174366,#174367));
#174364=ORIENTED_EDGE('',*,*,#174352,.T.);
#174365=ORIENTED_EDGE('',*,*,#174357,.T.);
#174366=ORIENTED_EDGE('',*,*,#174326,.F.);
#174367=ORIENTED_EDGE('',*,*,#174362,.F.);
#174368=FACE_OUTER_BOUND('',#174363,.T.);
#174369=ADVANCED_FACE('PartBody',(#174368),#174343,.T.);
#174370=CARTESIAN_POINT('Axis2P3D Location',(9361.623137869999,-2657.84051865,59.730553473));
#174371=DIRECTION('Axis2P3D Direction',(0.6382819398780767,-0.7590726387160911,0.1280815926590154));
#174372=DIRECTION('Axis2P3D XDirection',(0.7698026794090983,0.6293851259650803,-0.1061988605800136));
#174373=AXIS2_PLACEMENT_3D('Plane Axis2P3D',#174370,#174371,#174372);
#174374=PLANE('',#174373);
#174375=CARTESIAN_POINT('Line Origine',(9342.911113579999,-2673.17571252,62.09639765));
#174376=DIRECTION('Vector Direction',(0.03596363245361264,0.1956043050130687,0.9800232512553445));
#174377=VECTOR('Line Direction',#174376,1.);
#174378=LINE('Line',#174375,#174377);
#174379=CARTESIAN_POINT('Vertex',(9342.862418819999,-2673.44056075,60.7694461678));
#174380=VERTEX_POINT('',#174379);
#174381=CARTESIAN_POINT('Vertex',(9342.95980834,-2672.91086429,63.4233491322));
#174382=VERTEX_POINT('',#174381);
#174383=EDGE_CURVE('',#174380,#174382,#174378,.T.);
#174384=CARTESIAN_POINT('Line Origine',(9361.623137869999,-2657.84051865,59.7305534731));
#174385=DIRECTION('Vector Direction',(0.7689621462508902,0.6209248626139113,-0.1521497046369783));
#174386=VECTOR('Line Direction',#174385,1.);
#174387=LINE('Line',#174384,#174386);
#174388=EDGE_CURVE('',#174382,#174351,#174387,.T.);
#174389=CARTESIAN_POINT('Line Origine',(9361.525748350001,-2658.37021511,57.0766505087));
#174390=DIRECTION('Vector Direction',(0.7689621462508902,0.6209248626139113,-0.1521497046369783));
#174391=VECTOR('Line Direction',#174390,1.);
#174392=LINE('Line',#174389,#174391);
#174393=EDGE_CURVE('',#174380,#174349,#174392,.T.);
#174394=EDGE_LOOP('',(#174395,#174396,#174397,#174398));
#174395=ORIENTED_EDGE('',*,*,#174383,.T.);
#174396=ORIENTED_EDGE('',*,*,#174388,.T.);
#174397=ORIENTED_EDGE('',*,*,#174352,.F.);
#174398=ORIENTED_EDGE('',*,*,#174393,.F.);
#174399=FACE_OUTER_BOUND('',#174394,.T.);
#174400=ADVANCED_FACE('PartBody',(#174399),#174374,.F.);
#174401=CARTESIAN_POINT('Axis2P3D Location',(9355.725447139999,-2688.09231706,65.9849809854));
#174402=DIRECTION('Axis2P3D Direction',(0.03596363245351276,0.1956043050130694,0.9800232512553479));
#174403=DIRECTION('Axis2P3D XDirection',(0.7902786524718752,-0.6058145913689044,0.09191481018728548));
#174404=AXIS2_PLACEMENT_3D('Cylinder Axis2P3D',#174401,#174402,#174403);
#174405=CYLINDRICAL_SURFACE('generated cylinder',#174404,20.);
#174406=CARTESIAN_POINT('Line Origine',(9337.588317260001,-2679.88639347,63.6311216198));
#174407=DIRECTION('Vector Direction',(0.0359636324537125,0.195604305013068,0.9800232512553407));
#174408=VECTOR('Line Direction',#174407,1.);
#174409=LINE('Line',#174406,#174408);
#174410=CARTESIAN_POINT('Vertex',(9337.5396225,-2680.1512417,62.3041701376));
#174411=VERTEX_POINT('',#174410);
#174412=CARTESIAN_POINT('Vertex',(9337.637012020001,-2679.62154524,64.958073102));
#174413=VERTEX_POINT('',#174412);
#174414=EDGE_CURVE('',#174411,#174413,#174409,.T.);
#174415=CARTESIAN_POINT('Axis2P3D Location',(9355.725447139999,-2688.09231706,65.9849809854));
#174416=DIRECTION('Axis2P3D Direction',(0.03596363245351276,0.1956043050130694,0.9800232512553479));
#174417=AXIS2_PLACEMENT_3D('Circle Axis2P3D',#174415,#174416,$);
#174418=CIRCLE('generated circle',#174417,20.);
#174419=EDGE_CURVE('',#174413,#174382,#174418,.F.);
#174420=CARTESIAN_POINT('Axis2P3D Location',(9355.628057620001,-2688.62201352,63.331078021));
#174421=DIRECTION('Axis2P3D Direction',(0.03596363245351276,0.1956043050130694,0.9800232512553479));
#174422=AXIS2_PLACEMENT_3D('Circle Axis2P3D',#174420,#174421,$);
#174423=CIRCLE('generated circle',#174422,20.);
#174424=EDGE_CURVE('',#174411,#174380,#174423,.F.);
#174425=EDGE_LOOP('',(#174426,#174427,#174428,#174429));
#174426=ORIENTED_EDGE('',*,*,#174414,.T.);
#174427=ORIENTED_EDGE('',*,*,#174419,.T.);
#174428=ORIENTED_EDGE('',*,*,#174383,.F.);
#174429=ORIENTED_EDGE('',*,*,#174424,.F.);
#174430=FACE_OUTER_BOUND('',#174425,.T.);
#174431=ADVANCED_FACE('PartBody',(#174430),#174405,.T.);
#174432=CARTESIAN_POINT('Axis2P3D Location',(9332.958851769999,-2689.35493572,67.07244815679999));
#174433=DIRECTION('Axis2P3D Direction',(-0.9044217558351737,0.4235385910040813,-0.05134539416830986));
#174434=DIRECTION('Axis2P3D XDirection',(0.4266395288438701,0.8978481604317264,-0.1088457313689668));
#174435=AXIS2_PLACEMENT_3D('Plane Axis2P3D',#174432,#174433,#174434);
#174436=PLANE('',#174435);
#174437=CARTESIAN_POINT('Line Origine',(9328.23199676,-2699.35317443,67.8598717294));
#174438=DIRECTION('Vector Direction',(0.03596363245301341,0.195604305013073,0.9800232512553656));
#174439=VECTOR('Line Direction',#174438,1.);
#174440=LINE('Line',#174437,#174439);
#174441=CARTESIAN_POINT('Vertex',(9328.183301999999,-2699.61802266,66.5329202472));
#174442=VERTEX_POINT('',#174441);
#174443=CARTESIAN_POINT('Vertex',(9328.280691510001,-2699.0883262,69.1868232116));
#174444=VERTEX_POINT('',#174443);
#174445=EDGE_CURVE('',#174442,#174444,#174440,.T.);
#174446=CARTESIAN_POINT('Line Origine',(9332.958851769999,-2689.35493572,67.07244815679999));
#174447=DIRECTION('Vector Direction',(0.4251210471297904,0.884507782775564,-0.1921407752059053));
#174448=VECTOR('Line Direction',#174447,1.);
#174449=LINE('Line',#174446,#174448);
#174450=EDGE_CURVE('',#174444,#174413,#174449,.T.);
#174451=CARTESIAN_POINT('Line Origine',(9332.861462250001,-2689.88463218,64.4185451924));
#174452=DIRECTION('Vector Direction',(0.4251210471297904,0.884507782775564,-0.1921407752059053));
#174453=VECTOR('Line Direction',#174452,1.);
#174454=LINE('Line',#174451,#174453);
#174455=EDGE_CURVE('',#174442,#174411,#174454,.T.);
#174456=EDGE_LOOP('',(#174457,#174458,#174459,#174460));
#174457=ORIENTED_EDGE('',*,*,#174445,.T.);
#174458=ORIENTED_EDGE('',*,*,#174450,.T.);
#174459=ORIENTED_EDGE('',*,*,#174414,.F.);
#174460=ORIENTED_EDGE('',*,*,#174455,.F.);
#174461=FACE_OUTER_BOUND('',#174456,.T.);
#174462=ADVANCED_FACE('PartBody',(#174461),#174436,.T.);
#174463=CARTESIAN_POINT('Axis2P3D Location',(9339.133752580001,-2704.17078929,69.8029679417));
#174464=DIRECTION('Axis2P3D Direction',(0.03596363245351276,0.1956043050130694,0.9800232512553479));
#174465=DIRECTION('Axis2P3D XDirection',(0.9753315595056596,-0.220591264962923,0.008236677383257125));
#174466=AXIS2_PLACEMENT_3D('Cylinder Axis2P3D',#174463,#174464,#174465);
#174467=CYLINDRICAL_SURFACE('generated cylinder',#174466,12.);
#174468=CARTESIAN_POINT('Line Origine',(9327.09282063,-2704.35116718,68.8992325903));
#174469=DIRECTION('Vector Direction',(0.0359636324537125,0.195604305013068,0.9800232512553407));
#174470=VECTOR('Line Direction',#174469,1.);
#174471=LINE('Line',#174468,#174470);
#174472=CARTESIAN_POINT('Vertex',(9327.04412588,-2704.61601541,67.5722811081));
#174473=VERTEX_POINT('',#174472);
#174474=CARTESIAN_POINT('Vertex',(9327.14151539,-2704.08631895,70.2261840725));
#174475=VERTEX_POINT('',#174474);
#174476=EDGE_CURVE('',#174473,#174475,#174471,.T.);
#174477=CARTESIAN_POINT('Axis2P3D Location',(9339.133752580001,-2704.17078929,69.8029679417));
#174478=DIRECTION('Axis2P3D Direction',(0.03596363245351276,0.1956043050130694,0.9800232512553479));
#174479=AXIS2_PLACEMENT_3D('Circle Axis2P3D',#174477,#174478,$);
#174480=CIRCLE('generated circle',#174479,12.);
#174481=EDGE_CURVE('',#174475,#174444,#174480,.F.);
#174482=CARTESIAN_POINT('Axis2P3D Location',(9339.036363069999,-2704.70048575,67.1490649773));
#174483=DIRECTION('Axis2P3D Direction',(0.03596363245351276,0.1956043050130694,0.9800232512553479));
#174484=AXIS2_PLACEMENT_3D('Circle Axis2P3D',#174482,#174483,$);
#174485=CIRCLE('generated circle',#174484,12.);
#174486=EDGE_CURVE('',#174473,#174442,#174485,.F.);
#174487=EDGE_LOOP('',(#174488,#174489,#174490,#174491));
#174488=ORIENTED_EDGE('',*,*,#174476,.T.);
#174489=ORIENTED_EDGE('',*,*,#174481,.T.);
#174490=ORIENTED_EDGE('',*,*,#174445,.F.);
#174491=ORIENTED_EDGE('',*,*,#174486,.F.);
#174492=FACE_OUTER_BOUND('',#174487,.T.);
#174493=ADVANCED_FACE('PartBody',(#174492),#174467,.T.);
#174494=CARTESIAN_POINT('Axis2P3D Location',(9327.14151539,-2720.88519694,73.5790972313));
#174495=DIRECTION('Axis2P3D Direction',(-0.9993530993301356,0.007039194991920955,0.03526801090390479));
#174496=DIRECTION('Axis2P3D XDirection',(0.03596363245348463,0.1956043050169164,0.9800232512545811));
#174497=AXIS2_PLACEMENT_3D('Plane Axis2P3D',#174494,#174495,#174496);
#174498=PLANE('',#174497);
#174499=CARTESIAN_POINT('Line Origine',(9327.09282063,-2737.94892317,75.605058908));
#174500=DIRECTION('Vector Direction',(0.03596363245361264,0.1956043050130687,0.9800232512553445));
#174501=VECTOR('Line Direction',#174500,1.);
#174502=LINE('Line',#174499,#174501);
#174503=CARTESIAN_POINT('Vertex',(9327.04412588,-2738.2137714,74.2781074258));
#174504=VERTEX_POINT('',#174503);
#174505=CARTESIAN_POINT('Vertex',(9327.14151539,-2737.68407494,76.93201039020001));
#174506=VERTEX_POINT('',#174505);
#174507=EDGE_CURVE('',#174504,#174506,#174502,.T.);
#174508=CARTESIAN_POINT('Line Origine',(9327.14151539,-2720.88519694,73.5790972313));
#174509=DIRECTION('Vector Direction',(1.061860116520063e-13,0.9806576393390577,-0.1957309234790115));
#174510=VECTOR('Line Direction',#174509,1.);
#174511=LINE('Line',#174508,#174510);
#174512=EDGE_CURVE('',#174506,#174475,#174511,.T.);
#174513=CARTESIAN_POINT('Line Origine',(9327.04412588,-2721.4148934,70.92519426689999));
#174514=DIRECTION('Vector Direction',(1.592790174790094e-13,0.9806576393390577,-0.1957309234790115));
#174515=VECTOR('Line Direction',#174514,1.);
#174516=LINE('Line',#174513,#174515);
#174517=EDGE_CURVE('',#174504,#174473,#174516,.T.);
#174518=EDGE_LOOP('',(#174519,#174520,#174521,#174522));
#174519=ORIENTED_EDGE('',*,*,#174507,.T.);
#174520=ORIENTED_EDGE('',*,*,#174512,.T.);
#174521=ORIENTED_EDGE('',*,*,#174476,.F.);
#174522=ORIENTED_EDGE('',*,*,#174517,.F.);
#174523=FACE_OUTER_BOUND('',#174518,.T.);
#174524=ADVANCED_FACE('PartBody',(#174523),#174498,.T.);
#174525=CARTESIAN_POINT('Axis2P3D Location',(9339.133752580001,-2737.76854528,76.5087942593));
#174526=DIRECTION('Axis2P3D Direction',(0.03596363245351276,0.1956043050130694,0.9800232512553479));
#174527=DIRECTION('Axis2P3D XDirection',(0.7462788275297479,0.6469704199967815,-0.1565157731029471));
#174528=AXIS2_PLACEMENT_3D('Cylinder Axis2P3D',#174525,#174526,#174527);
#174529=CYLINDRICAL_SURFACE('generated cylinder',#174528,12.);
#174530=CARTESIAN_POINT('Line Origine',(9337.702272590001,-2749.71305262,77.563747064));
#174531=DIRECTION('Vector Direction',(0.0359636324537125,0.195604305013068,0.9800232512553407));
#174532=VECTOR('Line Direction',#174531,1.);
#174533=LINE('Line',#174530,#174532);
#174534=CARTESIAN_POINT('Vertex',(9337.65357783,-2749.97790085,76.2367955818));
#174535=VERTEX_POINT('',#174534);
#174536=CARTESIAN_POINT('Vertex',(9337.75096734,-2749.44820439,78.8906985462));
#174537=VERTEX_POINT('',#174536);
#174538=EDGE_CURVE('',#174535,#174537,#174533,.T.);
#174539=CARTESIAN_POINT('Axis2P3D Location',(9339.133752580001,-2737.76854528,76.5087942593));
#174540=DIRECTION('Axis2P3D Direction',(0.03596363245351276,0.1956043050130694,0.9800232512553479));
#174541=AXIS2_PLACEMENT_3D('Circle Axis2P3D',#174539,#174540,$);
#174542=CIRCLE('generated circle',#174541,12.);
#174543=EDGE_CURVE('',#174537,#174506,#174542,.F.);
#174544=CARTESIAN_POINT('Axis2P3D Location',(9339.036363069999,-2738.29824174,73.8548912949));
#174545=DIRECTION('Axis2P3D Direction',(0.03596363245351276,0.1956043050130694,0.9800232512553479));
#174546=AXIS2_PLACEMENT_3D('Circle Axis2P3D',#174544,#174545,$);
#174547=CIRCLE('generated circle',#174546,12.);
#174548=EDGE_CURVE('',#174535,#174504,#174547,.F.);
#174549=EDGE_LOOP('',(#174550,#174551,#174552,#174553));
#174550=ORIENTED_EDGE('',*,*,#174538,.T.);
#174551=ORIENTED_EDGE('',*,*,#174543,.T.);
#174552=ORIENTED_EDGE('',*,*,#174507,.F.);
#174553=ORIENTED_EDGE('',*,*,#174548,.F.);
#174554=FACE_OUTER_BOUND('',#174549,.T.);
#174555=ADVANCED_FACE('PartBody',(#174554),#174529,.T.);
#174556=CARTESIAN_POINT('Axis2P3D Location',(9351.342169490001,-2751.09210273,78.7200542204));
#174557=DIRECTION('Axis2P3D Direction',(-0.115232103421979,-0.9733049259038226,0.1984920239009638));
#174558=DIRECTION('Axis2P3D XDirection',(0.9933385940055565,-0.1129081005809496,0.02302603922228972));
#174559=AXIS2_PLACEMENT_3D('Plane Axis2P3D',#174556,#174557,#174558);
#174560=PLANE('',#174559);
#174561=CARTESIAN_POINT('Line Origine',(9364.88467689,-2753.00084929,77.2224584124));
#174562=DIRECTION('Vector Direction',(0.03596363245361264,0.1956043050130687,0.9800232512553445));
#174563=VECTOR('Line Direction',#174562,1.);
#174564=LINE('Line',#174561,#174563);
#174565=CARTESIAN_POINT('Vertex',(9364.83598213,-2753.26569752,75.8955069302));
#174566=VERTEX_POINT('',#174565);
#174567=CARTESIAN_POINT('Vertex',(9364.93337165,-2752.73600106,78.5494098946));
#174568=VERTEX_POINT('',#174567);
#174569=EDGE_CURVE('',#174566,#174568,#174564,.T.);
#174570=CARTESIAN_POINT('Line Origine',(9351.342169490001,-2751.09210273,78.7200542204));
#174571=DIRECTION('Vector Direction',(-0.9926873523329116,0.1200686348369893,0.01246368511539889));
#174572=VECTOR('Line Direction',#174571,1.);
#174573=LINE('Line',#174570,#174572);
#174574=EDGE_CURVE('',#174568,#174537,#174573,.T.);
#174575=CARTESIAN_POINT('Line Origine',(9351.244779979999,-2751.62179919,76.066151256));
#174576=DIRECTION('Vector Direction',(-0.9926873523329116,0.1200686348369893,0.01246368511539889));
#174577=VECTOR('Line Direction',#174576,1.);
#174578=LINE('Line',#174575,#174577);
#174579=EDGE_CURVE('',#174566,#174535,#174578,.T.);
#174580=EDGE_LOOP('',(#174581,#174582,#174583,#174584));
#174581=ORIENTED_EDGE('',*,*,#174569,.T.);
#174582=ORIENTED_EDGE('',*,*,#174574,.T.);
#174583=ORIENTED_EDGE('',*,*,#174538,.F.);
#174584=ORIENTED_EDGE('',*,*,#174579,.F.);
#174585=FACE_OUTER_BOUND('',#174580,.T.);
#174586=ADVANCED_FACE('PartBody',(#174585),#174560,.T.);
#174587=CARTESIAN_POINT('Axis2P3D Location',(9366.31615689,-2741.05634195,76.1675056078));
#174588=DIRECTION('Axis2P3D Direction',(0.03596363245351276,0.1956043050130694,0.9800232512553479));
#174589=DIRECTION('Axis2P3D XDirection',(-0.6646612134927371,0.7369994786357086,-0.1227079450119515));
#174590=AXIS2_PLACEMENT_3D('Cylinder Axis2P3D',#174587,#174588,#174589);
#174591=CYLINDRICAL_SURFACE('generated cylinder',#174590,12.);
#174592=CARTESIAN_POINT('Line Origine',(9378.25969932,-2741.40566052,74.41733799470001));
#174593=DIRECTION('Vector Direction',(0.0359636324537125,0.195604305013068,0.9800232512553407));
#174594=VECTOR('Line Direction',#174593,1.);
#174595=LINE('Line',#174592,#174594);
#174596=CARTESIAN_POINT('Vertex',(9378.21100456,-2741.67050875,73.0903865125));
#174597=VERTEX_POINT('',#174596);
#174598=CARTESIAN_POINT('Vertex',(9378.308394080001,-2741.14081229,75.74428947689999));
#174599=VERTEX_POINT('',#174598);
#174600=EDGE_CURVE('',#174597,#174599,#174595,.T.);
#174601=CARTESIAN_POINT('Axis2P3D Location',(9366.31615689,-2741.05634195,76.1675056078));
#174602=DIRECTION('Axis2P3D Direction',(0.03596363245351276,0.1956043050130694,0.9800232512553479));
#174603=AXIS2_PLACEMENT_3D('Circle Axis2P3D',#174601,#174602,$);
#174604=CIRCLE('generated circle',#174603,12.);
#174605=EDGE_CURVE('',#174599,#174568,#174604,.F.);
#174606=CARTESIAN_POINT('Axis2P3D Location',(9366.218767369999,-2741.58603841,73.51360264340001));
#174607=DIRECTION('Axis2P3D Direction',(0.03596363245351276,0.1956043050130694,0.9800232512553479));
#174608=AXIS2_PLACEMENT_3D('Circle Axis2P3D',#174606,#174607,$);
#174609=CIRCLE('generated circle',#174608,12.);
#174610=EDGE_CURVE('',#174597,#174566,#174609,.F.);
#174611=EDGE_LOOP('',(#174612,#174613,#174614,#174615));
#174612=ORIENTED_EDGE('',*,*,#174600,.T.);
#174613=ORIENTED_EDGE('',*,*,#174605,.T.);
#174614=ORIENTED_EDGE('',*,*,#174569,.F.);
#174615=ORIENTED_EDGE('',*,*,#174610,.F.);
#174616=FACE_OUTER_BOUND('',#174611,.T.);
#174617=ADVANCED_FACE('PartBody',(#174616),#174591,.T.);
#174618=CARTESIAN_POINT('Axis2P3D Location',(9378.308394080001,-2726.68814006,72.8596590313));
#174619=DIRECTION('Axis2P3D Direction',(0.9993530993301369,-0.007039194991730964,-0.03526801090390483));
#174620=DIRECTION('Axis2P3D XDirection',(0.03596363245348455,0.195604305011916,0.9800232512555791));
#174621=AXIS2_PLACEMENT_3D('Plane Axis2P3D',#174618,#174619,#174620);
#174622=PLANE('',#174621);
#174623=CARTESIAN_POINT('Line Origine',(9378.25969932,-2712.50031605,68.6480771036));
#174624=DIRECTION('Vector Direction',(0.03596363245358443,0.1956043050119153,0.9800232512555757));
#174625=VECTOR('Line Direction',#174624,1.);
#174626=LINE('Line',#174623,#174625);
#174627=CARTESIAN_POINT('Vertex',(9378.21100456,-2712.76516428,67.3211256214));
#174628=VERTEX_POINT('',#174627);
#174629=CARTESIAN_POINT('Vertex',(9378.308394080001,-2712.23546783,69.9750285858));
#174630=VERTEX_POINT('',#174629);
#174631=EDGE_CURVE('',#174628,#174630,#174626,.T.);
#174632=CARTESIAN_POINT('Line Origine',(9378.308394080001,-2726.68814006,72.8596590313));
#174633=DIRECTION('Vector Direction',(0,-0.9806576393390577,0.1957309234790115));
#174634=VECTOR('Line Direction',#174633,1.);
#174635=LINE('Line',#174632,#174634);
#174636=EDGE_CURVE('',#174630,#174599,#174635,.T.);
#174637=CARTESIAN_POINT('Line Origine',(9378.21100456,-2727.21783652,70.20575606689999));
#174638=DIRECTION('Vector Direction',(6.171197359070364e-14,-0.9806576393390577,0.1957309234790115));
#174639=VECTOR('Line Direction',#174638,1.);
#174640=LINE('Line',#174637,#174639);
#174641=EDGE_CURVE('',#174628,#174597,#174640,.T.);
#174642=EDGE_LOOP('',(#174643,#174644,#174645,#174646));
#174643=ORIENTED_EDGE('',*,*,#174631,.T.);
#174644=ORIENTED_EDGE('',*,*,#174636,.T.);
#174645=ORIENTED_EDGE('',*,*,#174600,.F.);
#174646=ORIENTED_EDGE('',*,*,#174641,.F.);
#174647=FACE_OUTER_BOUND('',#174642,.T.);
#174648=ADVANCED_FACE('PartBody',(#174647),#174622,.T.);
#174649=CARTESIAN_POINT('Axis2P3D Location',(9363.745053140001,-2699.17488872,65.1394750897));
#174650=DIRECTION('Axis2P3D Direction',(0.03596363245351276,0.1956043050130694,0.9800232512553479));
#174651=DIRECTION('Axis2P3D XDirection',(0.4383268749917592,0.8782072072075174,-0.1913678443958948));
#174652=AXIS2_PLACEMENT_3D('Plane Axis2P3D',#174649,#174650,#174651);
#174653=PLANE('',#174652);
#174654=B_SPLINE_CURVE_WITH_KNOTS('',1,(#174655,#174656),.UNSPECIFIED.,.F.,.U.,(2,2),(-16.2761888444,48.1093790424),.UNSPECIFIED.);
#174655=CARTESIAN_POINT('Control Point',(9391.47181816,-2704.03265141,65.0915620514));
#174656=CARTESIAN_POINT('Control Point',(9391.47181816,-2640.89245239,52.4893153902));
#174657=CARTESIAN_POINT('Vertex',(9391.47181816,-2704.03265141,65.0915620514));
#174658=VERTEX_POINT('',#174657);
#174659=EDGE_CURVE('',#174658,#174287,#174654,.T.);
#174660=B_SPLINE_CURVE_WITH_KNOTS('',1,(#174661,#174662),.UNSPECIFIED.,.F.,.U.,(2,2),(-2.13469879123,2.13469879123),.UNSPECIFIED.);
#174661=CARTESIAN_POINT('Control Point',(9391.47181816,-2704.03265141,65.0915620514));
#174662=CARTESIAN_POINT('Control Point',(9387.20518246,-2704.00259828,65.24213521190001));
#174663=CARTESIAN_POINT('Vertex',(9387.20518246,-2704.00259828,65.24213521190001));
#174664=VERTEX_POINT('',#174663);
#174665=EDGE_CURVE('',#174658,#174664,#174660,.T.);
#174666=B_SPLINE_CURVE_WITH_KNOTS('',5,(#174667,#174668,#174669,#174670,#174671,#174672),.UNSPECIFIED.,.F.,.U.,(6,6),(4.08646847562,18.2236354167),.UNSPECIFIED.);
#174667=CARTESIAN_POINT('Control Point',(9387.20518246,-2704.00259828,65.24213521190001));
#174668=CARTESIAN_POINT('Control Point',(9384.37957814,-2703.98269543,65.34185316350001));
#174669=CARTESIAN_POINT('Control Point',(9381.55133751,-2705.04849444,65.6583647157));
#174670=CARTESIAN_POINT('Control Point',(9379.317423390001,-2707.22488233,66.1747305336));
#174671=CARTESIAN_POINT('Control Point',(9378.21100456,-2709.99242013,66.7677094732));
#174672=CARTESIAN_POINT('Control Point',(9378.21100456,-2712.76516428,67.3211256214));
#174673=EDGE_CURVE('',#174664,#174628,#174666,.T.);
#174674=EDGE_LOOP('',(#174675,#174676,#174677,#174678,#174679,#174680,#174681,#174682,#174683,#174684,#174685,#174686,#174687,#174688));
#174675=ORIENTED_EDGE('',*,*,#174659,.F.);
#174676=ORIENTED_EDGE('',*,*,#174665,.T.);
#174677=ORIENTED_EDGE('',*,*,#174673,.T.);
#174678=ORIENTED_EDGE('',*,*,#174641,.T.);
#174679=ORIENTED_EDGE('',*,*,#174610,.T.);
#174680=ORIENTED_EDGE('',*,*,#174579,.T.);
#174681=ORIENTED_EDGE('',*,*,#174548,.T.);
#174682=ORIENTED_EDGE('',*,*,#174517,.T.);
#174683=ORIENTED_EDGE('',*,*,#174486,.T.);
#174684=ORIENTED_EDGE('',*,*,#174455,.T.);
#174685=ORIENTED_EDGE('',*,*,#174424,.T.);
#174686=ORIENTED_EDGE('',*,*,#174393,.T.);
#174687=ORIENTED_EDGE('',*,*,#174362,.T.);
#174688=ORIENTED_EDGE('',*,*,#174319,.F.);
#174689=FACE_OUTER_BOUND('',#174674,.T.);
#174690=ADVANCED_FACE('PartBody',(#174689),#174653,.F.);
#174691=CARTESIAN_POINT('Axis2P3D Location',(9391.291999999999,-2689.049304,57.0056923219));
#174692=DIRECTION('Axis2P3D Direction',(9.540979117870561e-18,0.9806576393390577,-0.1957309234790115));
#174693=DIRECTION('Axis2P3D XDirection',(-0.7197095360121026,-0.1358911444310194,-0.680846370805097));
#174694=AXIS2_PLACEMENT_3D('Cylinder Axis2P3D',#174691,#174692,#174693);
#174695=CYLINDRICAL_SURFACE('generated cylinder',#174694,5.);
#174696=CARTESIAN_POINT('Axis2P3D Location',(9391.291999999999,-2705.01067293,60.1914457952));
#174697=DIRECTION('Axis2P3D Direction',(9.540979117870561e-18,0.9806576393390577,-0.1957309234790115));
#174698=AXIS2_PLACEMENT_3D('Circle Axis2P3D',#174696,#174697,$);
#174699=CIRCLE('generated circle',#174698,5.);
#174700=EDGE_CURVE('',#174658,#174033,#174699,.T.);
#174701=EDGE_LOOP('',(#174702,#174703,#174704,#174705));
#174702=ORIENTED_EDGE('',*,*,#174700,.F.);
#174703=ORIENTED_EDGE('',*,*,#174659,.T.);
#174704=ORIENTED_EDGE('',*,*,#174300,.T.);
#174705=ORIENTED_EDGE('',*,*,#174182,.F.);
#174706=FACE_OUTER_BOUND('',#174701,.T.);
#174707=ADVANCED_FACE('PartBody',(#174706),#174695,.F.);
#174708=CARTESIAN_POINT('Axis2P3D Location',(9386.14349692,-2703.88788385,65.81688130569999));
#174709=DIRECTION('Axis2P3D Direction',(2.557849765330151e-14,0.9806576393390577,-0.1957309234790115));
#174710=DIRECTION('Axis2P3D XDirection',(0.9993530993301365,-0.007039194991800961,-0.03526801090390481));
#174711=AXIS2_PLACEMENT_3D('Plane Axis2P3D',#174708,#174709,#174710);
#174712=PLANE('',#174711);
#174713=CARTESIAN_POINT('Axis2P3D Location',(9391.291999999999,-2705.01067293,60.1914457952));
#174714=DIRECTION('Axis2P3D Direction',(2.557849765330151e-14,0.9806576393390577,-0.1957309234790115));
#174715=AXIS2_PLACEMENT_3D('Circle Axis2P3D',#174713,#174714,$);
#174716=CIRCLE('generated circle',#174715,7.708);
#174717=CARTESIAN_POINT('Vertex',(9391.569207680001,-2703.50295495,67.74546501579999));
#174718=VERTEX_POINT('',#174717);
#174719=EDGE_CURVE('',#174718,#174026,#174716,.T.);
#174720=CARTESIAN_POINT('Line Origine',(9391.52051292,-2703.76780318,66.41851353360001));
#174721=DIRECTION('Vector Direction',(0.03596363245361264,0.1956043050130687,0.9800232512553445));
#174722=VECTOR('Line Direction',#174721,1.);
#174723=LINE('Line',#174720,#174722);
#174724=EDGE_CURVE('',#174658,#174718,#174723,.T.);
#174725=EDGE_LOOP('',(#174726,#174727,#174728,#174729));
#174726=ORIENTED_EDGE('',*,*,#174700,.T.);
#174727=ORIENTED_EDGE('',*,*,#174034,.T.);
#174728=ORIENTED_EDGE('',*,*,#174719,.F.);
#174729=ORIENTED_EDGE('',*,*,#174724,.F.);
#174730=FACE_OUTER_BOUND('',#174725,.T.);
#174731=ADVANCED_FACE('PartBody',(#174730),#174712,.F.);
#174732=CARTESIAN_POINT('Axis2P3D Location',(9391.291999999999,-2689.049304,57.0056923219));
#174733=DIRECTION('Axis2P3D Direction',(9.540979117870561e-18,0.9806576393390577,-0.1957309234790115));
#174734=DIRECTION('Axis2P3D XDirection',(0.03596363245351276,0.1956043050130694,0.9800232512553479));
#174735=AXIS2_PLACEMENT_3D('Cylinder Axis2P3D',#174732,#174733,#174734);
#174736=CYLINDRICAL_SURFACE('generated cylinder',#174735,7.708);
#174737=CARTESIAN_POINT('Line Origine',(9391.569207680001,-2687.54158602,64.5597115426));
#174738=DIRECTION('Vector Direction',(0,0.9806576393390577,-0.1957309234790115));
#174739=VECTOR('Line Direction',#174738,1.);
#174740=LINE('Line',#174737,#174739);
#174741=EDGE_CURVE('',#174289,#174718,#174740,.F.);
#174742=EDGE_LOOP('',(#174743,#174744,#174745,#174746));
#174743=ORIENTED_EDGE('',*,*,#174248,.F.);
#174744=ORIENTED_EDGE('',*,*,#174295,.F.);
#174745=ORIENTED_EDGE('',*,*,#174741,.T.);
#174746=ORIENTED_EDGE('',*,*,#174719,.T.);
#174747=FACE_OUTER_BOUND('',#174742,.T.);
#174748=ADVANCED_FACE('PartBody',(#174747),#174736,.T.);
#174749=CARTESIAN_POINT('Axis2P3D Location',(9363.842442650001,-2698.64519226,67.7933780541));
#174750=DIRECTION('Axis2P3D Direction',(0.03596363245351276,0.1956043050130694,0.9800232512553479));
#174751=DIRECTION('Axis2P3D XDirection',(0.4383268749917592,0.8782072072075174,-0.1913678443958948));
#174752=AXIS2_PLACEMENT_3D('Plane Axis2P3D',#174749,#174750,#174751);
#174753=PLANE('',#174752);
#174754=CARTESIAN_POINT('Axis2P3D Location',(9387.30257197,-2712.29882058,69.6576164876));
#174755=DIRECTION('Axis2P3D Direction',(0.03596363245351276,0.1956043050130694,0.9800232512553479));
#174756=AXIS2_PLACEMENT_3D('Circle Axis2P3D',#174754,#174755,$);
#174757=CIRCLE('generated circle',#174756,9.);
#174758=CARTESIAN_POINT('Vertex',(9387.30257197,-2703.47290183,67.8960381763));
#174759=VERTEX_POINT('',#174758);
#174760=EDGE_CURVE('',#174759,#174630,#174757,.T.);
#174761=CARTESIAN_POINT('Line Origine',(9389.43588983,-2703.48792839,67.8207515961));
#174762=DIRECTION('Vector Direction',(-0.9993530993301374,0.007039194991680967,0.03526801090390485));
#174763=VECTOR('Line Direction',#174762,1.);
#174764=LINE('Line',#174761,#174763);
#174765=EDGE_CURVE('',#174718,#174759,#174764,.T.);
#174766=EDGE_LOOP('',(#174767,#174768,#174769,#174770,#174771,#174772,#174773,#174774,#174775,#174776,#174777,#174778,#174779,#174780));
#174767=ORIENTED_EDGE('',*,*,#174331,.T.);
#174768=ORIENTED_EDGE('',*,*,#174357,.F.);
#174769=ORIENTED_EDGE('',*,*,#174388,.F.);
#174770=ORIENTED_EDGE('',*,*,#174419,.F.);
#174771=ORIENTED_EDGE('',*,*,#174450,.F.);
#174772=ORIENTED_EDGE('',*,*,#174481,.F.);
#174773=ORIENTED_EDGE('',*,*,#174512,.F.);
#174774=ORIENTED_EDGE('',*,*,#174543,.F.);
#174775=ORIENTED_EDGE('',*,*,#174574,.F.);
#174776=ORIENTED_EDGE('',*,*,#174605,.F.);
#174777=ORIENTED_EDGE('',*,*,#174636,.F.);
#174778=ORIENTED_EDGE('',*,*,#174760,.F.);
#174779=ORIENTED_EDGE('',*,*,#174765,.F.);
#174780=ORIENTED_EDGE('',*,*,#174741,.F.);
#174781=FACE_OUTER_BOUND('',#174766,.T.);
#174782=ADVANCED_FACE('PartBody',(#174781),#174753,.T.);
#174783=CARTESIAN_POINT('Axis2P3D Location',(9387.30257197,-2712.29882058,69.6576164876));
#174784=DIRECTION('Axis2P3D Direction',(0.03596363245351276,0.1956043050130694,0.9800232512553479));
#174785=DIRECTION('Axis2P3D XDirection',(0.7066493533390261,-0.6984071293090257,0.1134644136100042));
#174786=AXIS2_PLACEMENT_3D('Cylinder Axis2P3D',#174783,#174784,#174785);
#174787=CYLINDRICAL_SURFACE('generated cylinder',#174786,9.);
#174788=CARTESIAN_POINT('Line Origine',(9387.25387721,-2703.73775006,66.56908669409999));
#174789=DIRECTION('Vector Direction',(0.0359636324537125,0.195604305013068,0.9800232512553407));
#174790=VECTOR('Line Direction',#174789,1.);
#174791=LINE('Line',#174788,#174790);
#174792=EDGE_CURVE('',#174664,#174759,#174791,.T.);
#174793=EDGE_LOOP('',(#174794,#174795,#174796,#174797));
#174794=ORIENTED_EDGE('',*,*,#174792,.T.);
#174795=ORIENTED_EDGE('',*,*,#174760,.T.);
#174796=ORIENTED_EDGE('',*,*,#174631,.F.);
#174797=ORIENTED_EDGE('',*,*,#174673,.F.);
#174798=FACE_OUTER_BOUND('',#174793,.T.);
#174799=ADVANCED_FACE('PartBody',(#174798),#174787,.F.);
#174800=CARTESIAN_POINT('Axis2P3D Location',(9389.43588983,-2703.48792839,67.8207515961));
#174801=DIRECTION('Axis2P3D Direction',(5.490226329120323e-14,-0.9806576393390577,0.1957309234790115));
#174802=DIRECTION('Axis2P3D XDirection',(1,5.38403239135e-14,-1.07460706951e-14));
#174803=AXIS2_PLACEMENT_3D('Plane Axis2P3D',#174800,#174801,#174802);
#174804=PLANE('',#174803);
#174805=EDGE_LOOP('',(#174806,#174807,#174808,#174809));
#174806=ORIENTED_EDGE('',*,*,#174724,.T.);
#174807=ORIENTED_EDGE('',*,*,#174765,.T.);
#174808=ORIENTED_EDGE('',*,*,#174792,.F.);
#174809=ORIENTED_EDGE('',*,*,#174665,.F.);
#174810=FACE_OUTER_BOUND('',#174805,.T.);
#174811=ADVANCED_FACE('PartBody',(#174810),#174804,.T.);
#174812=ADVANCED_BREP_SHAPE_REPRESENTATION('NONE',(#174004),#173668);

#174813=APPLICATION_CONTEXT('automotive_design');
#174814=APPLICATION_PROTOCOL_DEFINITION('international standard','automotive_design',2010,#174813);
#174815=PRODUCT_CONTEXT('',#174813,'mechanical');
#174816=PRODUCT_DEFINITION_CONTEXT('part definition',#174813,'design');
#174817=PRODUCT('part_043_V5311445620000','part_043_V5311445620000','',(#174815));
#174818=PRODUCT_DEFINITION_FORMATION('','',#174817);
#174819=PRODUCT_DEFINITION('design','',#174818,#174816);
#174820=PRODUCT_DEFINITION_SHAPE('','',#174819);
#174821=SHAPE_DEFINITION_REPRESENTATION(#174820,#174812);
ENDSEC;
END-ISO-10303-21;
